<?xml version="1.0" encoding="UTF-8"?>
<svg id="b" data-name="Layer 2" xmlns="http://www.w3.org/2000/svg" width="1078.5mm" height="1032.2mm" xmlns:xlink="http://www.w3.org/1999/xlink" viewBox="0 0 3057.2 2926">
  <defs>
    <linearGradient id="d" x1="550" y1="2201.3" x2="1453.8" y2="2201.3" gradientUnits="userSpaceOnUse">
      <stop offset="0" stop-color="#3a97d3"/>
      <stop offset="1" stop-color="#34b298"/>
    </linearGradient>
    <linearGradient id="e" x1="550.8" y1="1170.6" x2="1453.8" y2="1170.6" gradientUnits="userSpaceOnUse">
      <stop offset="0" stop-color="#3a97d3"/>
      <stop offset="1" stop-color="#f49c13"/>
    </linearGradient>
    <linearGradient id="f" x1="1592.9" y1="2200.4" x2="2471.4" y2="2200.4" gradientUnits="userSpaceOnUse">
      <stop offset="0" stop-color="#34b298"/>
      <stop offset="1" stop-color="#e72264"/>
    </linearGradient>
    <linearGradient id="g" x1="1592.9" y1="1171.5" x2="2470.6" y2="1171.5" gradientUnits="userSpaceOnUse">
      <stop offset="0" stop-color="#f49c13"/>
      <stop offset="1" stop-color="#e72264"/>
    </linearGradient>
  </defs>
  <g id="c" data-name="Layer 2">
    <g>
      <path d="M1453.8,2533.9v116.1c-484.1-28.2-872.2-414.1-903.8-897.3h116.2c31.3,419.1,367.6,753.3,787.7,781.2Z" fill="url(#d)"/>
      <path d="M1453.8,727.6v116.1c-416.3,27.6-750.3,356-786.8,769.9h-116.2c36.9-477.9,422.7-858,903-886Z" fill="url(#e)"/>
      <path d="M2471.4,1752.7c-31.1,474.8-406.3,855.6-878.6,895.4v-116.3c408.2-39.3,731.8-368.4,762.4-779.1h116.2Z" fill="url(#f)"/>
      <path d="M2470.6,1613.6h-116.3c-35.7-405.5-357-728.9-761.5-767.8v-116.4c468.6,39.6,841.6,414.7,877.8,884.2Z" fill="url(#g)"/>
      <g>
        <circle cx="1527.1" cy="795.7" r="356.5" fill="#f49c13"/>
        <g>
          <path d="M1387.2,730.2v-45.7h4l31.5,39.7h-2.1v-39.7h4.8v45.7h-4l-31.4-39.7h2.1v39.7h-4.8Z" fill="#fff"/>
          <path d="M1458.6,730.5c-5.8,0-10.4-1.7-13.8-5-3.3-3.3-5-8.3-5-14.9v-26.2h4.8v26c0,5.4,1.2,9.4,3.7,11.9,2.4,2.6,5.9,3.8,10.3,3.8s7.9-1.3,10.4-3.8c2.4-2.6,3.7-6.5,3.7-11.9v-26h4.7v26.2c0,6.6-1.7,11.5-5,14.9-3.3,3.3-7.9,5-13.7,5Z" fill="#fff"/>
          <path d="M1491.8,730.2v-45.7h17.1c5.8,0,10.3,1.4,13.7,4.1,3.3,2.8,5,6.6,5,11.5s-.8,6-2.3,8.3c-1.5,2.3-3.6,4.1-6.4,5.3-2.8,1.2-6.1,1.9-10,1.9h-14.4l2.2-2.2v16.7h-4.8ZM1496.7,713.9l-2.2-2.3h14.3c4.6,0,8-1,10.4-3,2.4-2,3.6-4.8,3.6-8.4s-1.2-6.5-3.6-8.5c-2.4-2-5.8-3-10.4-3h-14.3l2.2-2.3v27.5ZM1523,730.2l-11.7-16.6h5.2l11.8,16.6h-5.3Z" fill="#fff"/>
          <path d="M1551.6,730.5c-3.4,0-6.6-.6-9.8-1.7-3.1-1.1-5.5-2.5-7.2-4.3l1.9-3.7c1.6,1.6,3.8,2.9,6.5,3.9,2.7,1.1,5.6,1.6,8.6,1.6s5.2-.4,7-1.1c1.8-.7,3.1-1.7,4-2.9.8-1.2,1.3-2.6,1.3-4s-.5-3.2-1.5-4.3c-1-1.1-2.4-1.9-4-2.6-1.7-.6-3.5-1.2-5.5-1.7-2-.5-4-1-6-1.5-2-.5-3.8-1.3-5.5-2.2-1.7-.9-3-2.1-4-3.6-1-1.5-1.5-3.5-1.5-5.9s.6-4.3,1.8-6.2c1.2-1.9,3-3.4,5.5-4.6,2.5-1.2,5.7-1.7,9.5-1.7s5.1.4,7.6,1.1c2.5.7,4.7,1.7,6.5,3l-1.6,3.8c-2-1.3-4-2.3-6.2-2.9-2.2-.6-4.3-.9-6.4-.9s-5,.4-6.8,1.1c-1.8.7-3.1,1.7-3.9,3-.8,1.2-1.3,2.6-1.3,4.2s.5,3.2,1.5,4.3c1,1.1,2.4,1.9,4,2.5,1.7.6,3.5,1.2,5.5,1.6,2,.5,4,1,6,1.6,2,.6,3.8,1.3,5.5,2.2,1.7.9,3,2.1,4,3.6,1,1.5,1.5,3.4,1.5,5.8s-.6,4.3-1.8,6.2c-1.2,1.9-3.1,3.4-5.6,4.6-2.5,1.2-5.7,1.7-9.6,1.7Z" fill="#fff"/>
          <path d="M1579.1,730.2v-45.7h31.3v4.2h-26.5v37.3h27.5v4.2h-32.3ZM1583.4,709v-4.1h24.1v4.1h-24.1Z" fill="#fff"/>
          <path d="M1635.3,730.5c-3.4,0-6.6-.6-9.8-1.7-3.1-1.1-5.5-2.5-7.2-4.3l1.9-3.7c1.6,1.6,3.8,2.9,6.5,3.9,2.7,1.1,5.6,1.6,8.6,1.6s5.2-.4,7-1.1c1.8-.7,3.1-1.7,4-2.9.8-1.2,1.3-2.6,1.3-4s-.5-3.2-1.5-4.3c-1-1.1-2.4-1.9-4-2.6-1.7-.6-3.5-1.2-5.5-1.7-2-.5-4-1-6-1.5-2-.5-3.8-1.3-5.5-2.2-1.7-.9-3-2.1-4-3.6-1-1.5-1.5-3.5-1.5-5.9s.6-4.3,1.8-6.2c1.2-1.9,3-3.4,5.5-4.6,2.5-1.2,5.7-1.7,9.5-1.7s5.1.4,7.6,1.1c2.5.7,4.7,1.7,6.5,3l-1.6,3.8c-2-1.3-4-2.3-6.2-2.9-2.2-.6-4.3-.9-6.4-.9s-5,.4-6.8,1.1c-1.8.7-3.1,1.7-3.9,3-.8,1.2-1.3,2.6-1.3,4.2s.5,3.2,1.5,4.3c1,1.1,2.4,1.9,4,2.5,1.7.6,3.5,1.2,5.5,1.6,2,.5,4,1,6,1.6,2,.6,3.8,1.3,5.5,2.2,1.7.9,3,2.1,4,3.6,1,1.5,1.5,3.4,1.5,5.8s-.6,4.3-1.8,6.2c-1.2,1.9-3.1,3.4-5.6,4.6-2.5,1.2-5.7,1.7-9.6,1.7Z" fill="#fff"/>
          <path d="M1293.3,808.8c-3.4,0-6.6-.6-9.6-1.7-2.9-1.2-5.5-2.8-7.6-4.9-2.2-2.1-3.8-4.6-5-7.4-1.2-2.8-1.8-5.9-1.8-9.2s.6-6.4,1.8-9.2c1.2-2.8,2.9-5.3,5-7.4,2.2-2.1,4.7-3.7,7.6-4.9,2.9-1.2,6.1-1.7,9.6-1.7s6.6.6,9.5,1.7c2.9,1.2,5.4,2.8,7.6,4.9,2.2,2.1,3.8,4.5,5,7.4,1.2,2.8,1.8,5.9,1.8,9.3s-.6,6.4-1.8,9.3c-1.2,2.8-2.9,5.3-5,7.4s-4.7,3.7-7.6,4.9c-2.9,1.2-6.1,1.7-9.5,1.7ZM1293.3,804.5c2.7,0,5.3-.5,7.6-1.4,2.3-.9,4.3-2.3,6.1-4,1.7-1.7,3.1-3.7,4-6,1-2.3,1.4-4.8,1.4-7.5s-.5-5.2-1.4-7.5c-1-2.3-2.3-4.3-4-6-1.7-1.7-3.7-3-6.1-4-2.3-.9-4.9-1.4-7.6-1.4s-5.3.5-7.6,1.4c-2.3.9-4.4,2.3-6.1,4-1.7,1.7-3.1,3.7-4,6-1,2.3-1.5,4.8-1.5,7.5s.5,5.2,1.5,7.5c1,2.3,2.3,4.3,4,6,1.7,1.7,3.8,3,6.1,4,2.3.9,4.9,1.4,7.6,1.4Z" fill="#fff"/>
          <path d="M1328,808.4v-45.7h4l31.5,39.7h-2.1v-39.7h4.8v45.7h-4l-31.4-39.7h2.1v39.7h-4.8Z" fill="#fff"/>
          <path d="M1400.9,808.8c-3.4,0-6.6-.6-9.5-1.7-2.9-1.2-5.4-2.8-7.6-4.9-2.1-2.1-3.8-4.5-5-7.4-1.2-2.8-1.8-5.9-1.8-9.3s.6-6.4,1.8-9.3c1.2-2.8,2.9-5.3,5-7.4,2.2-2.1,4.7-3.7,7.6-4.9,2.9-1.2,6.1-1.7,9.5-1.7s6.4.6,9.3,1.7c2.9,1.1,5.4,2.8,7.4,5l-3.1,3.1c-1.9-1.9-3.9-3.3-6.2-4.1-2.3-.8-4.7-1.3-7.3-1.3s-5.3.5-7.6,1.4c-2.3.9-4.4,2.3-6.1,4-1.7,1.7-3.1,3.7-4.1,6-1,2.3-1.5,4.8-1.5,7.5s.5,5.2,1.5,7.5c1,2.3,2.3,4.3,4.1,6,1.7,1.7,3.8,3,6.1,4,2.3.9,4.9,1.4,7.6,1.4s5-.4,7.3-1.3c2.3-.9,4.3-2.3,6.2-4.2l3.1,3.1c-2,2.2-4.5,3.9-7.4,5-2.9,1.1-6,1.7-9.4,1.7Z" fill="#fff"/>
          <path d="M1447.3,808.8c-3.4,0-6.6-.6-9.6-1.7-2.9-1.2-5.5-2.8-7.6-4.9-2.2-2.1-3.8-4.6-5-7.4-1.2-2.8-1.8-5.9-1.8-9.2s.6-6.4,1.8-9.2c1.2-2.8,2.9-5.3,5-7.4,2.2-2.1,4.7-3.7,7.6-4.9,2.9-1.2,6.1-1.7,9.6-1.7s6.6.6,9.5,1.7c2.9,1.2,5.4,2.8,7.6,4.9,2.2,2.1,3.8,4.5,5,7.4,1.2,2.8,1.8,5.9,1.8,9.3s-.6,6.4-1.8,9.3c-1.2,2.8-2.9,5.3-5,7.4s-4.7,3.7-7.6,4.9c-2.9,1.2-6.1,1.7-9.5,1.7ZM1447.3,804.5c2.7,0,5.3-.5,7.6-1.4,2.3-.9,4.3-2.3,6.1-4,1.7-1.7,3.1-3.7,4-6,1-2.3,1.4-4.8,1.4-7.5s-.5-5.2-1.4-7.5c-1-2.3-2.3-4.3-4-6-1.7-1.7-3.7-3-6.1-4-2.3-.9-4.9-1.4-7.6-1.4s-5.3.5-7.6,1.4c-2.3.9-4.4,2.3-6.1,4-1.7,1.7-3.1,3.7-4,6-1,2.3-1.5,4.8-1.5,7.5s.5,5.2,1.5,7.5c1,2.3,2.3,4.3,4,6,1.7,1.7,3.8,3,6.1,4,2.3.9,4.9,1.4,7.6,1.4Z" fill="#fff"/>
          <path d="M1482,808.4v-45.7h4.8v41.5h25.6v4.2h-30.4Z" fill="#fff"/>
          <path d="M1540.4,808.8c-3.4,0-6.6-.6-9.6-1.7-2.9-1.2-5.5-2.8-7.6-4.9-2.2-2.1-3.8-4.6-5-7.4-1.2-2.8-1.8-5.9-1.8-9.2s.6-6.4,1.8-9.2c1.2-2.8,2.9-5.3,5-7.4,2.2-2.1,4.7-3.7,7.6-4.9,2.9-1.2,6.1-1.7,9.6-1.7s6.6.6,9.5,1.7c2.9,1.2,5.4,2.8,7.6,4.9,2.2,2.1,3.8,4.5,5,7.4,1.2,2.8,1.8,5.9,1.8,9.3s-.6,6.4-1.8,9.3c-1.2,2.8-2.9,5.3-5,7.4s-4.7,3.7-7.6,4.9c-2.9,1.2-6.1,1.7-9.5,1.7ZM1540.4,804.5c2.7,0,5.3-.5,7.6-1.4,2.3-.9,4.3-2.3,6.1-4,1.7-1.7,3.1-3.7,4-6,1-2.3,1.4-4.8,1.4-7.5s-.5-5.2-1.4-7.5c-1-2.3-2.3-4.3-4-6-1.7-1.7-3.7-3-6.1-4-2.3-.9-4.9-1.4-7.6-1.4s-5.3.5-7.6,1.4c-2.3.9-4.4,2.3-6.1,4-1.7,1.7-3.1,3.7-4,6-1,2.3-1.5,4.8-1.5,7.5s.5,5.2,1.5,7.5c1,2.3,2.3,4.3,4,6,1.7,1.7,3.8,3,6.1,4,2.3.9,4.9,1.4,7.6,1.4Z" fill="#fff"/>
          <path d="M1595.2,808.8c-3.5,0-6.7-.6-9.6-1.7-2.9-1.2-5.5-2.8-7.6-4.9s-3.8-4.5-5-7.4c-1.2-2.8-1.8-5.9-1.8-9.3s.6-6.4,1.8-9.3c1.2-2.8,2.9-5.3,5.1-7.4,2.2-2.1,4.7-3.7,7.7-4.9s6.1-1.7,9.6-1.7,6.7.5,9.6,1.6c2.9,1.1,5.4,2.7,7.4,5l-3,3.1c-1.9-1.9-4-3.3-6.3-4.1-2.3-.8-4.8-1.2-7.4-1.2s-5.4.5-7.8,1.4c-2.4.9-4.4,2.3-6.2,4-1.8,1.7-3.1,3.7-4.1,6-1,2.3-1.5,4.8-1.5,7.5s.5,5.2,1.5,7.5c1,2.3,2.3,4.3,4.1,6,1.8,1.7,3.8,3,6.2,4,2.4.9,4.9,1.4,7.7,1.4s5.1-.4,7.4-1.2c2.3-.8,4.5-2.1,6.4-4l2.7,3.7c-2.2,1.9-4.7,3.4-7.6,4.3-2.9,1-6,1.5-9.1,1.5ZM1611.9,803l-4.6-.6v-16.8h4.6v17.4Z" fill="#fff"/>
          <path d="M1625.6,808.4v-45.7h4.8v45.7h-4.8Z" fill="#fff"/>
          <path d="M1665.1,808.8c-3.4,0-6.6-.6-9.5-1.7-2.9-1.2-5.4-2.8-7.6-4.9-2.1-2.1-3.8-4.5-5-7.4-1.2-2.8-1.8-5.9-1.8-9.3s.6-6.4,1.8-9.3c1.2-2.8,2.9-5.3,5-7.4,2.2-2.1,4.7-3.7,7.6-4.9,2.9-1.2,6.1-1.7,9.5-1.7s6.4.6,9.3,1.7c2.9,1.1,5.4,2.8,7.4,5l-3.1,3.1c-1.9-1.9-3.9-3.3-6.2-4.1-2.3-.8-4.7-1.3-7.3-1.3s-5.3.5-7.6,1.4c-2.3.9-4.4,2.3-6.1,4-1.7,1.7-3.1,3.7-4.1,6-1,2.3-1.5,4.8-1.5,7.5s.5,5.2,1.5,7.5c1,2.3,2.3,4.3,4.1,6,1.7,1.7,3.8,3,6.1,4,2.3.9,4.9,1.4,7.6,1.4s5-.4,7.3-1.3c2.3-.9,4.3-2.3,6.2-4.2l3.1,3.1c-2,2.2-4.5,3.9-7.4,5-2.9,1.1-6,1.7-9.4,1.7Z" fill="#fff"/>
          <path d="M1684.2,808.4l20.9-45.7h4.8l20.9,45.7h-5.1l-19.2-42.8h2l-19.2,42.8h-5ZM1692.4,796.2l1.4-3.9h26.5l1.4,3.9h-29.4Z" fill="#fff"/>
          <path d="M1738.3,808.4v-45.7h4.8v41.5h25.6v4.2h-30.4Z" fill="#fff"/>
          <path d="M1471.6,886.7v-45.7h18.6c4.9,0,9.1,1,12.8,2.9,3.7,1.9,6.5,4.6,8.6,8.1,2,3.4,3.1,7.4,3.1,11.9s-1,8.4-3.1,11.9c-2,3.4-4.9,6.1-8.6,8.1-3.7,1.9-7.9,2.9-12.8,2.9h-18.6ZM1476.4,882.5h13.5c4,0,7.6-.8,10.5-2.4,3-1.6,5.3-3.8,6.9-6.6,1.7-2.8,2.5-6,2.5-9.7s-.8-6.9-2.5-9.7c-1.7-2.8-4-5-6.9-6.6-3-1.6-6.5-2.4-10.5-2.4h-13.5v37.3Z" fill="#fff"/>
          <path d="M1525.4,886.7v-45.7h4.8v45.7h-4.8ZM1529.7,865.6v-4.2h29.5v4.2h-29.5ZM1558.8,886.7v-45.7h4.8v45.7h-4.8Z" fill="#fff"/>
        </g>
      </g>
      <g>
        <circle cx="1527.1" cy="2569.5" r="356.5" fill="#34b298"/>
        <g>
          <path d="M1342.9,2543.1v-45.7h17.1c3.9,0,7.2.6,10,1.9,2.8,1.2,4.9,3,6.4,5.3,1.5,2.3,2.3,5.1,2.3,8.4s-.8,6-2.3,8.3c-1.5,2.3-3.6,4.1-6.4,5.4-2.8,1.3-6.1,1.9-10,1.9h-14.4l2.2-2.3v16.7h-4.8ZM1347.8,2526.8l-2.2-2.3h14.3c4.6,0,8-1,10.4-3,2.4-2,3.6-4.8,3.6-8.4s-1.2-6.5-3.6-8.5c-2.4-2-5.8-3-10.4-3h-14.3l2.2-2.3v27.5Z" fill="#fff"/>
          <path d="M1382.5,2543.1l20.9-45.7h4.8l20.9,45.7h-5.1l-19.2-42.8h2l-19.2,42.8h-5ZM1390.7,2530.9l1.4-3.9h26.5l1.4,3.9h-29.4Z" fill="#fff"/>
          <path d="M1436.5,2543.1v-45.7h4.8v41.5h25.6v4.2h-30.4Z" fill="#fff"/>
          <path d="M1474.9,2543.1v-45.7h4.8v41.5h25.6v4.2h-30.4Z" fill="#fff"/>
          <path d="M1513.4,2543.1v-45.7h4.8v45.7h-4.8Z" fill="#fff"/>
          <path d="M1525.8,2543.1l20.9-45.7h4.8l20.9,45.7h-5.1l-19.2-42.8h2l-19.2,42.8h-5ZM1534,2530.9l1.4-3.9h26.5l1.4,3.9h-29.4Z" fill="#fff"/>
          <path d="M1588.7,2543.1v-41.5h-16v-4.2h36.9v4.2h-16v41.5h-4.8Z" fill="#fff"/>
          <path d="M1617.3,2543.1v-45.7h4.8v45.7h-4.8Z" fill="#fff"/>
          <path d="M1649.9,2543.1l-20.2-45.7h5.2l18.9,43h-2.9l19-43h4.9l-20.2,45.7h-4.8Z" fill="#fff"/>
          <path d="M1682.5,2543.1v-45.7h31.3v4.2h-26.5v37.3h27.5v4.2h-32.3ZM1686.8,2522v-4.1h24.1v4.1h-24.1Z" fill="#fff"/>
          <path d="M1358.9,2621.7c-3.4,0-6.6-.6-9.5-1.7-2.9-1.2-5.4-2.8-7.6-4.9-2.1-2.1-3.8-4.5-5-7.4-1.2-2.8-1.8-5.9-1.8-9.3s.6-6.4,1.8-9.3c1.2-2.8,2.9-5.3,5-7.4s4.7-3.7,7.6-4.9c2.9-1.2,6.1-1.7,9.5-1.7s6.4.6,9.3,1.7c2.9,1.1,5.4,2.8,7.4,5l-3.1,3.1c-1.9-1.9-3.9-3.3-6.2-4.1-2.3-.8-4.7-1.3-7.3-1.3s-5.3.5-7.6,1.4c-2.3.9-4.4,2.3-6.1,4-1.7,1.7-3.1,3.7-4.1,6-1,2.3-1.5,4.8-1.5,7.5s.5,5.2,1.5,7.5c1,2.3,2.3,4.3,4.1,6,1.7,1.7,3.8,3,6.1,4,2.3.9,4.9,1.4,7.6,1.4s5-.4,7.3-1.3c2.3-.9,4.3-2.3,6.2-4.2l3.1,3.1c-2,2.2-4.5,3.9-7.4,5-2.9,1.1-6,1.7-9.4,1.7Z" fill="#fff"/>
          <path d="M1378,2621.4l20.9-45.7h4.8l20.9,45.7h-5.1l-19.2-42.8h2l-19.2,42.8h-5ZM1386.2,2609.2l1.4-3.9h26.5l1.4,3.9h-29.4Z" fill="#fff"/>
          <path d="M1432,2621.4v-45.7h17.1c5.8,0,10.3,1.4,13.7,4.1,3.3,2.8,5,6.6,5,11.5s-.8,6-2.3,8.3c-1.5,2.3-3.6,4.1-6.4,5.3-2.8,1.2-6.1,1.9-10,1.9h-14.4l2.2-2.2v16.7h-4.8ZM1436.9,2605l-2.2-2.3h14.3c4.6,0,8-1,10.4-3,2.4-2,3.6-4.8,3.6-8.4s-1.2-6.5-3.6-8.5c-2.4-2-5.8-3-10.4-3h-14.3l2.2-2.3v27.5ZM1463.2,2621.4l-11.7-16.6h5.2l11.8,16.6h-5.3Z" fill="#fff"/>
          <path d="M1479.2,2621.4v-45.7h31.3v4.2h-26.5v37.3h27.5v4.2h-32.3ZM1483.5,2600.2v-4.1h24.1v4.1h-24.1Z" fill="#fff"/>
          <path d="M1548.8,2621.4v-41.5h-16v-4.2h36.9v4.2h-16v41.5h-4.8Z" fill="#fff"/>
          <path d="M1577.3,2621.4v-45.7h31.3v4.2h-26.5v37.3h27.5v4.2h-32.3ZM1581.6,2600.2v-4.1h24.1v4.1h-24.1Z" fill="#fff"/>
          <path d="M1613.7,2621.4l20.9-45.7h4.8l20.9,45.7h-5.1l-19.2-42.8h2l-19.2,42.8h-5ZM1621.9,2609.2l1.4-3.9h26.5l1.4,3.9h-29.4Z" fill="#fff"/>
          <path d="M1667.7,2621.4v-45.7h4l20.9,35.6h-2.1l20.7-35.6h4v45.7h-4.6v-38.4h1.1l-19,32.6h-2.3l-19.2-32.6h1.2v38.4h-4.6Z" fill="#fff"/>
        </g>
      </g>
      <g>
        <circle cx="638.8" cy="1682.1" r="356.5" fill="#3a97d3"/>
        <g>
          <path d="M492.7,1658.1v-45.7h17.1c3.9,0,7.2.6,10,1.9,2.8,1.2,4.9,3,6.4,5.3,1.5,2.3,2.2,5.1,2.2,8.4s-.8,6-2.2,8.3-3.6,4.1-6.4,5.4c-2.8,1.3-6.1,1.9-10,1.9h-14.4l2.2-2.3v16.7h-4.8ZM497.5,1641.8l-2.2-2.3h14.3c4.6,0,8-1,10.4-3,2.4-2,3.6-4.8,3.6-8.4s-1.2-6.5-3.6-8.5c-2.4-2-5.8-3-10.4-3h-14.3l2.2-2.3v27.5Z" fill="#fff"/>
          <path d="M552.1,1658.5c-3.4,0-6.6-.6-9.8-1.7-3.1-1.1-5.5-2.5-7.2-4.3l1.9-3.7c1.6,1.6,3.8,2.9,6.5,3.9,2.7,1.1,5.6,1.6,8.6,1.6s5.2-.4,7-1.1c1.8-.7,3.1-1.7,4-2.9.8-1.2,1.3-2.6,1.3-4s-.5-3.2-1.5-4.3c-1-1.1-2.4-1.9-4-2.6-1.7-.6-3.5-1.2-5.5-1.7-2-.5-4-1-6-1.5-2-.5-3.8-1.3-5.5-2.2-1.7-.9-3-2.1-4-3.6-1-1.5-1.5-3.5-1.5-5.9s.6-4.3,1.8-6.2c1.2-1.9,3-3.4,5.5-4.6,2.5-1.2,5.7-1.7,9.5-1.7s5.1.4,7.6,1.1c2.5.7,4.7,1.7,6.5,3l-1.6,3.8c-2-1.3-4-2.3-6.2-2.9-2.2-.6-4.3-.9-6.4-.9s-5,.4-6.8,1.1c-1.8.7-3.1,1.7-3.9,3-.8,1.2-1.3,2.6-1.3,4.2s.5,3.2,1.5,4.3c1,1.1,2.4,1.9,4,2.5,1.7.6,3.5,1.2,5.5,1.6,2,.5,4,1,6,1.6,2,.6,3.8,1.3,5.5,2.2,1.7.9,3,2.1,4,3.6,1,1.5,1.5,3.4,1.5,5.8s-.6,4.3-1.8,6.2c-1.2,1.9-3.1,3.4-5.6,4.6-2.5,1.2-5.7,1.7-9.6,1.7Z" fill="#fff"/>
          <path d="M590.5,1658.1v-17l1.1,3-19.4-31.7h5.2l17,27.8h-2.7l17-27.8h4.8l-19.4,31.7,1.1-3v17h-4.8Z" fill="#fff"/>
          <path d="M640.8,1658.5c-3.4,0-6.6-.6-9.5-1.7-2.9-1.2-5.4-2.8-7.6-4.9-2.1-2.1-3.8-4.5-5-7.4-1.2-2.8-1.8-5.9-1.8-9.3s.6-6.4,1.8-9.3c1.2-2.8,2.9-5.3,5-7.4s4.7-3.7,7.6-4.9c2.9-1.2,6.1-1.7,9.5-1.7s6.4.6,9.3,1.7c2.9,1.1,5.4,2.8,7.4,5l-3.1,3.1c-1.9-1.9-3.9-3.3-6.2-4.1-2.3-.8-4.7-1.3-7.3-1.3s-5.3.5-7.6,1.4c-2.3.9-4.4,2.3-6.1,4-1.7,1.7-3.1,3.7-4.1,6-1,2.3-1.5,4.8-1.5,7.5s.5,5.3,1.5,7.5c1,2.3,2.3,4.3,4.1,6,1.7,1.7,3.8,3,6.1,4,2.3.9,4.9,1.4,7.6,1.4s5-.4,7.3-1.3c2.3-.9,4.3-2.3,6.2-4.2l3.1,3.1c-2,2.2-4.5,3.9-7.4,5-2.9,1.1-6,1.7-9.4,1.7Z" fill="#fff"/>
          <path d="M667.2,1658.1v-45.7h4.8v45.7h-4.8ZM671.5,1637.1v-4.2h29.5v4.2h-29.5ZM700.6,1658.1v-45.7h4.8v45.7h-4.8Z" fill="#fff"/>
          <path d="M740.2,1658.5c-3.4,0-6.6-.6-9.6-1.7-2.9-1.2-5.5-2.8-7.6-4.9-2.2-2.1-3.8-4.6-5-7.4-1.2-2.8-1.8-5.9-1.8-9.2s.6-6.4,1.8-9.2c1.2-2.8,2.9-5.3,5-7.4,2.2-2.1,4.7-3.7,7.6-4.9,2.9-1.2,6.1-1.7,9.6-1.7s6.6.6,9.5,1.7c2.9,1.2,5.4,2.8,7.6,4.9s3.8,4.5,5,7.4c1.2,2.8,1.8,5.9,1.8,9.3s-.6,6.4-1.8,9.3c-1.2,2.8-2.9,5.3-5,7.4-2.2,2.1-4.7,3.7-7.6,4.9-2.9,1.2-6.1,1.7-9.5,1.7ZM740.2,1654.2c2.7,0,5.3-.5,7.6-1.4,2.3-.9,4.3-2.3,6.1-4,1.7-1.7,3.1-3.7,4-6,1-2.3,1.4-4.8,1.4-7.5s-.5-5.2-1.4-7.5c-1-2.3-2.3-4.3-4-6-1.7-1.7-3.7-3-6.1-4-2.3-.9-4.9-1.4-7.6-1.4s-5.3.5-7.6,1.4c-2.3.9-4.4,2.3-6.1,4-1.7,1.7-3.1,3.7-4,6-1,2.3-1.5,4.8-1.5,7.5s.5,5.2,1.5,7.5c1,2.3,2.3,4.3,4,6,1.7,1.7,3.8,3,6.1,4,2.3.9,4.9,1.4,7.6,1.4Z" fill="#fff"/>
          <path d="M771.5,1642.5v-4h17.1v4h-17.1Z" fill="#fff"/>
          <path d="M441.5,1736.8c-3.4,0-6.6-.6-9.6-1.7s-5.5-2.8-7.6-4.9c-2.2-2.1-3.8-4.6-5-7.4-1.2-2.8-1.8-5.9-1.8-9.2s.6-6.4,1.8-9.2c1.2-2.8,2.9-5.3,5-7.4,2.2-2.1,4.7-3.7,7.6-4.9,2.9-1.2,6.1-1.7,9.6-1.7s6.6.6,9.5,1.7c2.9,1.2,5.4,2.8,7.6,4.9,2.2,2.1,3.8,4.5,5,7.4,1.2,2.8,1.8,5.9,1.8,9.3s-.6,6.4-1.8,9.3c-1.2,2.8-2.9,5.3-5,7.4-2.2,2.1-4.7,3.7-7.6,4.9-2.9,1.2-6.1,1.7-9.5,1.7ZM441.5,1732.5c2.7,0,5.3-.5,7.6-1.4,2.3-.9,4.3-2.3,6.1-4,1.7-1.7,3.1-3.7,4-6,1-2.3,1.4-4.8,1.4-7.5s-.5-5.2-1.4-7.5c-1-2.3-2.3-4.3-4-6-1.7-1.7-3.7-3-6.1-4-2.3-.9-4.9-1.4-7.6-1.4s-5.3.5-7.6,1.4c-2.3.9-4.4,2.3-6.1,4-1.7,1.7-3.1,3.7-4,6s-1.5,4.8-1.5,7.5.5,5.2,1.5,7.5,2.3,4.3,4,6c1.7,1.7,3.8,3,6.1,4s4.9,1.4,7.6,1.4Z" fill="#fff"/>
          <path d="M476.2,1736.4v-45.7h4l31.5,39.7h-2.1v-39.7h4.8v45.7h-4l-31.4-39.7h2.1v39.7h-4.8Z" fill="#fff"/>
          <path d="M549.1,1736.8c-3.4,0-6.6-.6-9.5-1.7-2.9-1.2-5.4-2.8-7.6-4.9-2.1-2.1-3.8-4.5-5-7.4-1.2-2.8-1.8-5.9-1.8-9.3s.6-6.4,1.8-9.3c1.2-2.8,2.9-5.3,5-7.4,2.2-2.1,4.7-3.7,7.6-4.9,2.9-1.2,6.1-1.7,9.5-1.7s6.4.6,9.3,1.7c2.9,1.1,5.4,2.8,7.4,5l-3.1,3.1c-1.9-1.9-3.9-3.3-6.2-4.1-2.3-.8-4.7-1.3-7.3-1.3s-5.3.5-7.6,1.4c-2.3.9-4.4,2.3-6.1,4-1.7,1.7-3.1,3.7-4.1,6s-1.5,4.8-1.5,7.5.5,5.2,1.5,7.5c1,2.3,2.3,4.3,4.1,6,1.7,1.7,3.8,3,6.1,4s4.9,1.4,7.6,1.4,5-.4,7.3-1.3c2.3-.9,4.3-2.3,6.2-4.2l3.1,3.1c-2,2.2-4.5,3.9-7.4,5-2.9,1.1-6,1.7-9.4,1.7Z" fill="#fff"/>
          <path d="M595.5,1736.8c-3.4,0-6.6-.6-9.6-1.7-2.9-1.2-5.5-2.8-7.6-4.9-2.2-2.1-3.8-4.6-5-7.4-1.2-2.8-1.8-5.9-1.8-9.2s.6-6.4,1.8-9.2c1.2-2.8,2.9-5.3,5-7.4,2.2-2.1,4.7-3.7,7.6-4.9,2.9-1.2,6.1-1.7,9.6-1.7s6.6.6,9.5,1.7c2.9,1.2,5.4,2.8,7.6,4.9,2.2,2.1,3.8,4.5,5,7.4,1.2,2.8,1.8,5.9,1.8,9.3s-.6,6.4-1.8,9.3c-1.2,2.8-2.9,5.3-5,7.4s-4.7,3.7-7.6,4.9c-2.9,1.2-6.1,1.7-9.5,1.7ZM595.5,1732.5c2.7,0,5.3-.5,7.6-1.4,2.3-.9,4.3-2.3,6.1-4,1.7-1.7,3.1-3.7,4-6,1-2.3,1.4-4.8,1.4-7.5s-.5-5.2-1.4-7.5c-1-2.3-2.3-4.3-4-6-1.7-1.7-3.7-3-6.1-4-2.3-.9-4.9-1.4-7.6-1.4s-5.3.5-7.6,1.4c-2.3.9-4.4,2.3-6.1,4-1.7,1.7-3.1,3.7-4,6-1,2.3-1.5,4.8-1.5,7.5s.5,5.2,1.5,7.5c1,2.3,2.3,4.3,4,6,1.7,1.7,3.8,3,6.1,4,2.3.9,4.9,1.4,7.6,1.4Z" fill="#fff"/>
          <path d="M630.2,1736.4v-45.7h4.8v41.5h25.6v4.2h-30.4Z" fill="#fff"/>
          <path d="M688.6,1736.8c-3.4,0-6.6-.6-9.6-1.7-2.9-1.2-5.5-2.8-7.6-4.9-2.2-2.1-3.8-4.6-5-7.4-1.2-2.8-1.8-5.9-1.8-9.2s.6-6.4,1.8-9.2c1.2-2.8,2.9-5.3,5-7.4,2.2-2.1,4.7-3.7,7.6-4.9,2.9-1.2,6.1-1.7,9.6-1.7s6.6.6,9.5,1.7c2.9,1.2,5.4,2.8,7.6,4.9,2.2,2.1,3.8,4.5,5,7.4,1.2,2.8,1.8,5.9,1.8,9.3s-.6,6.4-1.8,9.3c-1.2,2.8-2.9,5.3-5,7.4s-4.7,3.7-7.6,4.9c-2.9,1.2-6.1,1.7-9.5,1.7ZM688.6,1732.5c2.7,0,5.3-.5,7.6-1.4,2.3-.9,4.3-2.3,6.1-4,1.7-1.7,3.1-3.7,4-6,1-2.3,1.4-4.8,1.4-7.5s-.5-5.2-1.4-7.5c-1-2.3-2.3-4.3-4-6-1.7-1.7-3.7-3-6.1-4-2.3-.9-4.9-1.4-7.6-1.4s-5.3.5-7.6,1.4c-2.3.9-4.4,2.3-6.1,4-1.7,1.7-3.1,3.7-4,6-1,2.3-1.5,4.8-1.5,7.5s.5,5.2,1.5,7.5c1,2.3,2.3,4.3,4,6,1.7,1.7,3.8,3,6.1,4,2.3.9,4.9,1.4,7.6,1.4Z" fill="#fff"/>
          <path d="M743.4,1736.8c-3.5,0-6.7-.6-9.6-1.7-2.9-1.2-5.5-2.8-7.6-4.9s-3.8-4.5-5-7.4c-1.2-2.8-1.8-5.9-1.8-9.3s.6-6.4,1.8-9.3c1.2-2.8,2.9-5.3,5.1-7.4,2.2-2.1,4.7-3.7,7.7-4.9s6.1-1.7,9.6-1.7,6.7.5,9.6,1.6c2.9,1.1,5.4,2.7,7.4,5l-3,3.1c-1.9-1.9-4-3.3-6.3-4.1-2.3-.8-4.8-1.2-7.4-1.2s-5.4.5-7.8,1.4c-2.4.9-4.4,2.3-6.2,4-1.8,1.7-3.1,3.7-4.1,6-1,2.3-1.5,4.8-1.5,7.5s.5,5.2,1.5,7.5c1,2.3,2.3,4.3,4.1,6,1.8,1.7,3.8,3,6.2,4,2.4.9,4.9,1.4,7.7,1.4s5.1-.4,7.4-1.2c2.3-.8,4.5-2.1,6.4-4l2.7,3.7c-2.2,1.9-4.7,3.4-7.6,4.3-2.9,1-6,1.5-9.1,1.5ZM760.1,1731l-4.6-.6v-16.8h4.6v17.4Z" fill="#fff"/>
          <path d="M773.8,1736.4v-45.7h4.8v45.7h-4.8Z" fill="#fff"/>
          <path d="M806.1,1736.8c-3.4,0-6.6-.6-9.8-1.7-3.1-1.1-5.5-2.5-7.2-4.3l1.9-3.7c1.6,1.6,3.8,2.9,6.5,3.9,2.7,1.1,5.6,1.6,8.6,1.6s5.2-.4,7-1.1c1.8-.7,3.1-1.7,4-2.9.8-1.2,1.3-2.6,1.3-4s-.5-3.2-1.5-4.3c-1-1.1-2.4-1.9-4-2.6-1.7-.6-3.5-1.2-5.5-1.7-2-.5-4-1-6-1.5-2-.5-3.8-1.3-5.5-2.2-1.7-.9-3-2.1-4-3.6-1-1.5-1.5-3.5-1.5-5.9s.6-4.3,1.8-6.2c1.2-1.9,3-3.4,5.5-4.6,2.5-1.2,5.7-1.7,9.5-1.7s5.1.4,7.6,1.1c2.5.7,4.7,1.7,6.5,3l-1.6,3.8c-2-1.3-4-2.3-6.2-2.9-2.2-.6-4.3-.9-6.4-.9s-5,.4-6.8,1.1c-1.8.7-3.1,1.7-3.9,3-.8,1.2-1.3,2.6-1.3,4.2s.5,3.2,1.5,4.3c1,1.1,2.4,1.9,4,2.5,1.7.6,3.5,1.2,5.5,1.6,2,.5,4,1,6,1.6,2,.6,3.8,1.3,5.5,2.2,1.7.9,3,2.1,4,3.6,1,1.5,1.5,3.4,1.5,5.8s-.6,4.3-1.8,6.2c-1.2,1.9-3.1,3.4-5.6,4.6-2.5,1.2-5.7,1.7-9.6,1.7Z" fill="#fff"/>
          <path d="M842.5,1736.4v-41.5h-16v-4.2h36.9v4.2h-16v41.5h-4.8Z" fill="#fff"/>
        </g>
      </g>
      <circle cx="2417.7" cy="1683.6" r="356.5" fill="#e72264"/>
      <g>
        <circle cx="2418.4" cy="1682.1" r="356.5" fill="#e72264"/>
        <g>
          <path d="M2221,1695.3c-3.4,0-6.6-.6-9.6-1.7-2.9-1.2-5.5-2.8-7.6-4.9-2.2-2.1-3.8-4.6-5-7.4-1.2-2.8-1.8-5.9-1.8-9.2s.6-6.4,1.8-9.2c1.2-2.8,2.9-5.3,5-7.4,2.2-2.1,4.7-3.7,7.6-4.9,2.9-1.2,6.1-1.7,9.6-1.7s6.6.6,9.5,1.7c2.9,1.2,5.4,2.8,7.6,4.9,2.2,2.1,3.8,4.5,5,7.4,1.2,2.8,1.8,5.9,1.8,9.3s-.6,6.4-1.8,9.3c-1.2,2.8-2.9,5.3-5,7.4s-4.7,3.7-7.6,4.9c-2.9,1.2-6.1,1.7-9.5,1.7ZM2221,1691c2.7,0,5.3-.5,7.6-1.4,2.3-.9,4.3-2.3,6.1-4,1.7-1.7,3.1-3.7,4-6,1-2.3,1.4-4.8,1.4-7.5s-.5-5.2-1.4-7.5c-1-2.3-2.3-4.3-4-6-1.7-1.7-3.7-3-6.1-4-2.3-.9-4.9-1.4-7.6-1.4s-5.3.5-7.6,1.4c-2.3.9-4.4,2.3-6.1,4-1.7,1.7-3.1,3.7-4,6-1,2.3-1.5,4.8-1.5,7.5s.5,5.2,1.5,7.5c1,2.3,2.3,4.3,4,6,1.7,1.7,3.8,3,6.1,4,2.3.9,4.9,1.4,7.6,1.4Z" fill="#fff"/>
          <path d="M2255.8,1694.9v-45.7h4l31.5,39.7h-2.1v-39.7h4.8v45.7h-4l-31.4-39.7h2.1v39.7h-4.8Z" fill="#fff"/>
          <path d="M2328.6,1695.3c-3.4,0-6.6-.6-9.5-1.7-2.9-1.2-5.4-2.8-7.6-4.9-2.1-2.1-3.8-4.5-5-7.4-1.2-2.8-1.8-5.9-1.8-9.3s.6-6.4,1.8-9.3c1.2-2.8,2.9-5.3,5-7.4,2.2-2.1,4.7-3.7,7.6-4.9,2.9-1.2,6.1-1.7,9.5-1.7s6.4.6,9.3,1.7c2.9,1.1,5.4,2.8,7.4,5l-3.1,3.1c-1.9-1.9-3.9-3.3-6.2-4.1-2.3-.8-4.7-1.3-7.3-1.3s-5.3.5-7.6,1.4c-2.3.9-4.4,2.3-6.1,4-1.7,1.7-3.1,3.7-4.1,6-1,2.3-1.5,4.8-1.5,7.5s.5,5.2,1.5,7.5c1,2.3,2.3,4.3,4.1,6,1.7,1.7,3.8,3,6.1,4,2.3.9,4.9,1.4,7.6,1.4s5-.4,7.3-1.3c2.3-.9,4.3-2.3,6.2-4.2l3.1,3.1c-2,2.2-4.5,3.9-7.4,5-2.9,1.1-6,1.7-9.4,1.7Z" fill="#fff"/>
          <path d="M2375,1695.3c-3.4,0-6.6-.6-9.6-1.7-2.9-1.2-5.5-2.8-7.6-4.9-2.2-2.1-3.8-4.6-5-7.4-1.2-2.8-1.8-5.9-1.8-9.2s.6-6.4,1.8-9.2c1.2-2.8,2.9-5.3,5-7.4,2.2-2.1,4.7-3.7,7.6-4.9,2.9-1.2,6.1-1.7,9.6-1.7s6.6.6,9.5,1.7c2.9,1.2,5.4,2.8,7.6,4.9,2.2,2.1,3.8,4.5,5,7.4,1.2,2.8,1.8,5.9,1.8,9.3s-.6,6.4-1.8,9.3c-1.2,2.8-2.9,5.3-5,7.4s-4.7,3.7-7.6,4.9c-2.9,1.2-6.1,1.7-9.5,1.7ZM2375,1691c2.7,0,5.3-.5,7.6-1.4,2.3-.9,4.3-2.3,6.1-4,1.7-1.7,3.1-3.7,4-6,1-2.3,1.4-4.8,1.4-7.5s-.5-5.2-1.4-7.5c-1-2.3-2.3-4.3-4-6-1.7-1.7-3.7-3-6.1-4-2.3-.9-4.9-1.4-7.6-1.4s-5.3.5-7.6,1.4c-2.3.9-4.4,2.3-6.1,4-1.7,1.7-3.1,3.7-4,6-1,2.3-1.5,4.8-1.5,7.5s.5,5.2,1.5,7.5c1,2.3,2.3,4.3,4,6,1.7,1.7,3.8,3,6.1,4,2.3.9,4.9,1.4,7.6,1.4Z" fill="#fff"/>
          <path d="M2409.7,1694.9v-45.7h4.8v41.5h25.6v4.2h-30.4Z" fill="#fff"/>
          <path d="M2468.1,1695.3c-3.4,0-6.6-.6-9.6-1.7-2.9-1.2-5.5-2.8-7.6-4.9-2.2-2.1-3.8-4.6-5-7.4-1.2-2.8-1.8-5.9-1.8-9.2s.6-6.4,1.8-9.2c1.2-2.8,2.9-5.3,5-7.4,2.2-2.1,4.7-3.7,7.6-4.9,2.9-1.2,6.1-1.7,9.6-1.7s6.6.6,9.5,1.7c2.9,1.2,5.4,2.8,7.6,4.9,2.2,2.1,3.8,4.5,5,7.4,1.2,2.8,1.8,5.9,1.8,9.3s-.6,6.4-1.8,9.3c-1.2,2.8-2.9,5.3-5,7.4s-4.7,3.7-7.6,4.9c-2.9,1.2-6.1,1.7-9.5,1.7ZM2468.1,1691c2.7,0,5.3-.5,7.6-1.4,2.3-.9,4.3-2.3,6.1-4,1.7-1.7,3.1-3.7,4-6,1-2.3,1.4-4.8,1.4-7.5s-.5-5.2-1.4-7.5c-1-2.3-2.3-4.3-4-6-1.7-1.7-3.7-3-6.1-4-2.3-.9-4.9-1.4-7.6-1.4s-5.3.5-7.6,1.4c-2.3.9-4.4,2.3-6.1,4-1.7,1.7-3.1,3.7-4,6-1,2.3-1.5,4.8-1.5,7.5s.5,5.2,1.5,7.5c1,2.3,2.3,4.3,4,6,1.7,1.7,3.8,3,6.1,4,2.3.9,4.9,1.4,7.6,1.4Z" fill="#fff"/>
          <path d="M2522.9,1695.3c-3.5,0-6.7-.6-9.6-1.7-2.9-1.2-5.5-2.8-7.6-4.9s-3.8-4.5-5-7.4c-1.2-2.8-1.8-5.9-1.8-9.3s.6-6.4,1.8-9.3c1.2-2.8,2.9-5.3,5.1-7.4,2.2-2.1,4.7-3.7,7.7-4.9s6.1-1.7,9.6-1.7,6.7.5,9.6,1.6c2.9,1.1,5.4,2.7,7.4,5l-3,3.1c-1.9-1.9-4-3.3-6.3-4.1-2.3-.8-4.8-1.2-7.4-1.2s-5.4.5-7.8,1.4c-2.4.9-4.4,2.3-6.2,4-1.8,1.7-3.1,3.7-4.1,6-1,2.3-1.5,4.8-1.5,7.5s.5,5.2,1.5,7.5c1,2.3,2.3,4.3,4.1,6,1.8,1.7,3.8,3,6.2,4,2.4.9,4.9,1.4,7.7,1.4s5.1-.4,7.4-1.2c2.3-.8,4.5-2.1,6.4-4l2.7,3.7c-2.2,1.9-4.7,3.4-7.6,4.3-2.9,1-6,1.5-9.1,1.5ZM2539.7,1689.5l-4.6-.6v-16.8h4.6v17.4Z" fill="#fff"/>
          <path d="M2553.3,1694.9v-45.7h4.8v45.7h-4.8Z" fill="#fff"/>
          <path d="M2585.6,1695.3c-3.4,0-6.6-.6-9.8-1.7-3.1-1.1-5.5-2.5-7.2-4.3l1.9-3.7c1.6,1.6,3.8,2.9,6.5,3.9,2.7,1.1,5.6,1.6,8.6,1.6s5.2-.4,7-1.1c1.8-.7,3.1-1.7,4-2.9.8-1.2,1.3-2.6,1.3-4s-.5-3.2-1.5-4.3c-1-1.1-2.4-1.9-4-2.6-1.7-.6-3.5-1.2-5.5-1.7-2-.5-4-1-6-1.5-2-.5-3.8-1.3-5.5-2.2-1.7-.9-3-2.1-4-3.6-1-1.5-1.5-3.5-1.5-5.9s.6-4.3,1.8-6.2c1.2-1.9,3-3.4,5.5-4.6,2.5-1.2,5.7-1.7,9.5-1.7s5.1.4,7.6,1.1c2.5.7,4.7,1.7,6.5,3l-1.6,3.8c-2-1.3-4-2.3-6.2-2.9-2.2-.6-4.3-.9-6.4-.9s-5,.4-6.8,1.1c-1.8.7-3.1,1.7-3.9,3-.8,1.2-1.3,2.6-1.3,4.2s.5,3.2,1.5,4.3c1,1.1,2.4,1.9,4,2.5,1.7.6,3.5,1.2,5.5,1.6,2,.5,4,1,6,1.6,2,.6,3.8,1.3,5.5,2.2,1.7.9,3,2.1,4,3.6,1,1.5,1.5,3.4,1.5,5.8s-.6,4.3-1.8,6.2c-1.2,1.9-3.1,3.4-5.6,4.6-2.5,1.2-5.7,1.7-9.6,1.7Z" fill="#fff"/>
          <path d="M2622,1694.9v-41.5h-16v-4.2h36.9v4.2h-16v41.5h-4.8Z" fill="#fff"/>
        </g>
      </g>
    </g>
    <g>
      <rect x="0" y="33.5" width="3057.2" height="192" fill="none"/>
      <path d="M719.5,205.1c-3.2,0-5.6-.9-7.3-2.7s-2.5-4.3-2.5-7.5V45.2c0-3.3.9-5.8,2.6-7.5,1.7-1.7,4.2-2.5,7.4-2.5h56.6c18,0,31.8,4.2,41.5,12.6,9.7,8.4,14.6,20.4,14.6,36s-2.2,18.4-6.6,25.7c-4.4,7.2-10.8,12.7-19.2,16.5-8.4,3.7-18.5,5.6-30.3,5.6l2.4-3.1h4.8c6.2,0,11.6,1.6,16.2,4.8,4.6,3.2,8.8,8.3,12.6,15.3l22.9,42.7c1.3,2.2,1.9,4.4,1.8,6.6,0,2.1-.8,3.9-2.3,5.2-1.4,1.4-3.5,2-6.2,2s-4.9-.6-6.7-1.9c-1.8-1.3-3.3-3.1-4.5-5.5l-26-48.2c-3.7-6.8-7.9-11.4-12.6-13.7-4.8-2.3-11.1-3.5-18.9-3.5h-30.5v62.5c0,3.2-.8,5.7-2.4,7.5-1.6,1.8-4.1,2.7-7.4,2.7ZM729.3,116.8h44.1c13,0,22.9-2.7,29.6-8.2,6.7-5.5,10-13.7,10-24.7s-3.3-18.7-10-24.2c-6.7-5.5-16.5-8.2-29.6-8.2h-44.1v65.4Z" fill="#fff"/>
      <path d="M940,205.6c-15.6,0-29.2-3.5-40.7-10.6-11.5-7.1-20.4-17.1-26.7-30-6.3-12.9-9.4-28.2-9.4-45.8s1.8-25.3,5.4-35.9c3.6-10.6,8.7-19.6,15.4-27,6.7-7.4,14.8-13.1,24.2-17.2,9.5-4.1,20.1-6.1,31.9-6.1s29.6,3.5,41.2,10.5c11.5,7,20.4,16.9,26.7,29.7,6.3,12.8,9.4,28,9.4,45.7s-1.8,25.4-5.5,36c-3.7,10.7-8.8,19.7-15.5,27.2-6.7,7.5-14.8,13.2-24.2,17.3-9.5,4.1-20.2,6.1-32.1,6.1ZM940,188.2c12.1,0,22.3-2.7,30.7-8.1,8.4-5.4,14.8-13.3,19.2-23.6,4.5-10.3,6.7-22.8,6.7-37.2,0-21.8-4.9-38.7-14.7-50.7-9.8-12-23.7-18-41.9-18s-21.8,2.7-30.2,8.1c-8.4,5.4-14.8,13.2-19.2,23.5-4.5,10.3-6.7,22.6-6.7,37.1,0,21.6,4.9,38.5,14.8,50.7,9.9,12.2,23.6,18.3,41.3,18.3Z" fill="#fff"/>
      <path d="M1118.7,205.6c-11.1,0-20.9-1.5-29.2-4.4-8.4-2.9-15.4-7.3-21.1-13.1-5.7-5.8-10-13-12.9-21.6-2.9-8.6-4.3-18.5-4.3-29.6V43.6c0-3.3.8-5.8,2.5-7.5,1.7-1.7,4.1-2.5,7.3-2.5s5.6.8,7.3,2.5c1.7,1.7,2.5,4.2,2.5,7.5v92.4c0,17.5,4.1,30.6,12.2,39.3,8.1,8.7,20,13,35.8,13s27.6-4.3,35.6-13c8-8.7,11.9-21.8,11.9-39.3V43.6c0-3.3.9-5.8,2.6-7.5,1.7-1.7,4.2-2.5,7.4-2.5s5.4.8,7,2.5c1.7,1.7,2.5,4.2,2.5,7.5v93.3c0,14.8-2.5,27.4-7.5,37.7-5,10.3-12.5,18.1-22.6,23.3-10,5.2-22.4,7.8-37,7.8Z" fill="#fff"/>
      <path d="M1235.4,205.1c-3,0-5.3-.8-6.9-2.5-1.6-1.7-2.4-4.1-2.4-7.3V43.6c0-3.2.8-5.6,2.4-7.4,1.6-1.7,3.7-2.6,6.2-2.6s4.4.4,5.6,1.3c1.2.9,2.6,2.4,4.2,4.7l104,138.7h-5.7V43.1c0-3,.8-5.4,2.4-7,1.6-1.7,3.9-2.5,6.9-2.5s5,.8,6.6,2.5c1.5,1.7,2.3,4,2.3,7v152.5c0,3-.7,5.4-2,7-1.4,1.7-3.3,2.5-5.8,2.5s-4.3-.5-5.7-1.4c-1.4-1-2.9-2.5-4.5-4.5l-103.8-138.7h5.5v134.8c0,3.2-.8,5.6-2.4,7.3-1.6,1.7-3.8,2.5-6.7,2.5Z" fill="#fff"/>
      <path d="M1413.5,203.4c-3.5,0-6.2-.9-8-2.7-1.8-1.8-2.7-4.5-2.7-8V45.9c0-3.5.9-6.2,2.7-8,1.8-1.8,4.5-2.7,8-2.7h46.1c27.2,0,48.2,7.2,63,21.5,14.8,14.3,22.2,35.2,22.2,62.5s-1.9,25.7-5.6,36.2c-3.7,10.4-9.3,19.2-16.6,26.4-7.3,7.2-16.2,12.6-26.7,16.2-10.5,3.7-22.6,5.5-36.3,5.5h-46.1ZM1422.3,186.7h35.8c11.1,0,20.8-1.4,29-4.3,8.2-2.9,15-7.1,20.5-12.6,5.5-5.6,9.6-12.6,12.3-21.1,2.7-8.5,4.1-18.3,4.1-29.5,0-22.4-5.5-39.3-16.5-50.5-11-11.2-27.4-16.8-49.4-16.8h-35.8v134.8Z" fill="#fff"/>
      <path d="M1692.4,205.1c-3,0-5.4-.9-7.2-2.7-1.8-1.8-2.6-4.3-2.6-7.5V52.1h-53.7c-2.9,0-5.1-.8-6.7-2.4-1.6-1.6-2.4-3.7-2.4-6.2s.8-4.8,2.4-6.2c1.6-1.4,3.8-2.1,6.7-2.1h127.2c2.9,0,5.1.7,6.7,2.1,1.6,1.4,2.4,3.5,2.4,6.2s-.8,4.8-2.4,6.3c-1.6,1.5-3.8,2.3-6.7,2.3h-53.7v142.7c0,3.2-.8,5.7-2.5,7.5s-4.2,2.7-7.5,2.7Z" fill="#fff"/>
      <path d="M1781.4,205.1c-2.5,0-4.6-.6-6.1-1.8-1.5-1.2-2.4-2.8-2.6-4.8-.2-2,.2-4.3,1.3-6.8l65.6-149.4c1.4-3.2,3.1-5.4,5.1-6.8,2-1.4,4.2-2,6.6-2s4.6.7,6.6,2c2,1.4,3.6,3.6,4.9,6.8l65.9,149.4c1.3,2.5,1.8,4.9,1.6,6.9-.2,2.1-1.1,3.7-2.5,4.8-1.4,1.1-3.4,1.7-6,1.7s-5.2-.8-6.9-2.3c-1.8-1.5-3.2-3.7-4.3-6.6l-17.7-40.8,9.5,5h-102.6l9.8-5-17.4,40.8c-1.4,3-2.9,5.2-4.5,6.7-1.6,1.4-3.7,2.1-6.2,2.1ZM1851.1,58.1l-38.4,90.4-5.7-4.5h88.3l-5.2,4.5-38.4-90.4h-.5Z" fill="#fff"/>
      <path d="M1969.7,203.4c-3.5,0-6.2-.9-8-2.7-1.8-1.8-2.7-4.5-2.7-8V45.9c0-3.5.9-6.2,2.7-8,1.8-1.8,4.5-2.7,8-2.7h56.6c11.6,0,21.4,1.7,29.5,5.1,8,3.4,14.2,8.4,18.5,14.9,4.3,6.5,6.4,14.5,6.4,23.9s-3.1,19.3-9.2,26.3c-6.1,7-14.4,11.6-24.9,13.8v-3.3c11.9,1.4,21.3,5.7,28,12.9,6.8,7.2,10.1,16.6,10.1,28.4s-4.9,26.4-14.6,34.4c-9.7,8-23.4,11.9-41,11.9h-59.4ZM1978.1,110.4h45.3c12.4,0,21.8-2.5,28.3-7.6,6.4-5.1,9.7-12.4,9.7-22s-3.2-17.3-9.7-22.3-15.9-7.5-28.3-7.5h-45.3v59.4ZM1978.1,187.7h49.2c12.7,0,22.3-2.5,28.6-7.6,6.4-5.1,9.5-12.8,9.5-23.1s-3.2-18.3-9.5-23.3c-6.4-5-15.9-7.5-28.6-7.5h-49.2v61.6Z" fill="#fff"/>
      <path d="M2130.3,203.4c-3.2,0-5.6-.9-7.4-2.7-1.8-1.8-2.6-4.3-2.6-7.5V44.3c0-3.3.8-5.9,2.5-7.6,1.7-1.7,4.1-2.6,7.3-2.6s5.6.9,7.3,2.6c1.7,1.8,2.5,4.3,2.5,7.6v142h78.3c2.9,0,5.1.8,6.7,2.3,1.6,1.5,2.4,3.6,2.4,6.3s-.8,4.8-2.4,6.3c-1.6,1.5-3.8,2.3-6.7,2.3h-87.8Z" fill="#fff"/>
      <path d="M2260.6,203.4c-3.5,0-6.2-.9-8-2.7-1.8-1.8-2.7-4.5-2.7-8V45.9c0-3.5.9-6.2,2.7-8,1.8-1.8,4.5-2.7,8-2.7h88.8c2.7,0,4.8.7,6.2,2.1s2.1,3.4,2.1,6-.7,4.8-2.1,6.2c-1.4,1.4-3.5,2.1-6.2,2.1h-80.4v58.2h75.4c2.7,0,4.8.7,6.2,2,1.4,1.4,2.1,3.4,2.1,6.1s-.7,4.8-2.1,6.2c-1.4,1.4-3.5,2.1-6.2,2.1h-75.4v60.6h80.4c2.7,0,4.8.7,6.2,2.1,1.4,1.4,2.1,3.4,2.1,6s-.7,4.8-2.1,6.2-3.5,2.1-6.2,2.1h-88.8Z" fill="#fff"/>
    </g>
  </g>
</svg>