<?xml version="1.0" encoding="UTF-8"?>
<svg id="b" data-name="Layer 2" xmlns="http://www.w3.org/2000/svg" width="125.3mm" height="91.3mm" viewBox="0 0 355.2 258.7">
  <g id="c" data-name="Layer 5">
    <polyline points="20.9 37 30.8 29.3 355.2 29.3" fill="none" stroke="#c6c6c6" stroke-miterlimit="10"/>
    <polyline points="20.9 55.8 30.8 48.1 355.2 48.1" fill="none" stroke="#c6c6c6" stroke-miterlimit="10"/>
    <polyline points="20.9 74.7 30.8 67 355.2 67" fill="none" stroke="#c6c6c6" stroke-miterlimit="10"/>
    <polyline points="20.9 93.5 30.8 85.8 355.2 85.8" fill="none" stroke="#c6c6c6" stroke-miterlimit="10"/>
    <polyline points="20.9 113.8 30.8 106.1 355.2 106.1" fill="none" stroke="#c6c6c6" stroke-miterlimit="10"/>
    <polyline points="20.9 132.2 30.8 124.5 355.2 124.5" fill="none" stroke="#c6c6c6" stroke-miterlimit="10"/>
    <polyline points="20.9 152.2 30.8 144.5 355.2 144.5" fill="none" stroke="#c6c6c6" stroke-miterlimit="10"/>
    <polyline points="20.9 170.5 30.8 162.8 355.2 162.8" fill="none" stroke="#c6c6c6" stroke-miterlimit="10"/>
    <polyline points="20.9 190.5 30.8 182.8 355.2 182.8" fill="none" stroke="#c6c6c6" stroke-miterlimit="10"/>
    <polyline points="20.9 208.8 30.8 201.1 355.2 201.1" fill="none" stroke="#c6c6c6" stroke-miterlimit="10"/>
    <g>
      <g>
        <g>
          <rect x="43.1" y="35.6" width="11.9" height="130" fill="#3a97d3"/>
          <polygon points="59.1 160.6 55 165.6 55 35.6 59.1 30.6 59.1 160.6" fill="#3379a1"/>
          <polygon points="59.3 30.3 47.2 30.3 43.1 35.6 55.1 35.6 59.3 30.3" fill="#3082b0"/>
        </g>
        <g>
          <rect x="55" y="47.3" width="11.9" height="122.1" fill="#e72264"/>
          <polygon points="71 164.7 66.8 169.4 66.8 47.3 71 42.6 71 164.7" fill="#9c355d"/>
          <polygon points="71.2 42.4 59.1 42.4 55 47.3 67 47.3 71.2 42.4" fill="#b53365"/>
        </g>
        <g>
          <rect x="66.8" y="50.9" width="11.9" height="124" fill="#2dab61"/>
          <polygon points="82.9 170.1 78.7 174.9 78.7 50.9 82.9 46.1 82.9 170.1" fill="#1c8045"/>
          <polygon points="83.1 45.9 71 45.9 66.8 50.9 78.9 50.9 83.1 45.9" fill="#2c8c53"/>
        </g>
        <rect x="43.1" y="137.9" width="11.9" height="69.1" fill="#3a97d3"/>
        <rect x="55" y="149.7" width="11.9" height="57.4" fill="#e72264"/>
        <rect x="66.8" y="153.2" width="11.9" height="53.8" fill="#2dab61"/>
        <polygon points="82.9 148.5 82.9 202 78.8 207 78.7 207 78.7 153.2 82.9 148.5" fill="#1c8045"/>
      </g>
      <g>
        <rect x="43.1" y="19.3" width="11.8" height="8.2" fill="none"/>
        <path d="M47.2,19.8h.7v4.2h1.1v.7h-1.1v1.5h-.8v-1.5h-3.3v-.6l3.3-4.3ZM47.2,21l-2.4,3h2.4v-3Z" fill="#3a97d3"/>
        <path d="M52.8,19.8h.7v4.2h1.1v.7h-1.1v1.5h-.8v-1.5h-3.3v-.6l3.3-4.3ZM52.8,21l-2.4,3h2.4v-3Z" fill="#3a97d3"/>
      </g>
      <g>
        <rect x="55" y="31.8" width="11.7" height="8.6" fill="none"/>
        <path d="M58.8,32.2h.7v4.2h1.1v.7h-1.1v1.5h-.8v-1.5h-3.3v-.6l3.3-4.3ZM58.8,33.5l-2.4,3h2.4v-3Z" fill="#e72264"/>
        <path d="M61.5,38.6v-.9c0-.4,0-.7.2-.9.1-.2.3-.4.5-.6.2-.2.5-.3.8-.4l1.2-.5c.3-.1.6-.3.7-.5.2-.2.2-.5.2-.8s-.1-.6-.3-.8c-.2-.2-.5-.3-.9-.3s-.7,0-1,.3c-.3.2-.4.4-.4.8h-.9c0-.4.1-.7.3-.9.2-.3.5-.4.8-.6.3-.1.7-.2,1.2-.2s.8,0,1.1.2c.3.2.6.4.8.7.2.3.3.6.3,1s0,.6-.2.9c-.1.2-.3.4-.5.6s-.5.3-.8.4l-1.3.5c-.3.1-.6.3-.7.4s-.2.4-.2.7v.3h3.7v.7h-4.5Z" fill="#e72264"/>
      </g>
      <g>
        <rect x="68.9" y="34.1" width="9.2" height="8.6" fill="none"/>
        <path d="M72.8,34.6h.7v4.2h1.1v.7h-1.1v1.5h-.8v-1.5h-3.3v-.6l3.3-4.3ZM72.8,35.8l-2.4,3h2.4v-3Z" fill="#2dab61"/>
        <path d="M76.5,34.7h.6v6.3h-.8v-5.4c-.2.1-.3.2-.5.3s-.4,0-.5,0v-.8c.2,0,.4,0,.6-.2.2,0,.4-.2.6-.3Z" fill="#2dab61"/>
      </g>
    </g>
    <g>
      <g>
        <rect x="108.2" y="147.8" width="11.9" height="59.2" fill="#3a97d3"/>
        <polygon points="124.2 142.8 124.2 207 120.1 207 120.1 147.8 123.5 143.7 124.2 142.8" fill="#3379a1"/>
        <polygon points="124.4 142.6 112.3 142.6 108.2 147.8 120.2 147.8 124.4 142.6" fill="#3082b0"/>
      </g>
      <g>
        <rect x="120.1" y="151" width="11.9" height="56" fill="#e72264"/>
        <polygon points="136.1 146.3 136.1 207 131.9 207 131.9 151 135.5 147 136.1 146.3" fill="#9c355d"/>
        <polygon points="136.3 146.1 124.2 146.1 120.1 151 132.1 151 136.3 146.1" fill="#b53365"/>
      </g>
      <g>
        <rect x="131.9" y="163" width="11.9" height="44" fill="#2dab61"/>
        <polygon points="148 158.3 148 202 148 202 143.8 207 143.8 207 143.8 163 147.1 159.3 147.2 159.2 148 158.3" fill="#1c8045"/>
        <polygon points="148.2 158.1 136.1 158.1 131.9 163.1 144 163.1 148.2 158.1" fill="#2c8c53"/>
      </g>
      <g>
        <rect x="110.4" y="131.6" width="9.5" height="8.2" fill="none"/>
        <path d="M112.5,132.1h.6v6.3h-.8v-5.4c-.2.1-.3.2-.5.3s-.4,0-.5,0v-.8c.2,0,.4,0,.6-.2.2,0,.4-.2.6-.3Z" fill="#3a97d3"/>
        <path d="M117.2,138.6c-.5,0-.9-.1-1.3-.4-.4-.3-.7-.7-.9-1.1-.2-.5-.3-1-.3-1.6s.1-1.3.3-1.8.5-.9.9-1.2c.4-.3.9-.4,1.4-.4s.7,0,1,.2.5.3.7.6.3.6.3.9h-.9c0-.3-.2-.5-.3-.7s-.4-.3-.8-.3c-.6,0-1,.2-1.4.7-.3.5-.5,1.2-.5,2s0,.3,0,.4c0,.2,0,.3,0,.5,0-.4.1-.8.3-1.1.2-.3.4-.4.7-.5.3-.1.5-.2.8-.2s.7,0,1,.3.5.4.7.7c.2.3.3.6.3,1s0,.7-.3,1c-.2.3-.4.5-.8.7-.3.2-.7.2-1.1.2ZM117.2,137.9c.4,0,.7-.1,1-.3s.4-.5.4-.9-.1-.7-.4-.9c-.3-.2-.6-.3-1-.3s-.5,0-.7.2-.4.3-.5.4c-.1.2-.2.4-.2.6,0,.4.1.7.4.9s.6.3.9.3Z" fill="#3a97d3"/>
      </g>
      <g>
        <rect x="122.1" y="135.5" width="9.7" height="8.6" fill="none"/>
        <path d="M124.5,136h.6v6.3h-.8v-5.4c-.2.1-.3.2-.5.3s-.4,0-.5,0v-.8c.2,0,.4,0,.6-.2.2,0,.4-.2.6-.3Z" fill="#e72264"/>
        <path d="M129.8,135.9h.7v4.2h1.1v.7h-1.1v1.5h-.8v-1.5h-3.3v-.6l3.3-4.3ZM129.7,137.2l-2.4,3h2.4v-3Z" fill="#e72264"/>
      </g>
      <g>
        <rect x="134" y="146.3" width="9.2" height="8.6" fill="none"/>
        <path d="M135.8,146.8h.6v6.3h-.8v-5.4c-.2.1-.3.2-.5.3s-.4,0-.5,0v-.8c.2,0,.4,0,.6-.2.2,0,.4-.2.6-.3Z" fill="#2dab61"/>
        <path d="M138.1,153.2v-.9c0-.4,0-.7.2-.9.1-.2.3-.4.5-.6.2-.2.5-.3.8-.4l1.2-.5c.3-.1.6-.3.7-.5.2-.2.2-.5.2-.8s-.1-.6-.3-.8c-.2-.2-.5-.3-.9-.3s-.7,0-1,.3c-.3.2-.4.4-.4.8h-.9c0-.4.1-.7.3-.9.2-.3.5-.4.8-.6.3-.1.7-.2,1.2-.2s.8,0,1.1.2c.3.2.6.4.8.7.2.3.3.6.3,1s0,.6-.2.9c-.1.2-.3.4-.5.6s-.5.3-.8.4l-1.3.5c-.3.1-.6.3-.7.4s-.2.4-.2.7v.3h3.7v.7h-4.5Z" fill="#2dab61"/>
      </g>
    </g>
    <g>
      <g>
        <rect x="173.8" y="174.5" width="11.9" height="32.5" fill="#3a97d3"/>
        <polygon points="189.9 169.5 189.9 207 185.7 207 185.7 174.5 189.3 170.2 189.9 169.5" fill="#3379a1"/>
        <polygon points="190 169.3 178 169.3 173.8 174.5 185.9 174.5 190 169.3" fill="#3082b0"/>
      </g>
      <g>
        <rect x="185.7" y="193.4" width="11.9" height="13.6" fill="#e72264"/>
        <polygon points="201.8 188.7 201.8 207 197.6 207 197.6 193.4 201 189.6 201.8 188.7" fill="#9c355d"/>
        <polygon points="201.9 188.5 189.9 188.5 185.7 193.4 197.8 193.4 201.9 188.5" fill="#b53365"/>
      </g>
      <g>
        <rect x="197.6" y="185.8" width="11.9" height="21.2" fill="#2dab61"/>
        <polygon points="213.7 181 213.7 202 209.5 207 209.5 207 209.5 185.8 212.9 181.9 212.9 181.9 213.7 181" fill="#1c8045"/>
        <polygon points="213.8 180.8 201.8 180.8 197.6 185.8 209.7 185.8 213.8 180.8" fill="#2c8c53"/>
      </g>
      <g>
        <rect x="178.8" y="158.3" width="6.8" height="8.2" fill="none"/>
        <path d="M182.5,165.3c-.5,0-.9,0-1.3-.2s-.7-.4-.9-.6c-.2-.3-.3-.6-.3-.9s0-.6.2-.8.4-.4.7-.5c.3-.1.6-.2,1-.2s.2,0,.3,0c0,0,.2,0,.3,0v.2c-.3,0-.6,0-.9.2-.3.1-.4.3-.6.4-.1.2-.2.4-.2.6s0,.5.2.6c.2.2.4.3.6.4s.6.1.9.1c.5,0,1,0,1.3-.3s.5-.4.5-.7,0-.4-.2-.6c-.2-.1-.4-.3-.7-.4l-1.7-.7c-.2,0-.4-.2-.6-.3-.2-.1-.4-.3-.5-.5-.1-.2-.2-.5-.2-.7s0-.6.3-.9.5-.4.8-.6c.3-.1.8-.2,1.2-.2s.8,0,1.2.2c.3.2.6.4.8.6.2.3.3.6.3.9s0,.5-.2.7-.3.4-.6.5c-.3.1-.6.2-.9.2s-.2,0-.3,0c0,0-.2,0-.3,0v-.3c.3,0,.5,0,.7-.1.2,0,.4-.2.5-.4.1-.2.2-.4.2-.6s0-.4-.2-.6-.3-.3-.5-.4-.5-.1-.8-.1-.5,0-.8.1c-.2,0-.4.2-.5.4s-.2.3-.2.5,0,.4.2.5c.2.1.4.3.6.4l1.7.7c.5.2.8.4,1.1.6.2.2.4.6.4,1s-.1.6-.3.9-.5.5-.9.6c-.4.1-.8.2-1.4.2Z" fill="#3a97d3"/>
      </g>
      <g>
        <rect x="191.2" y="177.9" width="6.3" height="8.6" fill="none"/>
        <path d="M194.5,184.9c-.3,0-.6,0-.9-.1s-.6-.2-.8-.4c-.2-.2-.4-.4-.6-.6s-.2-.5-.2-.9h.8c0,.3,0,.5.2.7.1.2.3.3.6.4.2.1.5.2.8.2.5,0,.8-.1,1.1-.3.3-.2.4-.5.4-.9s0-.4-.2-.6-.3-.3-.5-.4c-.2,0-.5-.1-.9-.1h-.7v-.6h.5c.5,0,.9,0,1.2-.3.3-.2.4-.5.4-.8s-.1-.6-.3-.8-.6-.3-1-.3-.6,0-.9.2-.4.4-.5.7h-.8c0-.4.2-.7.4-1,.2-.2.5-.4.8-.5.3-.1.7-.2,1-.2s.8,0,1.1.2c.3.1.6.4.8.6s.3.6.3.9,0,.6-.3.9-.5.4-.8.5c.4.1.7.3,1,.6.3.3.4.6.4,1s0,.7-.3,1-.5.5-.8.7c-.3.2-.8.2-1.2.2Z" fill="#e72264"/>
      </g>
      <g>
        <rect x="196.9" y="169.1" width="12" height="8.6" fill="none"/>
        <path d="M206.2,176.1c-.5,0-.9-.1-1.3-.4-.4-.3-.7-.7-.9-1.1-.2-.5-.3-1-.3-1.6s.1-1.3.3-1.8c.2-.5.5-.9.9-1.2s.9-.4,1.4-.4.7,0,1,.2.5.3.7.6.3.6.3.9h-.9c0-.3-.2-.5-.3-.7s-.4-.3-.8-.3c-.6,0-1,.2-1.4.7-.3.5-.5,1.2-.5,2s0,.3,0,.4,0,.3,0,.5c0-.4.1-.8.3-1.1.2-.3.4-.4.7-.5s.5-.2.8-.2.7,0,1,.3c.3.2.5.4.7.7.2.3.3.6.3,1s0,.7-.3,1c-.2.3-.4.5-.8.7-.3.2-.7.2-1.1.2ZM206.2,175.3c.4,0,.7-.1,1-.3.3-.2.4-.5.4-.9s-.1-.7-.4-.9c-.3-.2-.6-.3-1-.3s-.5,0-.7.2c-.2.1-.4.3-.5.4-.1.2-.2.4-.2.6,0,.4.1.7.4.9.3.2.6.3.9.3Z" fill="#2dab61"/>
      </g>
    </g>
    <g>
      <g>
        <rect x="312.2" y="200.8" width="11.9" height="6.2" fill="#3a97d3"/>
        <polygon points="328.3 195.8 328.3 202 324.2 207 324.1 207 324.1 200.8 327.4 196.9 327.4 196.9 328.3 195.8" fill="#3379a1"/>
        <polygon points="328.5 195.6 316.4 195.6 312.2 200.8 324.3 200.8 328.5 195.6" fill="#3082b0"/>
      </g>
      <g>
        <rect x="317.5" y="184.6" width="6.5" height="8.2" fill="none"/>
        <path d="M318.8,191.4v-.9c0-.4,0-.7.2-.9.1-.2.3-.4.5-.6.2-.2.5-.3.8-.4l1.2-.5c.3-.1.6-.3.7-.5.2-.2.2-.5.2-.8s-.1-.6-.3-.8c-.2-.2-.5-.3-.9-.3s-.7,0-1,.3c-.3.2-.4.4-.4.8h-.9c0-.4.1-.7.3-.9.2-.3.5-.4.8-.6.3-.1.7-.2,1.2-.2s.8,0,1.1.2c.3.2.6.4.8.7.2.3.3.6.3,1s0,.6-.2.9c-.1.2-.3.4-.5.6s-.5.3-.8.4l-1.3.5c-.3.1-.6.3-.7.4s-.2.4-.2.7v.3h3.7v.7h-4.5Z" fill="#3a97d3"/>
      </g>
    </g>
    <g>
      <g>
        <polygon points="256.8 193 256.8 207 244.9 207 244.9 193 244.9 193 256.8 193" fill="#e72264"/>
        <polygon points="261 188.3 261 207 256.8 207 256.8 193 260.2 189.2 261 188.3" fill="#9c355d"/>
        <polygon points="261.1 188.1 249.1 188.1 244.9 193 257 193 261.1 188.1" fill="#b53365"/>
      </g>
      <g>
        <rect x="256.8" y="197" width="11.9" height="10" fill="#2dab61"/>
        <polygon points="272.9 192.2 272.9 202 268.7 207 268.7 207 268.7 197 272.1 193.1 272.2 193.1 272.9 192.2" fill="#1c8045"/>
        <polygon points="273 192 261 192 256.8 197 268.9 197 273 192" fill="#2c8c53"/>
      </g>
      <g>
        <rect x="249.5" y="177.5" width="7.2" height="8.6" fill="none"/>
        <path d="M254.6,177.9h.7v4.2h1.1v.7h-1.1v1.5h-.8v-1.5h-3.3v-.6l3.3-4.3ZM254.6,179.2l-2.4,3h2.4v-3Z" fill="#e72264"/>
      </g>
      <g>
        <rect x="262.1" y="180.3" width="6" height="8.6" fill="none"/>
        <path d="M265.2,187.2c-.3,0-.6,0-.9-.1s-.6-.2-.8-.4c-.2-.2-.4-.4-.6-.6s-.2-.6-.2-.9h.8c0,.3,0,.5.2.7.1.2.3.3.6.4.2.1.5.2.8.2.5,0,.8-.1,1.1-.3.3-.2.4-.5.4-.9s0-.4-.2-.6c-.1-.2-.3-.3-.5-.4-.2,0-.5-.1-.9-.1h-.7v-.6h.5c.5,0,.9,0,1.2-.3.3-.2.4-.5.4-.8s-.1-.6-.3-.8-.6-.3-1-.3-.6,0-.9.2c-.3.1-.4.4-.5.7h-.8c0-.4.2-.7.4-1,.2-.2.5-.4.8-.5.3-.1.7-.2,1-.2s.8,0,1.1.2c.3.1.6.4.8.6.2.3.3.6.3.9s0,.6-.3.9c-.2.2-.5.4-.8.5.4.1.7.3,1,.6.3.3.4.6.4,1s0,.7-.3,1c-.2.3-.5.5-.8.7-.3.2-.8.2-1.2.2Z" fill="#2dab61"/>
      </g>
    </g>
    <g>
      <g>
        <path d="M41,233.4v-8.2h3.1c.6,0,1.1,0,1.5.3s.7.5.9.8c.2.3.3.7.3,1.1s-.1.9-.4,1.2c-.3.3-.6.6-1.2.7.3,0,.6.2.9.4s.5.4.6.7c.1.3.2.6.2.9s0,.6-.1.8-.2.5-.5.7c-.2.2-.5.4-.9.5-.4.1-.8.2-1.3.2h-3.1ZM42.1,226v2.8h2c.5,0,.9-.1,1.2-.4s.5-.6.5-1.1-.1-.8-.4-1c-.3-.2-.7-.4-1.2-.4h-2ZM42.1,232.5h2c.6,0,1.1-.1,1.3-.4.3-.3.4-.6.4-1s-.1-.7-.4-1-.7-.4-1.3-.4h-2v2.8Z" fill="#fff"/>
        <path d="M49.2,233.4v-8.2h2.9c.9,0,1.6.2,2.1.7.5.4.7,1,.7,1.8s-.2,1.3-.7,1.7-1.2.7-2.1.7h-1.8v3.4h-1ZM50.2,229.3h1.8c.6,0,1.1-.2,1.4-.5.3-.3.5-.7.5-1.2s-.2-.9-.5-1.2c-.3-.3-.8-.4-1.3-.4h-1.8v3.3ZM53.8,233.4l-2.4-3.7h1.1l2.6,3.7h-1.3Z" fill="#fff"/>
        <path d="M57.2,233.4v-8.2h5.1v.9h-4v2.8h3.8v.9h-3.8v2.8h4v.9h-5.1Z" fill="#fff"/>
        <path d="M63.5,233.4l2.8-8.2h1.2l2.8,8.2h-1.1l-.7-2.1h-3.3l-.7,2.1h-1.1ZM65.6,230.5h2.7l-1.4-4.1-1.4,4.1Z" fill="#fff"/>
        <path d="M74.7,233.5c-.5,0-1.1,0-1.5-.3-.5-.2-.8-.5-1.1-.9-.3-.4-.4-.9-.4-1.4h1c0,.4,0,.7.3.9.2.2.4.4.7.5s.6.2,1,.2.7,0,1-.2.5-.3.7-.5c.2-.2.2-.4.2-.7s-.1-.6-.3-.8c-.2-.2-.5-.4-.9-.5l-1.5-.5c-.7-.2-1.2-.5-1.5-.8-.3-.3-.5-.8-.5-1.3s.2-1.2.7-1.6,1.2-.6,2.1-.6,1.5.2,2,.6c.5.4.7.9.8,1.6h-1c0-.4-.2-.7-.5-.9-.3-.2-.7-.3-1.2-.3s-1,.1-1.3.4c-.3.2-.5.5-.5.9s0,.5.3.7.5.3.9.5l1.7.6c.6.2,1.1.5,1.4.8s.5.8.5,1.4-.1.8-.3,1.2c-.2.4-.6.6-1,.8s-1,.3-1.7.3Z" fill="#fff"/>
        <path d="M78.7,226v-.9h6.4v.9h-2.9l.2-.2v7.6h-1v-7.6l.2.2h-2.9Z" fill="#fff"/>
      </g>
      <g>
        <path d="M113.1,233.5c-.7,0-1.3-.2-1.8-.5-.5-.3-1-.8-1.3-1.4-.3-.6-.5-1.4-.5-2.4s.2-1.8.5-2.4c.3-.6.7-1.1,1.3-1.4s1.1-.5,1.8-.5,1.3.2,1.8.5,1,.8,1.3,1.4c.3.6.5,1.4.5,2.4s-.2,1.7-.5,2.4c-.3.6-.7,1.1-1.3,1.4s-1.1.5-1.8.5ZM113.1,232.6c.8,0,1.4-.3,1.8-.8.4-.6.7-1.4.7-2.5s-.2-1.9-.7-2.5c-.4-.6-1.1-.9-1.8-.9s-1.4.3-1.8.9c-.5.6-.7,1.4-.7,2.5s.2,1.9.7,2.5c.5.6,1.1.8,1.8.8Z" fill="#fff"/>
        <path d="M120.9,232.3l2.4-7.1h1.1l-2.9,8.2h-1.1l-2.9-8.2h1.1l2.4,7.1h-.1Z" fill="#fff"/>
        <path d="M124.5,233.4l2.8-8.2h1.2l2.8,8.2h-1.1l-.7-2.1h-3.3l-.7,2.1h-1.1ZM126.6,230.5h2.7l-1.4-4.1-1.4,4.1Z" fill="#fff"/>
        <path d="M133,233.4v-8.2h2.9c.9,0,1.6.2,2.1.7.5.4.7,1,.7,1.8s-.2,1.3-.7,1.7-1.2.7-2.1.7h-1.8v3.4h-1ZM134,229.3h1.8c.6,0,1.1-.2,1.4-.5.3-.3.5-.7.5-1.2s-.2-.9-.5-1.2c-.3-.3-.8-.4-1.3-.4h-1.8v3.3ZM137.6,233.4l-2.4-3.7h1.1l2.6,3.7h-1.3Z" fill="#fff"/>
        <path d="M139.8,225.2h1.2l2.4,4h-.3l2.4-4h1.2l-3,4.8v3.4h-1v-3.4l-2.9-4.8Z" fill="#fff"/>
      </g>
      <g>
        <path d="M171.4,225.2h1v5.2c0,.8.2,1.3.6,1.7.4.3.9.5,1.5.5s1.1-.2,1.5-.5c.4-.3.6-.9.6-1.7v-5.2h1v5.2c0,.7-.1,1.3-.4,1.7-.3.5-.6.8-1.1,1-.5.2-1,.3-1.6.3s-1.2-.1-1.7-.3c-.5-.2-.8-.6-1.1-1-.3-.5-.4-1-.4-1.7v-5.2Z" fill="#fff"/>
        <path d="M178.9,226v-.9h6.4v.9h-2.9l.2-.2v7.6h-1v-7.6l.2.2h-2.9Z" fill="#fff"/>
        <path d="M186.7,233.4v-8.2h5.1v.9h-4v2.8h3.8v.9h-3.8v2.8h4v.9h-5.1Z" fill="#fff"/>
        <path d="M194,233.4v-8.2h2.9c.9,0,1.6.2,2.1.7.5.4.7,1,.7,1.8s-.2,1.3-.7,1.7-1.2.7-2.1.7h-1.8v3.4h-1ZM195,229.3h1.8c.6,0,1.1-.2,1.4-.5.3-.3.5-.7.5-1.2s-.2-.9-.5-1.2c-.3-.3-.8-.4-1.3-.4h-1.8v3.3ZM198.6,233.4l-2.4-3.7h1.1l2.6,3.7h-1.3Z" fill="#fff"/>
        <path d="M201.8,225.2h1v5.2c0,.8.2,1.3.6,1.7.4.3.9.5,1.5.5s1.1-.2,1.5-.5c.4-.3.6-.9.6-1.7v-5.2h1v5.2c0,.7-.1,1.3-.4,1.7-.3.5-.6.8-1.1,1-.5.2-1,.3-1.6.3s-1.2-.1-1.7-.3c-.5-.2-.8-.6-1.1-1-.3-.5-.4-1-.4-1.7v-5.2Z" fill="#fff"/>
        <path d="M213.2,233.5c-.5,0-1.1,0-1.5-.3-.5-.2-.8-.5-1.1-.9-.3-.4-.4-.9-.4-1.4h1c0,.4,0,.7.3.9.2.2.4.4.7.5s.6.2,1,.2.7,0,1-.2.5-.3.7-.5c.2-.2.2-.4.2-.7s-.1-.6-.3-.8c-.2-.2-.5-.4-.9-.5l-1.5-.5c-.7-.2-1.2-.5-1.5-.8-.3-.3-.5-.8-.5-1.3s.2-1.2.7-1.6,1.2-.6,2.1-.6,1.5.2,2,.6c.5.4.7.9.8,1.6h-1c0-.4-.2-.7-.5-.9-.3-.2-.7-.3-1.2-.3s-1,.1-1.3.4c-.3.2-.5.5-.5.9s0,.5.3.7.5.3.9.5l1.7.6c.6.2,1.1.5,1.4.8s.5.8.5,1.4-.1.8-.3,1.2c-.2.4-.6.6-1,.8s-1,.3-1.7.3Z" fill="#fff"/>
      </g>
      <g>
        <path d="M244.7,232.3l2.4-7.1h1.1l-2.9,8.2h-1.1l-2.9-8.2h1.1l2.4,7.1h-.1Z" fill="#fff"/>
        <path d="M249.6,225.2h1v5.2c0,.8.2,1.3.6,1.7.4.3.9.5,1.5.5s1.1-.2,1.5-.5c.4-.3.6-.9.6-1.7v-5.2h1v5.2c0,.7-.1,1.3-.4,1.7-.3.5-.6.8-1.1,1-.5.2-1,.3-1.6.3s-1.2-.1-1.7-.3c-.5-.2-.8-.6-1.1-1-.3-.5-.4-1-.4-1.7v-5.2Z" fill="#fff"/>
        <path d="M259.3,225.2v7.3h3.7v.9h-4.7v-8.2h1Z" fill="#fff"/>
        <path d="M266.1,232.3l2.4-7.1h1.1l-2.9,8.2h-1.1l-2.9-8.2h1.1l2.4,7.1h-.1Z" fill="#fff"/>
        <path d="M269.8,233.4l2.8-8.2h1.2l2.8,8.2h-1.1l-.7-2.1h-3.3l-.7,2.1h-1.1ZM271.9,230.5h2.7l-1.4-4.1-1.4,4.1Z" fill="#fff"/>
      </g>
      <g>
        <path d="M305.1,233.5c-.7,0-1.3-.2-1.8-.5-.5-.3-1-.8-1.3-1.4-.3-.6-.5-1.4-.5-2.4s.2-1.8.5-2.4c.3-.6.7-1.1,1.3-1.4s1.1-.5,1.8-.5,1.3.2,1.8.5,1,.8,1.3,1.4c.3.6.5,1.4.5,2.4s-.2,1.7-.5,2.4c-.3.6-.7,1.1-1.3,1.4s-1.1.5-1.8.5ZM305.1,232.6c.8,0,1.4-.3,1.8-.8.4-.6.7-1.4.7-2.5s-.2-1.9-.7-2.5c-.4-.6-1.1-.9-1.8-.9s-1.4.3-1.8.9c-.5.6-.7,1.4-.7,2.5s.2,1.9.7,2.5c.5.6,1.1.8,1.8.8Z" fill="#fff"/>
        <path d="M309.4,226v-.9h6.4v.9h-2.9l.2-.2v7.6h-1v-7.6l.2.2h-2.9Z" fill="#fff"/>
        <path d="M317.2,225.2h1v3.6h4.1v-3.6h1v8.2h-1v-3.7h-4.1v3.7h-1v-8.2Z" fill="#fff"/>
        <path d="M325.9,233.4v-8.2h5.1v.9h-4v2.8h3.8v.9h-3.8v2.8h4v.9h-5.1Z" fill="#fff"/>
        <path d="M333.3,233.4v-8.2h2.9c.9,0,1.6.2,2.1.7.5.4.7,1,.7,1.8s-.2,1.3-.7,1.7-1.2.7-2.1.7h-1.8v3.4h-1ZM334.3,229.3h1.8c.6,0,1.1-.2,1.4-.5.3-.3.5-.7.5-1.2s-.2-.9-.5-1.2c-.3-.3-.8-.4-1.3-.4h-1.8v3.3ZM337.9,233.4l-2.4-3.7h1.1l2.6,3.7h-1.3Z" fill="#fff"/>
      </g>
    </g>
    <g>
      <g>
        <path d="M3.7,33.5h.7v4.2h1.1v.7h-1.1v1.5h-.8v-1.5H.3v-.6l3.3-4.3ZM3.6,34.8l-2.4,3h2.4v-3Z" fill="#fff"/>
        <path d="M8.5,40.1c-.4,0-.8,0-1.1-.2-.3-.1-.6-.4-.8-.6-.2-.3-.3-.6-.3-1h.8c0,.4.1.7.4.9.3.2.6.3,1,.3s.8-.1,1.1-.4c.3-.3.4-.6.4-1,0-.8-.5-1.2-1.6-1.2h-1.7l.3-3.1h3.5v.7h-2.9l.2-.3-.2,2.2h-.1c.2-.1.3-.2.5-.2.2,0,.4,0,.5,0,.7,0,1.2.2,1.6.5s.6.8.6,1.4,0,.8-.3,1.1c-.2.3-.4.6-.8.8-.3.2-.7.3-1.2.3Z" fill="#fff"/>
      </g>
      <g>
        <path d="M3.4,52.5h.7v4.2h1.1v.7h-1.1v1.5h-.8v-1.5H0v-.6l3.3-4.3ZM3.4,53.8l-2.4,3h2.4v-3Z" fill="#fff"/>
        <path d="M8.4,59.1c-.5,0-.9-.1-1.3-.4-.4-.2-.7-.6-.9-1.1-.2-.5-.3-1.1-.3-1.8s.1-1.3.3-1.8c.2-.5.5-.8.9-1.1.4-.2.8-.4,1.3-.4s.9.1,1.3.4.7.6.9,1.1c.2.5.3,1.1.3,1.8s-.1,1.3-.3,1.8-.5.9-.9,1.1c-.4.2-.8.4-1.3.4ZM8.4,58.4c.5,0,1-.2,1.2-.7.3-.4.4-1.1.4-1.9s-.1-1.4-.4-1.9c-.3-.4-.7-.7-1.2-.7s-.9.2-1.2.7-.4,1.1-.4,1.9.1,1.4.4,1.9c.3.4.7.7,1.2.7Z" fill="#fff"/>
      </g>
      <g>
        <path d="M2.7,78.1c-.3,0-.6,0-.9-.1s-.6-.2-.8-.4c-.2-.2-.4-.4-.6-.6s-.2-.6-.2-.9h.8c0,.3,0,.5.2.7.1.2.3.3.6.4.2.1.5.2.8.2.5,0,.8-.1,1.1-.3.3-.2.4-.5.4-.9s0-.4-.2-.6c-.1-.2-.3-.3-.5-.4-.2,0-.5-.1-.9-.1h-.7v-.6h.5c.5,0,.9,0,1.2-.3.3-.2.4-.5.4-.8s-.1-.6-.3-.8-.6-.3-1-.3-.6,0-.9.2c-.3.1-.4.4-.5.7H.5c0-.4.2-.7.4-1,.2-.2.5-.4.8-.5.3-.1.7-.2,1-.2s.8,0,1.1.2c.3.1.6.4.8.6.2.3.3.6.3.9s0,.6-.3.9c-.2.2-.5.4-.8.5.4.1.7.3,1,.6.3.3.4.6.4,1s0,.7-.3,1c-.2.3-.5.5-.8.7-.3.2-.8.2-1.2.2Z" fill="#fff"/>
        <path d="M8.5,78.1c-.4,0-.8,0-1.1-.2-.3-.1-.6-.4-.8-.6-.2-.3-.3-.6-.3-1h.8c0,.4.1.7.4.9.3.2.6.3,1,.3s.8-.1,1.1-.4c.3-.3.4-.6.4-1,0-.8-.5-1.2-1.6-1.2h-1.7l.3-3.1h3.5v.7h-2.9l.2-.3-.2,2.2h-.1c.2-.1.3-.2.5-.2.2,0,.4,0,.5,0,.7,0,1.2.2,1.6.5s.6.8.6,1.4,0,.8-.3,1.1c-.2.3-.4.6-.8.8-.3.2-.7.3-1.2.3Z" fill="#fff"/>
      </g>
      <g>
        <path d="M2.5,97.1c-.3,0-.6,0-.9-.1s-.6-.2-.8-.4c-.2-.2-.4-.4-.6-.6s-.2-.6-.2-.9h.8c0,.3,0,.5.2.7.1.2.3.3.6.4.2.1.5.2.8.2.5,0,.8-.1,1.1-.3.3-.2.4-.5.4-.9s0-.4-.2-.6c-.1-.2-.3-.3-.5-.4-.2,0-.5-.1-.9-.1h-.7v-.6h.5c.5,0,.9,0,1.2-.3.3-.2.4-.5.4-.8s-.1-.6-.3-.8-.6-.3-1-.3-.6,0-.9.2c-.3.1-.4.4-.5.7H.2c0-.4.2-.7.4-1,.2-.2.5-.4.8-.5.3-.1.7-.2,1-.2s.8,0,1.1.2c.3.1.6.4.8.6.2.3.3.6.3.9s0,.6-.3.9c-.2.2-.5.4-.8.5.4.1.7.3,1,.6.3.3.4.6.4,1s0,.7-.3,1c-.2.3-.5.5-.8.7-.3.2-.8.2-1.2.2Z" fill="#fff"/>
        <path d="M8.4,97.1c-.5,0-.9-.1-1.3-.4-.4-.2-.7-.6-.9-1.1-.2-.5-.3-1.1-.3-1.8s.1-1.3.3-1.8c.2-.5.5-.8.9-1.1.4-.2.8-.4,1.3-.4s.9.1,1.3.4.7.6.9,1.1c.2.5.3,1.1.3,1.8s-.1,1.3-.3,1.8-.5.9-.9,1.1c-.4.2-.8.4-1.3.4ZM8.4,96.4c.5,0,1-.2,1.2-.7.3-.4.4-1.1.4-1.9s-.1-1.4-.4-1.9c-.3-.4-.7-.7-1.2-.7s-.9.2-1.2.7-.4,1.1-.4,1.9.1,1.4.4,1.9c.3.4.7.7,1.2.7Z" fill="#fff"/>
      </g>
      <g>
        <path d="M.5,116v-.9c0-.4,0-.7.2-.9.1-.2.3-.4.5-.6.2-.2.5-.3.8-.4l1.2-.5c.3-.1.6-.3.7-.5.2-.2.2-.5.2-.8s-.1-.6-.3-.8c-.2-.2-.5-.3-.9-.3s-.7,0-1,.3c-.3.2-.4.4-.4.8h-.9c0-.4.1-.7.3-.9.2-.3.5-.4.8-.6.3-.1.7-.2,1.2-.2s.8,0,1.1.2c.3.2.6.4.8.7.2.3.3.6.3,1s0,.6-.2.9c-.1.2-.3.4-.5.6s-.5.3-.8.4l-1.3.5c-.3.1-.6.3-.7.4s-.2.4-.2.7v.3h3.7v.7H.5Z" fill="#fff"/>
        <path d="M8.5,116.1c-.4,0-.8,0-1.1-.2-.3-.1-.6-.4-.8-.6-.2-.3-.3-.6-.3-1h.8c0,.4.1.7.4.9.3.2.6.3,1,.3s.8-.1,1.1-.4c.3-.3.4-.6.4-1,0-.8-.5-1.2-1.6-1.2h-1.7l.3-3.1h3.5v.7h-2.9l.2-.3-.2,2.2h-.1c.2-.1.3-.2.5-.2.2,0,.4,0,.5,0,.7,0,1.2.2,1.6.5s.6.8.6,1.4,0,.8-.3,1.1c-.2.3-.4.6-.8.8-.3.2-.7.3-1.2.3Z" fill="#fff"/>
      </g>
      <g>
        <path d="M.2,135.1v-.9c0-.4,0-.7.2-.9.1-.2.3-.4.5-.6.2-.2.5-.3.8-.4l1.2-.5c.3-.1.6-.3.7-.5.2-.2.2-.5.2-.8s-.1-.6-.3-.8c-.2-.2-.5-.3-.9-.3s-.7,0-1,.3c-.3.2-.4.4-.4.8H.3c0-.4.1-.7.3-.9.2-.3.5-.4.8-.6.3-.1.7-.2,1.2-.2s.8,0,1.1.2c.3.2.6.4.8.7.2.3.3.6.3,1s0,.6-.2.9c-.1.2-.3.4-.5.6s-.5.3-.8.4l-1.3.5c-.3.1-.6.3-.7.4s-.2.4-.2.7v.3h3.7v.7H.2Z" fill="#fff"/>
        <path d="M8.4,135.2c-.5,0-.9-.1-1.3-.4-.4-.2-.7-.6-.9-1.1-.2-.5-.3-1.1-.3-1.8s.1-1.3.3-1.8c.2-.5.5-.8.9-1.1.4-.2.8-.4,1.3-.4s.9.1,1.3.4.7.6.9,1.1c.2.5.3,1.1.3,1.8s-.1,1.3-.3,1.8-.5.9-.9,1.1c-.4.2-.8.4-1.3.4ZM8.4,134.4c.5,0,1-.2,1.2-.7.3-.4.4-1.1.4-1.9s-.1-1.4-.4-1.9c-.3-.4-.7-.7-1.2-.7s-.9.2-1.2.7-.4,1.1-.4,1.9.1,1.4.4,1.9c.3.4.7.7,1.2.7Z" fill="#fff"/>
      </g>
      <g>
        <path d="M4,147.7h.6v6.3h-.8v-5.4c-.2.1-.3.2-.5.3s-.4,0-.5,0v-.8c.2,0,.4,0,.6-.2.2,0,.4-.2.6-.3Z" fill="#fff"/>
        <path d="M8.5,154.2c-.4,0-.8,0-1.1-.2-.3-.1-.6-.4-.8-.6-.2-.3-.3-.6-.3-1h.8c0,.4.1.7.4.9.3.2.6.3,1,.3s.8-.1,1.1-.4c.3-.3.4-.6.4-1,0-.8-.5-1.2-1.6-1.2h-1.7l.3-3.1h3.5v.7h-2.9l.2-.3-.2,2.2h-.1c.2-.1.3-.2.5-.2.2,0,.4,0,.5,0,.7,0,1.2.2,1.6.5s.6.8.6,1.4,0,.8-.3,1.1c-.2.3-.4.6-.8.8-.3.2-.7.3-1.2.3Z" fill="#fff"/>
      </g>
      <g>
        <path d="M3.8,166.8h.6v6.3h-.8v-5.4c-.2.1-.3.2-.5.3s-.4,0-.5,0v-.8c.2,0,.4,0,.6-.2.2,0,.4-.2.6-.3Z" fill="#fff"/>
        <path d="M8.4,173.2c-.5,0-.9-.1-1.3-.4-.4-.2-.7-.6-.9-1.1-.2-.5-.3-1.1-.3-1.8s.1-1.3.3-1.8c.2-.5.5-.8.9-1.1.4-.2.8-.4,1.3-.4s.9.1,1.3.4c.4.2.7.6.9,1.1s.3,1.1.3,1.8-.1,1.3-.3,1.8-.5.8-.9,1.1c-.4.2-.8.4-1.3.4ZM8.4,172.5c.5,0,1-.2,1.2-.7.3-.4.4-1.1.4-1.9s-.1-1.4-.4-1.9c-.3-.4-.7-.7-1.2-.7s-.9.2-1.2.7-.4,1.1-.4,1.9.1,1.4.4,1.9.7.7,1.2.7Z" fill="#fff"/>
      </g>
      <path d="M8.5,192.2c-.4,0-.8,0-1.1-.2-.3-.1-.6-.4-.8-.6-.2-.3-.3-.6-.3-1h.8c0,.4.1.7.4.9.3.2.6.3,1,.3s.8-.1,1.1-.4c.3-.3.4-.6.4-1,0-.8-.5-1.2-1.6-1.2h-1.7l.3-3.1h3.5v.7h-2.9l.2-.3-.2,2.2h-.1c.2-.1.3-.2.5-.2.2,0,.4,0,.5,0,.7,0,1.2.2,1.6.5s.6.8.6,1.4,0,.8-.3,1.1c-.2.3-.4.6-.8.8-.3.2-.7.3-1.2.3Z" fill="#fff"/>
      <path d="M8.4,211.3c-.5,0-.9-.1-1.3-.4-.4-.2-.7-.6-.9-1.1-.2-.5-.3-1.1-.3-1.8s.1-1.3.3-1.8c.2-.5.5-.8.9-1.1.4-.2.8-.4,1.3-.4s.9.1,1.3.4.7.6.9,1.1c.2.5.3,1.1.3,1.8s-.1,1.3-.3,1.8-.5.9-.9,1.1c-.4.2-.8.4-1.3.4ZM8.4,210.5c.5,0,1-.2,1.2-.7.3-.4.4-1.1.4-1.9s-.1-1.4-.4-1.9c-.3-.4-.7-.7-1.2-.7s-.9.2-1.2.7-.4,1.1-.4,1.9.1,1.4.4,1.9c.3.4.7.7,1.2.7Z" fill="#fff"/>
    </g>
    <g>
      <rect x="171.7" y="252.1" width="6.5" height="6.5" fill="#e72264"/>
      <rect x="131.4" y="252.1" width="6.5" height="6.5" fill="#3a97d3"/>
      <rect x="212.2" y="252.1" width="6.5" height="6.5" fill="#2dab61"/>
      <g>
        <path d="M140.2,258.6v-.9c0-.4,0-.7.2-.9.1-.2.3-.4.5-.6.2-.2.5-.3.8-.4l1.2-.5c.3-.1.6-.3.7-.5.2-.2.2-.5.2-.8s-.1-.6-.3-.8c-.2-.2-.5-.3-.9-.3s-.7,0-1,.3c-.3.2-.4.4-.4.8h-.9c0-.4.1-.7.3-.9.2-.3.5-.4.8-.6.3-.1.7-.2,1.2-.2s.8,0,1.1.2c.3.2.6.4.8.7.2.3.3.6.3,1s0,.6-.2.9c-.1.2-.3.4-.5.6s-.5.3-.8.4l-1.3.5c-.3.1-.6.3-.7.4s-.2.4-.2.7v.3h3.7v.7h-4.5Z" fill="#fff"/>
        <path d="M148.4,258.7c-.5,0-.9-.1-1.3-.4-.4-.2-.7-.6-.9-1.1-.2-.5-.3-1.1-.3-1.8s.1-1.3.3-1.8c.2-.5.5-.8.9-1.1.4-.2.8-.4,1.3-.4s.9.1,1.3.4.7.6.9,1.1c.2.5.3,1.1.3,1.8s-.1,1.3-.3,1.8-.5.9-.9,1.1c-.4.2-.8.4-1.3.4ZM148.4,257.9c.5,0,1-.2,1.2-.7.3-.4.4-1.1.4-1.9s-.1-1.4-.4-1.9c-.3-.4-.7-.7-1.2-.7s-.9.2-1.2.7-.4,1.1-.4,1.9.1,1.4.4,1.9c.3.4.7.7,1.2.7Z" fill="#fff"/>
        <path d="M152,258.6v-.9c0-.4,0-.7.2-.9.1-.2.3-.4.5-.6.2-.2.5-.3.8-.4l1.2-.5c.3-.1.6-.3.7-.5.2-.2.2-.5.2-.8s-.1-.6-.3-.8c-.2-.2-.5-.3-.9-.3s-.7,0-1,.3c-.3.2-.4.4-.4.8h-.9c0-.4.1-.7.3-.9.2-.3.5-.4.8-.6.3-.1.7-.2,1.2-.2s.8,0,1.1.2c.3.2.6.4.8.7.2.3.3.6.3,1s0,.6-.2.9c-.1.2-.3.4-.5.6s-.5.3-.8.4l-1.3.5c-.3.1-.6.3-.7.4s-.2.4-.2.7v.3h3.7v.7h-4.5Z" fill="#fff"/>
        <path d="M157.9,258.6v-.9c0-.4,0-.7.2-.9.1-.2.3-.4.5-.6.2-.2.5-.3.8-.4l1.2-.5c.3-.1.6-.3.7-.5.2-.2.2-.5.2-.8s-.1-.6-.3-.8c-.2-.2-.5-.3-.9-.3s-.7,0-1,.3c-.3.2-.4.4-.4.8h-.9c0-.4.1-.7.3-.9.2-.3.5-.4.8-.6.3-.1.7-.2,1.2-.2s.8,0,1.1.2c.3.2.6.4.8.7.2.3.3.6.3,1s0,.6-.2.9c-.1.2-.3.4-.5.6s-.5.3-.8.4l-1.3.5c-.3.1-.6.3-.7.4s-.2.4-.2.7v.3h3.7v.7h-4.5Z" fill="#fff"/>
      </g>
      <g>
        <path d="M181.2,258.6v-.9c0-.4,0-.7.2-.9.1-.2.3-.4.5-.6.2-.2.5-.3.8-.4l1.2-.5c.3-.1.6-.3.7-.5.2-.2.2-.5.2-.8s-.1-.6-.3-.8c-.2-.2-.5-.3-.9-.3s-.7,0-1,.3c-.3.2-.4.4-.4.8h-.9c0-.4.1-.7.3-.9.2-.3.5-.4.8-.6.3-.1.7-.2,1.2-.2s.8,0,1.1.2c.3.2.6.4.8.7.2.3.3.6.3,1s0,.6-.2.9c-.1.2-.3.4-.5.6s-.5.3-.8.4l-1.3.5c-.3.1-.6.3-.7.4s-.2.4-.2.7v.3h3.7v.7h-4.5Z" fill="#fff"/>
        <path d="M189.4,258.7c-.5,0-.9-.1-1.3-.4-.4-.2-.7-.6-.9-1.1-.2-.5-.3-1.1-.3-1.8s.1-1.3.3-1.8c.2-.5.5-.8.9-1.1.4-.2.8-.4,1.3-.4s.9.1,1.3.4.7.6.9,1.1c.2.5.3,1.1.3,1.8s-.1,1.3-.3,1.8-.5.9-.9,1.1c-.4.2-.8.4-1.3.4ZM189.4,257.9c.5,0,1-.2,1.2-.7.3-.4.4-1.1.4-1.9s-.1-1.4-.4-1.9c-.3-.4-.7-.7-1.2-.7s-.9.2-1.2.7-.4,1.1-.4,1.9.1,1.4.4,1.9c.3.4.7.7,1.2.7Z" fill="#fff"/>
        <path d="M193,258.6v-.9c0-.4,0-.7.2-.9.1-.2.3-.4.5-.6.2-.2.5-.3.8-.4l1.2-.5c.3-.1.6-.3.7-.5.2-.2.2-.5.2-.8s-.1-.6-.3-.8c-.2-.2-.5-.3-.9-.3s-.7,0-1,.3c-.3.2-.4.4-.4.8h-.9c0-.4.1-.7.3-.9.2-.3.5-.4.8-.6.3-.1.7-.2,1.2-.2s.8,0,1.1.2c.3.2.6.4.8.7.2.3.3.6.3,1s0,.6-.2.9c-.1.2-.3.4-.5.6s-.5.3-.8.4l-1.3.5c-.3.1-.6.3-.7.4s-.2.4-.2.7v.3h3.7v.7h-4.5Z" fill="#fff"/>
        <path d="M201.2,258.7c-.3,0-.6,0-.9-.1s-.6-.2-.8-.4c-.2-.2-.4-.4-.6-.6s-.2-.6-.2-.9h.8c0,.3,0,.5.2.7.1.2.3.3.6.4.2.1.5.2.8.2.5,0,.8-.1,1.1-.3.3-.2.4-.5.4-.9s0-.4-.2-.6c-.1-.2-.3-.3-.5-.4-.2,0-.5-.1-.9-.1h-.7v-.6h.5c.5,0,.9,0,1.2-.3.3-.2.4-.5.4-.8s-.1-.6-.3-.8-.6-.3-1-.3-.6,0-.9.2c-.3.1-.4.4-.5.7h-.8c0-.4.2-.7.4-1,.2-.2.5-.4.8-.5.3-.1.7-.2,1-.2s.8,0,1.1.2c.3.1.6.4.8.6.2.3.3.6.3.9s0,.6-.3.9c-.2.2-.5.4-.8.5.4.1.7.3,1,.6.3.3.4.6.4,1s0,.7-.3,1c-.2.3-.5.5-.8.7-.3.2-.8.2-1.2.2Z" fill="#fff"/>
      </g>
      <g>
        <path d="M222.2,258.6v-.9c0-.4,0-.7.2-.9.1-.2.3-.4.5-.6.2-.2.5-.3.8-.4l1.2-.5c.3-.1.6-.3.7-.5.2-.2.2-.5.2-.8s-.1-.6-.3-.8c-.2-.2-.5-.3-.9-.3s-.7,0-1,.3c-.3.2-.4.4-.4.8h-.9c0-.4.1-.7.3-.9.2-.3.5-.4.8-.6.3-.1.7-.2,1.2-.2s.8,0,1.1.2c.3.2.6.4.8.7.2.3.3.6.3,1s0,.6-.2.9c-.1.2-.3.4-.5.6s-.5.3-.8.4l-1.3.5c-.3.1-.6.3-.7.4s-.2.4-.2.7v.3h3.7v.7h-4.5Z" fill="#fff"/>
        <path d="M230.4,258.7c-.5,0-.9-.1-1.3-.4-.4-.2-.7-.6-.9-1.1-.2-.5-.3-1.1-.3-1.8s.1-1.3.3-1.8c.2-.5.5-.8.9-1.1.4-.2.8-.4,1.3-.4s.9.1,1.3.4.7.6.9,1.1c.2.5.3,1.1.3,1.8s-.1,1.3-.3,1.8-.5.9-.9,1.1c-.4.2-.8.4-1.3.4ZM230.4,257.9c.5,0,1-.2,1.2-.7.3-.4.4-1.1.4-1.9s-.1-1.4-.4-1.9c-.3-.4-.7-.7-1.2-.7s-.9.2-1.2.7-.4,1.1-.4,1.9.1,1.4.4,1.9c.3.4.7.7,1.2.7Z" fill="#fff"/>
        <path d="M234,258.6v-.9c0-.4,0-.7.2-.9.1-.2.3-.4.5-.6.2-.2.5-.3.8-.4l1.2-.5c.3-.1.6-.3.7-.5.2-.2.2-.5.2-.8s-.1-.6-.3-.8c-.2-.2-.5-.3-.9-.3s-.7,0-1,.3c-.3.2-.4.4-.4.8h-.9c0-.4.1-.7.3-.9.2-.3.5-.4.8-.6.3-.1.7-.2,1.2-.2s.8,0,1.1.2c.3.2.6.4.8.7.2.3.3.6.3,1s0,.6-.2.9c-.1.2-.3.4-.5.6s-.5.3-.8.4l-1.3.5c-.3.1-.6.3-.7.4s-.2.4-.2.7v.3h3.7v.7h-4.5Z" fill="#fff"/>
        <path d="M242.8,252.1h.7v4.2h1.1v.7h-1.1v1.5h-.8v-1.5h-3.3v-.6l3.3-4.3ZM242.8,253.4l-2.4,3h2.4v-3Z" fill="#fff"/>
      </g>
    </g>
    <g>
      <path d="M94.4,10.7c-.3,0-.5,0-.7-.3s-.2-.4-.2-.7V1.8h-2.9c-.3,0-.5,0-.6-.2-.1-.1-.2-.3-.2-.6s0-.4.2-.6c.1-.1.3-.2.6-.2h7.6c.3,0,.5,0,.6.2.1.1.2.3.2.6s0,.4-.2.6-.3.2-.6.2h-2.9v8c0,.3,0,.5-.2.7s-.4.3-.7.3Z" fill="#fff"/>
      <path d="M102.6,10.8c-.6,0-1.1-.1-1.5-.3-.4-.2-.7-.6-.9-1-.2-.4-.3-1-.3-1.7v-3.6c0-.3,0-.5.2-.7s.4-.2.7-.2.5,0,.7.2.2.4.2.7v3.6c0,.5.1.9.3,1.1.2.2.5.4,1,.4s.9-.2,1.2-.5c.3-.3.5-.8.5-1.3v-3.2c0-.3,0-.5.2-.7s.4-.2.7-.2.5,0,.7.2.2.4.2.7v5.6c0,.6-.3.9-.9.9s-.5,0-.7-.2-.2-.4-.2-.7v-1.1l.2.4c-.2.5-.5.9-.9,1.2-.4.3-.9.4-1.5.4Z" fill="#fff"/>
      <path d="M109.4,10.7c-.3,0-.5,0-.7-.2-.2-.2-.2-.4-.2-.7v-5.6c0-.3,0-.5.2-.7.2-.2.4-.2.7-.2s.5,0,.7.2.2.4.2.7v1.1l-.2-.4c.2-.5.5-.9.9-1.2.4-.3.9-.4,1.5-.4s1.1.1,1.4.4.6.7.8,1.3h-.2c.2-.5.5-.9,1-1.2.5-.3,1-.4,1.6-.4s1,.1,1.4.3.6.5.8,1,.3,1,.3,1.7v3.6c0,.3,0,.5-.2.7s-.4.2-.7.2-.5,0-.7-.2-.2-.4-.2-.7v-3.5c0-.5,0-1-.3-1.2-.2-.3-.5-.4-.9-.4s-.9.2-1.1.5c-.3.3-.4.8-.4,1.4v3.2c0,.3,0,.5-.2.7s-.4.2-.7.2-.5,0-.7-.2-.2-.4-.2-.7v-3.5c0-.5,0-1-.3-1.2-.2-.3-.5-.4-.9-.4s-.9.2-1.1.5-.4.8-.4,1.4v3.2c0,.6-.3.9-.9.9Z" fill="#fff"/>
      <path d="M124.7,10.8c-.7,0-1.4-.2-1.9-.5-.5-.3-1-.7-1.3-1.3s-.5-1.2-.5-2,0-1.1.3-1.6c.2-.5.4-.8.7-1.2.3-.3.7-.6,1.2-.8s1-.3,1.5-.3,1.4.2,1.9.5c.6.3,1,.7,1.3,1.3s.5,1.2.5,2,0,1.1-.3,1.6-.4.9-.7,1.2c-.3.3-.7.6-1.2.8-.5.2-1,.3-1.5.3ZM124.7,9.4c.4,0,.7,0,1-.3.3-.2.5-.4.6-.8.2-.3.2-.8.2-1.3,0-.8-.2-1.4-.5-1.8-.3-.4-.8-.6-1.3-.6s-.7,0-1,.3c-.3.2-.5.4-.6.8s-.2.8-.2,1.3c0,.8.2,1.4.5,1.8s.8.6,1.3.6Z" fill="#fff"/>
      <path d="M130.8,10.7c-.3,0-.5,0-.7-.2s-.2-.4-.2-.7v-5.6c0-.3,0-.5.2-.7s.4-.2.7-.2.5,0,.7.2c.2.2.2.4.2.7v.9h-.1c.1-.6.4-1,.8-1.3.4-.3.9-.5,1.6-.5.2,0,.4,0,.5.2.1.1.2.3.2.6,0,.2,0,.4-.2.6s-.3.2-.6.3h-.3c-.6,0-1.1.3-1.4.6s-.5.7-.5,1.3v3.1c0,.3,0,.5-.2.7s-.4.2-.7.2Z" fill="#fff"/>
      <path d="M142.4,10.8c-.6,0-1.2-.2-1.7-.5-.5-.3-.8-.7-1.1-1.3s-.4-1.2-.4-2,.1-1.4.4-2c.3-.6.6-1,1.1-1.3.5-.3,1-.5,1.7-.5s1.1.1,1.6.4.7.7.9,1.2h-.2V1c0-.3,0-.5.2-.7.2-.2.4-.2.7-.2s.5,0,.7.2c.2.2.2.4.2.7v8.8c0,.3,0,.5-.2.7s-.4.2-.7.2-.5,0-.7-.2-.2-.4-.2-.7v-1.1l.2.4c-.1.5-.4.9-.9,1.2-.5.3-1,.5-1.6.5ZM143,9.4c.4,0,.7,0,1-.3.3-.2.5-.4.6-.8.2-.3.2-.8.2-1.3,0-.8-.2-1.4-.5-1.8-.3-.4-.8-.6-1.3-.6s-.7,0-1,.3c-.3.2-.5.4-.6.8s-.2.8-.2,1.3c0,.8.2,1.4.5,1.8s.8.6,1.3.6Z" fill="#fff"/>
      <path d="M149.4,1.9c-.3,0-.6,0-.8-.3s-.3-.4-.3-.7,0-.6.3-.7c.2-.2.5-.3.8-.3s.6,0,.8.3c.2.2.3.4.3.7s0,.5-.3.7c-.2.2-.5.3-.8.3ZM149.4,10.7c-.3,0-.5,0-.7-.3s-.2-.4-.2-.7v-5.4c0-.3,0-.6.2-.7.2-.2.4-.3.7-.3s.5,0,.7.3c.2.2.2.4.2.7v5.4c0,.3,0,.6-.2.7s-.4.3-.7.3Z" fill="#fff"/>
      <path d="M154.9,10.8c-.4,0-.9,0-1.3-.1s-.9-.2-1.3-.5c-.2,0-.3-.2-.3-.3,0-.1,0-.3,0-.4,0-.1,0-.2.1-.3,0,0,.2-.2.3-.2.1,0,.3,0,.4,0,.4.2.8.3,1.1.4s.7.1,1,.1.8,0,1.1-.2c.2-.2.3-.4.3-.6s0-.4-.2-.5c-.2-.1-.4-.2-.7-.3l-1.5-.3c-.6-.1-1.1-.3-1.4-.7s-.5-.8-.5-1.3.1-.9.4-1.2c.3-.3.6-.6,1.1-.8.5-.2,1-.3,1.6-.3s.8,0,1.2.1c.4,0,.7.2,1.1.4.1,0,.2.2.3.3,0,.1,0,.3,0,.4,0,.1,0,.3-.2.4,0,.1-.2.2-.3.2-.1,0-.3,0-.5,0-.3-.2-.6-.3-.9-.3-.3,0-.5-.1-.8-.1-.5,0-.8,0-1.1.3-.2.2-.3.4-.3.7s0,.4.2.5.3.2.6.3l1.5.3c.6.1,1.1.3,1.5.6s.5.7.5,1.3-.3,1.3-.8,1.7c-.6.4-1.3.6-2.2.6Z" fill="#fff"/>
      <path d="M162.8,10.8c-.6,0-1.2-.1-1.6-.3-.4-.2-.7-.5-1-1-.2-.4-.3-.9-.3-1.6v-3.1h-.8c-.2,0-.4,0-.5-.2-.1-.1-.2-.3-.2-.5s0-.4.2-.5c.1-.1.3-.2.5-.2h.8v-1.3c0-.3,0-.5.2-.7.2-.2.4-.2.7-.2s.5,0,.7.2c.2.2.2.4.2.7v1.3h1.6c.2,0,.4,0,.5.2.1.1.2.3.2.5s0,.4-.2.5c-.1.1-.3.2-.5.2h-1.6v3c0,.5.1.8.3,1.1s.5.4,1,.4.3,0,.4,0c.1,0,.2,0,.3,0,.1,0,.2,0,.3.1,0,0,.1.3.1.5s0,.4,0,.5c0,.2-.2.3-.3.3-.1,0-.3,0-.5.1-.2,0-.4,0-.5,0Z" fill="#fff"/>
      <path d="M166.1,10.7c-.3,0-.5,0-.7-.2s-.2-.4-.2-.7v-5.6c0-.3,0-.5.2-.7s.4-.2.7-.2.5,0,.7.2c.2.2.2.4.2.7v.9h-.1c.1-.6.4-1,.8-1.3.4-.3.9-.5,1.6-.5.2,0,.4,0,.5.2.1.1.2.3.2.6,0,.2,0,.4-.2.6s-.3.2-.6.3h-.3c-.6,0-1.1.3-1.4.6s-.5.7-.5,1.3v3.1c0,.3,0,.5-.2.7s-.4.2-.7.2Z" fill="#fff"/>
      <path d="M171.8,1.9c-.3,0-.6,0-.8-.3s-.3-.4-.3-.7,0-.6.3-.7c.2-.2.5-.3.8-.3s.6,0,.8.3c.2.2.3.4.3.7s0,.5-.3.7c-.2.2-.5.3-.8.3ZM171.8,10.7c-.3,0-.5,0-.7-.3s-.2-.4-.2-.7v-5.4c0-.3,0-.6.2-.7.2-.2.4-.3.7-.3s.5,0,.7.3c.2.2.2.4.2.7v5.4c0,.3,0,.6-.2.7s-.4.3-.7.3Z" fill="#fff"/>
      <path d="M178.8,10.8c-.6,0-1.1-.2-1.6-.5-.5-.3-.8-.7-.9-1.2l.2-.4v1.1c0,.3,0,.5-.2.7s-.4.2-.7.2-.5,0-.7-.2-.2-.4-.2-.7V1c0-.3,0-.5.2-.7.2-.2.4-.2.7-.2s.5,0,.7.2c.2.2.2.4.2.7v3.8h-.2c.2-.5.5-.9.9-1.2s1-.4,1.6-.4,1.2.2,1.7.5c.5.3.8.7,1.1,1.3.3.6.4,1.2.4,2s-.1,1.4-.4,2-.6,1-1.1,1.3c-.5.3-1,.5-1.7.5ZM178.3,9.4c.4,0,.7,0,1-.3.3-.2.5-.4.6-.8.2-.3.2-.8.2-1.3,0-.8-.2-1.4-.5-1.8-.3-.4-.8-.6-1.3-.6s-.7,0-1,.3c-.3.2-.5.4-.6.8s-.2.8-.2,1.3c0,.8.2,1.4.5,1.8s.8.6,1.3.6Z" fill="#fff"/>
      <path d="M186.1,10.8c-.6,0-1.1-.1-1.5-.3-.4-.2-.7-.6-.9-1-.2-.4-.3-1-.3-1.7v-3.6c0-.3,0-.5.2-.7s.4-.2.7-.2.5,0,.7.2.2.4.2.7v3.6c0,.5.1.9.3,1.1.2.2.5.4,1,.4s.9-.2,1.2-.5c.3-.3.5-.8.5-1.3v-3.2c0-.3,0-.5.2-.7s.4-.2.7-.2.5,0,.7.2.2.4.2.7v5.6c0,.6-.3.9-.9.9s-.5,0-.7-.2-.2-.4-.2-.7v-1.1l.2.4c-.2.5-.5.9-.9,1.2-.4.3-.9.4-1.5.4Z" fill="#fff"/>
      <path d="M195.3,10.8c-.6,0-1.2-.1-1.6-.3-.4-.2-.7-.5-1-1-.2-.4-.3-.9-.3-1.6v-3.1h-.8c-.2,0-.4,0-.5-.2-.1-.1-.2-.3-.2-.5s0-.4.2-.5c.1-.1.3-.2.5-.2h.8v-1.3c0-.3,0-.5.2-.7.2-.2.4-.2.7-.2s.5,0,.7.2c.2.2.2.4.2.7v1.3h1.6c.2,0,.4,0,.5.2.1.1.2.3.2.5s0,.4-.2.5c-.1.1-.3.2-.5.2h-1.6v3c0,.5.1.8.3,1.1s.5.4,1,.4.3,0,.4,0c.1,0,.2,0,.3,0,.1,0,.2,0,.3.1,0,0,.1.3.1.5s0,.4,0,.5c0,.2-.2.3-.3.3-.1,0-.3,0-.5.1-.2,0-.4,0-.5,0Z" fill="#fff"/>
      <path d="M198.6,1.9c-.3,0-.6,0-.8-.3s-.3-.4-.3-.7,0-.6.3-.7c.2-.2.5-.3.8-.3s.6,0,.8.3c.2.2.3.4.3.7s0,.5-.3.7c-.2.2-.5.3-.8.3ZM198.6,10.7c-.3,0-.5,0-.7-.3s-.2-.4-.2-.7v-5.4c0-.3,0-.6.2-.7.2-.2.4-.3.7-.3s.5,0,.7.3c.2.2.2.4.2.7v5.4c0,.3,0,.6-.2.7s-.4.3-.7.3Z" fill="#fff"/>
      <path d="M204.7,10.8c-.7,0-1.4-.2-1.9-.5-.5-.3-1-.7-1.3-1.3s-.5-1.2-.5-2,0-1.1.3-1.6c.2-.5.4-.8.7-1.2.3-.3.7-.6,1.2-.8s1-.3,1.5-.3,1.4.2,1.9.5c.6.3,1,.7,1.3,1.3s.5,1.2.5,2,0,1.1-.3,1.6-.4.9-.7,1.2c-.3.3-.7.6-1.2.8-.5.2-1,.3-1.5.3ZM204.7,9.4c.4,0,.7,0,1-.3.3-.2.5-.4.6-.8.2-.3.2-.8.2-1.3,0-.8-.2-1.4-.5-1.8-.3-.4-.8-.6-1.3-.6s-.7,0-1,.3c-.3.2-.5.4-.6.8s-.2.8-.2,1.3c0,.8.2,1.4.5,1.8s.8.6,1.3.6Z" fill="#fff"/>
      <path d="M213.2,10.8c-.7,0-1.4-.2-1.9-.5-.5-.3-1-.7-1.3-1.3s-.5-1.2-.5-2,0-1.1.3-1.6c.2-.5.4-.8.7-1.2.3-.3.7-.6,1.2-.8s1-.3,1.5-.3,1.4.2,1.9.5c.6.3,1,.7,1.3,1.3s.5,1.2.5,2,0,1.1-.3,1.6-.4.9-.7,1.2c-.3.3-.7.6-1.2.8-.5.2-1,.3-1.5.3ZM213.2,9.4c.4,0,.7,0,1-.3.3-.2.5-.4.6-.8.2-.3.2-.8.2-1.3,0-.8-.2-1.4-.5-1.8-.3-.4-.8-.6-1.3-.6s-.7,0-1,.3c-.3.2-.5.4-.6.8s-.2.8-.2,1.3c0,.8.2,1.4.5,1.8s.8.6,1.3.6Z" fill="#fff"/>
      <path d="M219.3,10.7c-.3,0-.5,0-.7-.2s-.2-.4-.2-.7v-5.6c0-.3,0-.5.2-.7s.4-.2.7-.2.5,0,.7.2c.2.2.2.4.2.7v1l-.2-.4c.2-.5.6-.9,1-1.2s1-.4,1.6-.4,1.1.1,1.4.3c.4.2.7.5.8,1s.3,1,.3,1.7v3.6c0,.3,0,.5-.2.7s-.4.2-.7.2-.5,0-.7-.2-.2-.4-.2-.7v-3.5c0-.6-.1-1-.3-1.2-.2-.3-.5-.4-1-.4s-1,.2-1.3.5-.5.8-.5,1.3v3.2c0,.6-.3.9-.9.9Z" fill="#fff"/>
      <path d="M232,13.4c-.3,0-.5,0-.7-.2s-.2-.4-.2-.7V4.2c0-.3,0-.5.2-.7s.4-.2.7-.2.5,0,.7.2.2.4.2.7v1.1l-.2-.4c.1-.5.4-.9.9-1.2.5-.3,1-.5,1.6-.5s1.2.2,1.7.5c.5.3.8.7,1.1,1.3.3.6.4,1.2.4,2s-.1,1.4-.4,2-.6,1-1.1,1.3c-.5.3-1,.5-1.7.5s-1.1-.1-1.6-.4c-.5-.3-.8-.7-.9-1.2h.2v3.3c0,.3,0,.5-.2.7s-.4.2-.7.2ZM234.7,9.4c.4,0,.7,0,1-.3.3-.2.5-.4.6-.8.2-.3.2-.8.2-1.3,0-.8-.2-1.4-.5-1.8-.3-.4-.8-.6-1.3-.6s-.7,0-1,.3c-.3.2-.5.4-.6.8s-.2.8-.2,1.3c0,.8.2,1.4.5,1.8s.8.6,1.3.6Z" fill="#fff"/>
      <path d="M243.4,10.8c-.8,0-1.5-.2-2.1-.5-.6-.3-1-.7-1.4-1.3s-.5-1.2-.5-2,.2-1.4.5-2,.7-1,1.3-1.3c.5-.3,1.2-.5,1.9-.5s1,0,1.4.3c.4.2.8.4,1,.7.3.3.5.7.7,1.1.2.4.2,1,.2,1.5s0,.3-.2.4-.3.1-.5.1h-4.7v-1.1h4.1l-.2.2c0-.5,0-.8-.2-1.1s-.3-.5-.6-.7c-.3-.2-.6-.2-.9-.2s-.8,0-1.1.3c-.3.2-.5.5-.7.8s-.2.8-.2,1.2h0c0,.9.2,1.5.6,1.9s.9.6,1.7.6.5,0,.9,0c.3,0,.6-.2.9-.3.2-.1.4-.2.5-.2.2,0,.3,0,.4.2,0,0,.2.2.2.4s0,.3,0,.4c0,.1-.2.3-.4.4-.3.2-.7.4-1.2.5s-.9.2-1.2.2Z" fill="#fff"/>
      <path d="M248.8,10.7c-.3,0-.5,0-.7-.2s-.2-.4-.2-.7v-5.6c0-.3,0-.5.2-.7s.4-.2.7-.2.5,0,.7.2c.2.2.2.4.2.7v.9h-.1c.1-.6.4-1,.8-1.3.4-.3.9-.5,1.6-.5.2,0,.4,0,.5.2.1.1.2.3.2.6,0,.2,0,.4-.2.6s-.3.2-.6.3h-.3c-.6,0-1.1.3-1.4.6s-.5.7-.5,1.3v3.1c0,.3,0,.5-.2.7s-.4.2-.7.2Z" fill="#fff"/>
      <path d="M259.5,13.4c-.2,0-.4,0-.5-.2s-.2-.3-.2-.4c0-.2,0-.4,0-.6l1-2.2v.8l-2.7-6.2c0-.2-.1-.4,0-.6s.1-.3.3-.4c.2-.1.4-.2.6-.2s.4,0,.5.2.3.3.4.6l2,5h-.4l2-5c.1-.3.2-.5.4-.6s.3-.2.6-.2.4,0,.5.2c.1.1.2.3.2.4s0,.4-.1.6l-3.6,8.2c-.1.3-.3.5-.4.6-.1,0-.3.1-.6.1Z" fill="#fff"/>
      <path d="M268.9,10.8c-.8,0-1.5-.2-2.1-.5-.6-.3-1-.7-1.4-1.3s-.5-1.2-.5-2,.2-1.4.5-2,.7-1,1.3-1.3c.5-.3,1.2-.5,1.9-.5s1,0,1.4.3c.4.2.8.4,1,.7.3.3.5.7.7,1.1.2.4.2,1,.2,1.5s0,.3-.2.4-.3.1-.5.1h-4.7v-1.1h4.1l-.2.2c0-.5,0-.8-.2-1.1s-.3-.5-.6-.7c-.3-.2-.6-.2-.9-.2s-.8,0-1.1.3c-.3.2-.5.5-.7.8s-.2.8-.2,1.2h0c0,.9.2,1.5.6,1.9s.9.6,1.7.6.5,0,.9,0c.3,0,.6-.2.9-.3.2-.1.4-.2.5-.2.2,0,.3,0,.4.2,0,0,.2.2.2.4s0,.3,0,.4c0,.1-.2.3-.4.4-.3.2-.7.4-1.2.5s-.9.2-1.2.2Z" fill="#fff"/>
      <path d="M275.8,10.8c-.5,0-1-.1-1.4-.3-.4-.2-.7-.5-1-.8-.2-.3-.3-.7-.3-1.2s.1-1,.4-1.3c.3-.3.7-.5,1.3-.7.6-.1,1.4-.2,2.5-.2h.7v1.1h-.7c-.6,0-1.1,0-1.5,0s-.6.2-.8.3-.2.3-.2.6.1.6.3.8c.2.2.5.3.9.3s.6,0,.9-.2c.2-.2.4-.4.6-.6.1-.3.2-.6.2-.9v-1.7c0-.5-.1-.8-.3-1.1-.2-.2-.6-.3-1.1-.3s-.6,0-.9.1c-.3,0-.7.2-1,.4-.2,0-.4.1-.5,0-.1,0-.3-.1-.3-.2,0-.1-.1-.3-.1-.4s0-.3.1-.4c0-.1.2-.2.4-.3.5-.2.9-.3,1.3-.4.4,0,.8-.1,1.1-.1.7,0,1.3.1,1.7.3.5.2.8.5,1,1,.2.4.3,1,.3,1.7v3.5c0,.3,0,.5-.2.7s-.4.2-.6.2-.5,0-.6-.2c-.2-.2-.2-.4-.2-.7v-.7h.1c0,.3-.2.6-.4.9s-.5.4-.8.6c-.3.1-.7.2-1,.2Z" fill="#fff"/>
      <path d="M282.4,10.7c-.3,0-.5,0-.7-.2s-.2-.4-.2-.7v-5.6c0-.3,0-.5.2-.7s.4-.2.7-.2.5,0,.7.2c.2.2.2.4.2.7v.9h-.1c.1-.6.4-1,.8-1.3.4-.3.9-.5,1.6-.5.2,0,.4,0,.5.2.1.1.2.3.2.6,0,.2,0,.4-.2.6s-.3.2-.6.3h-.3c-.6,0-1.1.3-1.4.6s-.5.7-.5,1.3v3.1c0,.3,0,.5-.2.7s-.4.2-.7.2Z" fill="#fff"/>
    </g>
  </g>
</svg>