<?xml version="1.0" encoding="UTF-8"?>
<svg id="b" data-name="Layer 2" xmlns="http://www.w3.org/2000/svg" width="128.7mm" height="86.2mm" viewBox="0 0 365 244.3">
  <g id="c" data-name="Layer 7">
    <g>
      <polyline points="365 189 48.3 189 48.3 30.1 365 30.1" fill="none" stroke="#fff" stroke-miterlimit="10" stroke-width="2"/>
      <line x1="48.3" y1="35.4" x2="365" y2="35.4" fill="none" stroke="#c6c6c6" stroke-miterlimit="10"/>
      <line x1="48.3" y1="40.4" x2="365" y2="40.4" fill="none" stroke="#c6c6c6" stroke-miterlimit="10"/>
      <line x1="48.3" y1="46.3" x2="365" y2="46.3" fill="none" stroke="#c6c6c6" stroke-miterlimit="10"/>
      <line x1="48.3" y1="51.3" x2="365" y2="51.3" fill="none" stroke="#c6c6c6" stroke-miterlimit="10"/>
      <line x1="48.3" y1="56.3" x2="365" y2="56.3" fill="none" stroke="#fff" stroke-miterlimit="10" stroke-width="2"/>
      <line x1="48.3" y1="61.3" x2="365" y2="61.3" fill="none" stroke="#c6c6c6" stroke-miterlimit="10"/>
      <line x1="48.3" y1="67.1" x2="365" y2="67.1" fill="none" stroke="#c6c6c6" stroke-miterlimit="10"/>
      <line x1="48.3" y1="72.1" x2="365" y2="72.1" fill="none" stroke="#c6c6c6" stroke-miterlimit="10"/>
      <line x1="48.3" y1="77.1" x2="365" y2="77.1" fill="none" stroke="#c6c6c6" stroke-miterlimit="10"/>
      <line x1="48.3" y1="83.5" x2="365" y2="83.5" fill="none" stroke="#fff" stroke-miterlimit="10" stroke-width="2"/>
      <line x1="48.3" y1="88.6" x2="365" y2="88.6" fill="none" stroke="#c6c6c6" stroke-miterlimit="10"/>
      <line x1="48.3" y1="94.5" x2="365" y2="94.5" fill="none" stroke="#c6c6c6" stroke-miterlimit="10"/>
      <line x1="48.3" y1="99.3" x2="365" y2="99.3" fill="none" stroke="#c6c6c6" stroke-miterlimit="10"/>
      <line x1="48.3" y1="104.8" x2="365" y2="104.8" fill="none" stroke="#c6c6c6" stroke-miterlimit="10"/>
      <line x1="48.3" y1="109.5" x2="365" y2="109.5" fill="none" stroke="#fff" stroke-miterlimit="10" stroke-width="2"/>
      <line x1="48.3" y1="115.3" x2="365" y2="115.3" fill="none" stroke="#c6c6c6" stroke-miterlimit="10"/>
      <line x1="48.3" y1="120.5" x2="365" y2="120.5" fill="none" stroke="#c6c6c6" stroke-miterlimit="10"/>
      <line x1="48.3" y1="125.6" x2="365" y2="125.6" fill="none" stroke="#c6c6c6" stroke-miterlimit="10"/>
      <line x1="48.3" y1="130.4" x2="365" y2="130.4" fill="none" stroke="#c6c6c6" stroke-miterlimit="10"/>
      <line x1="48.3" y1="136.1" x2="365" y2="136.1" fill="none" stroke="#fff" stroke-miterlimit="10" stroke-width="2"/>
      <line x1="48.3" y1="141.9" x2="365" y2="141.9" fill="none" stroke="#c6c6c6" stroke-miterlimit="10"/>
      <line x1="48.3" y1="147.3" x2="365" y2="147.3" fill="none" stroke="#c6c6c6" stroke-miterlimit="10"/>
      <line x1="48.3" y1="152.4" x2="365" y2="152.4" fill="none" stroke="#c6c6c6" stroke-miterlimit="10"/>
      <line x1="48.3" y1="157.9" x2="365" y2="157.9" fill="none" stroke="#c6c6c6" stroke-miterlimit="10"/>
      <line x1="48.3" y1="163" x2="365" y2="163" fill="none" stroke="#fff" stroke-miterlimit="10" stroke-width="2"/>
      <line x1="48.3" y1="168.3" x2="365" y2="168.3" fill="none" stroke="#c6c6c6" stroke-miterlimit="10"/>
      <line x1="48.3" y1="173.6" x2="365" y2="173.6" fill="none" stroke="#c6c6c6" stroke-miterlimit="10"/>
      <line x1="48.3" y1="178.6" x2="365" y2="178.6" fill="none" stroke="#c6c6c6" stroke-miterlimit="10"/>
      <line x1="48.3" y1="184.2" x2="365" y2="184.2" fill="none" stroke="#c6c6c6" stroke-miterlimit="10"/>
      <rect x="57.5" y="42.3" width="6.8" height="6.8" fill="#3a97d3"/>
      <rect x="196.9" y="47.7" width="6.8" height="6.8" fill="#3a97d3"/>
      <rect x="235" y="170.1" width="6.8" height="6.8" fill="#3a97d3"/>
      <rect x="95.6" y="90.4" width="6.8" height="6.8" fill="#3a97d3"/>
      <rect x="158.5" y="164.8" width="6.8" height="6.8" fill="#3a97d3"/>
      <rect x="133" y="154.3" width="6.8" height="6.8" fill="#3a97d3"/>
      <rect x="108" y="165.5" width="6.8" height="6.8" fill="#3a97d3"/>
      <rect x="82.7" y="164.7" width="6.8" height="6.8" fill="#3a97d3"/>
      <rect x="70.3" y="150.1" width="6.8" height="6.8" fill="#3a97d3"/>
      <rect x="120.4" y="143.8" width="6.8" height="6.8" fill="#3a97d3"/>
      <rect x="145.7" y="138.8" width="6.8" height="6.8" fill="#3a97d3"/>
      <rect x="171.4" y="79.9" width="6.8" height="6.8" fill="#3a97d3"/>
      <rect x="247" y="175" width="6.8" height="6.8" fill="#3a97d3"/>
      <rect x="298" y="186.3" width="6.8" height="6.8" fill="#3a97d3"/>
      <rect x="285.4" y="185.4" width="6.8" height="6.8" fill="#3a97d3"/>
      <rect x="259.9" y="132.6" width="6.8" height="6.8" fill="#3a97d3"/>
      <rect x="272.7" y="180.6" width="6.8" height="6.8" fill="#3a97d3"/>
      <rect x="209.7" y="159.4" width="6.8" height="6.8" fill="#3a97d3"/>
      <rect x="222.2" y="170.1" width="6.8" height="6.8" fill="#3a97d3"/>
      <rect x="183.9" y="149" width="6.8" height="6.8" fill="#3a97d3"/>
      <rect x="134" y="81.1" width="4.8" height="4.8" transform="translate(99 -72) rotate(45)" fill="#e72264"/>
      <rect x="172.4" y="75.4" width="4.8" height="4.8" transform="translate(106.2 -100.8) rotate(45)" fill="#e72264"/>
      <rect x="248" y="97.3" width="4.8" height="4.8" transform="translate(143.8 -147.9) rotate(45)" fill="#e72264"/>
      <rect x="159.5" y="123.3" width="4.8" height="4.8" transform="translate(136.3 -77.7) rotate(45)" fill="#e72264"/>
      <rect x="146.7" y="123" width="4.8" height="4.8" transform="translate(132.4 -68.7) rotate(45)" fill="#e72264"/>
      <rect x="58.5" y="133.7" width="4.8" height="4.8" transform="translate(114.1 -3.2) rotate(45)" fill="#e72264"/>
      <rect x="71.3" y="144.8" width="4.8" height="4.8" transform="translate(125.6 -9) rotate(45)" fill="#e72264"/>
      <rect x="109" y="160.7" width="4.8" height="4.8" transform="translate(148 -31) rotate(45)" fill="#e72264"/>
      <rect x="121.7" y="155.5" width="4.8" height="4.8" transform="translate(148 -41.5) rotate(45)" fill="#e72264"/>
      <rect x="184.9" y="155.5" width="4.8" height="4.8" transform="translate(166.5 -86.2) rotate(45)" fill="#e72264"/>
      <rect x="197.9" y="144.9" width="4.8" height="4.8" transform="translate(162.8 -98.5) rotate(45)" fill="#e72264"/>
      <rect x="210.7" y="139.5" width="4.8" height="4.8" transform="translate(162.7 -109.1) rotate(45)" fill="#e72264"/>
      <rect x="236" y="123" width="4.8" height="4.8" transform="translate(158.5 -131.9) rotate(45)" fill="#e72264"/>
      <rect x="223.2" y="165.9" width="4.8" height="4.8" transform="translate(185.1 -110.2) rotate(45)" fill="#e72264"/>
      <rect x="273.7" y="160.7" width="4.8" height="4.8" transform="translate(196.2 -147.5) rotate(45)" fill="#e72264"/>
      <rect x="260.9" y="181.8" width="4.8" height="4.8" transform="translate(207.4 -132.2) rotate(45)" fill="#e72264"/>
      <rect x="286.4" y="128.5" width="4.8" height="4.8" transform="translate(177.1 -165.8) rotate(45)" fill="#e72264"/>
      <rect x="299" y="181.8" width="4.8" height="4.8" transform="translate(218.5 -159.2) rotate(45)" fill="#e72264"/>
      <rect x="96.6" y="176.5" width="4.8" height="4.8" transform="translate(155.5 -17.6) rotate(45)" fill="#e72264"/>
      <rect x="84.5" y="181.8" width="4.8" height="4.8" transform="translate(155.7 -7.5) rotate(45)" fill="#e72264"/>
    </g>
  </g>
  <g id="d" data-name="Layer 5">
    <g>
      <path d="M155.7,215.4c-.4,0-.7-.1-1.1-.3-.3-.2-.6-.5-.8-.9-.2-.4-.3-.8-.3-1.3s0-1,.3-1.3c.2-.4.4-.7.8-.9.3-.2.7-.3,1-.3s.7,0,.9.3c.3.2.5.4.6.7.1.3.2.7.2,1.2h-.3c0-.3,0-.6-.2-.8-.1-.2-.3-.4-.5-.5s-.4-.2-.6-.2-.5,0-.7.2c-.2.1-.4.4-.5.6-.1.3-.2.6-.2,1s0,.7.2,1c.1.3.3.5.5.6.2.1.5.2.7.2s.4,0,.6-.2c.2-.1.4-.3.5-.5.1-.2.2-.5.2-.8h.3c0,.5,0,.9-.2,1.2s-.4.6-.6.7c-.3.2-.6.3-.9.3ZM157.3,215.3v-1.1c-.1,0-.1-5.7-.1-5.7h.8v6.9h-.7Z" fill="#fff"/>
      <path d="M160.4,209.4c-.2,0-.3,0-.4-.1,0,0-.1-.2-.1-.4s0-.3.1-.4c0,0,.2-.1.4-.1s.3,0,.4.1c0,0,.1.2.1.4s0,.3-.1.4c0,0-.2.1-.4.1ZM160,215.3v-4.8h.8v4.8h-.8Z" fill="#fff"/>
      <path d="M164.7,215.4c-.5,0-.9,0-1.2-.2-.3-.1-.5-.3-.7-.5-.2-.2-.2-.5-.3-.8h.8c0,.3.1.5.4.7.2.2.5.2.9.2s.4,0,.6-.1.3-.2.4-.3c.1-.1.2-.2.2-.4s0-.3-.2-.4-.4-.2-.7-.3l-.9-.3c-.4-.1-.7-.3-.9-.5-.2-.2-.3-.5-.3-.8s.2-.7.5-.9c.3-.2.8-.4,1.3-.4s1,.1,1.4.4c.3.2.5.5.5.9h-.8c0-.2-.1-.4-.3-.5-.2-.1-.4-.2-.8-.2s-.6,0-.8.2c-.2.1-.3.3-.3.5,0,.3.3.6.9.7l1,.3c.4.1.7.3.9.5s.3.5.3.8,0,.5-.2.7c-.2.2-.4.4-.7.5-.3.1-.6.2-1,.2Z" fill="#fff"/>
      <path d="M167.6,211.1v-.5h3.1v.5h-3.1ZM169.7,215.4c-.3,0-.5,0-.7-.2s-.4-.3-.5-.5-.2-.5-.2-.8v-4.9h.8v4.9c0,.5.2.7.7.7s.3,0,.4,0c.1,0,.3,0,.4-.1v.6c0,0-.2.1-.4.2-.2,0-.3,0-.5,0Z" fill="#fff"/>
      <path d="M172,215.3v-4.8h.8v4.8h-.8ZM172.6,213.2c0-.6,0-1.1.2-1.5.1-.4.3-.7.5-.9.2-.2.5-.3.8-.3s.2,0,.3,0,.2,0,.3,0v.8c-.1,0-.2,0-.4,0s-.2,0-.3,0c-.3,0-.5,0-.7.2-.2.2-.3.4-.4.7,0,.3-.1.6-.1,1h-.2Z" fill="#fff"/>
      <path d="M176.1,209.4c-.2,0-.3,0-.4-.1,0,0-.1-.2-.1-.4s0-.3.1-.4c0,0,.2-.1.4-.1s.3,0,.4.1c0,0,.1.2.1.4s0,.3-.1.4c0,0-.2.1-.4.1ZM175.7,215.3v-4.8h.8v4.8h-.8Z" fill="#fff"/>
      <path d="M178.7,215.3v-6.9h.8v5.7l-.2,1.1h-.6ZM180.9,215.4c-.3,0-.6,0-.9-.3-.3-.2-.5-.4-.6-.7-.2-.3-.2-.7-.2-1.2h.3c0,.3,0,.6.2.8.1.2.3.4.5.5.2.1.4.2.6.2s.5,0,.7-.2c.2-.1.4-.4.5-.6.1-.3.2-.6.2-1s0-.7-.2-1c-.1-.3-.3-.5-.5-.6-.2-.1-.5-.2-.7-.2s-.4,0-.6.2c-.2.1-.4.3-.5.5-.1.2-.2.5-.2.8h-.3c0-.5,0-.8.2-1.2.1-.3.4-.6.6-.7.3-.2.6-.3.9-.3s.7.1,1,.3c.3.2.6.5.8.9.2.4.3.8.3,1.3s0,1-.3,1.3-.5.7-.8.9c-.3.2-.7.3-1.1.3Z" fill="#fff"/>
      <path d="M184.5,210.5h.8v3c0,.4,0,.7.3.9.2.2.5.3.8.3s.6,0,.8-.2c.2-.2.4-.4.5-.7.1-.3.2-.6.2-1h.3c0,.5,0,1-.2,1.4-.2.4-.4.7-.7.9-.3.2-.6.3-1,.3s-.7,0-1-.2c-.3-.1-.5-.3-.6-.6-.2-.3-.2-.6-.2-1v-3.1ZM187.9,210.5h.8v4.8h-.8v-4.8Z" fill="#fff"/>
      <path d="M190,211.1v-.5h3.1v.5h-3.1ZM192.2,215.4c-.3,0-.5,0-.7-.2s-.4-.3-.5-.5-.2-.5-.2-.8v-4.9h.8v4.9c0,.5.2.7.7.7s.3,0,.4,0c.1,0,.3,0,.4-.1v.6c0,0-.2.1-.4.2-.2,0-.3,0-.5,0Z" fill="#fff"/>
      <path d="M194.9,209.4c-.2,0-.3,0-.4-.1,0,0-.1-.2-.1-.4s0-.3.1-.4c0,0,.2-.1.4-.1s.3,0,.4.1c0,0,.1.2.1.4s0,.3-.1.4c0,0-.2.1-.4.1ZM194.5,215.3v-4.8h.8v4.8h-.8Z" fill="#fff"/>
      <path d="M199.2,215.4c-.4,0-.8,0-1.2-.3s-.6-.5-.8-.9-.3-.8-.3-1.4,0-1,.3-1.4.5-.7.8-.8c.3-.2.7-.3,1.2-.3s.8,0,1.1.3c.3.2.6.5.8.8.2.4.3.8.3,1.4s0,1-.3,1.4c-.2.4-.5.7-.8.9s-.7.3-1.1.3ZM199.2,214.8c.3,0,.6,0,.8-.2.2-.1.4-.4.5-.6s.2-.6.2-1c0-.6-.1-1-.4-1.4-.2-.3-.6-.5-1.1-.5s-.6,0-.8.2c-.2.1-.4.4-.5.6-.1.3-.2.6-.2,1,0,.6.1,1,.4,1.3.2.3.6.5,1.1.5Z" fill="#fff"/>
      <path d="M203,215.3v-4.8h.7v1.1c.1,0,.1,3.7.1,3.7h-.8ZM206.4,215.3v-2.8c0-.5-.1-.8-.3-1s-.5-.4-.9-.4-.5,0-.8.2c-.2.2-.4.4-.5.7-.1.3-.2.6-.2,1h-.3c0-.6,0-1,.2-1.4.1-.4.4-.7.6-.9s.6-.3,1-.3.7,0,1,.3c.3.2.5.4.6.7.1.3.2.7.2,1.1v2.8h-.8Z" fill="#fff"/>
      <path d="M213.2,215.4c-.4,0-.8,0-1.2-.3s-.6-.5-.8-.9-.3-.8-.3-1.4,0-1,.3-1.4.5-.7.8-.8c.3-.2.7-.3,1.2-.3s.8,0,1.1.3c.3.2.6.5.8.8.2.4.3.8.3,1.4s0,1-.3,1.4c-.2.4-.5.7-.8.9s-.7.3-1.1.3ZM213.2,214.8c.3,0,.6,0,.8-.2.2-.1.4-.4.5-.6s.2-.6.2-1c0-.6-.1-1-.4-1.4-.2-.3-.6-.5-1.1-.5s-.6,0-.8.2c-.2.1-.4.4-.5.6-.1.3-.2.6-.2,1,0,.6.1,1,.4,1.3.2.3.6.5,1.1.5Z" fill="#fff"/>
      <path d="M216.4,211.1v-.5h2.6v.5h-2.6ZM217.2,215.3v-5.6c0-.3,0-.6.2-.8.1-.2.3-.4.5-.5.2,0,.4-.1.7-.1s.3,0,.4,0,.3,0,.4,0l-.2.6c-.1,0-.2,0-.3,0,0,0-.2,0-.3,0s-.2,0-.3,0c-.1,0-.2.1-.3.2s-.1.3-.1.5v5.5h-.8Z" fill="#fff"/>
      <path d="M222.8,217.7v-7.2h.7v1.1c.1,0,.1,6,.1,6h-.8ZM225,215.4c-.4,0-.7,0-.9-.2-.3-.2-.5-.4-.6-.7-.1-.3-.2-.7-.2-1.1h.3c0,.3,0,.5.2.8s.3.4.5.5c.2.1.4.2.6.2s.5,0,.7-.2c.2-.1.4-.3.5-.6s.2-.6.2-1,0-.7-.2-1c-.1-.3-.3-.5-.5-.6-.2-.1-.5-.2-.7-.2s-.4,0-.6.2c-.2.1-.4.3-.5.5s-.2.5-.2.8h-.3c0-.5,0-.9.2-1.2.2-.3.4-.6.6-.7.3-.2.6-.2.9-.2s.7.1,1.1.3.6.5.8.9.3.8.3,1.3-.1,1-.3,1.4c-.2.4-.5.7-.8.9-.3.2-.7.3-1.1.3Z" fill="#fff"/>
      <path d="M230,215.4c-.4,0-.7,0-1-.2-.3-.1-.5-.3-.6-.5-.1-.2-.2-.5-.2-.7s0-.6.2-.8.4-.4.7-.5c.3,0,.6-.1,1-.1s.5,0,.8,0c.3,0,.5.1.7.2v.5c-.2,0-.4-.1-.7-.2-.3,0-.5,0-.7,0-.3,0-.6,0-.8.2-.2.1-.3.4-.3.7s0,.4.3.6c.2.2.4.3.8.3s.5,0,.7-.2c.2-.1.4-.3.5-.5.1-.2.2-.4.2-.6h.2c0,.3,0,.6-.2.9-.1.3-.3.5-.6.7-.3.2-.6.3-.9.3ZM231.6,215.3v-1.1c-.1,0-.1-2.1-.1-2.1,0-.4,0-.7-.3-.9s-.5-.3-.8-.3-.4,0-.6,0c-.2,0-.3.2-.4.3,0,.1-.1.3-.1.5h-.9c0-.3,0-.6.3-.8.2-.2.4-.4.7-.5.3,0,.6-.1,1-.1s.7,0,1,.2c.3.1.5.3.7.6s.2.6.2,1.1v3.1h-.7Z" fill="#fff"/>
      <path d="M233.5,211.1v-.5h3.1v.5h-3.1ZM235.7,215.4c-.3,0-.5,0-.7-.2s-.4-.3-.5-.5-.2-.5-.2-.8v-4.9h.8v4.9c0,.5.2.7.7.7s.3,0,.4,0c.1,0,.3,0,.4-.1v.6c0,0-.2.1-.4.2-.2,0-.3,0-.5,0Z" fill="#fff"/>
      <path d="M238.4,209.4c-.2,0-.3,0-.4-.1,0,0-.1-.2-.1-.4s0-.3.1-.4c0,0,.2-.1.4-.1s.3,0,.4.1c0,0,.1.2.1.4s0,.3-.1.4c0,0-.2.1-.4.1ZM238,215.3v-4.8h.8v4.8h-.8Z" fill="#fff"/>
      <path d="M242.7,215.4c-.4,0-.8-.1-1.1-.3s-.6-.5-.8-.9c-.2-.4-.3-.8-.3-1.3s0-1,.3-1.4.4-.7.8-.9c.3-.2.7-.3,1.1-.3s.7,0,.9.2c.3.1.5.3.6.6s.3.5.3.9c0,.3,0,.6,0,1h-3.5v-.5h3l-.2.2c0-.2,0-.4,0-.6,0-.2,0-.4-.2-.5,0-.2-.2-.3-.4-.4-.2-.1-.4-.2-.6-.2s-.6,0-.8.2-.4.4-.5.6c-.1.3-.2.5-.2.8v.3c0,.3,0,.6.2.9.1.3.3.5.5.6.2.2.5.2.8.2s.6,0,.8-.2.3-.4.4-.7h.8c0,.3-.2.6-.3.8-.2.2-.4.4-.7.5s-.6.2-.9.2Z" fill="#fff"/>
      <path d="M246.2,215.3v-4.8h.7v1.1c.1,0,.1,3.7.1,3.7h-.8ZM249.6,215.3v-2.8c0-.5-.1-.8-.3-1s-.5-.4-.9-.4-.5,0-.8.2c-.2.2-.4.4-.5.7-.1.3-.2.6-.2,1h-.3c0-.6,0-1,.2-1.4.1-.4.4-.7.6-.9s.6-.3,1-.3.7,0,1,.3c.3.2.5.4.6.7.1.3.2.7.2,1.1v2.8h-.8Z" fill="#fff"/>
      <path d="M251.6,211.1v-.5h3.1v.5h-3.1ZM253.7,215.4c-.3,0-.5,0-.7-.2s-.4-.3-.5-.5-.2-.5-.2-.8v-4.9h.8v4.9c0,.5.2.7.7.7s.3,0,.4,0c.1,0,.3,0,.4-.1v.6c0,0-.2.1-.4.2-.2,0-.3,0-.5,0Z" fill="#fff"/>
      <path d="M257.7,215.4c-.5,0-.9,0-1.2-.2-.3-.1-.5-.3-.7-.5-.2-.2-.2-.5-.3-.8h.8c0,.3.1.5.4.7.2.2.5.2.9.2s.4,0,.6-.1.3-.2.4-.3c.1-.1.2-.2.2-.4s0-.3-.2-.4-.4-.2-.7-.3l-.9-.3c-.4-.1-.7-.3-.9-.5-.2-.2-.3-.5-.3-.8s.2-.7.5-.9c.3-.2.8-.4,1.3-.4s1,.1,1.4.4c.3.2.5.5.5.9h-.8c0-.2-.1-.4-.3-.5-.2-.1-.4-.2-.8-.2s-.6,0-.8.2c-.2.1-.3.3-.3.5,0,.3.3.6.9.7l1,.3c.4.1.7.3.9.5s.3.5.3.8,0,.5-.2.7c-.2.2-.4.4-.7.5-.3.1-.6.2-1,.2Z" fill="#fff"/>
    </g>
    <g>
      <path d="M6.9,158.6H2.1v-.7h1c-.3-.2-.6-.5-.8-.7s-.3-.6-.3-1,0-.7.3-1c.2-.3.4-.5.7-.6.3-.1.7-.2,1.1-.2h2.8v.8h-2.8c-.5,0-.8.1-1,.3s-.4.5-.4.9,0,.5.2.8c.2.2.4.4.7.5.3.1.6.2,1,.2h2.3v.8ZM6.9,151.8h-2.8c-.5,0-.8.1-1,.3s-.4.5-.4.9.2.8.5,1,.8.3,1.4.3v.4c-.4,0-.8,0-1.1-.1-.3,0-.6-.2-.8-.4-.2-.2-.4-.4-.5-.6-.1-.2-.2-.5-.2-.8s0-.7.3-1c.2-.3.4-.5.7-.6.3-.1.7-.2,1.1-.2h2.8v.8Z" fill="#fff"/>
      <path d="M7.1,147.4c0,.4,0,.8-.3,1.2s-.5.6-.9.8-.8.3-1.4.3-1,0-1.4-.3-.7-.5-.8-.8c-.2-.3-.3-.7-.3-1.2s0-.8.3-1.1c.2-.3.5-.6.8-.8.4-.2.8-.3,1.4-.3s1,0,1.4.3c.4.2.7.5.9.8s.3.7.3,1.1ZM6.4,147.4c0-.3,0-.6-.2-.8-.1-.2-.4-.4-.6-.5s-.6-.2-1-.2c-.6,0-1,.1-1.4.4-.3.2-.5.6-.5,1.1s0,.6.2.8c.1.2.4.4.6.5.3.1.6.2,1,.2.6,0,1-.1,1.3-.4.3-.2.5-.6.5-1.1Z" fill="#fff"/>
      <path d="M6.9,143.7H2.1v-.7h1.1c0-.1,3.7-.1,3.7-.1v.8ZM6.9,140.2h-2.8c-.5,0-.8.1-1,.3s-.4.5-.4.9,0,.5.2.8c.2.2.4.4.7.5.3.1.6.2,1,.2v.3c-.6,0-1,0-1.4-.2-.4-.1-.7-.4-.9-.6s-.3-.6-.3-1,0-.7.3-1c.2-.3.4-.5.7-.6.3-.1.7-.2,1.1-.2h2.8v.8Z" fill="#fff"/>
      <path d="M2.7,138.3h-.5v-3.1h.5v3.1ZM7.1,136.1c0,.3,0,.5-.2.7s-.3.4-.5.5-.5.2-.8.2H.8v-.8h4.9c.5,0,.7-.2.7-.7s0-.3,0-.4c0-.1,0-.3-.1-.4h.6c0,0,.1.2.2.4,0,.2,0,.3,0,.5Z" fill="#fff"/>
      <path d="M6.9,133.8H0v-.8h6.9v.8ZM6.9,130.4h-2.8c-.5,0-.8.1-1,.3s-.4.5-.4.9,0,.5.2.8c.2.2.4.4.7.5.3.1.6.2,1,.2v.3c-.6,0-1,0-1.4-.2-.4-.1-.7-.4-.9-.6s-.3-.6-.3-1,0-.7.3-1c.2-.3.4-.5.7-.6.3-.1.7-.2,1.1-.2h2.8v.8Z" fill="#fff"/>
      <path d="M7.1,126c0,.5,0,.9-.2,1.2-.1.3-.3.5-.5.7-.2.2-.5.2-.8.3v-.8c.3,0,.5-.1.7-.4.2-.2.2-.5.2-.9s0-.4-.1-.6-.2-.3-.3-.4c-.1-.1-.2-.2-.4-.2s-.3,0-.4.2-.2.4-.3.7l-.3.9c-.1.4-.3.7-.5.9-.2.2-.5.3-.8.3s-.7-.2-.9-.5c-.2-.3-.4-.8-.4-1.3s.1-1,.4-1.4c.2-.3.5-.5.9-.5v.8c-.2,0-.4.1-.5.3-.1.2-.2.4-.2.8s0,.6.2.8c.1.2.3.3.5.3.3,0,.6-.3.7-.9l.3-1c.1-.4.3-.7.5-.9s.5-.3.8-.3.5,0,.7.2c.2.2.4.4.5.7.1.3.2.6.2,1Z" fill="#fff"/>
      <path d="M7.1,118.3c0,.4,0,.8-.3,1.2s-.5.6-.9.8-.8.3-1.4.3-1,0-1.4-.3-.7-.5-.8-.8c-.2-.3-.3-.7-.3-1.2s0-.8.3-1.1c.2-.3.5-.6.8-.8.4-.2.8-.3,1.4-.3s1,0,1.4.3c.4.2.7.5.9.8s.3.7.3,1.1ZM6.4,118.3c0-.3,0-.6-.2-.8-.1-.2-.4-.4-.6-.5s-.6-.2-1-.2c-.6,0-1,.1-1.4.4-.3.2-.5.6-.5,1.1s0,.6.2.8c.1.2.4.4.6.5.3.1.6.2,1,.2.6,0,1-.1,1.3-.4.3-.2.5-.6.5-1.1Z" fill="#fff"/>
      <path d="M2.7,115.1h-.5v-2.6h.5v2.6ZM6.9,114.3H1.4c-.3,0-.6,0-.8-.2-.2-.1-.4-.3-.5-.5,0-.2-.1-.4-.1-.7s0-.3,0-.4,0-.3,0-.4l.6.2c0,.1,0,.2,0,.3,0,0,0,.2,0,.3s0,.2,0,.3c0,.1.1.2.2.3s.3.1.5.1h5.5v.8Z" fill="#fff"/>
      <path d="M7.1,107.4c0,.4,0,.7-.2,1-.1.3-.3.5-.5.6-.2.1-.5.2-.7.2s-.6,0-.8-.2-.4-.4-.5-.7c0-.3-.1-.6-.1-1s0-.5,0-.8c0-.3.1-.5.2-.7h.5c0,.2-.1.4-.2.7,0,.3,0,.5,0,.7,0,.3,0,.6.2.8.1.2.4.3.7.3s.4,0,.6-.3c.2-.2.3-.4.3-.8s0-.5-.2-.7c-.1-.2-.3-.4-.5-.5-.2-.1-.4-.2-.6-.2v-.2c.3,0,.6,0,.9.2.3.1.5.3.7.6.2.3.3.6.3.9ZM6.9,105.7h-1.1c0,.1-2.1.1-2.1.1-.4,0-.7,0-.9.3s-.3.5-.3.8,0,.4,0,.6c0,.2.2.3.3.4.1,0,.3.1.5.1v.9c-.3,0-.6,0-.8-.3-.2-.2-.4-.4-.5-.7,0-.3-.1-.6-.1-1s0-.7.2-1c.1-.3.3-.5.6-.7s.6-.2,1.1-.2h3.1v.7Z" fill="#fff"/>
      <path d="M7.1,101.4c0,.5,0,.9-.2,1.2-.1.3-.3.5-.5.7-.2.2-.5.2-.8.3v-.8c.3,0,.5-.1.7-.4.2-.2.2-.5.2-.9s0-.4-.1-.6-.2-.3-.3-.4c-.1-.1-.2-.2-.4-.2s-.3,0-.4.2-.2.4-.3.7l-.3.9c-.1.4-.3.7-.5.9-.2.2-.5.3-.8.3s-.7-.2-.9-.5c-.2-.3-.4-.8-.4-1.3s.1-1,.4-1.4c.2-.3.5-.5.9-.5v.8c-.2,0-.4.1-.5.3-.1.2-.2.4-.2.8s0,.6.2.8c.1.2.3.3.5.3.3,0,.6-.3.7-.9l.3-1c.1-.4.3-.7.5-.9s.5-.3.8-.3.5,0,.7.2c.2.2.4.4.5.7.1.3.2.6.2,1Z" fill="#fff"/>
      <path d="M7.1,96.2c0,.5,0,.9-.2,1.2-.1.3-.3.5-.5.7-.2.2-.5.2-.8.3v-.8c.3,0,.5-.1.7-.4.2-.2.2-.5.2-.9s0-.4-.1-.6-.2-.3-.3-.4c-.1-.1-.2-.2-.4-.2s-.3,0-.4.2-.2.4-.3.7l-.3.9c-.1.4-.3.7-.5.9-.2.2-.5.3-.8.3s-.7-.2-.9-.5c-.2-.3-.4-.8-.4-1.3s.1-1,.4-1.4c.2-.3.5-.5.9-.5v.8c-.2,0-.4.1-.5.3-.1.2-.2.4-.2.8s0,.6.2.8c.1.2.3.3.5.3.3,0,.6-.3.7-.9l.3-1c.1-.4.3-.7.5-.9s.5-.3.8-.3.5,0,.7.2c.2.2.4.4.5.7.1.3.2.6.2,1Z" fill="#fff"/>
      <path d="M1,92.2c0,.2,0,.3-.1.4,0,0-.2.1-.4.1s-.3,0-.4-.1c0,0-.1-.2-.1-.4s0-.3.1-.4c0,0,.2-.1.4-.1s.3,0,.4.1c0,0,.1.2.1.4ZM6.9,92.6H2.1v-.8h4.8v.8Z" fill="#fff"/>
      <path d="M7.1,87.9c0,.5,0,.9-.2,1.2-.1.3-.3.5-.5.7-.2.2-.5.2-.8.3v-.8c.3,0,.5-.1.7-.4.2-.2.2-.5.2-.9s0-.4-.1-.6-.2-.3-.3-.4c-.1-.1-.2-.2-.4-.2s-.3,0-.4.2-.2.4-.3.7l-.3.9c-.1.4-.3.7-.5.9-.2.2-.5.3-.8.3s-.7-.2-.9-.5c-.2-.3-.4-.8-.4-1.3s.1-1,.4-1.4c.2-.3.5-.5.9-.5v.8c-.2,0-.4.1-.5.3-.1.2-.2.4-.2.8s0,.6.2.8c.1.2.3.3.5.3.3,0,.6-.3.7-.9l.3-1c.1-.4.3-.7.5-.9s.5-.3.8-.3.5,0,.7.2c.2.2.4.4.5.7.1.3.2.6.2,1Z" fill="#fff"/>
      <path d="M2.7,85h-.5v-3.1h.5v3.1ZM7.1,82.8c0,.3,0,.5-.2.7s-.3.4-.5.5-.5.2-.8.2H.8v-.8h4.9c.5,0,.7-.2.7-.7s0-.3,0-.4c0-.1,0-.3-.1-.4h.6c0,0,.1.2.2.4,0,.2,0,.3,0,.5Z" fill="#fff"/>
      <path d="M7.1,79.2c0,.4,0,.7-.2,1-.1.3-.3.5-.5.6-.2.1-.5.2-.7.2s-.6,0-.8-.2-.4-.4-.5-.7c0-.3-.1-.6-.1-1s0-.5,0-.8c0-.3.1-.5.2-.7h.5c0,.2-.1.4-.2.7,0,.3,0,.5,0,.7,0,.3,0,.6.2.8.1.2.4.3.7.3s.4,0,.6-.3c.2-.2.3-.4.3-.8s0-.5-.2-.7c-.1-.2-.3-.4-.5-.5-.2-.1-.4-.2-.6-.2v-.2c.3,0,.6,0,.9.2.3.1.5.3.7.6.2.3.3.6.3.9ZM6.9,77.6h-1.1c0,.1-2.1.1-2.1.1-.4,0-.7,0-.9.3s-.3.5-.3.8,0,.4,0,.6c0,.2.2.3.3.4.1,0,.3.1.5.1v.9c-.3,0-.6,0-.8-.3-.2-.2-.4-.4-.5-.7,0-.3-.1-.6-.1-1s0-.7.2-1c.1-.3.3-.5.6-.7s.6-.2,1.1-.2h3.1v.7Z" fill="#fff"/>
      <path d="M6.9,75H2.1v-.7h1.1c0-.1,3.7-.1,3.7-.1v.8ZM6.9,71.6h-2.8c-.5,0-.8.1-1,.3s-.4.5-.4.9,0,.5.2.8c.2.2.4.4.7.5.3.1.6.2,1,.2v.3c-.6,0-1,0-1.4-.2-.4-.1-.7-.4-.9-.6s-.3-.6-.3-1,0-.7.3-1c.2-.3.4-.5.7-.6.3-.1.7-.2,1.1-.2h2.8v.8Z" fill="#fff"/>
      <path d="M7.1,67.2c0,.4-.1.7-.3,1.1-.2.3-.5.6-.9.8-.4.2-.8.3-1.3.3s-1-.1-1.4-.3c-.4-.2-.7-.5-.9-.8-.2-.3-.3-.7-.3-1.1s0-.5.1-.7c0-.2.2-.4.3-.6.1-.2.3-.3.5-.4.2-.1.4-.2.6-.2v.8c-.2,0-.4.2-.6.4-.2.2-.2.4-.2.7s0,.5.2.7c.1.2.3.4.6.5s.6.2,1,.2.7,0,1-.2c.3-.1.5-.3.6-.5s.2-.4.2-.7,0-.7-.3-.8c-.2-.2-.4-.3-.8-.3v-.8c.3,0,.6,0,.9.2.3.2.5.4.6.7s.2.6.2,1Z" fill="#fff"/>
      <path d="M7.1,62.1c0,.4-.1.8-.3,1.1s-.5.6-.9.8c-.4.2-.8.3-1.3.3s-1,0-1.4-.3-.7-.4-.9-.8c-.2-.3-.3-.7-.3-1.1s0-.7.2-.9c.1-.3.3-.5.6-.6s.5-.3.9-.3c.3,0,.6,0,1,0v3.5h-.5v-3l.2.2c-.2,0-.4,0-.6,0-.2,0-.4,0-.5.2-.2,0-.3.2-.4.4-.1.2-.2.4-.2.6s0,.6.2.8.4.4.6.5c.3.1.5.2.8.2h.3c.3,0,.6,0,.9-.2.3-.1.5-.3.6-.5.2-.2.2-.5.2-.8s0-.6-.2-.8-.4-.3-.7-.4v-.8c.3,0,.6.2.8.3.2.2.4.4.5.7s.2.6.2.9Z" fill="#fff"/>
    </g>
    <g>
      <g>
        <path d="M28.5,32.7c-.3,0-.6,0-.9-.1s-.6-.2-.8-.4c-.2-.2-.4-.4-.6-.6s-.2-.6-.2-.9h.8c0,.3,0,.5.2.7.1.2.3.3.6.4.2.1.5.2.8.2.5,0,.8-.1,1.1-.3.3-.2.4-.5.4-.9s0-.4-.2-.6c-.1-.2-.3-.3-.5-.4-.2,0-.5-.1-.9-.1h-.7v-.6h.5c.5,0,.9,0,1.2-.3.3-.2.4-.5.4-.8s-.1-.6-.3-.8-.6-.3-1-.3-.6,0-.9.2c-.3.1-.4.4-.5.7h-.8c0-.4.2-.7.4-1,.2-.2.5-.4.8-.5.3-.1.7-.2,1-.2s.8,0,1.1.2c.3.1.6.4.8.6.2.3.3.6.3.9s0,.6-.3.9c-.2.2-.5.4-.8.5.4.1.7.3,1,.6.3.3.4.6.4,1s0,.7-.3,1c-.2.3-.5.5-.8.7-.3.2-.8.2-1.2.2Z" fill="#fff"/>
        <path d="M34.5,32.7c-.5,0-.9-.1-1.3-.4-.4-.2-.7-.6-.9-1.1-.2-.5-.3-1.1-.3-1.8s.1-1.3.3-1.8c.2-.5.5-.8.9-1.1.4-.2.8-.4,1.3-.4s.9.1,1.3.4.7.6.9,1.1c.2.5.3,1.1.3,1.8s-.1,1.3-.3,1.8-.5.9-.9,1.1c-.4.2-.8.4-1.3.4ZM34.5,31.9c.5,0,1-.2,1.2-.7.3-.4.4-1.1.4-1.9s-.1-1.4-.4-1.9c-.3-.4-.7-.7-1.2-.7s-.9.2-1.2.7-.4,1.1-.4,1.9.1,1.4.4,1.9c.3.4.7.7,1.2.7Z" fill="#fff"/>
      </g>
      <g>
        <path d="M26.6,59.5v-.9c0-.4,0-.7.2-.9.1-.2.3-.4.5-.6.2-.2.5-.3.8-.4l1.2-.5c.3-.1.6-.3.7-.5.2-.2.2-.5.2-.8s-.1-.6-.3-.8c-.2-.2-.5-.3-.9-.3s-.7,0-1,.3c-.3.2-.4.4-.4.8h-.9c0-.4.1-.7.3-.9.2-.3.5-.4.8-.6s.7-.2,1.2-.2.8,0,1.1.2c.3.2.6.4.8.7.2.3.3.6.3,1s0,.6-.2.9c-.1.2-.3.4-.5.6-.2.2-.5.3-.8.4l-1.3.5c-.3.1-.6.3-.7.4-.2.2-.2.4-.2.7v.3h3.7v.7h-4.5Z" fill="#fff"/>
        <path d="M34.6,59.6c-.4,0-.8,0-1.1-.2-.3-.1-.6-.4-.8-.6-.2-.3-.3-.6-.3-1h.8c0,.4.1.7.4.9.3.2.6.3,1,.3s.8-.1,1.1-.4.4-.6.4-1c0-.8-.5-1.2-1.6-1.2h-1.7l.3-3.1h3.5v.7h-2.9l.2-.3-.2,2.2h-.1c.2-.1.3-.2.5-.2.2,0,.4,0,.5,0,.7,0,1.2.2,1.6.5.4.3.6.8.6,1.4s0,.8-.3,1.1c-.2.3-.4.6-.8.8-.3.2-.7.3-1.2.3Z" fill="#fff"/>
      </g>
      <g>
        <path d="M26.3,86v-.9c0-.4,0-.7.2-.9.1-.2.3-.4.5-.6.2-.2.5-.3.8-.4l1.2-.5c.3-.1.6-.3.7-.5.2-.2.2-.5.2-.8s-.1-.6-.3-.8c-.2-.2-.5-.3-.9-.3s-.7,0-1,.3c-.3.2-.4.4-.4.8h-.9c0-.4.1-.7.3-.9.2-.3.5-.4.8-.6.3-.1.7-.2,1.2-.2s.8,0,1.1.2c.3.2.6.4.8.7.2.3.3.6.3,1s0,.6-.2.9c-.1.2-.3.4-.5.6s-.5.3-.8.4l-1.3.5c-.3.1-.6.3-.7.4s-.2.4-.2.7v.3h3.7v.7h-4.5Z" fill="#fff"/>
        <path d="M34.5,86.1c-.5,0-.9-.1-1.3-.4-.4-.2-.7-.6-.9-1.1-.2-.5-.3-1.1-.3-1.8s.1-1.3.3-1.8c.2-.5.5-.8.9-1.1.4-.2.8-.4,1.3-.4s.9.1,1.3.4.7.6.9,1.1c.2.5.3,1.1.3,1.8s-.1,1.3-.3,1.8-.5.9-.9,1.1c-.4.2-.8.4-1.3.4ZM34.5,85.4c.5,0,1-.2,1.2-.7.3-.4.4-1.1.4-1.9s-.1-1.4-.4-1.9c-.3-.4-.7-.7-1.2-.7s-.9.2-1.2.7-.4,1.1-.4,1.9.1,1.4.4,1.9c.3.4.7.7,1.2.7Z" fill="#fff"/>
      </g>
      <g>
        <path d="M30.1,105.2h.6v6.3h-.8v-5.4c-.2.1-.3.2-.5.3s-.4,0-.5,0v-.8c.2,0,.4,0,.6-.2.2,0,.4-.2.6-.3Z" fill="#fff"/>
        <path d="M34.6,111.7c-.4,0-.8,0-1.1-.2-.3-.1-.6-.4-.8-.6-.2-.3-.3-.6-.3-1h.8c0,.4.1.7.4.9.3.2.6.3,1,.3s.8-.1,1.1-.4.4-.6.4-1c0-.8-.5-1.2-1.6-1.2h-1.7l.3-3.1h3.5v.7h-2.9l.2-.3-.2,2.2h-.1c.2-.1.3-.2.5-.2.2,0,.4,0,.5,0,.7,0,1.2.2,1.6.5.4.3.6.8.6,1.4s0,.8-.3,1.1c-.2.3-.4.6-.8.8-.3.2-.7.3-1.2.3Z" fill="#fff"/>
      </g>
      <g>
        <path d="M29.8,132.8h.6v6.3h-.8v-5.4c-.2.1-.3.2-.5.3s-.4,0-.5,0v-.8c.2,0,.4,0,.6-.2.2,0,.4-.2.6-.3Z" fill="#fff"/>
        <path d="M34.5,139.3c-.5,0-.9-.1-1.3-.4-.4-.2-.7-.6-.9-1.1-.2-.5-.3-1.1-.3-1.8s.1-1.3.3-1.8c.2-.5.5-.8.9-1.1.4-.2.8-.4,1.3-.4s.9.1,1.3.4.7.6.9,1.1c.2.5.3,1.1.3,1.8s-.1,1.3-.3,1.8-.5.9-.9,1.1c-.4.2-.8.4-1.3.4ZM34.5,138.6c.5,0,1-.2,1.2-.7.3-.4.4-1.1.4-1.9s-.1-1.4-.4-1.9c-.3-.4-.7-.7-1.2-.7s-.9.2-1.2.7-.4,1.1-.4,1.9.1,1.4.4,1.9c.3.4.7.7,1.2.7Z" fill="#fff"/>
      </g>
      <path d="M34.6,165c-.4,0-.8,0-1.1-.2-.3-.1-.6-.4-.8-.6-.2-.3-.3-.6-.3-1h.8c0,.4.1.7.4.9.3.2.6.3,1,.3s.8-.1,1.1-.4c.3-.3.4-.6.4-1,0-.8-.5-1.2-1.6-1.2h-1.7l.3-3.1h3.5v.7h-2.9l.2-.3-.2,2.2h-.1c.2-.1.3-.2.5-.2.2,0,.4,0,.5,0,.7,0,1.2.2,1.6.5.4.3.6.8.6,1.4s0,.8-.3,1.1-.4.6-.8.8c-.3.2-.7.3-1.2.3Z" fill="#fff"/>
      <path d="M34.5,192.6c-.5,0-.9-.1-1.3-.4-.4-.2-.7-.6-.9-1.1-.2-.5-.3-1.1-.3-1.8s.1-1.3.3-1.8c.2-.5.5-.8.9-1.1.4-.2.8-.4,1.3-.4s.9.1,1.3.4.7.6.9,1.1c.2.5.3,1.1.3,1.8s-.1,1.3-.3,1.8-.5.9-.9,1.1c-.4.2-.8.4-1.3.4ZM34.5,191.8c.5,0,1-.2,1.2-.7.3-.4.4-1.1.4-1.9s-.1-1.4-.4-1.9c-.3-.4-.7-.7-1.2-.7s-.9.2-1.2.7-.4,1.1-.4,1.9.1,1.4.4,1.9c.3.4.7.7,1.2.7Z" fill="#fff"/>
    </g>
    <g>
      <rect x="170.4" y="237.6" width="6.5" height="6.5" fill="#3a97d3"/>
      <rect x="211.8" y="238.5" width="4.8" height="4.8" transform="translate(233 -80.9) rotate(45)" fill="#e72264"/>
      <g>
        <path d="M179.3,243.6v-.9c0-.4,0-.7.2-.9.1-.2.3-.4.5-.6.2-.2.5-.3.8-.4l1.2-.5c.3-.1.6-.3.7-.5.2-.2.2-.5.2-.8s-.1-.6-.3-.8c-.2-.2-.5-.3-.9-.3s-.7,0-1,.3c-.3.2-.4.4-.4.8h-.9c0-.4.1-.7.3-.9.2-.3.5-.4.8-.6.3-.1.7-.2,1.2-.2s.8,0,1.1.2c.3.2.6.4.8.7.2.3.3.6.3,1s0,.6-.2.9c-.1.2-.3.4-.5.6s-.5.3-.8.4l-1.3.5c-.3.1-.6.3-.7.4s-.2.4-.2.7v.3h3.7v.7h-4.5Z" fill="#fff"/>
        <path d="M187.4,243.7c-.5,0-.9-.1-1.3-.4-.4-.2-.7-.6-.9-1.1-.2-.5-.3-1.1-.3-1.8s.1-1.3.3-1.8c.2-.5.5-.8.9-1.1.4-.2.8-.4,1.3-.4s.9.1,1.3.4.7.6.9,1.1c.2.5.3,1.1.3,1.8s-.1,1.3-.3,1.8-.5.9-.9,1.1c-.4.2-.8.4-1.3.4ZM187.4,243c.5,0,1-.2,1.2-.7.3-.4.4-1.1.4-1.9s-.1-1.4-.4-1.9c-.3-.4-.7-.7-1.2-.7s-.9.2-1.2.7-.4,1.1-.4,1.9.1,1.4.4,1.9c.3.4.7.7,1.2.7Z" fill="#fff"/>
        <path d="M191.1,243.6v-.9c0-.4,0-.7.2-.9.1-.2.3-.4.5-.6.2-.2.5-.3.8-.4l1.2-.5c.3-.1.6-.3.7-.5.2-.2.2-.5.2-.8s-.1-.6-.3-.8c-.2-.2-.5-.3-.9-.3s-.7,0-1,.3c-.3.2-.4.4-.4.8h-.9c0-.4.1-.7.3-.9.2-.3.5-.4.8-.6.3-.1.7-.2,1.2-.2s.8,0,1.1.2c.3.2.6.4.8.7.2.3.3.6.3,1s0,.6-.2.9c-.1.2-.3.4-.5.6s-.5.3-.8.4l-1.3.5c-.3.1-.6.3-.7.4s-.2.4-.2.7v.3h3.7v.7h-4.5Z" fill="#fff"/>
        <path d="M196.9,243.6v-.9c0-.4,0-.7.2-.9.1-.2.3-.4.5-.6.2-.2.5-.3.8-.4l1.2-.5c.3-.1.6-.3.7-.5.2-.2.2-.5.2-.8s-.1-.6-.3-.8c-.2-.2-.5-.3-.9-.3s-.7,0-1,.3c-.3.2-.4.4-.4.8h-.9c0-.4.1-.7.3-.9.2-.3.5-.4.8-.6.3-.1.7-.2,1.2-.2s.8,0,1.1.2c.3.2.6.4.8.7.2.3.3.6.3,1s0,.6-.2.9c-.1.2-.3.4-.5.6s-.5.3-.8.4l-1.3.5c-.3.1-.6.3-.7.4s-.2.4-.2.7v.3h3.7v.7h-4.5Z" fill="#fff"/>
      </g>
      <g>
        <path d="M220.5,243.6v-.9c0-.4,0-.7.2-.9.1-.2.3-.4.5-.6.2-.2.5-.3.8-.4l1.2-.5c.3-.1.6-.3.7-.5.2-.2.2-.5.2-.8s-.1-.6-.3-.8c-.2-.2-.5-.3-.9-.3s-.7,0-1,.3c-.3.2-.4.4-.4.8h-.9c0-.4.1-.7.3-.9s.5-.4.8-.6c.3-.1.7-.2,1.2-.2s.8,0,1.1.2c.3.2.6.4.8.7.2.3.3.6.3,1s0,.6-.2.9c-.1.2-.3.4-.5.6s-.5.3-.8.4l-1.3.5c-.3.1-.6.3-.7.4-.2.2-.2.4-.2.7v.3h3.7v.7h-4.5Z" fill="#fff"/>
        <path d="M228.7,243.7c-.5,0-.9-.1-1.3-.4-.4-.2-.7-.6-.9-1.1-.2-.5-.3-1.1-.3-1.8s.1-1.3.3-1.8c.2-.5.5-.8.9-1.1.4-.2.8-.4,1.3-.4s.9.1,1.3.4c.4.2.7.6.9,1.1.2.5.3,1.1.3,1.8s-.1,1.3-.3,1.8c-.2.5-.5.9-.9,1.1-.4.2-.8.4-1.3.4ZM228.7,243c.5,0,1-.2,1.2-.7.3-.4.4-1.1.4-1.9s-.1-1.4-.4-1.9-.7-.7-1.2-.7-.9.2-1.2.7-.4,1.1-.4,1.9.1,1.4.4,1.9c.3.4.7.7,1.2.7Z" fill="#fff"/>
        <path d="M232.3,243.6v-.9c0-.4,0-.7.2-.9.1-.2.3-.4.5-.6.2-.2.5-.3.8-.4l1.2-.5c.3-.1.6-.3.7-.5.2-.2.2-.5.2-.8s-.1-.6-.3-.8c-.2-.2-.5-.3-.9-.3s-.7,0-1,.3c-.3.2-.4.4-.4.8h-.9c0-.4.1-.7.3-.9s.5-.4.8-.6c.3-.1.7-.2,1.2-.2s.8,0,1.1.2c.3.2.6.4.8.7.2.3.3.6.3,1s0,.6-.2.9c-.1.2-.3.4-.5.6s-.5.3-.8.4l-1.3.5c-.3.1-.6.3-.7.4-.2.2-.2.4-.2.7v.3h3.7v.7h-4.5Z" fill="#fff"/>
        <path d="M240.5,243.7c-.3,0-.6,0-.9-.1-.3,0-.6-.2-.8-.4-.2-.2-.4-.4-.6-.6-.1-.3-.2-.6-.2-.9h.8c0,.3,0,.5.2.7.1.2.3.3.6.4.2.1.5.2.8.2.5,0,.8-.1,1.1-.3s.4-.5.4-.9,0-.4-.2-.6c-.1-.2-.3-.3-.5-.4-.2,0-.5-.1-.9-.1h-.7v-.6h.5c.5,0,.9,0,1.2-.3.3-.2.4-.5.4-.8s-.1-.6-.3-.8-.6-.3-1-.3-.6,0-.9.2c-.3.1-.4.4-.5.7h-.8c0-.4.2-.7.4-1,.2-.2.5-.4.8-.5.3-.1.7-.2,1-.2s.8,0,1.1.2.6.4.8.6c.2.3.3.6.3.9s0,.6-.3.9c-.2.2-.5.4-.8.5.4.1.7.3,1,.6.3.3.4.6.4,1s0,.7-.3,1c-.2.3-.5.5-.8.7-.3.2-.8.2-1.2.2Z" fill="#fff"/>
      </g>
    </g>
    <g>
      <path d="M94.3,10.7c-.3,0-.5,0-.7-.3s-.2-.4-.2-.7V1.2c0-.3,0-.6.2-.7s.4-.2.7-.2h3.6c1.1,0,2,.3,2.6.9.6.6.9,1.4.9,2.4s-.3,1.8-.9,2.4c-.6.6-1.5.9-2.6.9h-2.6v3c0,.3,0,.5-.2.7-.2.2-.4.3-.7.3ZM95.2,5.2h2.3c.7,0,1.2-.1,1.5-.4s.5-.7.5-1.3-.2-1-.5-1.3-.8-.4-1.5-.4h-2.3v3.5Z" fill="#fff"/>
      <path d="M106.3,10.8c-.8,0-1.5-.2-2.1-.5-.6-.3-1-.7-1.4-1.3-.3-.6-.5-1.2-.5-2s.2-1.4.5-2c.3-.6.7-1,1.3-1.3.5-.3,1.2-.5,1.9-.5s1,0,1.4.3c.4.2.8.4,1,.7.3.3.5.7.7,1.1.2.4.2,1,.2,1.5s0,.3-.2.4-.3.1-.5.1h-4.7v-1.1h4.1l-.2.2c0-.5,0-.8-.2-1.1s-.3-.5-.6-.7-.6-.2-.9-.2-.8,0-1.1.3c-.3.2-.5.5-.7.8s-.2.8-.2,1.2h0c0,.9.2,1.5.6,1.9.4.4.9.6,1.7.6s.5,0,.9,0c.3,0,.6-.2.9-.3.2-.1.4-.2.5-.2.2,0,.3,0,.4.2,0,0,.2.2.2.4s0,.3,0,.4-.2.3-.4.4c-.3.2-.7.4-1.2.5s-.9.2-1.2.2Z" fill="#fff"/>
      <path d="M111.7,10.7c-.3,0-.5,0-.7-.2s-.2-.4-.2-.7v-5.6c0-.3,0-.5.2-.7.2-.2.4-.2.7-.2s.5,0,.7.2c.2.2.2.4.2.7v.9h-.1c.1-.6.4-1,.8-1.3.4-.3.9-.5,1.6-.5.2,0,.4,0,.5.2.1.1.2.3.2.6,0,.2,0,.4-.2.6s-.3.2-.6.3h-.3c-.6,0-1.1.3-1.4.6s-.5.7-.5,1.3v3.1c0,.3,0,.5-.2.7-.2.2-.4.2-.7.2Z" fill="#fff"/>
      <path d="M117.5,1.9c-.3,0-.6,0-.8-.3s-.3-.4-.3-.7,0-.6.3-.7c.2-.2.5-.3.8-.3s.6,0,.8.3c.2.2.3.4.3.7s0,.5-.3.7c-.2.2-.5.3-.8.3ZM117.5,10.7c-.3,0-.5,0-.7-.3-.2-.2-.2-.4-.2-.7v-5.4c0-.3,0-.6.2-.7.2-.2.4-.3.7-.3s.5,0,.7.3c.2.2.2.4.2.7v5.4c0,.3,0,.6-.2.7-.2.2-.4.3-.7.3Z" fill="#fff"/>
      <path d="M123.6,10.8c-.7,0-1.4-.2-1.9-.5-.5-.3-1-.7-1.3-1.3s-.5-1.2-.5-2,0-1.1.3-1.6.4-.8.7-1.2c.3-.3.7-.6,1.2-.8.5-.2,1-.3,1.5-.3s1.4.2,1.9.5c.6.3,1,.7,1.3,1.3s.5,1.2.5,2,0,1.1-.3,1.6-.4.9-.7,1.2c-.3.3-.7.6-1.2.8-.5.2-1,.3-1.5.3ZM123.6,9.4c.4,0,.7,0,1-.3s.5-.4.6-.8c.2-.3.2-.8.2-1.3,0-.8-.2-1.4-.5-1.8-.3-.4-.8-.6-1.3-.6s-.7,0-1,.3c-.3.2-.5.4-.6.8s-.2.8-.2,1.3c0,.8.2,1.4.5,1.8s.8.6,1.3.6Z" fill="#fff"/>
      <path d="M131.6,10.8c-.6,0-1.2-.2-1.7-.5-.5-.3-.8-.7-1.1-1.3s-.4-1.2-.4-2,.1-1.4.4-2c.3-.6.6-1,1.1-1.3.5-.3,1-.5,1.7-.5s1.1.1,1.6.4.8.7.9,1.2h-.2V1c0-.3,0-.5.2-.7.2-.2.4-.2.7-.2s.5,0,.7.2c.2.2.2.4.2.7v8.8c0,.3,0,.5-.2.7-.2.2-.4.2-.7.2s-.5,0-.7-.2c-.2-.2-.2-.4-.2-.7v-1.1l.2.4c-.1.5-.4.9-.9,1.2-.5.3-1,.5-1.6.5ZM132.1,9.4c.4,0,.7,0,1-.3.3-.2.5-.4.6-.8.2-.3.2-.8.2-1.3,0-.8-.2-1.4-.5-1.8-.3-.4-.8-.6-1.3-.6s-.7,0-1,.3c-.3.2-.5.4-.6.8s-.2.8-.2,1.3c0,.8.2,1.4.5,1.8s.8.6,1.3.6Z" fill="#fff"/>
      <path d="M144.9,10.8c-.7,0-1.4-.2-1.9-.5-.5-.3-1-.7-1.3-1.3s-.5-1.2-.5-2,0-1.1.3-1.6.4-.8.7-1.2c.3-.3.7-.6,1.2-.8.5-.2,1-.3,1.5-.3s1.4.2,1.9.5c.6.3,1,.7,1.3,1.3s.5,1.2.5,2,0,1.1-.3,1.6-.4.9-.7,1.2c-.3.3-.7.6-1.2.8-.5.2-1,.3-1.5.3ZM144.9,9.4c.4,0,.7,0,1-.3s.5-.4.6-.8c.2-.3.2-.8.2-1.3,0-.8-.2-1.4-.5-1.8-.3-.4-.8-.6-1.3-.6s-.7,0-1,.3c-.3.2-.5.4-.6.8s-.2.8-.2,1.3c0,.8.2,1.4.5,1.8s.8.6,1.3.6Z" fill="#fff"/>
      <path d="M151.5,10.7c-.3,0-.5,0-.7-.2s-.2-.4-.2-.7v-5h-.7c-.2,0-.4,0-.5-.2-.1-.1-.2-.3-.2-.5s0-.4.2-.5c.1-.1.3-.2.5-.2h1.2l-.5.5v-.5c0-1,.3-1.8.8-2.3.5-.5,1.2-.8,2.2-.9h.5c.2,0,.4,0,.5,0,.1,0,.2.2.2.3,0,.1,0,.3,0,.4s0,.3-.2.4c0,.1-.2.2-.4.2h-.2c-.6,0-1,.2-1.2.4-.3.2-.4.6-.4,1.1v.5l-.2-.2h1.5c.2,0,.4,0,.5.2.1.1.2.3.2.5s0,.4-.2.5c-.1.1-.3.2-.5.2h-1.3v5c0,.6-.3.9-.9.9Z" fill="#fff"/>
      <path d="M161.8,10.8c-.5,0-1-.1-1.4-.3-.4-.2-.7-.5-1-.8-.2-.3-.3-.7-.3-1.2s.1-1,.4-1.3.7-.5,1.3-.7c.6-.1,1.4-.2,2.5-.2h.7v1.1h-.7c-.6,0-1.1,0-1.5,0s-.6.2-.8.3-.2.3-.2.6.1.6.3.8c.2.2.5.3.9.3s.6,0,.9-.2c.2-.2.4-.4.6-.6.1-.3.2-.6.2-.9v-1.7c0-.5-.1-.8-.3-1.1-.2-.2-.6-.3-1.1-.3s-.6,0-.9.1c-.3,0-.7.2-1,.4-.2,0-.4.1-.5,0-.1,0-.3-.1-.3-.2,0-.1-.1-.3-.1-.4s0-.3.1-.4c0-.1.2-.2.4-.3.5-.2.9-.3,1.3-.4s.8-.1,1.1-.1c.7,0,1.3.1,1.7.3s.8.5,1,1c.2.4.3,1,.3,1.7v3.5c0,.3,0,.5-.2.7-.1.2-.4.2-.6.2s-.5,0-.6-.2-.2-.4-.2-.7v-.7h.1c0,.3-.2.6-.4.9s-.5.4-.8.6c-.3.1-.7.2-1,.2Z" fill="#fff"/>
      <path d="M170.2,10.8c-.4,0-.9,0-1.3-.1-.5,0-.9-.2-1.3-.5-.2,0-.3-.2-.3-.3,0-.1,0-.3,0-.4,0-.1,0-.2.1-.3s.2-.2.3-.2c.1,0,.3,0,.4,0,.4.2.8.3,1.1.4s.7.1,1,.1c.5,0,.8,0,1.1-.2s.3-.4.3-.6,0-.4-.2-.5c-.2-.1-.4-.2-.7-.3l-1.5-.3c-.6-.1-1.1-.3-1.4-.7-.3-.3-.5-.8-.5-1.3s.1-.9.4-1.2c.3-.3.6-.6,1.1-.8.5-.2,1-.3,1.6-.3s.8,0,1.2.1c.4,0,.7.2,1.1.4.1,0,.2.2.3.3,0,.1,0,.3,0,.4,0,.1,0,.3-.2.4s-.2.2-.3.2c-.1,0-.3,0-.4,0-.3-.2-.6-.3-.9-.3-.3,0-.5-.1-.8-.1-.5,0-.8,0-1.1.3-.2.2-.3.4-.3.7s0,.4.2.5c.1.1.3.2.6.3l1.5.3c.6.1,1.1.3,1.5.6.3.3.5.7.5,1.3s-.3,1.3-.8,1.7-1.3.6-2.2.6Z" fill="#fff"/>
      <path d="M177.4,10.8c-.4,0-.9,0-1.3-.1-.5,0-.9-.2-1.3-.5-.2,0-.3-.2-.3-.3,0-.1,0-.3,0-.4,0-.1,0-.2.1-.3,0,0,.2-.2.3-.2.1,0,.3,0,.4,0,.4.2.8.3,1.1.4s.7.1,1,.1.8,0,1.1-.2c.2-.2.3-.4.3-.6s0-.4-.2-.5c-.2-.1-.4-.2-.7-.3l-1.5-.3c-.6-.1-1.1-.3-1.4-.7-.3-.3-.5-.8-.5-1.3s.1-.9.4-1.2c.3-.3.6-.6,1.1-.8.5-.2,1-.3,1.6-.3s.8,0,1.2.1c.4,0,.7.2,1.1.4.1,0,.2.2.3.3,0,.1,0,.3,0,.4,0,.1,0,.3-.2.4,0,.1-.2.2-.3.2-.1,0-.3,0-.5,0-.3-.2-.6-.3-.9-.3-.3,0-.5-.1-.8-.1-.5,0-.8,0-1.1.3s-.3.4-.3.7,0,.4.2.5c.1.1.3.2.6.3l1.5.3c.6.1,1.1.3,1.5.6.3.3.5.7.5,1.3s-.3,1.3-.8,1.7c-.6.4-1.3.6-2.2.6Z" fill="#fff"/>
      <path d="M182.8,1.9c-.3,0-.6,0-.8-.3s-.3-.4-.3-.7,0-.6.3-.7c.2-.2.5-.3.8-.3s.6,0,.8.3c.2.2.3.4.3.7s0,.5-.3.7-.5.3-.8.3ZM182.8,10.7c-.3,0-.5,0-.7-.3-.2-.2-.2-.4-.2-.7v-5.4c0-.3,0-.6.2-.7.2-.2.4-.3.7-.3s.5,0,.7.3c.2.2.2.4.2.7v5.4c0,.3,0,.6-.2.7-.2.2-.4.3-.7.3Z" fill="#fff"/>
      <path d="M188.3,10.8c-.4,0-.9,0-1.3-.1-.5,0-.9-.2-1.3-.5-.2,0-.3-.2-.3-.3,0-.1,0-.3,0-.4,0-.1,0-.2.1-.3s.2-.2.3-.2c.1,0,.3,0,.4,0,.4.2.8.3,1.1.4s.7.1,1,.1c.5,0,.8,0,1.1-.2s.3-.4.3-.6,0-.4-.2-.5c-.2-.1-.4-.2-.7-.3l-1.5-.3c-.6-.1-1.1-.3-1.4-.7-.3-.3-.5-.8-.5-1.3s.1-.9.4-1.2c.3-.3.6-.6,1.1-.8.5-.2,1-.3,1.6-.3s.8,0,1.2.1c.4,0,.7.2,1.1.4.1,0,.2.2.3.3,0,.1,0,.3,0,.4,0,.1,0,.3-.2.4s-.2.2-.3.2c-.1,0-.3,0-.4,0-.3-.2-.6-.3-.9-.3-.3,0-.5-.1-.8-.1-.5,0-.8,0-1.1.3-.2.2-.3.4-.3.7s0,.4.2.5c.1.1.3.2.6.3l1.5.3c.6.1,1.1.3,1.5.6.3.3.5.7.5,1.3s-.3,1.3-.8,1.7-1.3.6-2.2.6Z" fill="#fff"/>
      <path d="M196.2,10.8c-.6,0-1.2-.1-1.6-.3-.4-.2-.7-.5-.9-1-.2-.4-.3-.9-.3-1.6v-3.1h-.8c-.2,0-.4,0-.5-.2-.1-.1-.2-.3-.2-.5s0-.4.2-.5c.1-.1.3-.2.5-.2h.8v-1.3c0-.3,0-.5.2-.7.2-.2.4-.2.7-.2s.5,0,.7.2c.2.2.2.4.2.7v1.3h1.6c.2,0,.4,0,.5.2.1.1.2.3.2.5s0,.4-.2.5c-.1.1-.3.2-.5.2h-1.6v3c0,.5.1.8.3,1.1.2.2.5.4,1,.4s.3,0,.4,0c.1,0,.2,0,.3,0,.1,0,.2,0,.3.1,0,0,.1.3.1.5s0,.4,0,.5-.2.3-.3.3c-.1,0-.3,0-.5.1-.2,0-.4,0-.5,0Z" fill="#fff"/>
      <path d="M200.9,10.8c-.5,0-1-.1-1.4-.3s-.7-.5-1-.8c-.2-.3-.3-.7-.3-1.2s.1-1,.4-1.3c.3-.3.7-.5,1.3-.7.6-.1,1.4-.2,2.5-.2h.7v1.1h-.7c-.6,0-1.1,0-1.5,0s-.6.2-.8.3-.2.3-.2.6.1.6.3.8c.2.2.5.3.9.3s.6,0,.9-.2c.2-.2.4-.4.6-.6.1-.3.2-.6.2-.9v-1.7c0-.5-.1-.8-.3-1.1-.2-.2-.6-.3-1.1-.3s-.6,0-.9.1c-.3,0-.7.2-1,.4-.2,0-.4.1-.5,0-.1,0-.3-.1-.3-.2,0-.1-.1-.3-.1-.4s0-.3.1-.4c0-.1.2-.2.4-.3.5-.2.9-.3,1.3-.4.4,0,.8-.1,1.1-.1.7,0,1.3.1,1.7.3.5.2.8.5,1,1s.3,1,.3,1.7v3.5c0,.3,0,.5-.2.7-.1.2-.4.2-.6.2s-.5,0-.6-.2c-.2-.2-.2-.4-.2-.7v-.7h.1c0,.3-.2.6-.4.9s-.5.4-.8.6c-.3.1-.7.2-1,.2Z" fill="#fff"/>
      <path d="M207.5,10.7c-.3,0-.5,0-.7-.2-.2-.2-.2-.4-.2-.7v-5.6c0-.3,0-.5.2-.7.2-.2.4-.2.7-.2s.5,0,.7.2c.2.2.2.4.2.7v1l-.2-.4c.2-.5.6-.9,1-1.2s1-.4,1.6-.4,1.1.1,1.4.3.7.5.8,1c.2.4.3,1,.3,1.7v3.6c0,.3,0,.5-.2.7-.2.2-.4.2-.7.2s-.5,0-.7-.2-.2-.4-.2-.7v-3.5c0-.6-.1-1-.3-1.2-.2-.3-.5-.4-1-.4s-1,.2-1.3.5c-.3.3-.5.8-.5,1.3v3.2c0,.6-.3.9-.9.9Z" fill="#fff"/>
      <path d="M218.5,10.8c-.8,0-1.4-.2-2-.5s-1-.7-1.3-1.3-.5-1.2-.5-2,0-1.1.3-1.6c.2-.5.4-.8.7-1.2s.7-.6,1.2-.7c.5-.2,1-.3,1.5-.3s.7,0,1.1.1c.4,0,.7.2,1.1.4.2,0,.3.2.3.4,0,.1,0,.3,0,.4,0,.1,0,.3-.2.4s-.2.2-.3.2c-.1,0-.3,0-.5,0-.2-.1-.4-.2-.7-.3s-.4,0-.6,0c-.3,0-.6,0-.9.2-.2.1-.5.3-.6.4-.2.2-.3.4-.4.7,0,.3-.1.6-.1,1,0,.7.2,1.3.5,1.7.3.4.8.6,1.5.6s.4,0,.6,0,.4-.2.7-.3c.2,0,.3-.1.4,0,.1,0,.2,0,.3.2,0,.1.1.2.2.4,0,.1,0,.3,0,.4s-.2.3-.3.3c-.3.2-.7.3-1,.4s-.7.1-1,.1Z" fill="#fff"/>
      <path d="M225.7,10.8c-.8,0-1.5-.2-2.1-.5-.6-.3-1-.7-1.4-1.3-.3-.6-.5-1.2-.5-2s.2-1.4.5-2c.3-.6.7-1,1.3-1.3.5-.3,1.2-.5,1.9-.5s1,0,1.4.3c.4.2.8.4,1,.7.3.3.5.7.7,1.1.2.4.2,1,.2,1.5s0,.3-.2.4-.3.1-.5.1h-4.7v-1.1h4.1l-.2.2c0-.5,0-.8-.2-1.1s-.3-.5-.6-.7-.6-.2-.9-.2-.8,0-1.1.3c-.3.2-.5.5-.7.8s-.2.8-.2,1.2h0c0,.9.2,1.5.6,1.9.4.4.9.6,1.7.6s.5,0,.9,0c.3,0,.6-.2.9-.3.2-.1.4-.2.5-.2.2,0,.3,0,.4.2,0,0,.2.2.2.4s0,.3,0,.4-.2.3-.4.4c-.3.2-.7.4-1.2.5s-.9.2-1.2.2Z" fill="#fff"/>
      <path d="M238.3,10.8c-.6,0-1.1-.2-1.6-.5-.5-.3-.8-.7-.9-1.2l.2-.4v1.1c0,.3,0,.5-.2.7-.2.2-.4.2-.7.2s-.5,0-.7-.2c-.2-.2-.2-.4-.2-.7V1c0-.3,0-.5.2-.7.2-.2.4-.2.7-.2s.5,0,.7.2c.2.2.2.4.2.7v3.8h-.2c.2-.5.5-.9.9-1.2.5-.3,1-.4,1.6-.4s1.2.2,1.7.5c.5.3.8.7,1.1,1.3.3.6.4,1.2.4,2s-.1,1.4-.4,2-.6,1-1.1,1.3c-.5.3-1,.5-1.7.5ZM237.8,9.4c.4,0,.7,0,1-.3s.5-.4.6-.8c.2-.3.2-.8.2-1.3,0-.8-.2-1.4-.5-1.8-.3-.4-.8-.6-1.3-.6s-.7,0-1,.3c-.3.2-.5.4-.6.8s-.2.8-.2,1.3c0,.8.2,1.4.5,1.8s.8.6,1.3.6Z" fill="#fff"/>
      <path d="M246.5,10.8c-.8,0-1.5-.2-2.1-.5-.6-.3-1-.7-1.4-1.3-.3-.6-.5-1.2-.5-2s.2-1.4.5-2c.3-.6.7-1,1.3-1.3.5-.3,1.2-.5,1.9-.5s1,0,1.4.3c.4.2.8.4,1,.7.3.3.5.7.7,1.1.2.4.2,1,.2,1.5s0,.3-.2.4-.3.1-.5.1h-4.7v-1.1h4.1l-.2.2c0-.5,0-.8-.2-1.1s-.3-.5-.6-.7-.6-.2-.9-.2-.8,0-1.1.3c-.3.2-.5.5-.7.8s-.2.8-.2,1.2h0c0,.9.2,1.5.6,1.9.4.4.9.6,1.7.6s.5,0,.9,0c.3,0,.6-.2.9-.3.2-.1.4-.2.5-.2.2,0,.3,0,.4.2,0,0,.2.2.2.4s0,.3,0,.4-.2.3-.4.4c-.3.2-.7.4-1.2.5s-.9.2-1.2.2Z" fill="#fff"/>
      <path d="M252.4,10.7c-.3,0-.5,0-.7-.2s-.2-.4-.2-.7v-5h-.7c-.2,0-.4,0-.5-.2-.1-.1-.2-.3-.2-.5s0-.4.2-.5c.1-.1.3-.2.5-.2h1.2l-.5.5v-.5c0-1,.3-1.8.8-2.3.5-.5,1.2-.8,2.2-.9h.5c.2,0,.4,0,.5,0s.2.2.2.3c0,.1,0,.3,0,.4s0,.3-.2.4-.2.2-.4.2h-.2c-.6,0-1,.2-1.2.4s-.4.6-.4,1.1v.5l-.2-.2h1.5c.2,0,.4,0,.5.2.1.1.2.3.2.5s0,.4-.2.5c-.1.1-.3.2-.5.2h-1.3v5c0,.6-.3.9-.9.9Z" fill="#fff"/>
      <path d="M259.6,10.8c-.7,0-1.4-.2-1.9-.5-.6-.3-1-.7-1.3-1.3s-.5-1.2-.5-2,0-1.1.3-1.6c.2-.5.4-.8.7-1.2.3-.3.7-.6,1.2-.8.5-.2,1-.3,1.5-.3s1.4.2,1.9.5c.6.3,1,.7,1.3,1.3s.5,1.2.5,2,0,1.1-.3,1.6-.4.9-.7,1.2c-.3.3-.7.6-1.2.8-.5.2-1,.3-1.5.3ZM259.6,9.4c.4,0,.7,0,1-.3.3-.2.5-.4.6-.8.2-.3.2-.8.2-1.3,0-.8-.2-1.4-.5-1.8-.3-.4-.8-.6-1.3-.6s-.7,0-1,.3c-.3.2-.5.4-.6.8s-.2.8-.2,1.3c0,.8.2,1.4.5,1.8s.8.6,1.3.6Z" fill="#fff"/>
      <path d="M265.8,10.7c-.3,0-.5,0-.7-.2s-.2-.4-.2-.7v-5.6c0-.3,0-.5.2-.7.2-.2.4-.2.7-.2s.5,0,.7.2c.2.2.2.4.2.7v.9h-.1c.1-.6.4-1,.8-1.3.4-.3.9-.5,1.6-.5.2,0,.4,0,.5.2.1.1.2.3.2.6,0,.2,0,.4-.2.6s-.3.2-.6.3h-.3c-.6,0-1.1.3-1.4.6s-.5.7-.5,1.3v3.1c0,.3,0,.5-.2.7-.2.2-.4.2-.7.2Z" fill="#fff"/>
      <path d="M274.2,10.8c-.8,0-1.5-.2-2.1-.5-.6-.3-1-.7-1.4-1.3-.3-.6-.5-1.2-.5-2s.2-1.4.5-2c.3-.6.7-1,1.3-1.3s1.2-.5,1.9-.5,1,0,1.4.3.8.4,1,.7.5.7.7,1.1c.2.4.2,1,.2,1.5s0,.3-.2.4-.3.1-.5.1h-4.7v-1.1h4.1l-.2.2c0-.5,0-.8-.2-1.1s-.3-.5-.6-.7c-.3-.2-.6-.2-.9-.2s-.8,0-1.1.3c-.3.2-.5.5-.7.8s-.2.8-.2,1.2h0c0,.9.2,1.5.6,1.9.4.4.9.6,1.7.6s.5,0,.9,0c.3,0,.6-.2.9-.3.2-.1.4-.2.5-.2s.3,0,.4.2c0,0,.2.2.2.4s0,.3,0,.4c0,.1-.2.3-.4.4-.3.2-.7.4-1.2.5s-.9.2-1.2.2Z" fill="#fff"/>
      <path d="M285.4,10.8c-.6,0-1.2-.2-1.7-.5-.5-.3-.8-.7-1.1-1.3s-.4-1.2-.4-2,.1-1.4.4-2c.3-.6.6-1,1.1-1.3.5-.3,1-.5,1.7-.5s1.1.1,1.6.4.8.7.9,1.2h-.2V1c0-.3,0-.5.2-.7.2-.2.4-.2.7-.2s.5,0,.7.2c.2.2.2.4.2.7v8.8c0,.3,0,.5-.2.7-.2.2-.4.2-.7.2s-.5,0-.7-.2c-.2-.2-.2-.4-.2-.7v-1.1l.2.4c-.1.5-.4.9-.9,1.2-.5.3-1,.5-1.6.5ZM285.9,9.4c.4,0,.7,0,1-.3.3-.2.5-.4.6-.8.2-.3.2-.8.2-1.3,0-.8-.2-1.4-.5-1.8-.3-.4-.8-.6-1.3-.6s-.7,0-1,.3c-.3.2-.5.4-.6.8s-.2.8-.2,1.3c0,.8.2,1.4.5,1.8s.8.6,1.3.6Z" fill="#fff"/>
      <path d="M295,10.8c-.8,0-1.5-.2-2.1-.5-.6-.3-1-.7-1.4-1.3-.3-.6-.5-1.2-.5-2s.2-1.4.5-2c.3-.6.7-1,1.3-1.3s1.2-.5,1.9-.5,1,0,1.4.3.8.4,1,.7.5.7.7,1.1c.2.4.2,1,.2,1.5s0,.3-.2.4-.3.1-.5.1h-4.7v-1.1h4.1l-.2.2c0-.5,0-.8-.2-1.1s-.3-.5-.6-.7c-.3-.2-.6-.2-.9-.2s-.8,0-1.1.3c-.3.2-.5.5-.7.8s-.2.8-.2,1.2h0c0,.9.2,1.5.6,1.9.4.4.9.6,1.7.6s.5,0,.9,0c.3,0,.6-.2.9-.3.2-.1.4-.2.5-.2s.3,0,.4.2c0,0,.2.2.2.4s0,.3,0,.4c0,.1-.2.3-.4.4-.3.2-.7.4-1.2.5s-.9.2-1.2.2Z" fill="#fff"/>
      <path d="M301.8,10.8c-.5,0-1-.1-1.4-.3s-.7-.5-1-.8c-.2-.3-.3-.7-.3-1.2s.1-1,.4-1.3c.3-.3.7-.5,1.3-.7.6-.1,1.4-.2,2.5-.2h.7v1.1h-.7c-.6,0-1.1,0-1.5,0s-.6.2-.8.3-.2.3-.2.6.1.6.3.8c.2.2.5.3.9.3s.6,0,.9-.2c.2-.2.4-.4.6-.6.1-.3.2-.6.2-.9v-1.7c0-.5-.1-.8-.3-1.1-.2-.2-.6-.3-1.1-.3s-.6,0-.9.1c-.3,0-.7.2-1,.4-.2,0-.4.1-.5,0-.1,0-.3-.1-.3-.2,0-.1-.1-.3-.1-.4s0-.3.1-.4c0-.1.2-.2.4-.3.5-.2.9-.3,1.3-.4.4,0,.8-.1,1.1-.1.7,0,1.3.1,1.7.3.5.2.8.5,1,1s.3,1,.3,1.7v3.5c0,.3,0,.5-.2.7-.1.2-.4.2-.6.2s-.5,0-.6-.2c-.2-.2-.2-.4-.2-.7v-.7h.1c0,.3-.2.6-.4.9s-.5.4-.8.6c-.3.1-.7.2-1,.2Z" fill="#fff"/>
      <path d="M310.8,10.8c-.6,0-1.2-.1-1.6-.3-.4-.2-.7-.5-.9-1-.2-.4-.3-.9-.3-1.6v-3.1h-.8c-.2,0-.4,0-.5-.2-.1-.1-.2-.3-.2-.5s0-.4.2-.5c.1-.1.3-.2.5-.2h.8v-1.3c0-.3,0-.5.2-.7.2-.2.4-.2.7-.2s.5,0,.7.2c.2.2.2.4.2.7v1.3h1.6c.2,0,.4,0,.5.2.1.1.2.3.2.5s0,.4-.2.5c-.1.1-.3.2-.5.2h-1.6v3c0,.5.1.8.3,1.1.2.2.5.4,1,.4s.3,0,.4,0c.1,0,.2,0,.3,0,.1,0,.2,0,.3.1,0,0,.1.3.1.5s0,.4,0,.5-.2.3-.3.3c-.1,0-.3,0-.5.1-.2,0-.4,0-.5,0Z" fill="#fff"/>
      <path d="M314.1,10.7c-.3,0-.5,0-.7-.2-.2-.2-.2-.4-.2-.7V1c0-.3,0-.5.2-.7.2-.2.4-.2.7-.2s.5,0,.7.2c.2.2.2.4.2.7v3.8h-.2c.2-.5.6-.9,1-1.2s1-.4,1.6-.4,1.1.1,1.4.3c.4.2.7.5.8,1,.2.4.3,1,.3,1.7v3.6c0,.3,0,.5-.2.7-.2.2-.4.2-.7.2s-.5,0-.7-.2-.2-.4-.2-.7v-3.5c0-.6-.1-1-.3-1.2-.2-.3-.5-.4-1-.4s-1,.2-1.3.5c-.3.3-.5.8-.5,1.3v3.2c0,.6-.3.9-.9.9Z" fill="#fff"/>
    </g>
  </g>
</svg>