<?xml version="1.0" encoding="UTF-8"?>
<svg id="b" data-name="Layer 2" xmlns="http://www.w3.org/2000/svg" width="143.5mm" height="82.6mm" viewBox="0 0 406.7 234">
  <g id="c" data-name="Layer 5">
    <g>
      <g>
        <path d="M3.7,39.6h.7v4.2h1.1v.7h-1.1v1.5h-.8v-1.5H.3v-.6l3.3-4.3ZM3.6,40.8l-2.4,3h2.4v-3Z" fill="#fff"/>
        <path d="M8.5,46.1c-.4,0-.8,0-1.1-.2-.3-.1-.6-.4-.8-.6-.2-.3-.3-.6-.3-1h.8c0,.4.1.7.4.9.3.2.6.3,1,.3s.8-.1,1.1-.4.4-.6.4-1c0-.8-.5-1.2-1.6-1.2h-1.7l.3-3.1h3.5v.7h-2.9l.2-.3-.2,2.2h-.1c.2-.1.3-.2.5-.2.2,0,.4,0,.5,0,.7,0,1.2.2,1.6.5.4.3.6.8.6,1.4s0,.8-.3,1.1c-.2.3-.4.6-.8.8-.3.2-.7.3-1.2.3Z" fill="#fff"/>
      </g>
      <g>
        <path d="M3.4,54.6h.7v4.2h1.1v.7h-1.1v1.5h-.8v-1.5H0v-.6l3.3-4.3ZM3.4,55.8l-2.4,3h2.4v-3Z" fill="#fff"/>
        <path d="M8.4,61.1c-.5,0-.9-.1-1.3-.4-.4-.2-.7-.6-.9-1.1-.2-.5-.3-1.1-.3-1.8s.1-1.3.3-1.8c.2-.5.5-.8.9-1.1.4-.2.8-.4,1.3-.4s.9.1,1.3.4c.4.2.7.6.9,1.1.2.5.3,1.1.3,1.8s-.1,1.3-.3,1.8-.5.9-.9,1.1-.8.4-1.3.4ZM8.4,60.4c.5,0,1-.2,1.2-.7.3-.4.4-1.1.4-1.9s-.1-1.4-.4-1.9c-.3-.4-.7-.7-1.2-.7s-.9.2-1.2.7-.4,1.1-.4,1.9.1,1.4.4,1.9c.3.4.7.7,1.2.7Z" fill="#fff"/>
      </g>
      <g>
        <path d="M2.7,76.1c-.3,0-.6,0-.9-.1s-.6-.2-.8-.4c-.2-.2-.4-.4-.6-.6s-.2-.6-.2-.9h.8c0,.3,0,.5.2.7s.3.3.6.4c.2.1.5.2.8.2.5,0,.8-.1,1.1-.3.3-.2.4-.5.4-.9s0-.4-.2-.6c-.1-.2-.3-.3-.5-.4s-.5-.1-.9-.1h-.7v-.6h.5c.5,0,.9,0,1.2-.3.3-.2.4-.5.4-.8s-.1-.6-.3-.8-.6-.3-1-.3-.6,0-.9.2c-.3.1-.4.4-.5.7H.5c0-.4.2-.7.4-1s.5-.4.8-.5.7-.2,1-.2.8,0,1.1.2c.3.1.6.4.8.6.2.3.3.6.3.9s0,.6-.3.9c-.2.2-.5.4-.8.5.4.1.7.3,1,.6.3.3.4.6.4,1s0,.7-.3,1c-.2.3-.5.5-.8.7-.3.2-.8.2-1.2.2Z" fill="#fff"/>
        <path d="M8.5,76.1c-.4,0-.8,0-1.1-.2-.3-.1-.6-.4-.8-.6-.2-.3-.3-.6-.3-1h.8c0,.4.1.7.4.9.3.2.6.3,1,.3s.8-.1,1.1-.4.4-.6.4-1c0-.8-.5-1.2-1.6-1.2h-1.7l.3-3.1h3.5v.7h-2.9l.2-.3-.2,2.2h-.1c.2-.1.3-.2.5-.2.2,0,.4,0,.5,0,.7,0,1.2.2,1.6.5.4.3.6.8.6,1.4s0,.8-.3,1.1c-.2.3-.4.6-.8.8-.3.2-.7.3-1.2.3Z" fill="#fff"/>
      </g>
      <g>
        <path d="M2.5,91.1c-.3,0-.6,0-.9-.1s-.6-.2-.8-.4c-.2-.2-.4-.4-.6-.6s-.2-.6-.2-.9h.8c0,.3,0,.5.2.7s.3.3.6.4c.2.1.5.2.8.2.5,0,.8-.1,1.1-.3.3-.2.4-.5.4-.9s0-.4-.2-.6c-.1-.2-.3-.3-.5-.4s-.5-.1-.9-.1h-.7v-.6h.5c.5,0,.9,0,1.2-.3.3-.2.4-.5.4-.8s-.1-.6-.3-.8-.6-.3-1-.3-.6,0-.9.2c-.3.1-.4.4-.5.7H.2c0-.4.2-.7.4-1s.5-.4.8-.5.7-.2,1-.2.8,0,1.1.2c.3.1.6.4.8.6.2.3.3.6.3.9s0,.6-.3.9c-.2.2-.5.4-.8.5.4.1.7.3,1,.6.3.3.4.6.4,1s0,.7-.3,1c-.2.3-.5.5-.8.7-.3.2-.8.2-1.2.2Z" fill="#fff"/>
        <path d="M8.4,91.1c-.5,0-.9-.1-1.3-.4-.4-.2-.7-.6-.9-1.1-.2-.5-.3-1.1-.3-1.8s.1-1.3.3-1.8c.2-.5.5-.8.9-1.1.4-.2.8-.4,1.3-.4s.9.1,1.3.4c.4.2.7.6.9,1.1.2.5.3,1.1.3,1.8s-.1,1.3-.3,1.8-.5.9-.9,1.1-.8.4-1.3.4ZM8.4,90.4c.5,0,1-.2,1.2-.7.3-.4.4-1.1.4-1.9s-.1-1.4-.4-1.9c-.3-.4-.7-.7-1.2-.7s-.9.2-1.2.7-.4,1.1-.4,1.9.1,1.4.4,1.9c.3.4.7.7,1.2.7Z" fill="#fff"/>
      </g>
      <g>
        <path d="M.5,106v-.9c0-.4,0-.7.2-.9.1-.2.3-.4.5-.6.2-.2.5-.3.8-.4l1.2-.5c.3-.1.6-.3.7-.5.2-.2.2-.5.2-.8s-.1-.6-.3-.8c-.2-.2-.5-.3-.9-.3s-.7,0-1,.3c-.3.2-.4.4-.4.8h-.9c0-.4.1-.7.3-.9.2-.3.5-.4.8-.6s.7-.2,1.2-.2.8,0,1.1.2c.3.2.6.4.8.7.2.3.3.6.3,1s0,.6-.2.9c-.1.2-.3.4-.5.6-.2.2-.5.3-.8.4l-1.3.5c-.3.1-.6.3-.7.4-.2.2-.2.4-.2.7v.3h3.7v.7H.5Z" fill="#fff"/>
        <path d="M8.5,106.1c-.4,0-.8,0-1.1-.2-.3-.1-.6-.4-.8-.6-.2-.3-.3-.6-.3-1h.8c0,.4.1.7.4.9.3.2.6.3,1,.3s.8-.1,1.1-.4.4-.6.4-1c0-.8-.5-1.2-1.6-1.2h-1.7l.3-3.1h3.5v.7h-2.9l.2-.3-.2,2.2h-.1c.2-.1.3-.2.5-.2.2,0,.4,0,.5,0,.7,0,1.2.2,1.6.5.4.3.6.8.6,1.4s0,.8-.3,1.1c-.2.3-.4.6-.8.8-.3.2-.7.3-1.2.3Z" fill="#fff"/>
      </g>
      <g>
        <path d="M.2,121v-.9c0-.4,0-.7.2-.9.1-.2.3-.4.5-.6.2-.2.5-.3.8-.4l1.2-.5c.3-.1.6-.3.7-.5.2-.2.2-.5.2-.8s-.1-.6-.3-.8c-.2-.2-.5-.3-.9-.3s-.7,0-1,.3c-.3.2-.4.4-.4.8H.3c0-.4.1-.7.3-.9.2-.3.5-.4.8-.6s.7-.2,1.2-.2.8,0,1.1.2c.3.2.6.4.8.7.2.3.3.6.3,1s0,.6-.2.9c-.1.2-.3.4-.5.6-.2.2-.5.3-.8.4l-1.3.5c-.3.1-.6.3-.7.4-.2.2-.2.4-.2.7v.3h3.7v.7H.2Z" fill="#fff"/>
        <path d="M8.4,121.1c-.5,0-.9-.1-1.3-.4-.4-.2-.7-.6-.9-1.1-.2-.5-.3-1.1-.3-1.8s.1-1.3.3-1.8c.2-.5.5-.8.9-1.1.4-.2.8-.4,1.3-.4s.9.1,1.3.4c.4.2.7.6.9,1.1.2.5.3,1.1.3,1.8s-.1,1.3-.3,1.8-.5.9-.9,1.1-.8.4-1.3.4ZM8.4,120.4c.5,0,1-.2,1.2-.7.3-.4.4-1.1.4-1.9s-.1-1.4-.4-1.9c-.3-.4-.7-.7-1.2-.7s-.9.2-1.2.7-.4,1.1-.4,1.9.1,1.4.4,1.9c.3.4.7.7,1.2.7Z" fill="#fff"/>
      </g>
      <g>
        <path d="M4,129.6h.6v6.3h-.8v-5.4c-.2.1-.3.2-.5.3s-.4,0-.5,0v-.8c.2,0,.4,0,.6-.2.2,0,.4-.2.6-.3Z" fill="#fff"/>
        <path d="M8.5,136.1c-.4,0-.8,0-1.1-.2-.3-.1-.6-.4-.8-.6-.2-.3-.3-.6-.3-1h.8c0,.4.1.7.4.9.3.2.6.3,1,.3s.8-.1,1.1-.4.4-.6.4-1c0-.8-.5-1.2-1.6-1.2h-1.7l.3-3.1h3.5v.7h-2.9l.2-.3-.2,2.2h-.1c.2-.1.3-.2.5-.2.2,0,.4,0,.5,0,.7,0,1.2.2,1.6.5.4.3.6.8.6,1.4s0,.8-.3,1.1c-.2.3-.4.6-.8.8-.3.2-.7.3-1.2.3Z" fill="#fff"/>
      </g>
      <g>
        <path d="M3.8,144.6h.6v6.3h-.8v-5.4c-.2.1-.3.2-.5.3s-.4,0-.5,0v-.8c.2,0,.4,0,.6-.2.2,0,.4-.2.6-.3Z" fill="#fff"/>
        <path d="M8.4,151.1c-.5,0-.9-.1-1.3-.4-.4-.2-.7-.6-.9-1.1-.2-.5-.3-1.1-.3-1.8s.1-1.3.3-1.8c.2-.5.5-.8.9-1.1.4-.2.8-.4,1.3-.4s.9.1,1.3.4c.4.2.7.6.9,1.1.2.5.3,1.1.3,1.8s-.1,1.3-.3,1.8-.5.9-.9,1.1-.8.4-1.3.4ZM8.4,150.4c.5,0,1-.2,1.2-.7.3-.4.4-1.1.4-1.9s-.1-1.4-.4-1.9c-.3-.4-.7-.7-1.2-.7s-.9.2-1.2.7-.4,1.1-.4,1.9.1,1.4.4,1.9c.3.4.7.7,1.2.7Z" fill="#fff"/>
      </g>
      <path d="M8.5,166.1c-.4,0-.8,0-1.1-.2-.3-.1-.6-.4-.8-.6-.2-.3-.3-.6-.3-1h.8c0,.4.1.7.4.9.3.2.6.3,1,.3s.8-.1,1.1-.4.4-.6.4-1c0-.8-.5-1.2-1.6-1.2h-1.7l.3-3.1h3.5v.7h-2.9l.2-.3-.2,2.2h-.1c.2-.1.3-.2.5-.2.2,0,.4,0,.5,0,.7,0,1.2.2,1.6.5.4.3.6.8.6,1.4s0,.8-.3,1.1c-.2.3-.4.6-.8.8-.3.2-.7.3-1.2.3Z" fill="#fff"/>
      <path d="M8.4,181.1c-.5,0-.9-.1-1.3-.4-.4-.2-.7-.6-.9-1.1-.2-.5-.3-1.1-.3-1.8s.1-1.3.3-1.8c.2-.5.5-.8.9-1.1.4-.2.8-.4,1.3-.4s.9.1,1.3.4c.4.2.7.6.9,1.1.2.5.3,1.1.3,1.8s-.1,1.3-.3,1.8-.5.9-.9,1.1-.8.4-1.3.4ZM8.4,180.4c.5,0,1-.2,1.2-.7.3-.4.4-1.1.4-1.9s-.1-1.4-.4-1.9c-.3-.4-.7-.7-1.2-.7s-.9.2-1.2.7-.4,1.1-.4,1.9.1,1.4.4,1.9c.3.4.7.7,1.2.7Z" fill="#fff"/>
    </g>
    <g>
      <rect x="197.7" y="227.5" width="6.5" height="6.5" fill="#e72264"/>
      <rect x="157.4" y="227.5" width="6.5" height="6.5" fill="#3a97d3"/>
      <rect x="238.2" y="227.5" width="6.5" height="6.5" fill="#2dab61"/>
      <g>
        <path d="M166.2,233.9v-.9c0-.4,0-.7.2-.9.1-.2.3-.4.5-.6.2-.2.5-.3.8-.4l1.2-.5c.3-.1.6-.3.7-.5.2-.2.2-.5.2-.8s-.1-.6-.3-.8c-.2-.2-.5-.3-.9-.3s-.7,0-1,.3c-.3.2-.4.4-.4.8h-.9c0-.4.1-.7.3-.9.2-.3.5-.4.8-.6.3-.1.7-.2,1.2-.2s.8,0,1.1.2c.3.2.6.4.8.7.2.3.3.6.3,1s0,.6-.2.9c-.1.2-.3.4-.5.6s-.5.3-.8.4l-1.3.5c-.3.1-.6.3-.7.4s-.2.4-.2.7v.3h3.7v.7h-4.5Z" fill="#fff"/>
        <path d="M174.4,234c-.5,0-.9-.1-1.3-.4-.4-.2-.7-.6-.9-1.1-.2-.5-.3-1.1-.3-1.8s.1-1.3.3-1.8c.2-.5.5-.8.9-1.1.4-.2.8-.4,1.3-.4s.9.1,1.3.4.7.6.9,1.1c.2.5.3,1.1.3,1.8s-.1,1.3-.3,1.8-.5.9-.9,1.1c-.4.2-.8.4-1.3.4ZM174.4,233.3c.5,0,1-.2,1.2-.7.3-.4.4-1.1.4-1.9s-.1-1.4-.4-1.9c-.3-.4-.7-.7-1.2-.7s-.9.2-1.2.7-.4,1.1-.4,1.9.1,1.4.4,1.9c.3.4.7.7,1.2.7Z" fill="#fff"/>
        <path d="M178,233.9v-.9c0-.4,0-.7.2-.9.1-.2.3-.4.5-.6.2-.2.5-.3.8-.4l1.2-.5c.3-.1.6-.3.7-.5.2-.2.2-.5.2-.8s-.1-.6-.3-.8c-.2-.2-.5-.3-.9-.3s-.7,0-1,.3c-.3.2-.4.4-.4.8h-.9c0-.4.1-.7.3-.9.2-.3.5-.4.8-.6.3-.1.7-.2,1.2-.2s.8,0,1.1.2c.3.2.6.4.8.7.2.3.3.6.3,1s0,.6-.2.9c-.1.2-.3.4-.5.6s-.5.3-.8.4l-1.3.5c-.3.1-.6.3-.7.4s-.2.4-.2.7v.3h3.7v.7h-4.5Z" fill="#fff"/>
        <path d="M183.8,233.9v-.9c0-.4,0-.7.2-.9.1-.2.3-.4.5-.6.2-.2.5-.3.8-.4l1.2-.5c.3-.1.6-.3.7-.5.2-.2.2-.5.2-.8s-.1-.6-.3-.8c-.2-.2-.5-.3-.9-.3s-.7,0-1,.3c-.3.2-.4.4-.4.8h-.9c0-.4.1-.7.3-.9.2-.3.5-.4.8-.6.3-.1.7-.2,1.2-.2s.8,0,1.1.2c.3.2.6.4.8.7.2.3.3.6.3,1s0,.6-.2.9c-.1.2-.3.4-.5.6s-.5.3-.8.4l-1.3.5c-.3.1-.6.3-.7.4s-.2.4-.2.7v.3h3.7v.7h-4.5Z" fill="#fff"/>
      </g>
      <g>
        <path d="M207.2,233.9v-.9c0-.4,0-.7.2-.9.1-.2.3-.4.5-.6.2-.2.5-.3.8-.4l1.2-.5c.3-.1.6-.3.7-.5.2-.2.2-.5.2-.8s-.1-.6-.3-.8c-.2-.2-.5-.3-.9-.3s-.7,0-1,.3c-.3.2-.4.4-.4.8h-.9c0-.4.1-.7.3-.9.2-.3.5-.4.8-.6.3-.1.7-.2,1.2-.2s.8,0,1.1.2c.3.2.6.4.8.7.2.3.3.6.3,1s0,.6-.2.9c-.1.2-.3.4-.5.6s-.5.3-.8.4l-1.3.5c-.3.1-.6.3-.7.4s-.2.4-.2.7v.3h3.7v.7h-4.5Z" fill="#fff"/>
        <path d="M215.4,234c-.5,0-.9-.1-1.3-.4-.4-.2-.7-.6-.9-1.1-.2-.5-.3-1.1-.3-1.8s.1-1.3.3-1.8c.2-.5.5-.8.9-1.1.4-.2.8-.4,1.3-.4s.9.1,1.3.4.7.6.9,1.1c.2.5.3,1.1.3,1.8s-.1,1.3-.3,1.8-.5.9-.9,1.1c-.4.2-.8.4-1.3.4ZM215.4,233.3c.5,0,1-.2,1.2-.7.3-.4.4-1.1.4-1.9s-.1-1.4-.4-1.9c-.3-.4-.7-.7-1.2-.7s-.9.2-1.2.7-.4,1.1-.4,1.9.1,1.4.4,1.9c.3.4.7.7,1.2.7Z" fill="#fff"/>
        <path d="M219,233.9v-.9c0-.4,0-.7.2-.9.1-.2.3-.4.5-.6.2-.2.5-.3.8-.4l1.2-.5c.3-.1.6-.3.7-.5.2-.2.2-.5.2-.8s-.1-.6-.3-.8c-.2-.2-.5-.3-.9-.3s-.7,0-1,.3c-.3.2-.4.4-.4.8h-.9c0-.4.1-.7.3-.9.2-.3.5-.4.8-.6.3-.1.7-.2,1.2-.2s.8,0,1.1.2c.3.2.6.4.8.7.2.3.3.6.3,1s0,.6-.2.9c-.1.2-.3.4-.5.6s-.5.3-.8.4l-1.3.5c-.3.1-.6.3-.7.4s-.2.4-.2.7v.3h3.7v.7h-4.5Z" fill="#fff"/>
        <path d="M227.2,234c-.3,0-.6,0-.9-.1s-.6-.2-.8-.4c-.2-.2-.4-.4-.6-.6s-.2-.6-.2-.9h.8c0,.3,0,.5.2.7.1.2.3.3.6.4.2.1.5.2.8.2.5,0,.8-.1,1.1-.3.3-.2.4-.5.4-.9s0-.4-.2-.6c-.1-.2-.3-.3-.5-.4-.2,0-.5-.1-.9-.1h-.7v-.6h.5c.5,0,.9,0,1.2-.3.3-.2.4-.5.4-.8s-.1-.6-.3-.8-.6-.3-1-.3-.6,0-.9.2c-.3.1-.4.4-.5.7h-.8c0-.4.2-.7.4-1,.2-.2.5-.4.8-.5.3-.1.7-.2,1-.2s.8,0,1.1.2c.3.1.6.4.8.6.2.3.3.6.3.9s0,.6-.3.9c-.2.2-.5.4-.8.5.4.1.7.3,1,.6.3.3.4.6.4,1s0,.7-.3,1c-.2.3-.5.5-.8.7-.3.2-.8.2-1.2.2Z" fill="#fff"/>
      </g>
      <g>
        <path d="M248.2,233.9v-.9c0-.4,0-.7.2-.9.1-.2.3-.4.5-.6.2-.2.5-.3.8-.4l1.2-.5c.3-.1.6-.3.7-.5.2-.2.2-.5.2-.8s-.1-.6-.3-.8c-.2-.2-.5-.3-.9-.3s-.7,0-1,.3c-.3.2-.4.4-.4.8h-.9c0-.4.1-.7.3-.9.2-.3.5-.4.8-.6.3-.1.7-.2,1.2-.2s.8,0,1.1.2c.3.2.6.4.8.7.2.3.3.6.3,1s0,.6-.2.9c-.1.2-.3.4-.5.6s-.5.3-.8.4l-1.3.5c-.3.1-.6.3-.7.4s-.2.4-.2.7v.3h3.7v.7h-4.5Z" fill="#fff"/>
        <path d="M256.4,234c-.5,0-.9-.1-1.3-.4-.4-.2-.7-.6-.9-1.1-.2-.5-.3-1.1-.3-1.8s.1-1.3.3-1.8c.2-.5.5-.8.9-1.1.4-.2.8-.4,1.3-.4s.9.1,1.3.4.7.6.9,1.1c.2.5.3,1.1.3,1.8s-.1,1.3-.3,1.8-.5.9-.9,1.1c-.4.2-.8.4-1.3.4ZM256.4,233.3c.5,0,1-.2,1.2-.7.3-.4.4-1.1.4-1.9s-.1-1.4-.4-1.9c-.3-.4-.7-.7-1.2-.7s-.9.2-1.2.7-.4,1.1-.4,1.9.1,1.4.4,1.9c.3.4.7.7,1.2.7Z" fill="#fff"/>
        <path d="M260,233.9v-.9c0-.4,0-.7.2-.9.1-.2.3-.4.5-.6.2-.2.5-.3.8-.4l1.2-.5c.3-.1.6-.3.7-.5.2-.2.2-.5.2-.8s-.1-.6-.3-.8c-.2-.2-.5-.3-.9-.3s-.7,0-1,.3c-.3.2-.4.4-.4.8h-.9c0-.4.1-.7.3-.9.2-.3.5-.4.8-.6.3-.1.7-.2,1.2-.2s.8,0,1.1.2c.3.2.6.4.8.7.2.3.3.6.3,1s0,.6-.2.9c-.1.2-.3.4-.5.6s-.5.3-.8.4l-1.3.5c-.3.1-.6.3-.7.4s-.2.4-.2.7v.3h3.7v.7h-4.5Z" fill="#fff"/>
        <path d="M268.7,227.5h.7v4.2h1.1v.7h-1.1v1.5h-.8v-1.5h-3.3v-.6l3.3-4.3ZM268.7,228.7l-2.4,3h2.4v-3Z" fill="#fff"/>
      </g>
    </g>
    <g>
      <path d="M154,10.7c-.3,0-.5,0-.7-.3s-.2-.4-.2-.7V1.1c0-.3,0-.6.2-.7s.4-.2.7-.2.5,0,.7.2.2.4.2.7v3.8h0l4.2-4.2c.2-.2.3-.3.5-.4.2,0,.3-.1.5-.1.3,0,.5,0,.6.2.1.1.2.3.1.5,0,.2-.1.4-.3.5l-4.3,4.3v-.9s4.5,4.6,4.5,4.6c.2.2.3.4.3.6,0,.2,0,.4-.2.5s-.4.2-.6.2-.4,0-.6-.1c-.1,0-.3-.2-.5-.4l-4.3-4.3h0v4c0,.3,0,.5-.2.7s-.4.3-.7.3Z" fill="#fff"/>
      <path d="M163.6,1.9c-.3,0-.6,0-.8-.3s-.3-.4-.3-.7,0-.6.3-.7.5-.3.8-.3.6,0,.8.3c.2.2.3.4.3.7s0,.5-.3.7c-.2.2-.5.3-.8.3ZM163.6,10.7c-.3,0-.5,0-.7-.3s-.2-.4-.2-.7v-5.4c0-.3,0-.6.2-.7s.4-.3.7-.3.5,0,.7.3.2.4.2.7v5.4c0,.3,0,.6-.2.7s-.4.3-.7.3Z" fill="#fff"/>
      <path d="M167.3,10.7c-.3,0-.5,0-.7-.2s-.2-.4-.2-.7v-5.6c0-.3,0-.5.2-.7s.4-.2.7-.2.5,0,.7.2c.2.2.2.4.2.7v1l-.2-.4c.2-.5.6-.9,1-1.2.5-.3,1-.4,1.6-.4s1.1.1,1.4.3c.4.2.7.5.8,1,.2.4.3,1,.3,1.7v3.6c0,.3,0,.5-.2.7s-.4.2-.7.2-.5,0-.7-.2-.2-.4-.2-.7v-3.5c0-.6-.1-1-.3-1.2-.2-.3-.5-.4-1-.4s-1,.2-1.3.5-.5.8-.5,1.3v3.2c0,.6-.3.9-.9.9Z" fill="#fff"/>
      <path d="M177.8,10.8c-.6,0-1.2-.2-1.7-.5-.5-.3-.8-.7-1.1-1.3-.3-.6-.4-1.2-.4-2s.1-1.4.4-2,.6-1,1.1-1.3c.5-.3,1-.5,1.7-.5s1.1.1,1.6.4.7.7.9,1.2h-.2V1c0-.3,0-.5.2-.7.2-.2.4-.2.7-.2s.5,0,.7.2c.2.2.2.4.2.7v8.8c0,.3,0,.5-.2.7s-.4.2-.7.2-.5,0-.7-.2-.2-.4-.2-.7v-1.1l.2.4c-.1.5-.4.9-.9,1.2-.5.3-1,.5-1.6.5ZM178.3,9.4c.4,0,.7,0,1-.3.3-.2.5-.4.6-.8.2-.3.2-.8.2-1.3,0-.8-.2-1.4-.5-1.8-.3-.4-.8-.6-1.3-.6s-.7,0-1,.3c-.3.2-.5.4-.6.8s-.2.8-.2,1.3c0,.8.2,1.4.5,1.8.3.4.8.6,1.3.6Z" fill="#fff"/>
      <path d="M191.1,10.8c-.7,0-1.4-.2-1.9-.5-.5-.3-1-.7-1.3-1.3-.3-.6-.5-1.2-.5-2s0-1.1.3-1.6c.2-.5.4-.8.7-1.2.3-.3.7-.6,1.2-.8s1-.3,1.5-.3,1.4.2,1.9.5c.6.3,1,.7,1.3,1.3.3.6.5,1.2.5,2s0,1.1-.3,1.6-.4.9-.7,1.2c-.3.3-.7.6-1.2.8-.5.2-1,.3-1.5.3ZM191.1,9.4c.4,0,.7,0,1-.3.3-.2.5-.4.6-.8.2-.3.2-.8.2-1.3,0-.8-.2-1.4-.5-1.8-.3-.4-.8-.6-1.3-.6s-.7,0-1,.3c-.3.2-.5.4-.6.8s-.2.8-.2,1.3c0,.8.2,1.4.5,1.8.3.4.8.6,1.3.6Z" fill="#fff"/>
      <path d="M197.8,10.7c-.3,0-.5,0-.7-.2s-.2-.4-.2-.7v-5h-.7c-.2,0-.4,0-.5-.2-.1-.1-.2-.3-.2-.5s0-.4.2-.5c.1-.1.3-.2.5-.2h1.2l-.5.5v-.5c0-1,.3-1.8.8-2.3.5-.5,1.2-.8,2.2-.9h.5c.2,0,.4,0,.5,0,.1,0,.2.2.2.3,0,.1,0,.3,0,.4s0,.3-.2.4c0,.1-.2.2-.4.2h-.2c-.6,0-1,.2-1.2.4-.3.2-.4.6-.4,1.1v.5l-.2-.2h1.5c.2,0,.4,0,.5.2.1.1.2.3.2.5s0,.4-.2.5c-.1.1-.3.2-.5.2h-1.3v5c0,.6-.3.9-.9.9Z" fill="#fff"/>
      <path d="M208.1,10.8c-.5,0-1-.1-1.4-.3-.4-.2-.7-.5-1-.8-.2-.3-.3-.7-.3-1.2s.1-1,.4-1.3c.3-.3.7-.5,1.3-.7s1.4-.2,2.5-.2h.7v1.1h-.7c-.6,0-1.1,0-1.5,0-.4,0-.6.2-.8.3s-.2.3-.2.6.1.6.3.8c.2.2.5.3.9.3s.6,0,.9-.2c.2-.2.4-.4.6-.6s.2-.6.2-.9v-1.7c0-.5-.1-.8-.3-1.1s-.6-.3-1.1-.3-.6,0-.9.1-.7.2-1,.4c-.2,0-.4.1-.5,0-.1,0-.3-.1-.3-.2,0-.1-.1-.3-.1-.4s0-.3.1-.4c0-.1.2-.2.4-.3.5-.2.9-.3,1.3-.4.4,0,.8-.1,1.1-.1.7,0,1.3.1,1.7.3.5.2.8.5,1,1,.2.4.3,1,.3,1.7v3.5c0,.3,0,.5-.2.7s-.4.2-.6.2-.5,0-.6-.2c-.2-.2-.2-.4-.2-.7v-.7h.1c0,.3-.2.6-.4.9-.2.2-.5.4-.8.6s-.7.2-1,.2Z" fill="#fff"/>
      <path d="M216.4,10.8c-.4,0-.9,0-1.3-.1-.5,0-.9-.2-1.3-.5-.2,0-.3-.2-.3-.3,0-.1,0-.3,0-.4,0-.1,0-.2.1-.3,0,0,.2-.2.3-.2.1,0,.3,0,.4,0,.4.2.8.3,1.1.4.3,0,.7.1,1,.1s.8,0,1.1-.2c.2-.2.3-.4.3-.6s0-.4-.2-.5-.4-.2-.7-.3l-1.5-.3c-.6-.1-1.1-.3-1.4-.7s-.5-.8-.5-1.3.1-.9.4-1.2c.3-.3.6-.6,1.1-.8.5-.2,1-.3,1.6-.3s.8,0,1.2.1c.4,0,.7.2,1.1.4.1,0,.2.2.3.3,0,.1,0,.3,0,.4s0,.3-.2.4c0,.1-.2.2-.3.2-.1,0-.3,0-.5,0-.3-.2-.6-.3-.9-.3-.3,0-.5-.1-.8-.1-.5,0-.8,0-1.1.2-.2.2-.3.4-.3.7s0,.4.2.5.3.2.6.3l1.5.3c.6.1,1.1.3,1.5.6s.5.7.5,1.3-.3,1.3-.8,1.7c-.6.4-1.3.6-2.2.6Z" fill="#fff"/>
      <path d="M223.6,10.8c-.4,0-.9,0-1.3-.1-.5,0-.9-.2-1.3-.5-.2,0-.3-.2-.3-.3,0-.1,0-.3,0-.4,0-.1,0-.2.1-.3,0,0,.2-.2.3-.2.1,0,.3,0,.4,0,.4.2.8.3,1.1.4.3,0,.7.1,1,.1s.8,0,1.1-.2c.2-.2.3-.4.3-.6s0-.4-.2-.5-.4-.2-.7-.3l-1.5-.3c-.6-.1-1.1-.3-1.4-.7s-.5-.8-.5-1.3.1-.9.4-1.2c.3-.3.6-.6,1.1-.8.5-.2,1-.3,1.6-.3s.8,0,1.2.1c.4,0,.7.2,1.1.4.1,0,.2.2.3.3,0,.1,0,.3,0,.4s0,.3-.2.4c0,.1-.2.2-.3.2-.1,0-.3,0-.5,0-.3-.2-.6-.3-.9-.3-.3,0-.5-.1-.8-.1-.5,0-.8,0-1.1.2-.2.2-.3.4-.3.7s0,.4.2.5.3.2.6.3l1.5.3c.6.1,1.1.3,1.5.6s.5.7.5,1.3-.3,1.3-.8,1.7c-.6.4-1.3.6-2.2.6Z" fill="#fff"/>
      <path d="M229.1,1.9c-.3,0-.6,0-.8-.3s-.3-.4-.3-.7,0-.6.3-.7.5-.3.8-.3.6,0,.8.3c.2.2.3.4.3.7s0,.5-.3.7c-.2.2-.5.3-.8.3ZM229.1,10.7c-.3,0-.5,0-.7-.3s-.2-.4-.2-.7v-5.4c0-.3,0-.6.2-.7s.4-.3.7-.3.5,0,.7.3.2.4.2.7v5.4c0,.3,0,.6-.2.7s-.4.3-.7.3Z" fill="#fff"/>
      <path d="M234.5,10.8c-.4,0-.9,0-1.3-.1-.5,0-.9-.2-1.3-.5-.2,0-.3-.2-.3-.3,0-.1,0-.3,0-.4,0-.1,0-.2.1-.3,0,0,.2-.2.3-.2.1,0,.3,0,.4,0,.4.2.8.3,1.1.4.3,0,.7.1,1,.1s.8,0,1.1-.2c.2-.2.3-.4.3-.6s0-.4-.2-.5-.4-.2-.7-.3l-1.5-.3c-.6-.1-1.1-.3-1.4-.7s-.5-.8-.5-1.3.1-.9.4-1.2c.3-.3.6-.6,1.1-.8.5-.2,1-.3,1.6-.3s.8,0,1.2.1c.4,0,.7.2,1.1.4.1,0,.2.2.3.3,0,.1,0,.3,0,.4s0,.3-.2.4c0,.1-.2.2-.3.2-.1,0-.3,0-.5,0-.3-.2-.6-.3-.9-.3-.3,0-.5-.1-.8-.1-.5,0-.8,0-1.1.2-.2.2-.3.4-.3.7s0,.4.2.5.3.2.6.3l1.5.3c.6.1,1.1.3,1.5.6s.5.7.5,1.3-.3,1.3-.8,1.7c-.6.4-1.3.6-2.2.6Z" fill="#fff"/>
      <path d="M242.4,10.8c-.6,0-1.2-.1-1.6-.3s-.7-.5-1-1c-.2-.4-.3-.9-.3-1.6v-3.1h-.8c-.2,0-.4,0-.5-.2-.1-.1-.2-.3-.2-.5s0-.4.2-.5c.1-.1.3-.2.5-.2h.8v-1.3c0-.3,0-.5.2-.7s.4-.2.7-.2.5,0,.7.2c.2.2.2.4.2.7v1.3h1.6c.2,0,.4,0,.5.2.1.1.2.3.2.5s0,.4-.2.5c-.1.1-.3.2-.5.2h-1.6v3c0,.5.1.8.3,1.1.2.2.5.4,1,.4s.3,0,.4,0c.1,0,.2,0,.3,0,.1,0,.2,0,.3.1,0,0,.1.3.1.5s0,.4,0,.5c0,.2-.2.3-.3.3-.1,0-.3,0-.5.1s-.4,0-.5,0Z" fill="#fff"/>
      <path d="M247.1,10.8c-.5,0-1-.1-1.4-.3-.4-.2-.7-.5-1-.8-.2-.3-.3-.7-.3-1.2s.1-1,.4-1.3c.3-.3.7-.5,1.3-.7s1.4-.2,2.5-.2h.7v1.1h-.7c-.6,0-1.1,0-1.5,0-.4,0-.6.2-.8.3s-.2.3-.2.6.1.6.3.8c.2.2.5.3.9.3s.6,0,.9-.2c.2-.2.4-.4.6-.6s.2-.6.2-.9v-1.7c0-.5-.1-.8-.3-1.1s-.6-.3-1.1-.3-.6,0-.9.1-.7.2-1,.4c-.2,0-.4.1-.5,0-.1,0-.3-.1-.3-.2,0-.1-.1-.3-.1-.4s0-.3.1-.4c0-.1.2-.2.4-.3.5-.2.9-.3,1.3-.4.4,0,.8-.1,1.1-.1.7,0,1.3.1,1.7.3.5.2.8.5,1,1,.2.4.3,1,.3,1.7v3.5c0,.3,0,.5-.2.7s-.4.2-.6.2-.5,0-.6-.2c-.2-.2-.2-.4-.2-.7v-.7h.1c0,.3-.2.6-.4.9-.2.2-.5.4-.8.6s-.7.2-1,.2Z" fill="#fff"/>
      <path d="M253.7,10.7c-.3,0-.5,0-.7-.2s-.2-.4-.2-.7v-5.6c0-.3,0-.5.2-.7s.4-.2.7-.2.5,0,.7.2c.2.2.2.4.2.7v1l-.2-.4c.2-.5.6-.9,1-1.2.5-.3,1-.4,1.6-.4s1.1.1,1.4.3c.4.2.7.5.8,1,.2.4.3,1,.3,1.7v3.6c0,.3,0,.5-.2.7s-.4.2-.7.2-.5,0-.7-.2-.2-.4-.2-.7v-3.5c0-.6-.1-1-.3-1.2-.2-.3-.5-.4-1-.4s-1,.2-1.3.5-.5.8-.5,1.3v3.2c0,.6-.3.9-.9.9Z" fill="#fff"/>
      <path d="M264.8,10.8c-.8,0-1.4-.2-2-.5-.6-.3-1-.7-1.3-1.3-.3-.6-.5-1.2-.5-2s0-1.1.3-1.6c.2-.5.4-.8.7-1.2s.7-.6,1.2-.7,1-.3,1.5-.3.7,0,1.1.1c.4,0,.7.2,1.1.4.2,0,.3.2.3.4,0,.1,0,.3,0,.4,0,.1,0,.3-.2.4,0,.1-.2.2-.3.2-.1,0-.3,0-.5,0-.2-.1-.4-.2-.7-.3-.2,0-.4,0-.6,0-.3,0-.6,0-.9.2-.2.1-.5.2-.6.4-.2.2-.3.4-.4.7s-.1.6-.1,1c0,.7.2,1.3.5,1.7s.8.6,1.5.6.4,0,.6,0c.2,0,.4-.2.7-.3.2,0,.3-.1.4,0,.1,0,.2,0,.3.2,0,.1.1.2.2.4,0,.1,0,.3,0,.4,0,.1-.2.2-.3.3-.3.2-.7.3-1,.4-.4,0-.7.1-1,.1Z" fill="#fff"/>
      <path d="M271.9,10.8c-.8,0-1.5-.2-2.1-.5-.6-.3-1-.7-1.4-1.3-.3-.6-.5-1.2-.5-2s.2-1.4.5-2c.3-.6.7-1,1.3-1.3.5-.3,1.2-.5,1.9-.5s1,0,1.4.2c.4.2.8.4,1,.7.3.3.5.7.7,1.1.2.4.2,1,.2,1.5s0,.3-.2.4c-.1,0-.3.1-.5.1h-4.7v-1.1h4.1l-.2.2c0-.5,0-.8-.2-1.1s-.3-.5-.6-.7c-.3-.2-.6-.2-.9-.2s-.8,0-1.1.3c-.3.2-.5.5-.7.8s-.2.8-.2,1.2h0c0,.9.2,1.5.6,1.9.4.4.9.6,1.7.6s.5,0,.9,0c.3,0,.6-.2.9-.3.2-.1.4-.2.5-.2.2,0,.3,0,.4.2,0,0,.2.2.2.4s0,.3,0,.4c0,.1-.2.3-.4.4-.3.2-.7.4-1.2.5-.4.1-.9.2-1.2.2Z" fill="#fff"/>
    </g>
    <g>
      <polyline points="21.2 42.9 39.2 28.9 406.2 28.9" fill="none" stroke="#c6c6c6" stroke-miterlimit="10"/>
      <polyline points="21.7 56.9 39.7 42.9 406.7 42.9" fill="none" stroke="#c6c6c6" stroke-miterlimit="10"/>
      <polyline points="21.2 72.9 39.2 58.9 406.2 58.9" fill="none" stroke="#c6c6c6" stroke-miterlimit="10"/>
      <polyline points="21.7 86.9 39.7 72.9 406.7 72.9" fill="none" stroke="#c6c6c6" stroke-miterlimit="10"/>
      <polyline points="21.2 103.9 39.2 89.9 406.2 89.9" fill="none" stroke="#c6c6c6" stroke-miterlimit="10"/>
      <polyline points="21.7 117.9 39.7 103.9 406.7 103.9" fill="none" stroke="#c6c6c6" stroke-miterlimit="10"/>
      <polyline points="21.2 133.9 39.2 119.9 406.2 119.9" fill="none" stroke="#c6c6c6" stroke-miterlimit="10"/>
      <polyline points="21.7 147.9 39.7 133.9 406.7 133.9" fill="none" stroke="#c6c6c6" stroke-miterlimit="10"/>
      <polyline points="21.2 163.9 39.2 149.9 406.2 149.9" fill="none" stroke="#c6c6c6" stroke-miterlimit="10"/>
      <polyline points="21.7 177.9 39.7 163.9 406.7 163.9" fill="none" stroke="#c6c6c6" stroke-miterlimit="10"/>
      <g>
        <g>
          <rect x="45.5" y="44.4" width="20" height="130" fill="#3a97d3"/>
          <polygon points="72.5 169.4 65.5 174.4 65.5 44.4 72.5 39.4 72.5 169.4" fill="#3379a1"/>
          <polygon points="72.8 39.1 52.5 39.1 45.5 44.4 65.8 44.4 72.8 39.1" fill="#3082b0"/>
        </g>
        <g>
          <rect x="65.5" y="52.3" width="20" height="122.1" fill="#e72264"/>
          <polygon points="92.5 169.7 85.5 174.4 85.5 52.3 92.5 47.6 92.5 169.7" fill="#9c355d"/>
          <polygon points="92.8 47.4 72.5 47.4 65.5 52.3 85.8 52.3 92.8 47.4" fill="#b53365"/>
        </g>
        <g>
          <rect x="85.5" y="50.3" width="20" height="124" fill="#2dab61"/>
          <polygon points="112.5 169.6 105.5 174.4 105.5 50.3 112.5 45.6 112.5 169.6" fill="#1c8045"/>
          <polygon points="112.8 45.4 92.5 45.4 85.5 50.3 105.8 50.3 112.8 45.4" fill="#2c8c53"/>
        </g>
        <g>
          <path d="M52.5,28.6h.7v4.2h1.1v.7h-1.1v1.5h-.8v-1.5h-3.3v-.6l3.3-4.3ZM52.5,29.8l-2.4,3h2.4v-3Z" fill="#3a97d3"/>
          <path d="M57.6,35.1c-.3,0-.6,0-.9-.1s-.6-.2-.8-.4c-.2-.2-.4-.4-.6-.6s-.2-.6-.2-.9h.8c0,.3,0,.5.2.7s.3.3.6.4c.2.1.5.2.8.2.5,0,.8-.1,1.1-.3.3-.2.4-.5.4-.9s0-.4-.2-.6c-.1-.2-.3-.3-.5-.4s-.5-.1-.9-.1h-.7v-.6h.5c.5,0,.9,0,1.2-.3.3-.2.4-.5.4-.8s-.1-.6-.3-.8-.6-.3-1-.3-.6,0-.9.2c-.3.1-.4.4-.5.7h-.8c0-.4.2-.7.4-1s.5-.4.8-.5.7-.2,1-.2.8,0,1.1.2c.3.1.6.4.8.6.2.3.3.6.3.9s0,.6-.3.9c-.2.2-.5.4-.8.5.4.1.7.3,1,.6.3.3.4.6.4,1s0,.7-.3,1c-.2.3-.5.5-.8.7-.3.2-.8.2-1.2.2Z" fill="#3a97d3"/>
        </g>
        <g>
          <path d="M72.7,37.2h.7v4.2h1.1v.7h-1.1v1.5h-.8v-1.5h-3.3v-.6l3.3-4.3ZM72.7,38.4l-2.4,3h2.4v-3Z" fill="#e72264"/>
          <path d="M77.7,43.7c-.5,0-.9-.1-1.3-.4-.4-.2-.7-.6-.9-1.1-.2-.5-.3-1.1-.3-1.8s.1-1.3.3-1.8c.2-.5.5-.8.9-1.1.4-.2.8-.4,1.3-.4s.9.1,1.3.4c.4.2.7.6.9,1.1.2.5.3,1.1.3,1.8s-.1,1.3-.3,1.8-.5.9-.9,1.1-.8.4-1.3.4ZM77.7,43c.5,0,1-.2,1.2-.7.3-.4.4-1.1.4-1.9s-.1-1.4-.4-1.9c-.3-.4-.7-.7-1.2-.7s-.9.2-1.2.7-.4,1.1-.4,1.9.1,1.4.4,1.9c.3.4.7.7,1.2.7Z" fill="#e72264"/>
        </g>
        <g>
          <path d="M94.1,34.1h.7v4.2h1.1v.7h-1.1v1.5h-.8v-1.5h-3.3v-.6l3.3-4.3ZM94.1,35.3l-2.4,3h2.4v-3Z" fill="#2dab61"/>
          <path d="M97.8,34.1h.6v6.3h-.8v-5.4c-.2.1-.3.2-.5.3s-.4,0-.5,0v-.8c.2,0,.4,0,.6-.2.2,0,.4-.2.6-.3Z" fill="#2dab61"/>
        </g>
      </g>
      <g>
        <g>
          <rect x="137.8" y="164.7" width="20" height="9.7" fill="#3a97d3"/>
          <polygon points="164.8 159.7 164.8 174.4 157.8 174.4 157.8 164.7 161.8 161.8 163.3 160.7 163.5 160.6 164.8 159.7" fill="#3379a1"/>
          <polygon points="165.1 159.4 144.8 159.4 137.8 164.7 158.1 164.7 165.1 159.4" fill="#3082b0"/>
        </g>
        <g>
          <rect x="157.8" y="161.8" width="20" height="12.6" fill="#e72264"/>
          <polygon points="184.8 157.1 184.8 174.4 177.8 174.4 177.8 161.8 183.6 157.9 183.7 157.8 184.8 157.1" fill="#9c355d"/>
          <polygon points="185.1 156.9 164.8 156.9 157.8 161.8 178.1 161.8 185.1 156.9" fill="#b53365"/>
        </g>
        <g>
          <rect x="177.8" y="167.6" width="20" height="6.7" fill="#2dab61"/>
          <polygon points="204.8 162.9 204.8 169.5 198.3 174.4 197.8 174.4 197.8 167.6 203.4 163.8 203.6 163.7 204.8 162.9" fill="#1c8045"/>
          <polygon points="205.1 162.7 184.8 162.7 177.8 167.7 198.1 167.7 205.1 162.7" fill="#2c8c53"/>
        </g>
        <path d="M147.5,155.1c-.3,0-.6,0-.9-.1s-.6-.2-.8-.4c-.2-.2-.4-.4-.6-.6s-.2-.6-.2-.9h.8c0,.3,0,.5.2.7s.3.3.6.4c.2.1.5.2.8.2.5,0,.8-.1,1.1-.3.3-.2.4-.5.4-.9s0-.4-.2-.6c-.1-.2-.3-.3-.5-.4s-.5-.1-.9-.1h-.7v-.6h.5c.5,0,.9,0,1.2-.3.3-.2.4-.5.4-.8s-.1-.6-.3-.8-.6-.3-1-.3-.6,0-.9.2c-.3.1-.4.4-.5.7h-.8c0-.4.2-.7.4-1s.5-.4.8-.5.7-.2,1-.2.8,0,1.1.2c.3.1.6.4.8.6.2.3.3.6.3.9s0,.6-.3.9c-.2.2-.5.4-.8.5.4.1.7.3,1,.6.3.3.4.6.4,1s0,.7-.3,1c-.2.3-.5.5-.8.7-.3.2-.8.2-1.2.2Z" fill="#3a97d3"/>
        <path d="M169.4,145.6h.7v4.2h1.1v.7h-1.1v1.5h-.8v-1.5h-3.3v-.6l3.3-4.3ZM169.4,146.8l-2.4,3h2.4v-3Z" fill="#e72264"/>
        <path d="M186.2,158v-.9c0-.4,0-.7.2-.9.1-.2.3-.4.5-.6.2-.2.5-.3.8-.4l1.2-.5c.3-.1.6-.3.7-.5.2-.2.2-.5.2-.8s-.1-.6-.3-.8c-.2-.2-.5-.3-.9-.3s-.7,0-1,.3c-.3.2-.4.4-.4.8h-.9c0-.4.1-.7.3-.9.2-.3.5-.4.8-.6s.7-.2,1.2-.2.8,0,1.1.2c.3.2.6.4.8.7.2.3.3.6.3,1s0,.6-.2.9c-.1.2-.3.4-.5.6-.2.2-.5.3-.8.4l-1.3.5c-.3.1-.6.3-.7.4-.2.2-.2.4-.2.7v.3h3.7v.7h-4.5Z" fill="#2dab61"/>
      </g>
      <g>
        <g>
          <rect x="230.1" y="120" width="20" height="54.4" fill="#3a97d3"/>
          <polygon points="257.1 115 257.1 174.4 250.1 174.4 250.1 120 255.9 115.8 256 115.7 257.1 115" fill="#3379a1"/>
          <polygon points="257.4 114.7 237.1 114.7 230.1 120 250.4 120 257.4 114.7" fill="#3082b0"/>
        </g>
        <g>
          <rect x="250.1" y="128.9" width="20" height="45.4" fill="#e72264"/>
          <polygon points="277.1 124.2 277.1 174.4 270.1 174.4 270.1 128.9 275.7 125.2 275.9 125.1 277.1 124.2" fill="#9c355d"/>
          <polygon points="277.4 124 257.1 124 250.1 128.9 270.4 128.9 277.4 124" fill="#b53365"/>
        </g>
        <g>
          <rect x="270.1" y="136" width="20" height="38.3" fill="#2dab61"/>
          <polygon points="297.1 131.2 297.1 169.5 290.6 174.4 290.1 174.4 290.1 136 295.8 132.2 297.1 131.2" fill="#1c8045"/>
          <polygon points="297.4 131 277.1 131 270.1 136 290.4 136 297.4 131" fill="#2c8c53"/>
        </g>
        <g>
          <path d="M236,103.6h.6v6.3h-.8v-5.4c-.2.1-.3.2-.5.3s-.4,0-.5,0v-.8c.2,0,.4,0,.6-.2.2,0,.4-.2.6-.3Z" fill="#3a97d3"/>
          <path d="M240.8,110.1c-.5,0-.9,0-1.3-.2-.4-.2-.7-.4-.9-.6-.2-.3-.3-.6-.3-.9s0-.6.2-.8c.2-.2.4-.4.7-.5s.6-.2,1-.2.2,0,.3,0c0,0,.2,0,.3,0v.2c-.3,0-.6,0-.9.2-.3.1-.4.3-.6.4-.1.2-.2.4-.2.6s0,.5.2.6c.2.2.4.3.6.4s.6.1.9.1c.5,0,1,0,1.3-.3.3-.2.5-.4.5-.7s0-.4-.2-.6c-.2-.1-.4-.3-.7-.4l-1.7-.7c-.2,0-.4-.2-.6-.3-.2-.1-.4-.3-.5-.5-.1-.2-.2-.5-.2-.7s0-.6.3-.9c.2-.3.5-.4.8-.6.3-.1.8-.2,1.2-.2s.8,0,1.2.2c.3.2.6.4.8.6.2.3.3.6.3.9s0,.5-.2.7c-.1.2-.3.4-.6.5-.3.1-.6.2-.9.2s-.2,0-.3,0c0,0-.2,0-.3,0v-.3c.3,0,.5,0,.7-.1.2,0,.4-.2.5-.4.1-.2.2-.4.2-.6s0-.4-.2-.6c-.1-.2-.3-.3-.5-.4-.2,0-.5-.1-.8-.1s-.5,0-.8.1c-.2,0-.4.2-.5.4s-.2.3-.2.5,0,.4.2.5c.2.1.4.3.6.4l1.7.7c.5.2.8.4,1.1.6.2.2.4.6.4,1s-.1.6-.3.9c-.2.3-.5.5-.9.6-.4.1-.8.2-1.4.2Z" fill="#3a97d3"/>
        </g>
        <g>
          <path d="M256.5,112.6h.6v6.3h-.8v-5.4c-.2.1-.3.2-.5.3s-.4,0-.5,0v-.8c.2,0,.4,0,.6-.2.2,0,.4-.2.6-.3Z" fill="#e72264"/>
          <path d="M261,119.1c-.4,0-.8,0-1.1-.2-.3-.1-.6-.4-.8-.6-.2-.3-.3-.6-.3-1h.8c0,.4.1.7.4.9.3.2.6.3,1,.3s.8-.1,1.1-.4.4-.6.4-1c0-.8-.5-1.2-1.6-1.2h-1.7l.3-3.1h3.5v.7h-2.9l.2-.3-.2,2.2h-.1c.2-.1.3-.2.5-.2.2,0,.4,0,.5,0,.7,0,1.2.2,1.6.5.4.3.6.8.6,1.4s0,.8-.3,1.1c-.2.3-.4.6-.8.8-.3.2-.7.3-1.2.3Z" fill="#e72264"/>
        </g>
        <g>
          <path d="M276.3,118.6h.6v6.3h-.8v-5.4c-.2.1-.3.2-.5.3s-.4,0-.5,0v-.8c.2,0,.4,0,.6-.2.2,0,.4-.2.6-.3Z" fill="#2dab61"/>
          <path d="M280.9,125.1c-.3,0-.6,0-.9-.1s-.6-.2-.8-.4c-.2-.2-.4-.4-.6-.6s-.2-.6-.2-.9h.8c0,.3,0,.5.2.7s.3.3.6.4c.2.1.5.2.8.2.5,0,.8-.1,1.1-.3.3-.2.4-.5.4-.9s0-.4-.2-.6c-.1-.2-.3-.3-.5-.4s-.5-.1-.9-.1h-.7v-.6h.5c.5,0,.9,0,1.2-.3.3-.2.4-.5.4-.8s-.1-.6-.3-.8-.6-.3-1-.3-.6,0-.9.2c-.3.1-.4.4-.5.7h-.8c0-.4.2-.7.4-1s.5-.4.8-.5.7-.2,1-.2.8,0,1.1.2c.3.1.6.4.8.6.2.3.3.6.3.9s0,.6-.3.9c-.2.2-.5.4-.8.5.4.1.7.3,1,.6.3.3.4.6.4,1s0,.7-.3,1c-.2.3-.5.5-.8.7-.3.2-.8.2-1.2.2Z" fill="#2dab61"/>
        </g>
      </g>
      <g>
        <g>
          <rect x="322.5" y="153.7" width="20" height="20.7" fill="#3a97d3"/>
          <polygon points="349.5 148.7 349.5 174.4 342.5 174.4 342.5 153.7 347.8 149.9 348.2 149.6 349.5 148.7" fill="#3379a1"/>
          <polygon points="349.8 148.4 329.5 148.4 322.5 153.7 342.8 153.7 349.8 148.4" fill="#3082b0"/>
        </g>
        <g>
          <rect x="342.5" y="165" width="20" height="9.3" fill="#e72264"/>
          <polygon points="369.5 160.3 369.5 174.4 362.5 174.4 362.5 165 368.3 161.2 368.3 161.1 368.6 161 369.5 160.3" fill="#9c355d"/>
          <polygon points="369.8 160.1 349.5 160.1 342.5 165 362.8 165 369.8 160.1" fill="#b53365"/>
        </g>
        <g>
          <rect x="362.5" y="161" width="20" height="13.4" fill="#2dab61"/>
          <polygon points="389.5 156.2 389.5 169.5 383 174.4 382.5 174.4 382.5 161 388.4 156.9 388.4 156.9 389.5 156.2" fill="#1c8045"/>
          <polygon points="389.8 156 369.5 156 362.5 161 382.8 161 389.8 156" fill="#2c8c53"/>
        </g>
        <path d="M332,143l3-5.6h-3.4v-.7h4.3v.7l-2.9,5.6h-1Z" fill="#3a97d3"/>
        <path d="M353.2,155.1c-.3,0-.6,0-.9-.1s-.6-.2-.8-.4c-.2-.2-.4-.4-.6-.6s-.2-.6-.2-.9h.8c0,.3,0,.5.2.7s.3.3.6.4c.2.1.5.2.8.2.5,0,.8-.1,1.1-.3.3-.2.4-.5.4-.9s0-.4-.2-.6c-.1-.2-.3-.3-.5-.4s-.5-.1-.9-.1h-.7v-.6h.5c.5,0,.9,0,1.2-.3.3-.2.4-.5.4-.8s-.1-.6-.3-.8-.6-.3-1-.3-.6,0-.9.2c-.3.1-.4.4-.5.7h-.8c0-.4.2-.7.4-1s.5-.4.8-.5.7-.2,1-.2.8,0,1.1.2c.3.1.6.4.8.6.2.3.3.6.3.9s0,.6-.3.9c-.2.2-.5.4-.8.5.4.1.7.3,1,.6.3.3.4.6.4,1s0,.7-.3,1c-.2.3-.5.5-.8.7-.3.2-.8.2-1.2.2Z" fill="#e72264"/>
        <path d="M374.1,145.6h.7v4.2h1.1v.7h-1.1v1.5h-.8v-1.5h-3.3v-.6l3.3-4.3ZM374.1,146.8l-2.4,3h2.4v-3Z" fill="#2dab61"/>
      </g>
      <g>
        <g>
          <path d="M41.3,199.8v-4.8h.8v4.8h-.8ZM41.9,197.6c0-.6,0-1.1.2-1.5.1-.4.3-.7.5-.9.2-.2.5-.3.8-.3s.2,0,.3,0c0,0,.2,0,.3,0v.8c-.1,0-.2,0-.4,0-.1,0-.2,0-.3,0-.3,0-.5,0-.7.2-.2.2-.3.4-.4.7,0,.3-.1.6-.1,1h-.2Z" fill="#fff"/>
          <path d="M46.6,199.9c-.4,0-.8-.1-1.1-.3s-.6-.5-.8-.9c-.2-.4-.3-.8-.3-1.3s0-1,.3-1.4.4-.7.8-.9c.3-.2.7-.3,1.1-.3s.7,0,.9.2c.3.1.5.3.6.6.2.3.3.5.3.9,0,.3,0,.6,0,1h-3.5v-.5h3l-.2.2c0-.2,0-.4,0-.6,0-.2,0-.4-.2-.5,0-.2-.2-.3-.4-.4-.2-.1-.4-.2-.6-.2s-.6,0-.8.2c-.2.2-.4.4-.5.6-.1.3-.2.5-.2.8v.3c0,.3,0,.6.2.9.1.3.3.5.5.6.2.2.5.2.8.2s.6,0,.8-.2c.2-.2.3-.4.4-.7h.8c0,.3-.2.6-.3.8-.2.2-.4.4-.7.5s-.6.2-.9.2Z" fill="#fff"/>
          <path d="M51.8,202.3c-.5,0-.9,0-1.3-.2-.4-.1-.6-.3-.8-.6-.2-.2-.3-.5-.3-.8s.1-.7.4-.9.6-.3,1.1-.3l.4.3c-.4,0-.6,0-.8.2-.2.2-.3.4-.3.6s.1.5.4.7c.3.2.7.3,1.2.3s.8,0,1.1-.2c.3-.1.5-.3.7-.5.2-.2.3-.4.3-.6s0-.3-.2-.4c-.1-.1-.3-.2-.5-.2h-1.9c-.3,0-.6,0-.8-.1s-.4-.2-.5-.4c-.1-.2-.2-.3-.2-.5s0-.4.2-.5c.1-.1.3-.2.4-.3.2,0,.4-.1.6-.1l.2.3c-.1,0-.2,0-.3,0-.1,0-.2.1-.3.2s-.1.2-.1.3,0,.3.2.4c.1.1.4.2.7.2h1.9c.5,0,.8,0,1.1.3.3.2.4.5.4.8s-.1.6-.3.9-.5.5-1,.7c-.4.2-.9.3-1.5.3ZM52,198.4c-.4,0-.7,0-1-.2-.3-.1-.5-.4-.7-.6-.2-.3-.3-.6-.3-.9s0-.7.3-.9.4-.5.7-.6c.3-.1.6-.2,1-.2s.7,0,1,.2c.3.1.5.4.7.6.2.3.3.6.3.9s0,.7-.3.9c-.2.3-.4.5-.7.6-.3.1-.6.2-1,.2ZM52,197.8c.4,0,.7-.1.9-.3.2-.2.3-.5.3-.9s-.1-.6-.3-.9c-.2-.2-.5-.3-.9-.3s-.7.1-.9.3c-.2.2-.3.5-.3.9s.1.6.3.9c.2.2.5.3.9.3ZM53.6,195.6l-.4-.2c0-.3,0-.5.2-.7.1-.2.3-.4.5-.5.2-.1.4-.2.7-.2v.8c-.4,0-.6,0-.8.2s-.2.3-.2.6Z" fill="#fff"/>
          <path d="M55.7,195h.8v3c0,.4,0,.7.3.9.2.2.5.3.8.3s.6,0,.8-.2c.2-.2.4-.4.5-.7.1-.3.2-.6.2-1h.3c0,.5,0,1-.2,1.4-.2.4-.4.7-.7.9-.3.2-.6.3-1,.3s-.7,0-1-.2c-.3-.1-.5-.3-.6-.6-.2-.3-.2-.6-.2-1v-3.1ZM59.1,195h.8v4.8h-.8v-4.8Z" fill="#fff"/>
          <path d="M61.9,199.8v-6.9h.8v6.9h-.8Z" fill="#fff"/>
          <path d="M66.1,199.9c-.4,0-.7,0-1-.2-.3-.1-.5-.3-.6-.5-.1-.2-.2-.5-.2-.7s0-.6.2-.8c.2-.2.4-.4.7-.5.3,0,.6-.1,1-.1s.5,0,.8,0c.3,0,.5.1.7.2v.5c-.2,0-.4-.1-.7-.2-.3,0-.5,0-.7,0-.3,0-.6,0-.8.2-.2.1-.3.4-.3.7s0,.4.3.6c.2.2.4.3.8.3s.5,0,.7-.2c.2-.1.4-.3.5-.5.1-.2.2-.4.2-.6h.2c0,.3,0,.6-.2.9-.1.3-.3.5-.6.7-.3.2-.6.3-.9.3ZM67.7,199.8v-1.1c-.1,0-.1-2.1-.1-2.1,0-.4,0-.7-.3-.9s-.5-.3-.8-.3-.4,0-.6,0c-.2,0-.3.2-.4.3,0,.1-.1.3-.1.5h-.9c0-.3,0-.6.3-.8.2-.2.4-.4.7-.5.3,0,.6-.1,1-.1s.7,0,1,.2c.3.1.5.3.7.6.2.3.2.6.2,1.1v3.1h-.7Z" fill="#fff"/>
          <path d="M70.3,199.8v-4.8h.8v4.8h-.8ZM70.8,197.6c0-.6,0-1.1.2-1.5.1-.4.3-.7.5-.9.2-.2.5-.3.8-.3s.2,0,.3,0c0,0,.2,0,.3,0v.8c-.1,0-.2,0-.4,0-.1,0-.2,0-.3,0-.3,0-.5,0-.7.2-.2.2-.3.4-.4.7,0,.3-.1.6-.1,1h-.2Z" fill="#fff"/>
          <path d="M76.3,202.1v-7.2h.7v1.1c.1,0,.1,6,.1,6h-.8ZM78.5,199.9c-.4,0-.7,0-.9-.2-.3-.2-.5-.4-.6-.7-.1-.3-.2-.7-.2-1.1h.3c0,.3,0,.5.2.8.1.2.3.4.5.5.2.1.4.2.6.2s.5,0,.7-.2c.2-.1.4-.3.5-.6s.2-.6.2-1,0-.7-.2-1-.3-.5-.5-.6-.5-.2-.7-.2-.4,0-.6.2c-.2.1-.4.3-.5.5s-.2.5-.2.8h-.3c0-.5,0-.9.2-1.2s.4-.6.6-.7.6-.2.9-.2.7.1,1.1.3.6.5.8.9c.2.4.3.8.3,1.3s-.1,1-.3,1.4c-.2.4-.5.7-.8.9-.3.2-.7.3-1.1.3Z" fill="#fff"/>
          <path d="M83.5,199.9c-.4,0-.7,0-1-.2-.3-.1-.5-.3-.6-.5-.1-.2-.2-.5-.2-.7s0-.6.2-.8c.2-.2.4-.4.7-.5.3,0,.6-.1,1-.1s.5,0,.8,0c.3,0,.5.1.7.2v.5c-.2,0-.4-.1-.7-.2-.3,0-.5,0-.7,0-.3,0-.6,0-.8.2-.2.1-.3.4-.3.7s0,.4.3.6c.2.2.4.3.8.3s.5,0,.7-.2c.2-.1.4-.3.5-.5.1-.2.2-.4.2-.6h.2c0,.3,0,.6-.2.9-.1.3-.3.5-.6.7-.3.2-.6.3-.9.3ZM85.1,199.8v-1.1c-.1,0-.1-2.1-.1-2.1,0-.4,0-.7-.3-.9s-.5-.3-.8-.3-.4,0-.6,0c-.2,0-.3.2-.4.3,0,.1-.1.3-.1.5h-.9c0-.3,0-.6.3-.8.2-.2.4-.4.7-.5.3,0,.6-.1,1-.1s.7,0,1,.2c.3.1.5.3.7.6.2.3.2.6.2,1.1v3.1h-.7Z" fill="#fff"/>
          <path d="M87.7,199.8v-6.9h.8v6.9h-.8Z" fill="#fff"/>
          <path d="M90.5,199.8v-6.9h.8v6.9h-.8Z" fill="#fff"/>
          <path d="M93.8,193.8c-.2,0-.3,0-.4-.1,0,0-.1-.2-.1-.4s0-.3.1-.4c0,0,.2-.1.4-.1s.3,0,.4.1c0,0,.1.2.1.4s0,.3-.1.4c0,0-.2.1-.4.1ZM93.4,199.8v-4.8h.8v4.8h-.8Z" fill="#fff"/>
          <path d="M97.7,199.9c-.4,0-.7,0-1-.2-.3-.1-.5-.3-.6-.5-.1-.2-.2-.5-.2-.7s0-.6.2-.8c.2-.2.4-.4.7-.5.3,0,.6-.1,1-.1s.5,0,.8,0c.3,0,.5.1.7.2v.5c-.2,0-.4-.1-.7-.2-.3,0-.5,0-.7,0-.3,0-.6,0-.8.2-.2.1-.3.4-.3.7s0,.4.3.6c.2.2.4.3.8.3s.5,0,.7-.2c.2-.1.4-.3.5-.5.1-.2.2-.4.2-.6h.2c0,.3,0,.6-.2.9-.1.3-.3.5-.6.7-.3.2-.6.3-.9.3ZM99.3,199.8v-1.1c-.1,0-.1-2.1-.1-2.1,0-.4,0-.7-.3-.9s-.5-.3-.8-.3-.4,0-.6,0c-.2,0-.3.2-.4.3,0,.1-.1.3-.1.5h-.9c0-.3,0-.6.3-.8.2-.2.4-.4.7-.5.3,0,.6-.1,1-.1s.7,0,1,.2c.3.1.5.3.7.6.2.3.2.6.2,1.1v3.1h-.7Z" fill="#fff"/>
          <path d="M101.2,195.5v-.5h3.1v.5h-3.1ZM103.4,199.9c-.3,0-.5,0-.7-.2s-.4-.3-.5-.5-.2-.5-.2-.8v-4.9h.8v4.9c0,.5.2.7.7.7s.3,0,.4,0c.1,0,.3,0,.4-.1v.6c0,0-.2.1-.4.2-.2,0-.3,0-.5,0Z" fill="#fff"/>
          <path d="M106.1,193.8c-.2,0-.3,0-.4-.1,0,0-.1-.2-.1-.4s0-.3.1-.4c0,0,.2-.1.4-.1s.3,0,.4.1c0,0,.1.2.1.4s0,.3-.1.4c0,0-.2.1-.4.1ZM105.7,199.8v-4.8h.8v4.8h-.8Z" fill="#fff"/>
          <path d="M107.8,195h.9l1.5,4.1h-.1l1.5-4.1h.9l-1.9,4.8h-.9l-1.9-4.8Z" fill="#fff"/>
          <path d="M115.4,199.9c-.4,0-.8-.1-1.1-.3s-.6-.5-.8-.9c-.2-.4-.3-.8-.3-1.3s0-1,.3-1.4.4-.7.8-.9c.3-.2.7-.3,1.1-.3s.7,0,.9.2c.3.1.5.3.6.6.2.3.3.5.3.9,0,.3,0,.6,0,1h-3.5v-.5h3l-.2.2c0-.2,0-.4,0-.6,0-.2,0-.4-.2-.5,0-.2-.2-.3-.4-.4-.2-.1-.4-.2-.6-.2s-.6,0-.8.2c-.2.2-.4.4-.5.6-.1.3-.2.5-.2.8v.3c0,.3,0,.6.2.9.1.3.3.5.5.6.2.2.5.2.8.2s.6,0,.8-.2c.2-.2.3-.4.4-.7h.8c0,.3-.2.6-.3.8-.2.2-.4.4-.7.5s-.6.2-.9.2Z" fill="#fff"/>
          <path d="M42.7,209.2c-.4,0-.7,0-1-.2-.3-.1-.5-.3-.6-.5-.1-.2-.2-.5-.2-.7s0-.6.2-.8c.2-.2.4-.4.7-.5.3,0,.6-.1,1-.1s.5,0,.8,0c.3,0,.5.1.7.2v.5c-.2,0-.4-.1-.7-.2-.3,0-.5,0-.7,0-.3,0-.6,0-.8.2-.2.1-.3.4-.3.7s0,.4.3.6c.2.2.4.3.8.3s.5,0,.7-.2c.2-.1.4-.3.5-.5.1-.2.2-.4.2-.6h.2c0,.3,0,.6-.2.9-.1.3-.3.5-.6.7-.3.2-.6.3-.9.3ZM44.3,209.1v-1.1c-.1,0-.1-2.1-.1-2.1,0-.4,0-.7-.3-.9s-.5-.3-.8-.3-.4,0-.6,0c-.2,0-.3.2-.4.3,0,.1-.1.3-.1.5h-.9c0-.3,0-.6.3-.8.2-.2.4-.4.7-.5.3,0,.6-.1,1-.1s.7,0,1,.2c.3.1.5.3.7.6.2.3.2.6.2,1.1v3.1h-.7Z" fill="#fff"/>
          <path d="M48.6,209.2c-.5,0-.9,0-1.2-.2-.3-.1-.5-.3-.7-.5s-.2-.5-.3-.8h.8c0,.3.1.5.4.7.2.2.5.2.9.2s.4,0,.6-.1c.2,0,.3-.2.4-.3.1-.1.2-.2.2-.4s0-.3-.2-.4-.4-.2-.7-.3l-.9-.3c-.4-.1-.7-.3-.9-.5-.2-.2-.3-.5-.3-.8s.2-.7.5-.9c.3-.2.8-.4,1.3-.4s1,.1,1.4.4c.3.2.5.5.5.9h-.8c0-.2-.1-.4-.3-.5s-.4-.2-.8-.2-.6,0-.8.2c-.2.1-.3.3-.3.5,0,.3.3.6.9.7l1,.3c.4.1.7.3.9.5s.3.5.3.8,0,.5-.2.7c-.2.2-.4.4-.7.5-.3.1-.6.2-1,.2Z" fill="#fff"/>
          <path d="M53.9,209.2c-.5,0-.9,0-1.2-.2-.3-.1-.5-.3-.7-.5s-.2-.5-.3-.8h.8c0,.3.1.5.4.7.2.2.5.2.9.2s.4,0,.6-.1c.2,0,.3-.2.4-.3.1-.1.2-.2.2-.4s0-.3-.2-.4-.4-.2-.7-.3l-.9-.3c-.4-.1-.7-.3-.9-.5-.2-.2-.3-.5-.3-.8s.2-.7.5-.9c.3-.2.8-.4,1.3-.4s1,.1,1.4.4c.3.2.5.5.5.9h-.8c0-.2-.1-.4-.3-.5s-.4-.2-.8-.2-.6,0-.8.2c-.2.1-.3.3-.3.5,0,.3.3.6.9.7l1,.3c.4.1.7.3.9.5s.3.5.3.8,0,.5-.2.7c-.2.2-.4.4-.7.5-.3.1-.6.2-1,.2Z" fill="#fff"/>
          <path d="M57.9,203.2c-.2,0-.3,0-.4-.1,0,0-.1-.2-.1-.4s0-.3.1-.4c0,0,.2-.1.4-.1s.3,0,.4.1c0,0,.1.2.1.4s0,.3-.1.4c0,0-.2.1-.4.1ZM57.5,209.1v-4.8h.8v4.8h-.8Z" fill="#fff"/>
          <path d="M62.2,209.2c-.5,0-.9,0-1.2-.2-.3-.1-.5-.3-.7-.5s-.2-.5-.3-.8h.8c0,.3.1.5.4.7.2.2.5.2.9.2s.4,0,.6-.1c.2,0,.3-.2.4-.3.1-.1.2-.2.2-.4s0-.3-.2-.4-.4-.2-.7-.3l-.9-.3c-.4-.1-.7-.3-.9-.5-.2-.2-.3-.5-.3-.8s.2-.7.5-.9c.3-.2.8-.4,1.3-.4s1,.1,1.4.4c.3.2.5.5.5.9h-.8c0-.2-.1-.4-.3-.5s-.4-.2-.8-.2-.6,0-.8.2c-.2.1-.3.3-.3.5,0,.3.3.6.9.7l1,.3c.4.1.7.3.9.5s.3.5.3.8,0,.5-.2.7c-.2.2-.4.4-.7.5-.3.1-.6.2-1,.2Z" fill="#fff"/>
          <path d="M65.1,204.9v-.5h3.1v.5h-3.1ZM67.2,209.2c-.3,0-.5,0-.7-.2s-.4-.3-.5-.5-.2-.5-.2-.8v-4.9h.8v4.9c0,.5.2.7.7.7s.3,0,.4,0c.1,0,.3,0,.4-.1v.6c0,0-.2.1-.4.2-.2,0-.3,0-.5,0Z" fill="#fff"/>
          <path d="M70.8,209.2c-.4,0-.7,0-1-.2-.3-.1-.5-.3-.6-.5-.1-.2-.2-.5-.2-.7s0-.6.2-.8c.2-.2.4-.4.7-.5.3,0,.6-.1,1-.1s.5,0,.8,0c.3,0,.5.1.7.2v.5c-.2,0-.4-.1-.7-.2-.3,0-.5,0-.7,0-.3,0-.6,0-.8.2-.2.1-.3.4-.3.7s0,.4.3.6c.2.2.4.3.8.3s.5,0,.7-.2c.2-.1.4-.3.5-.5.1-.2.2-.4.2-.6h.2c0,.3,0,.6-.2.9-.1.3-.3.5-.6.7-.3.2-.6.3-.9.3ZM72.5,209.1v-1.1c-.1,0-.1-2.1-.1-2.1,0-.4,0-.7-.3-.9s-.5-.3-.8-.3-.4,0-.6,0c-.2,0-.3.2-.4.3,0,.1-.1.3-.1.5h-.9c0-.3,0-.6.3-.8.2-.2.4-.4.7-.5.3,0,.6-.1,1-.1s.7,0,1,.2c.3.1.5.3.7.6.2.3.2.6.2,1.1v3.1h-.7Z" fill="#fff"/>
          <path d="M75.1,209.1v-4.8h.7v1.1c.1,0,.1,3.7.1,3.7h-.8ZM78.5,209.1v-2.8c0-.5-.1-.8-.3-1-.2-.2-.5-.4-.9-.4s-.5,0-.8.2c-.2.2-.4.4-.5.7-.1.3-.2.6-.2,1h-.3c0-.6,0-1,.2-1.4.1-.4.4-.7.6-.9.3-.2.6-.3,1-.3s.7,0,1,.3c.3.2.5.4.6.7.1.3.2.7.2,1.1v2.8h-.8Z" fill="#fff"/>
          <path d="M82.8,209.2c-.4,0-.7-.1-1.1-.3-.3-.2-.6-.5-.8-.9-.2-.4-.3-.8-.3-1.3s.1-1,.3-1.4c.2-.4.5-.7.8-.9.3-.2.7-.3,1.1-.3s.5,0,.7.1c.2,0,.4.2.6.3.2.1.3.3.4.5s.2.4.2.6h-.8c0-.2-.2-.4-.4-.6-.2-.2-.4-.2-.7-.2s-.5,0-.7.2c-.2.1-.4.3-.5.6-.1.3-.2.6-.2,1s0,.7.2,1c.1.3.3.5.5.6.2.2.4.2.7.2s.7,0,.8-.3c.2-.2.3-.4.3-.8h.8c0,.3,0,.6-.2.9-.2.3-.4.5-.7.6-.3.2-.6.2-1,.2Z" fill="#fff"/>
          <path d="M88,209.2c-.4,0-.8-.1-1.1-.3s-.6-.5-.8-.9c-.2-.4-.3-.8-.3-1.3s0-1,.3-1.4.4-.7.8-.9c.3-.2.7-.3,1.1-.3s.7,0,.9.2c.3.1.5.3.6.6.2.3.3.5.3.9,0,.3,0,.6,0,1h-3.5v-.5h3l-.2.2c0-.2,0-.4,0-.6,0-.2,0-.4-.2-.5,0-.2-.2-.3-.4-.4-.2-.1-.4-.2-.6-.2s-.6,0-.8.2c-.2.2-.4.4-.5.6-.1.3-.2.5-.2.8v.3c0,.3,0,.6.2.9.1.3.3.5.5.6.2.2.5.2.8.2s.6,0,.8-.2c.2-.2.3-.4.4-.7h.8c0,.3-.2.6-.3.8-.2.2-.4.4-.7.5s-.6.2-.9.2Z" fill="#fff"/>
        </g>
        <g>
          <path d="M134,199.8v-4.8h.8v4.8h-.8ZM134.5,197.6c0-.6,0-1.1.2-1.5.1-.4.3-.7.5-.9.2-.2.5-.3.8-.3s.2,0,.3,0c0,0,.2,0,.3,0v.8c-.1,0-.2,0-.4,0-.1,0-.2,0-.3,0-.3,0-.5,0-.7.2-.2.2-.3.4-.4.7,0,.3-.1.6-.1,1h-.2Z" fill="#fff"/>
          <path d="M139.3,199.9c-.4,0-.8-.1-1.1-.3s-.6-.5-.8-.9c-.2-.4-.3-.8-.3-1.3s0-1,.3-1.4.4-.7.8-.9c.3-.2.7-.3,1.1-.3s.7,0,.9.2c.3.1.5.3.6.6.2.3.3.5.3.9,0,.3,0,.6,0,1h-3.5v-.5h3l-.2.2c0-.2,0-.4,0-.6,0-.2,0-.4-.2-.5,0-.2-.2-.3-.4-.4-.2-.1-.4-.2-.6-.2s-.6,0-.8.2c-.2.2-.4.4-.5.6-.1.3-.2.5-.2.8v.3c0,.3,0,.6.2.9.1.3.3.5.5.6.2.2.5.2.8.2s.6,0,.8-.2c.2-.2.3-.4.4-.7h.8c0,.3-.2.6-.3.8-.2.2-.4.4-.7.5s-.6.2-.9.2Z" fill="#fff"/>
          <path d="M142.2,195.5v-.5h2.6v.5h-2.6ZM143,199.8v-5.6c0-.3,0-.6.2-.8.1-.2.3-.4.5-.5.2,0,.4-.1.7-.1s.3,0,.4,0c.1,0,.3,0,.4,0l-.2.6c-.1,0-.2,0-.3,0s-.2,0-.3,0-.2,0-.3,0-.2.1-.3.2c0,.1-.1.3-.1.5v5.5h-.8Z" fill="#fff"/>
          <path d="M146.1,195h.8v3c0,.4,0,.7.3.9.2.2.5.3.8.3s.6,0,.8-.2c.2-.2.4-.4.5-.7.1-.3.2-.6.2-1h.3c0,.5,0,1-.2,1.4-.2.4-.4.7-.7.9-.3.2-.6.3-1,.3s-.7,0-1-.2c-.3-.1-.5-.3-.6-.6-.2-.3-.2-.6-.2-1v-3.1ZM149.5,195h.8v4.8h-.8v-4.8Z" fill="#fff"/>
          <path d="M154,199.9c-.5,0-.9,0-1.2-.2-.3-.1-.5-.3-.7-.5s-.2-.5-.3-.8h.8c0,.3.1.5.4.7.2.2.5.2.9.2s.4,0,.6-.1c.2,0,.3-.2.4-.3.1-.1.2-.2.2-.4s0-.3-.2-.4-.4-.2-.7-.3l-.9-.3c-.4-.1-.7-.3-.9-.5-.2-.2-.3-.5-.3-.8s.2-.7.5-.9c.3-.2.8-.4,1.3-.4s1,.1,1.4.4c.3.2.5.5.5.9h-.8c0-.2-.1-.4-.3-.5s-.4-.2-.8-.2-.6,0-.8.2c-.2.1-.3.3-.3.5,0,.3.3.6.9.7l1,.3c.4.1.7.3.9.5s.3.5.3.8,0,.5-.2.7c-.2.2-.4.4-.7.5-.3.1-.6.2-1,.2Z" fill="#fff"/>
          <path d="M158.9,199.9c-.4,0-.7,0-1-.2-.3-.1-.5-.3-.6-.5-.1-.2-.2-.5-.2-.7s0-.6.2-.8c.2-.2.4-.4.7-.5.3,0,.6-.1,1-.1s.5,0,.8,0c.3,0,.5.1.7.2v.5c-.2,0-.4-.1-.7-.2-.3,0-.5,0-.7,0-.3,0-.6,0-.8.2-.2.1-.3.4-.3.7s0,.4.3.6c.2.2.4.3.8.3s.5,0,.7-.2c.2-.1.4-.3.5-.5.1-.2.2-.4.2-.6h.2c0,.3,0,.6-.2.9-.1.3-.3.5-.6.7-.3.2-.6.3-.9.3ZM160.6,199.8v-1.1c-.1,0-.1-2.1-.1-2.1,0-.4,0-.7-.3-.9s-.5-.3-.8-.3-.4,0-.6,0c-.2,0-.3.2-.4.3,0,.1-.1.3-.1.5h-.9c0-.3,0-.6.3-.8.2-.2.4-.4.7-.5.3,0,.6-.1,1-.1s.7,0,1,.2c.3.1.5.3.7.6.2.3.2.6.2,1.1v3.1h-.7Z" fill="#fff"/>
          <path d="M163.1,199.8v-6.9h.8v6.9h-.8Z" fill="#fff"/>
          <path d="M168.3,202.1v-7.2h.7v1.1c.1,0,.1,6,.1,6h-.8ZM170.5,199.9c-.4,0-.7,0-.9-.2-.3-.2-.5-.4-.6-.7-.1-.3-.2-.7-.2-1.1h.3c0,.3,0,.5.2.8.1.2.3.4.5.5.2.1.4.2.6.2s.5,0,.7-.2c.2-.1.4-.3.5-.6s.2-.6.2-1,0-.7-.2-1-.3-.5-.5-.6-.5-.2-.7-.2-.4,0-.6.2c-.2.1-.4.3-.5.5s-.2.5-.2.8h-.3c0-.5,0-.9.2-1.2s.4-.6.6-.7.6-.2.9-.2.7.1,1.1.3.6.5.8.9c.2.4.3.8.3,1.3s-.1,1-.3,1.4c-.2.4-.5.7-.8.9-.3.2-.7.3-1.1.3Z" fill="#fff"/>
          <path d="M175.6,199.9c-.4,0-.7,0-1-.2-.3-.1-.5-.3-.6-.5-.1-.2-.2-.5-.2-.7s0-.6.2-.8c.2-.2.4-.4.7-.5.3,0,.6-.1,1-.1s.5,0,.8,0c.3,0,.5.1.7.2v.5c-.2,0-.4-.1-.7-.2-.3,0-.5,0-.7,0-.3,0-.6,0-.8.2-.2.1-.3.4-.3.7s0,.4.3.6c.2.2.4.3.8.3s.5,0,.7-.2c.2-.1.4-.3.5-.5.1-.2.2-.4.2-.6h.2c0,.3,0,.6-.2.9-.1.3-.3.5-.6.7-.3.2-.6.3-.9.3ZM177.2,199.8v-1.1c-.1,0-.1-2.1-.1-2.1,0-.4,0-.7-.3-.9s-.5-.3-.8-.3-.4,0-.6,0c-.2,0-.3.2-.4.3,0,.1-.1.3-.1.5h-.9c0-.3,0-.6.3-.8.2-.2.4-.4.7-.5.3,0,.6-.1,1-.1s.7,0,1,.2c.3.1.5.3.7.6.2.3.2.6.2,1.1v3.1h-.7Z" fill="#fff"/>
          <path d="M179.8,199.8v-6.9h.8v6.9h-.8Z" fill="#fff"/>
          <path d="M182.6,199.8v-6.9h.8v6.9h-.8Z" fill="#fff"/>
          <path d="M185.8,193.8c-.2,0-.3,0-.4-.1,0,0-.1-.2-.1-.4s0-.3.1-.4c0,0,.2-.1.4-.1s.3,0,.4.1c0,0,.1.2.1.4s0,.3-.1.4c0,0-.2.1-.4.1ZM185.4,199.8v-4.8h.8v4.8h-.8Z" fill="#fff"/>
          <path d="M189.7,199.9c-.4,0-.7,0-1-.2-.3-.1-.5-.3-.6-.5-.1-.2-.2-.5-.2-.7s0-.6.2-.8c.2-.2.4-.4.7-.5.3,0,.6-.1,1-.1s.5,0,.8,0c.3,0,.5.1.7.2v.5c-.2,0-.4-.1-.7-.2-.3,0-.5,0-.7,0-.3,0-.6,0-.8.2-.2.1-.3.4-.3.7s0,.4.3.6c.2.2.4.3.8.3s.5,0,.7-.2c.2-.1.4-.3.5-.5.1-.2.2-.4.2-.6h.2c0,.3,0,.6-.2.9-.1.3-.3.5-.6.7-.3.2-.6.3-.9.3ZM191.4,199.8v-1.1c-.1,0-.1-2.1-.1-2.1,0-.4,0-.7-.3-.9s-.5-.3-.8-.3-.4,0-.6,0c-.2,0-.3.2-.4.3,0,.1-.1.3-.1.5h-.9c0-.3,0-.6.3-.8.2-.2.4-.4.7-.5.3,0,.6-.1,1-.1s.7,0,1,.2c.3.1.5.3.7.6.2.3.2.6.2,1.1v3.1h-.7Z" fill="#fff"/>
          <path d="M193.3,195.5v-.5h3.1v.5h-3.1ZM195.4,199.9c-.3,0-.5,0-.7-.2s-.4-.3-.5-.5-.2-.5-.2-.8v-4.9h.8v4.9c0,.5.2.7.7.7s.3,0,.4,0c.1,0,.3,0,.4-.1v.6c0,0-.2.1-.4.2-.2,0-.3,0-.5,0Z" fill="#fff"/>
          <path d="M198.2,193.8c-.2,0-.3,0-.4-.1,0,0-.1-.2-.1-.4s0-.3.1-.4c0,0,.2-.1.4-.1s.3,0,.4.1c0,0,.1.2.1.4s0,.3-.1.4c0,0-.2.1-.4.1ZM197.8,199.8v-4.8h.8v4.8h-.8Z" fill="#fff"/>
          <path d="M199.9,195h.9l1.5,4.1h-.1l1.5-4.1h.9l-1.9,4.8h-.9l-1.9-4.8Z" fill="#fff"/>
          <path d="M207.4,199.9c-.4,0-.8-.1-1.1-.3s-.6-.5-.8-.9c-.2-.4-.3-.8-.3-1.3s0-1,.3-1.4.4-.7.8-.9c.3-.2.7-.3,1.1-.3s.7,0,.9.2c.3.1.5.3.6.6.2.3.3.5.3.9,0,.3,0,.6,0,1h-3.5v-.5h3l-.2.2c0-.2,0-.4,0-.6,0-.2,0-.4-.2-.5,0-.2-.2-.3-.4-.4-.2-.1-.4-.2-.6-.2s-.6,0-.8.2c-.2.2-.4.4-.5.6-.1.3-.2.5-.2.8v.3c0,.3,0,.6.2.9.1.3.3.5.5.6.2.2.5.2.8.2s.6,0,.8-.2c.2-.2.3-.4.4-.7h.8c0,.3-.2.6-.3.8-.2.2-.4.4-.7.5s-.6.2-.9.2Z" fill="#fff"/>
          <path d="M135.7,209.2c-.4,0-.7-.1-1.1-.3-.3-.2-.6-.5-.8-.9-.2-.4-.3-.8-.3-1.3s.1-1,.3-1.4c.2-.4.5-.7.8-.9.3-.2.7-.3,1.1-.3s.5,0,.7.1c.2,0,.4.2.6.3.2.1.3.3.4.5s.2.4.2.6h-.8c0-.2-.2-.4-.4-.6-.2-.2-.4-.2-.7-.2s-.5,0-.7.2c-.2.1-.4.3-.5.6-.1.3-.2.6-.2,1s0,.7.2,1c.1.3.3.5.5.6.2.2.4.2.7.2s.7,0,.8-.3c.2-.2.3-.4.3-.8h.8c0,.3,0,.6-.2.9-.2.3-.4.5-.7.6-.3.2-.6.2-1,.2Z" fill="#fff"/>
          <path d="M140.5,209.2c-.4,0-.7,0-1-.2-.3-.1-.5-.3-.6-.5-.1-.2-.2-.5-.2-.7s0-.6.2-.8c.2-.2.4-.4.7-.5.3,0,.6-.1,1-.1s.5,0,.8,0c.3,0,.5.1.7.2v.5c-.2,0-.4-.1-.7-.2-.3,0-.5,0-.7,0-.3,0-.6,0-.8.2-.2.1-.3.4-.3.7s0,.4.3.6c.2.2.4.3.8.3s.5,0,.7-.2c.2-.1.4-.3.5-.5.1-.2.2-.4.2-.6h.2c0,.3,0,.6-.2.9-.1.3-.3.5-.6.7-.3.2-.6.3-.9.3ZM142.1,209.1v-1.1c-.1,0-.1-2.1-.1-2.1,0-.4,0-.7-.3-.9s-.5-.3-.8-.3-.4,0-.6,0c-.2,0-.3.2-.4.3,0,.1-.1.3-.1.5h-.9c0-.3,0-.6.3-.8.2-.2.4-.4.7-.5.3,0,.6-.1,1-.1s.7,0,1,.2c.3.1.5.3.7.6.2.3.2.6.2,1.1v3.1h-.7Z" fill="#fff"/>
          <path d="M144.7,209.1v-4.8h.8v4.8h-.8ZM145.2,207c0-.6,0-1.1.2-1.5.1-.4.3-.7.5-.9.2-.2.5-.3.8-.3s.2,0,.3,0c0,0,.2,0,.3,0v.8c-.1,0-.2,0-.4,0-.1,0-.2,0-.3,0-.3,0-.5,0-.7.2-.2.2-.3.4-.4.7,0,.3-.1.6-.1,1h-.2Z" fill="#fff"/>
          <path d="M150,209.2c-.4,0-.8-.1-1.1-.3s-.6-.5-.8-.9c-.2-.4-.3-.8-.3-1.3s0-1,.3-1.4.4-.7.8-.9c.3-.2.7-.3,1.1-.3s.7,0,.9.2c.3.1.5.3.6.6.2.3.3.5.3.9,0,.3,0,.6,0,1h-3.5v-.5h3l-.2.2c0-.2,0-.4,0-.6,0-.2,0-.4-.2-.5,0-.2-.2-.3-.4-.4-.2-.1-.4-.2-.6-.2s-.6,0-.8.2c-.2.2-.4.4-.5.6-.1.3-.2.5-.2.8v.3c0,.3,0,.6.2.9.1.3.3.5.5.6.2.2.5.2.8.2s.6,0,.8-.2c.2-.2.3-.4.4-.7h.8c0,.3-.2.6-.3.8-.2.2-.4.4-.7.5s-.6.2-.9.2Z" fill="#fff"/>
          <path d="M157.2,209.2c-.4,0-.7,0-1-.2-.3-.1-.5-.3-.6-.5-.1-.2-.2-.5-.2-.7s0-.6.2-.8c.2-.2.4-.4.7-.5.3,0,.6-.1,1-.1s.5,0,.8,0c.3,0,.5.1.7.2v.5c-.2,0-.4-.1-.7-.2-.3,0-.5,0-.7,0-.3,0-.6,0-.8.2-.2.1-.3.4-.3.7s0,.4.3.6c.2.2.4.3.8.3s.5,0,.7-.2c.2-.1.4-.3.5-.5.1-.2.2-.4.2-.6h.2c0,.3,0,.6-.2.9-.1.3-.3.5-.6.7-.3.2-.6.3-.9.3ZM158.9,209.1v-1.1c-.1,0-.1-2.1-.1-2.1,0-.4,0-.7-.3-.9s-.5-.3-.8-.3-.4,0-.6,0c-.2,0-.3.2-.4.3,0,.1-.1.3-.1.5h-.9c0-.3,0-.6.3-.8.2-.2.4-.4.7-.5.3,0,.6-.1,1-.1s.7,0,1,.2c.3.1.5.3.7.6.2.3.2.6.2,1.1v3.1h-.7Z" fill="#fff"/>
          <path d="M163.2,209.2c-.5,0-.9,0-1.2-.2-.3-.1-.5-.3-.7-.5s-.2-.5-.3-.8h.8c0,.3.1.5.4.7.2.2.5.2.9.2s.4,0,.6-.1c.2,0,.3-.2.4-.3.1-.1.2-.2.2-.4s0-.3-.2-.4-.4-.2-.7-.3l-.9-.3c-.4-.1-.7-.3-.9-.5-.2-.2-.3-.5-.3-.8s.2-.7.5-.9c.3-.2.8-.4,1.3-.4s1,.1,1.4.4c.3.2.5.5.5.9h-.8c0-.2-.1-.4-.3-.5s-.4-.2-.8-.2-.6,0-.8.2c-.2.1-.3.3-.3.5,0,.3.3.6.9.7l1,.3c.4.1.7.3.9.5s.3.5.3.8,0,.5-.2.7c-.2.2-.4.4-.7.5-.3.1-.6.2-1,.2Z" fill="#fff"/>
          <path d="M168.4,209.2c-.5,0-.9,0-1.2-.2-.3-.1-.5-.3-.7-.5s-.2-.5-.3-.8h.8c0,.3.1.5.4.7.2.2.5.2.9.2s.4,0,.6-.1c.2,0,.3-.2.4-.3.1-.1.2-.2.2-.4s0-.3-.2-.4-.4-.2-.7-.3l-.9-.3c-.4-.1-.7-.3-.9-.5-.2-.2-.3-.5-.3-.8s.2-.7.5-.9c.3-.2.8-.4,1.3-.4s1,.1,1.4.4c.3.2.5.5.5.9h-.8c0-.2-.1-.4-.3-.5s-.4-.2-.8-.2-.6,0-.8.2c-.2.1-.3.3-.3.5,0,.3.3.6.9.7l1,.3c.4.1.7.3.9.5s.3.5.3.8,0,.5-.2.7c-.2.2-.4.4-.7.5-.3.1-.6.2-1,.2Z" fill="#fff"/>
          <path d="M172.4,203.2c-.2,0-.3,0-.4-.1,0,0-.1-.2-.1-.4s0-.3.1-.4c0,0,.2-.1.4-.1s.3,0,.4.1c0,0,.1.2.1.4s0,.3-.1.4c0,0-.2.1-.4.1ZM172,209.1v-4.8h.8v4.8h-.8Z" fill="#fff"/>
          <path d="M176.7,209.2c-.5,0-.9,0-1.2-.2-.3-.1-.5-.3-.7-.5s-.2-.5-.3-.8h.8c0,.3.1.5.4.7.2.2.5.2.9.2s.4,0,.6-.1c.2,0,.3-.2.4-.3.1-.1.2-.2.2-.4s0-.3-.2-.4-.4-.2-.7-.3l-.9-.3c-.4-.1-.7-.3-.9-.5-.2-.2-.3-.5-.3-.8s.2-.7.5-.9c.3-.2.8-.4,1.3-.4s1,.1,1.4.4c.3.2.5.5.5.9h-.8c0-.2-.1-.4-.3-.5s-.4-.2-.8-.2-.6,0-.8.2c-.2.1-.3.3-.3.5,0,.3.3.6.9.7l1,.3c.4.1.7.3.9.5s.3.5.3.8,0,.5-.2.7c-.2.2-.4.4-.7.5-.3.1-.6.2-1,.2Z" fill="#fff"/>
          <path d="M179.6,204.9v-.5h3.1v.5h-3.1ZM181.8,209.2c-.3,0-.5,0-.7-.2s-.4-.3-.5-.5-.2-.5-.2-.8v-4.9h.8v4.9c0,.5.2.7.7.7s.3,0,.4,0c.1,0,.3,0,.4-.1v.6c0,0-.2.1-.4.2-.2,0-.3,0-.5,0Z" fill="#fff"/>
          <path d="M185.4,209.2c-.4,0-.7,0-1-.2-.3-.1-.5-.3-.6-.5-.1-.2-.2-.5-.2-.7s0-.6.2-.8c.2-.2.4-.4.7-.5.3,0,.6-.1,1-.1s.5,0,.8,0c.3,0,.5.1.7.2v.5c-.2,0-.4-.1-.7-.2-.3,0-.5,0-.7,0-.3,0-.6,0-.8.2-.2.1-.3.4-.3.7s0,.4.3.6c.2.2.4.3.8.3s.5,0,.7-.2c.2-.1.4-.3.5-.5.1-.2.2-.4.2-.6h.2c0,.3,0,.6-.2.9-.1.3-.3.5-.6.7-.3.2-.6.3-.9.3ZM187,209.1v-1.1c-.1,0-.1-2.1-.1-2.1,0-.4,0-.7-.3-.9s-.5-.3-.8-.3-.4,0-.6,0c-.2,0-.3.2-.4.3,0,.1-.1.3-.1.5h-.9c0-.3,0-.6.3-.8.2-.2.4-.4.7-.5.3,0,.6-.1,1-.1s.7,0,1,.2c.3.1.5.3.7.6.2.3.2.6.2,1.1v3.1h-.7Z" fill="#fff"/>
          <path d="M189.6,209.1v-4.8h.7v1.1c.1,0,.1,3.7.1,3.7h-.8ZM193,209.1v-2.8c0-.5-.1-.8-.3-1-.2-.2-.5-.4-.9-.4s-.5,0-.8.2c-.2.2-.4.4-.5.7-.1.3-.2.6-.2,1h-.3c0-.6,0-1,.2-1.4.1-.4.4-.7.6-.9.3-.2.6-.3,1-.3s.7,0,1,.3c.3.2.5.4.6.7.1.3.2.7.2,1.1v2.8h-.8Z" fill="#fff"/>
          <path d="M197.4,209.2c-.4,0-.7-.1-1.1-.3-.3-.2-.6-.5-.8-.9-.2-.4-.3-.8-.3-1.3s.1-1,.3-1.4c.2-.4.5-.7.8-.9.3-.2.7-.3,1.1-.3s.5,0,.7.1c.2,0,.4.2.6.3.2.1.3.3.4.5s.2.4.2.6h-.8c0-.2-.2-.4-.4-.6-.2-.2-.4-.2-.7-.2s-.5,0-.7.2c-.2.1-.4.3-.5.6-.1.3-.2.6-.2,1s0,.7.2,1c.1.3.3.5.5.6.2.2.4.2.7.2s.7,0,.8-.3c.2-.2.3-.4.3-.8h.8c0,.3,0,.6-.2.9-.2.3-.4.5-.7.6-.3.2-.6.2-1,.2Z" fill="#fff"/>
          <path d="M202.5,209.2c-.4,0-.8-.1-1.1-.3s-.6-.5-.8-.9c-.2-.4-.3-.8-.3-1.3s0-1,.3-1.4.4-.7.8-.9c.3-.2.7-.3,1.1-.3s.7,0,.9.2c.3.1.5.3.6.6.2.3.3.5.3.9,0,.3,0,.6,0,1h-3.5v-.5h3l-.2.2c0-.2,0-.4,0-.6,0-.2,0-.4-.2-.5,0-.2-.2-.3-.4-.4-.2-.1-.4-.2-.6-.2s-.6,0-.8.2c-.2.2-.4.4-.5.6-.1.3-.2.5-.2.8v.3c0,.3,0,.6.2.9.1.3.3.5.5.6.2.2.5.2.8.2s.6,0,.8-.2c.2-.2.3-.4.4-.7h.8c0,.3-.2.6-.3.8-.2.2-.4.4-.7.5s-.6.2-.9.2Z" fill="#fff"/>
        </g>
        <g>
          <path d="M246.4,199.9c-.5,0-.9,0-1.2-.2-.3-.1-.5-.3-.7-.5s-.2-.5-.3-.8h.8c0,.3.1.5.4.7.2.2.5.2.9.2s.4,0,.6-.1c.2,0,.3-.2.4-.3.1-.1.2-.2.2-.4s0-.3-.2-.4-.4-.2-.7-.3l-.9-.3c-.4-.1-.7-.3-.9-.5-.2-.2-.3-.5-.3-.8s.2-.7.5-.9c.3-.2.8-.4,1.3-.4s1,.1,1.4.4c.3.2.5.5.5.9h-.8c0-.2-.1-.4-.3-.5s-.4-.2-.8-.2-.6,0-.8.2c-.2.1-.3.3-.3.5,0,.3.3.6.9.7l1,.3c.4.1.7.3.9.5s.3.5.3.8,0,.5-.2.7c-.2.2-.4.4-.7.5-.3.1-.6.2-1,.2Z" fill="#fff"/>
          <path d="M249.3,195.5v-.5h3.1v.5h-3.1ZM251.5,199.9c-.3,0-.5,0-.7-.2s-.4-.3-.5-.5-.2-.5-.2-.8v-4.9h.8v4.9c0,.5.2.7.7.7s.3,0,.4,0c.1,0,.3,0,.4-.1v.6c0,0-.2.1-.4.2-.2,0-.3,0-.5,0Z" fill="#fff"/>
          <path d="M255.1,199.9c-.4,0-.7,0-1-.2-.3-.1-.5-.3-.6-.5-.1-.2-.2-.5-.2-.7s0-.6.2-.8c.2-.2.4-.4.7-.5.3,0,.6-.1,1-.1s.5,0,.8,0c.3,0,.5.1.7.2v.5c-.2,0-.4-.1-.7-.2-.3,0-.5,0-.7,0-.3,0-.6,0-.8.2-.2.1-.3.4-.3.7s0,.4.3.6c.2.2.4.3.8.3s.5,0,.7-.2c.2-.1.4-.3.5-.5.1-.2.2-.4.2-.6h.2c0,.3,0,.6-.2.9-.1.3-.3.5-.6.7-.3.2-.6.3-.9.3ZM256.7,199.8v-1.1c-.1,0-.1-2.1-.1-2.1,0-.4,0-.7-.3-.9s-.5-.3-.8-.3-.4,0-.6,0c-.2,0-.3.2-.4.3,0,.1-.1.3-.1.5h-.9c0-.3,0-.6.3-.8.2-.2.4-.4.7-.5.3,0,.6-.1,1-.1s.7,0,1,.2c.3.1.5.3.7.6.2.3.2.6.2,1.1v3.1h-.7Z" fill="#fff"/>
          <path d="M259.3,199.8v-4.8h.7v1.1c.1,0,.1,3.7.1,3.7h-.8ZM262.7,199.8v-2.8c0-.5-.1-.8-.3-1-.2-.2-.5-.4-.9-.4s-.5,0-.8.2c-.2.2-.4.4-.5.7-.1.3-.2.6-.2,1h-.3c0-.6,0-1,.2-1.4.1-.4.4-.7.6-.9.3-.2.6-.3,1-.3s.7,0,1,.3c.3.2.5.4.6.7.1.3.2.7.2,1.1v2.8h-.8Z" fill="#fff"/>
          <path d="M267.1,199.9c-.4,0-.7-.1-1.1-.3s-.6-.5-.8-.9c-.2-.4-.3-.8-.3-1.3s0-1,.3-1.3c.2-.4.4-.7.8-.9.3-.2.7-.3,1-.3s.7,0,.9.3c.3.2.5.4.6.7.1.3.2.7.2,1.2h-.3c0-.3,0-.6-.2-.8-.1-.2-.3-.4-.5-.5s-.4-.2-.6-.2-.5,0-.7.2c-.2.1-.4.4-.5.6-.1.3-.2.6-.2,1s0,.7.2,1c.1.3.3.5.5.6.2.1.5.2.7.2s.4,0,.6-.2c.2-.1.4-.3.5-.5s.2-.5.2-.8h.3c0,.5,0,.9-.2,1.2-.2.3-.4.6-.6.7-.3.2-.6.3-.9.3ZM268.6,199.8v-1.1c-.1,0-.1-5.7-.1-5.7h.8v6.9h-.7Z" fill="#fff"/>
          <path d="M273.7,199.8v-6.9h.8v5.7l-.2,1.1h-.6ZM275.9,199.9c-.3,0-.6,0-.9-.3-.3-.2-.5-.4-.6-.7-.2-.3-.2-.7-.2-1.2h.3c0,.3,0,.6.2.8.1.2.3.4.5.5.2.1.4.2.6.2s.5,0,.7-.2.4-.4.5-.6.2-.6.2-1,0-.7-.2-1c-.1-.3-.3-.5-.5-.6-.2-.1-.5-.2-.7-.2s-.4,0-.6.2c-.2.1-.4.3-.5.5-.1.2-.2.5-.2.8h-.3c0-.5,0-.8.2-1.2.1-.3.4-.6.6-.7.3-.2.6-.3.9-.3s.7.1,1,.3c.3.2.6.5.8.9s.3.8.3,1.3,0,1-.3,1.3-.5.7-.8.9-.7.3-1.1.3Z" fill="#fff"/>
          <path d="M278.9,195h.9l1.6,4.1h-.2l1.2-4.1h.8l-1.8,5.8c-.2.5-.4.9-.6,1.1-.3.3-.6.4-1,.4s-.4,0-.6,0-.4-.1-.6-.3v-.7c.2.1.3.2.5.3.2,0,.3,0,.5,0s.4,0,.5-.2c.1-.1.2-.3.3-.5s.2-.4.2-.6v-.5c.1,0-1.8-4.8-1.8-4.8Z" fill="#fff"/>
        </g>
        <g>
          <path d="M318.6,199.9c-.4,0-.8,0-1.2-.3s-.6-.5-.8-.8c-.2-.4-.3-.8-.3-1.4s0-1,.3-1.4.5-.7.8-.8c.3-.2.7-.3,1.2-.3s.8,0,1.1.3c.3.2.6.5.8.8.2.4.3.8.3,1.4s0,1-.3,1.4c-.2.4-.5.7-.8.8s-.7.3-1.1.3ZM318.6,199.2c.3,0,.6,0,.8-.2.2-.1.4-.4.5-.6.1-.3.2-.6.2-1,0-.6-.1-1-.4-1.4-.2-.3-.6-.5-1.1-.5s-.6,0-.8.2c-.2.1-.4.4-.5.6-.1.3-.2.6-.2,1,0,.6.1,1,.4,1.3s.6.5,1.1.5Z" fill="#fff"/>
          <path d="M321.7,195.5v-.5h3.1v.5h-3.1ZM323.8,199.9c-.3,0-.5,0-.7-.2s-.4-.3-.5-.5-.2-.5-.2-.8v-4.9h.8v4.9c0,.5.2.7.7.7s.3,0,.4,0c.1,0,.3,0,.4-.1v.6c0,0-.2.1-.4.2-.2,0-.3,0-.5,0Z" fill="#fff"/>
          <path d="M326.1,199.8v-6.9h.8v6.9h-.8ZM329.6,199.8v-2.8c0-.5-.1-.8-.3-1-.2-.2-.5-.4-.9-.4s-.5,0-.8.2c-.2.2-.4.4-.5.7-.1.3-.2.6-.2,1h-.3c0-.6,0-1,.2-1.4.1-.4.4-.7.6-.9.3-.2.6-.3,1-.3s.7,0,1,.3c.3.2.5.4.6.7.1.3.2.7.2,1.1v2.8h-.8Z" fill="#fff"/>
          <path d="M333.9,199.9c-.4,0-.8-.1-1.1-.3s-.6-.5-.8-.9c-.2-.4-.3-.8-.3-1.3s0-1,.3-1.4.4-.7.8-.9c.3-.2.7-.3,1.1-.3s.7,0,.9.2c.3.1.5.3.6.6.2.3.3.5.3.9,0,.3,0,.6,0,1h-3.5v-.5h3l-.2.2c0-.2,0-.4,0-.6,0-.2,0-.4-.2-.5,0-.2-.2-.3-.4-.4-.2-.1-.4-.2-.6-.2s-.6,0-.8.2c-.2.2-.4.4-.5.6-.1.3-.2.5-.2.8v.3c0,.3,0,.6.2.9.1.3.3.5.5.6.2.2.5.2.8.2s.6,0,.8-.2c.2-.2.3-.4.4-.7h.8c0,.3-.2.6-.3.8-.2.2-.4.4-.7.5s-.6.2-.9.2Z" fill="#fff"/>
          <path d="M337.4,199.8v-4.8h.8v4.8h-.8ZM337.9,197.6c0-.6,0-1.1.2-1.5.1-.4.3-.7.5-.9.2-.2.5-.3.8-.3s.2,0,.3,0c0,0,.2,0,.3,0v.8c-.1,0-.2,0-.4,0-.1,0-.2,0-.3,0-.3,0-.5,0-.7.2-.2.2-.3.4-.4.7,0,.3-.1.6-.1,1h-.2Z" fill="#fff"/>
          <path d="M345.1,192.5l.6.4c-.4.4-.7.8-1,1.2-.3.4-.4.8-.6,1.3-.1.4-.2.9-.2,1.3,0,.7.1,1.3.4,2,.3.6.7,1.3,1.3,1.8l-.6.4c-.7-.6-1.1-1.3-1.5-2s-.5-1.5-.5-2.2.2-1.5.5-2.2c.3-.7.8-1.4,1.5-2Z" fill="#fff"/>
          <path d="M347,202.1v-7.2h.7v1.1c.1,0,.1,6,.1,6h-.8ZM349.2,199.9c-.4,0-.7,0-.9-.2-.3-.2-.5-.4-.6-.7-.1-.3-.2-.7-.2-1.1h.3c0,.3,0,.5.2.8.1.2.3.4.5.5.2.1.4.2.6.2s.5,0,.7-.2c.2-.1.4-.3.5-.6s.2-.6.2-1,0-.7-.2-1-.3-.5-.5-.6-.5-.2-.7-.2-.4,0-.6.2c-.2.1-.4.3-.5.5s-.2.5-.2.8h-.3c0-.5,0-.9.2-1.2s.4-.6.6-.7.6-.2.9-.2.7.1,1.1.3.6.5.8.9c.2.4.3.8.3,1.3s-.1,1-.3,1.4c-.2.4-.5.7-.8.9-.3.2-.7.3-1.1.3Z" fill="#fff"/>
          <path d="M354.6,199.9c-.5,0-.9,0-1.2-.2-.3-.1-.5-.3-.7-.5s-.2-.5-.3-.8h.8c0,.3.1.5.4.7.2.2.5.2.9.2s.4,0,.6-.1c.2,0,.3-.2.4-.3.1-.1.2-.2.2-.4s0-.3-.2-.4-.4-.2-.7-.3l-.9-.3c-.4-.1-.7-.3-.9-.5-.2-.2-.3-.5-.3-.8s.2-.7.5-.9c.3-.2.8-.4,1.3-.4s1,.1,1.4.4c.3.2.5.5.5.9h-.8c0-.2-.1-.4-.3-.5s-.4-.2-.8-.2-.6,0-.8.2c-.2.1-.3.3-.3.5,0,.3.3.6.9.7l1,.3c.4.1.7.3.9.5s.3.5.3.8,0,.5-.2.7c-.2.2-.4.4-.7.5-.3.1-.6.2-1,.2Z" fill="#fff"/>
          <path d="M358.6,193.8c-.2,0-.3,0-.4-.1,0,0-.1-.2-.1-.4s0-.3.1-.4c0,0,.2-.1.4-.1s.3,0,.4.1c0,0,.1.2.1.4s0,.3-.1.4c0,0-.2.1-.4.1ZM358.2,199.8v-4.8h.8v4.8h-.8Z" fill="#fff"/>
          <path d="M362.8,199.9c-.4,0-.7-.1-1.1-.3-.3-.2-.6-.5-.8-.9-.2-.4-.3-.8-.3-1.3s.1-1,.3-1.4c.2-.4.5-.7.8-.9.3-.2.7-.3,1.1-.3s.5,0,.7.1c.2,0,.4.2.6.3.2.1.3.3.4.5s.2.4.2.6h-.8c0-.2-.2-.4-.4-.6-.2-.2-.4-.2-.7-.2s-.5,0-.7.2c-.2.1-.4.3-.5.6-.1.3-.2.6-.2,1s0,.7.2,1c.1.3.3.5.5.6.2.2.4.2.7.2s.7,0,.8-.3c.2-.2.3-.4.3-.8h.8c0,.3,0,.6-.2.9-.2.3-.4.5-.7.6-.3.2-.6.2-1,.2Z" fill="#fff"/>
          <path d="M368.1,199.9c-.4,0-.8,0-1.2-.3s-.6-.5-.8-.8c-.2-.4-.3-.8-.3-1.4s0-1,.3-1.4.5-.7.8-.8c.3-.2.7-.3,1.2-.3s.8,0,1.1.3c.3.2.6.5.8.8.2.4.3.8.3,1.4s0,1-.3,1.4c-.2.4-.5.7-.8.8s-.7.3-1.1.3ZM368.1,199.2c.3,0,.6,0,.8-.2.2-.1.4-.4.5-.6.1-.3.2-.6.2-1,0-.6-.1-1-.4-1.4-.2-.3-.6-.5-1.1-.5s-.6,0-.8.2c-.2.1-.4.4-.5.6-.1.3-.2.6-.2,1,0,.6.1,1,.4,1.3s.6.5,1.1.5Z" fill="#fff"/>
          <path d="M371.8,199.8v-6.9h.8v6.9h-.8Z" fill="#fff"/>
          <path d="M376.4,199.9c-.4,0-.8,0-1.2-.3s-.6-.5-.8-.8c-.2-.4-.3-.8-.3-1.4s0-1,.3-1.4.5-.7.8-.8c.3-.2.7-.3,1.2-.3s.8,0,1.1.3c.3.2.6.5.8.8.2.4.3.8.3,1.4s0,1-.3,1.4c-.2.4-.5.7-.8.8s-.7.3-1.1.3ZM376.4,199.2c.3,0,.6,0,.8-.2.2-.1.4-.4.5-.6.1-.3.2-.6.2-1,0-.6-.1-1-.4-1.4-.2-.3-.6-.5-1.1-.5s-.6,0-.8.2c-.2.1-.4.4-.5.6-.1.3-.2.6-.2,1,0,.6.1,1,.4,1.3s.6.5,1.1.5Z" fill="#fff"/>
          <path d="M381.9,202.3c-.5,0-.9,0-1.3-.2-.4-.1-.6-.3-.8-.6-.2-.2-.3-.5-.3-.8s.1-.7.4-.9.6-.3,1.1-.3l.4.3c-.4,0-.6,0-.8.2-.2.2-.3.4-.3.6s.1.5.4.7c.3.2.7.3,1.2.3s.8,0,1.1-.2c.3-.1.5-.3.7-.5.2-.2.3-.4.3-.6s0-.3-.2-.4c-.1-.1-.3-.2-.5-.2h-1.9c-.3,0-.6,0-.8-.1s-.4-.2-.5-.4c-.1-.2-.2-.3-.2-.5s0-.4.2-.5c.1-.1.3-.2.4-.3.2,0,.4-.1.6-.1l.2.3c-.1,0-.2,0-.3,0-.1,0-.2.1-.3.2s-.1.2-.1.3,0,.3.2.4c.1.1.4.2.7.2h1.9c.5,0,.8,0,1.1.3.3.2.4.5.4.8s-.1.6-.3.9-.5.5-1,.7c-.4.2-.9.3-1.5.3ZM382,198.4c-.4,0-.7,0-1-.2-.3-.1-.5-.4-.7-.6-.2-.3-.3-.6-.3-.9s0-.7.3-.9.4-.5.7-.6c.3-.1.6-.2,1-.2s.7,0,1,.2c.3.1.5.4.7.6.2.3.3.6.3.9s0,.7-.3.9c-.2.3-.4.5-.7.6-.3.1-.6.2-1,.2ZM382,197.8c.4,0,.7-.1.9-.3.2-.2.3-.5.3-.9s-.1-.6-.3-.9c-.2-.2-.5-.3-.9-.3s-.7.1-.9.3c-.2.2-.3.5-.3.9s.1.6.3.9c.2.2.5.3.9.3ZM383.6,195.6l-.4-.2c0-.3,0-.5.2-.7.1-.2.3-.4.5-.5.2-.1.4-.2.7-.2v.8c-.4,0-.6,0-.8.2s-.2.3-.2.6Z" fill="#fff"/>
          <path d="M385.2,195h.9l1.6,4.1h-.2l1.2-4.1h.8l-1.8,5.8c-.2.5-.4.9-.6,1.1-.3.3-.6.4-1,.4s-.4,0-.6,0-.4-.1-.6-.3v-.7c.2.1.3.2.5.3.2,0,.3,0,.5,0s.4,0,.5-.2c.1-.1.2-.3.3-.5s.2-.4.2-.6v-.5c.1,0-1.8-4.8-1.8-4.8Z" fill="#fff"/>
          <path d="M392.6,200.5l2.5-8.1h.8l-2.5,8.1h-.8Z" fill="#fff"/>
          <path d="M318.6,209.2c-.5,0-.9,0-1.2-.2-.3-.1-.5-.3-.7-.5s-.2-.5-.3-.8h.8c0,.3.1.5.4.7.2.2.5.2.9.2s.4,0,.6-.1c.2,0,.3-.2.4-.3.1-.1.2-.2.2-.4s0-.3-.2-.4-.4-.2-.7-.3l-.9-.3c-.4-.1-.7-.3-.9-.5-.2-.2-.3-.5-.3-.8s.2-.7.5-.9c.3-.2.8-.4,1.3-.4s1,.1,1.4.4c.3.2.5.5.5.9h-.8c0-.2-.1-.4-.3-.5s-.4-.2-.8-.2-.6,0-.8.2c-.2.1-.3.3-.3.5,0,.3.3.6.9.7l1,.3c.4.1.7.3.9.5s.3.5.3.8,0,.5-.2.7c-.2.2-.4.4-.7.5-.3.1-.6.2-1,.2Z" fill="#fff"/>
          <path d="M323.9,209.2c-.4,0-.8,0-1.2-.3s-.6-.5-.8-.8c-.2-.4-.3-.8-.3-1.4s0-1,.3-1.4.5-.7.8-.8c.3-.2.7-.3,1.2-.3s.8,0,1.1.3c.3.2.6.5.8.8.2.4.3.8.3,1.4s0,1-.3,1.4c-.2.4-.5.7-.8.8s-.7.3-1.1.3ZM323.9,208.6c.3,0,.6,0,.8-.2.2-.1.4-.4.5-.6.1-.3.2-.6.2-1,0-.6-.1-1-.4-1.4-.2-.3-.6-.5-1.1-.5s-.6,0-.8.2c-.2.1-.4.4-.5.6-.1.3-.2.6-.2,1,0,.6.1,1,.4,1.3s.6.5,1.1.5Z" fill="#fff"/>
          <path d="M329.3,209.2c-.4,0-.7-.1-1.1-.3-.3-.2-.6-.5-.8-.9-.2-.4-.3-.8-.3-1.3s.1-1,.3-1.4c.2-.4.5-.7.8-.9.3-.2.7-.3,1.1-.3s.5,0,.7.1c.2,0,.4.2.6.3.2.1.3.3.4.5s.2.4.2.6h-.8c0-.2-.2-.4-.4-.6-.2-.2-.4-.2-.7-.2s-.5,0-.7.2c-.2.1-.4.3-.5.6-.1.3-.2.6-.2,1s0,.7.2,1c.1.3.3.5.5.6.2.2.4.2.7.2s.7,0,.8-.3c.2-.2.3-.4.3-.8h.8c0,.3,0,.6-.2.9-.2.3-.4.5-.7.6-.3.2-.6.2-1,.2Z" fill="#fff"/>
          <path d="M333.3,203.2c-.2,0-.3,0-.4-.1,0,0-.1-.2-.1-.4s0-.3.1-.4c0,0,.2-.1.4-.1s.3,0,.4.1c0,0,.1.2.1.4s0,.3-.1.4c0,0-.2.1-.4.1ZM332.9,209.1v-4.8h.8v4.8h-.8Z" fill="#fff"/>
          <path d="M337.2,209.2c-.4,0-.7,0-1-.2-.3-.1-.5-.3-.6-.5-.1-.2-.2-.5-.2-.7s0-.6.2-.8c.2-.2.4-.4.7-.5.3,0,.6-.1,1-.1s.5,0,.8,0c.3,0,.5.1.7.2v.5c-.2,0-.4-.1-.7-.2-.3,0-.5,0-.7,0-.3,0-.6,0-.8.2-.2.1-.3.4-.3.7s0,.4.3.6c.2.2.4.3.8.3s.5,0,.7-.2c.2-.1.4-.3.5-.5.1-.2.2-.4.2-.6h.2c0,.3,0,.6-.2.9-.1.3-.3.5-.6.7-.3.2-.6.3-.9.3ZM338.8,209.1v-1.1c-.1,0-.1-2.1-.1-2.1,0-.4,0-.7-.3-.9s-.5-.3-.8-.3-.4,0-.6,0c-.2,0-.3.2-.4.3,0,.1-.1.3-.1.5h-.9c0-.3,0-.6.3-.8.2-.2.4-.4.7-.5.3,0,.6-.1,1-.1s.7,0,1,.2c.3.1.5.3.7.6.2.3.2.6.2,1.1v3.1h-.7Z" fill="#fff"/>
          <path d="M341.4,209.1v-6.9h.8v6.9h-.8Z" fill="#fff"/>
          <path d="M345.7,204.3h.8l1.2,4h-.1l1.2-3.8h.7l1.2,3.8h0l1.2-4h.8l-1.6,4.8h-.8l-1.2-3.6h.1l-1.2,3.6h-.8l-1.6-4.8Z" fill="#fff"/>
          <path d="M355.6,209.2c-.4,0-.8,0-1.2-.3s-.6-.5-.8-.8c-.2-.4-.3-.8-.3-1.4s0-1,.3-1.4.5-.7.8-.8c.3-.2.7-.3,1.2-.3s.8,0,1.1.3c.3.2.6.5.8.8.2.4.3.8.3,1.4s0,1-.3,1.4c-.2.4-.5.7-.8.8s-.7.3-1.1.3ZM355.6,208.6c.3,0,.6,0,.8-.2.2-.1.4-.4.5-.6.1-.3.2-.6.2-1,0-.6-.1-1-.4-1.4-.2-.3-.6-.5-1.1-.5s-.6,0-.8.2c-.2.1-.4.4-.5.6-.1.3-.2.6-.2,1,0,.6.1,1,.4,1.3s.6.5,1.1.5Z" fill="#fff"/>
          <path d="M359.4,209.1v-4.8h.8v4.8h-.8ZM359.9,207c0-.6,0-1.1.2-1.5.1-.4.3-.7.5-.9.2-.2.5-.3.8-.3s.2,0,.3,0c0,0,.2,0,.3,0v.8c-.1,0-.2,0-.4,0-.1,0-.2,0-.3,0-.3,0-.5,0-.7.2-.2.2-.3.4-.4.7,0,.3-.1.6-.1,1h-.2Z" fill="#fff"/>
          <path d="M363,209.1v-6.9h.8v6.9h-.8ZM363.7,206.4l2.5-2.1h1.1l-3.6,2.9v-.8ZM366.4,209.1l-2.3-3h.8c0-.1,2.5,3,2.5,3h-1Z" fill="#fff"/>
          <path d="M370.3,209.2c-.4,0-.8-.1-1.1-.3s-.6-.5-.8-.9c-.2-.4-.3-.8-.3-1.3s0-1,.3-1.4.4-.7.8-.9c.3-.2.7-.3,1.1-.3s.7,0,.9.2c.3.1.5.3.6.6.2.3.3.5.3.9,0,.3,0,.6,0,1h-3.5v-.5h3l-.2.2c0-.2,0-.4,0-.6,0-.2,0-.4-.2-.5,0-.2-.2-.3-.4-.4-.2-.1-.4-.2-.6-.2s-.6,0-.8.2c-.2.2-.4.4-.5.6-.1.3-.2.5-.2.8v.3c0,.3,0,.6.2.9.1.3.3.5.5.6.2.2.5.2.8.2s.6,0,.8-.2c.2-.2.3-.4.4-.7h.8c0,.3-.2.6-.3.8-.2.2-.4.4-.7.5s-.6.2-.9.2Z" fill="#fff"/>
          <path d="M373.8,209.1v-4.8h.8v4.8h-.8ZM374.4,207c0-.6,0-1.1.2-1.5.1-.4.3-.7.5-.9.2-.2.5-.3.8-.3s.2,0,.3,0c0,0,.2,0,.3,0v.8c-.1,0-.2,0-.4,0-.1,0-.2,0-.3,0-.3,0-.5,0-.7.2-.2.2-.3.4-.4.7,0,.3-.1.6-.1,1h-.2Z" fill="#fff"/>
          <path d="M377.3,210.3l-.6-.4c.6-.6,1-1.2,1.3-1.8.3-.6.4-1.3.4-2s0-.9-.2-1.3-.3-.9-.6-1.3c-.3-.4-.6-.8-1-1.2l.6-.4c.7.6,1.1,1.3,1.5,2,.3.7.5,1.5.5,2.2s0,1-.2,1.5-.4,1-.7,1.4-.7.9-1.1,1.3Z" fill="#fff"/>
        </g>
      </g>
    </g>
  </g>
</svg>