<?xml version="1.0" encoding="UTF-8"?>
<svg id="b" data-name="Layer 2" xmlns="http://www.w3.org/2000/svg" width="225.9mm" height="93.1mm" viewBox="0 0 640.4 263.8">
  <g id="c" data-name="Layer 5">
    <g>
      <polyline points="22.6 44.5 45.3 28.6 507.9 28.6" fill="none" stroke="#c6c6c6" stroke-miterlimit="10"/>
      <polyline points="22.6 67 45.3 51 507.9 51" fill="none" stroke="#c6c6c6" stroke-miterlimit="10"/>
      <polyline points="22.6 89.4 45.3 73.5 507.9 73.5" fill="none" stroke="#c6c6c6" stroke-miterlimit="10"/>
      <polyline points="22.6 110.1 45.3 94.2 507.9 94.2" fill="none" stroke="#c6c6c6" stroke-miterlimit="10"/>
      <polyline points="22.6 130.8 45.3 114.8 507.9 114.8" fill="none" stroke="#c6c6c6" stroke-miterlimit="10"/>
      <polyline points="22.6 153.2 45.3 137.3 507.9 137.3" fill="none" stroke="#c6c6c6" stroke-miterlimit="10"/>
      <polyline points="22.6 175.7 45.3 159.7 507.9 159.7" fill="none" stroke="#c6c6c6" stroke-miterlimit="10"/>
      <polyline points="22.6 198.1 45.3 182.2 507.9 182.2" fill="none" stroke="#c6c6c6" stroke-miterlimit="10"/>
      <polyline points="22.6 220.6 45.3 204.6 507.9 204.6" fill="none" stroke="#c6c6c6" stroke-miterlimit="10"/>
      <polyline points="22.6 240.8 45.3 224.8 507.9 224.8" fill="none" stroke="#c6c6c6" stroke-miterlimit="10"/>
      <g>
        <rect x="48.1" y="171.5" width="25.6" height="65.8" fill="#3a97d3"/>
        <polygon points="82.7 165.1 82.7 237.3 73.7 237.3 73.7 171.5 80.8 166.4 82.7 165.1" fill="#3379a1"/>
        <polygon points="83 164.8 57.1 164.8 48.1 171.5 74 171.5 83 164.8" fill="#3082b0"/>
      </g>
      <g>
        <rect x="73.7" y="206.8" width="25.6" height="30.5" fill="#e72264"/>
        <polygon points="108.3 200.8 108.3 237.3 99.3 237.3 99.3 206.8 106.7 201.8 108.3 200.8" fill="#9c355d"/>
        <polygon points="108.6 200.5 82.7 200.5 73.7 206.8 99.6 206.8 108.6 200.5" fill="#b53365"/>
      </g>
      <g>
        <rect x="99.3" y="198.1" width="25.6" height="39.2" fill="#2dab61"/>
        <polygon points="133.9 192 133.9 231 125.1 237.3 124.9 237.3 124.9 198.1 124.9 198.1 132.2 193.1 132.2 193.1 133.9 192" fill="#1c8045"/>
        <polygon points="134.2 191.7 108.3 191.7 99.3 198.1 125.2 198.1 134.2 191.7" fill="#2c8c53"/>
      </g>
      <g>
        <rect x="164.8" y="198.4" width="25.6" height="38.9" fill="#3a97d3"/>
        <polygon points="199.3 192 199.3 237.3 190.4 237.3 190.4 198.4 197.7 193.1 199.3 192" fill="#3379a1"/>
        <polygon points="199.7 191.7 173.7 191.7 164.8 198.4 190.7 198.4 199.7 191.7" fill="#3082b0"/>
      </g>
      <g>
        <rect x="190.4" y="175.3" width="25.6" height="61.9" fill="#e72264"/>
        <polygon points="224.9 169.3 224.9 237.3 216 237.3 216 175.3 223.4 170.4 224.9 169.3" fill="#9c355d"/>
        <polygon points="225.3 169.1 199.3 169.1 190.4 175.3 216.3 175.3 225.3 169.1" fill="#b53365"/>
      </g>
      <g>
        <rect x="216" y="197.9" width="25.6" height="39.3" fill="#2dab61"/>
        <polygon points="250.5 191.8 250.5 231 241.8 237.3 241.6 237.3 241.6 197.9 248.8 193 248.9 193 250.5 191.8" fill="#1c8045"/>
        <polygon points="250.9 191.6 224.9 191.6 216 198 241.9 198 250.9 191.6" fill="#2c8c53"/>
      </g>
      <g>
        <rect x="280.1" y="87.7" width="25.6" height="149.5" fill="#3a97d3"/>
        <polygon points="305.7 81 305.7 87.7 280.1 87.7 289.1 81 305.7 81" fill="#3082b0"/>
      </g>
      <g>
        <rect x="305.7" y="70.6" width="25.6" height="166.7" fill="#e72264"/>
        <rect x="305.7" y="70.6" width="25.6" height="0" fill="#e72264"/>
        <polygon points="331.3 198.2 331.3 198.2 331.3 198.2 331.3 198.2" fill="#e72264"/>
        <polygon points="331.3 64.3 331.3 70.6 305.7 70.6 305.7 70.6 314.7 64.3 331.3 64.3" fill="#b53365"/>
      </g>
      <g>
        <polygon points="331.3 198.2 331.3 198.2 331.3 198.2 331.3 198.2" fill="#2dab61"/>
        <rect x="356.9" y="48" width="0" height="158.7" fill="#2dab61"/>
        <polygon points="365.9 41.9 365.9 192.1 364.3 193.1 365.9 192.1 365.9 231 357.1 237.3 356.9 237.3 356.9 48 357.2 48 364.2 43.1 365.9 41.9" fill="#1c8045"/>
        <rect x="356.9" y="48" width="0" height="158.7" fill="#1c8045"/>
        <polygon points="356.9 48 364.2 43.1 357.2 48 356.9 48" fill="#1c8045"/>
        <polygon points="365.9 192.1 365.9 192.1 364.3 193.1 365.9 192.1" fill="#1c8045"/>
        <polygon points="366.2 41.6 364.2 43.1 357.2 48 331.3 48 340.3 41.6 366.2 41.6" fill="#2c8c53"/>
      </g>
      <g>
        <polygon points="356.9 48 356.9 237.3 331.3 237.3 331.3 198.2 331.3 198.2 331.3 198.2 331.3 48 356.9 48" fill="#2dab61"/>
        <polygon points="331.3 198.2 331.3 198.2 331.3 198.2 331.3 198.2" fill="#2dab61"/>
        <rect x="356.9" y="198.2" width="0" height="39.1" fill="#2dab61"/>
        <rect x="356.9" y="198.2" width="0" height="39.1" fill="#1c8045"/>
        <rect x="356.9" y="191.8" width="0" height="6.4" fill="#2c8c53"/>
        <polygon points="366.2 191.8 365.9 192.1 365.9 191.8 366.2 191.8" fill="#2c8c53"/>
      </g>
      <g>
        <rect x="395.8" y="176" width="25.6" height="61.2" fill="#3a97d3"/>
        <polygon points="430.3 169.6 430.3 237.3 421.4 237.3 421.4 176 428.5 170.9 430.3 169.6" fill="#3379a1"/>
        <polygon points="430.7 169.3 404.7 169.3 395.8 176 421.7 176 430.7 169.3" fill="#3082b0"/>
      </g>
      <g>
        <rect x="421.4" y="211.6" width="25.6" height="25.6" fill="#e72264"/>
        <polygon points="455.9 205.6 455.9 237.3 447 237.3 447 211.7 454.1 206.8 455.9 205.6" fill="#9c355d"/>
        <polygon points="456.3 205.4 430.3 205.4 421.4 211.7 447.3 211.7 456.3 205.4" fill="#b53365"/>
      </g>
      <g>
        <rect x="447" y="233.1" width="25.6" height="4.1" fill="#2dab61"/>
        <polygon points="481.5 227 481.5 231 472.8 237.3 472.6 237.3 472.6 233.1 479.8 228.2 480 228 481.5 227" fill="#1c8045"/>
        <polygon points="481.9 226.7 455.9 226.7 447 233.1 472.9 233.1 481.9 226.7" fill="#2c8c53"/>
      </g>
      <g>
        <rect x="40.4" y="155.6" width="25.2" height="8.2" fill="none"/>
        <path d="M58.2,156.1h.6v6.3h-.8v-5.4c-.2.1-.3.2-.5.3s-.4,0-.5,0v-.8c.2,0,.4,0,.6-.2.2,0,.4-.2.6-.3Z" fill="#3a97d3"/>
        <path d="M62.7,162.6c-.4,0-.8,0-1.1-.2-.3-.1-.6-.4-.8-.6-.2-.3-.3-.6-.3-1h.8c0,.4.1.7.4.9.3.2.6.3,1,.3s.8-.1,1.1-.4c.3-.3.4-.6.4-1,0-.8-.5-1.2-1.6-1.2h-1.7l.3-3.1h3.5v.7h-2.9l.2-.3-.2,2.2h-.1c.2-.1.3-.2.5-.2.2,0,.4,0,.5,0,.7,0,1.2.2,1.6.5s.6.8.6,1.4,0,.8-.3,1.1c-.2.3-.4.6-.8.8-.3.2-.7.3-1.2.3Z" fill="#3a97d3"/>
      </g>
      <g>
        <rect x="63.6" y="190.2" width="25.2" height="8.2" fill="none"/>
        <path d="M84.7,197.1l3-5.6h-3.4v-.7h4.3v.7l-2.9,5.6h-1Z" fill="#e72264"/>
      </g>
      <g>
        <rect x="103.8" y="182.2" width="11.5" height="8.2" fill="none"/>
        <path d="M112.3,189.1c-.4,0-.8,0-1.1-.3-.3-.2-.6-.4-.8-.7-.2-.3-.3-.6-.3-1h.8c0,.4.1.7.4.9.2.2.6.3,1,.3s.7-.1,1-.3c.2-.2.4-.6.5-1,.1-.4.2-.9.2-1.5s0-.3,0-.4,0-.2,0-.4c0,.4-.1.7-.3.9-.2.2-.4.4-.6.5-.3.1-.5.2-.9.2s-.7,0-1-.3-.5-.4-.7-.7c-.2-.3-.3-.6-.3-1s0-.7.3-1c.2-.3.4-.5.8-.7s.7-.2,1.1-.2.7,0,1,.2c.3.1.6.4.8.6s.4.6.5,1,.2.8.2,1.3c0,.7,0,1.3-.3,1.8s-.4.9-.8,1.2c-.4.3-.8.4-1.4.4ZM112.2,185.8c.2,0,.5,0,.7-.2.2-.1.4-.3.5-.4.1-.2.2-.4.2-.6,0-.4-.1-.7-.4-.9-.3-.2-.6-.3-.9-.3s-.7.1-1,.3-.4.5-.4.9.1.7.4.9c.3.2.6.3,1,.3Z" fill="#2dab61"/>
      </g>
      <g>
        <rect x="153.9" y="182.2" width="25.2" height="8.2" fill="none"/>
        <path d="M176.1,189.1c-.4,0-.8,0-1.1-.3-.3-.2-.6-.4-.8-.7-.2-.3-.3-.6-.3-1h.8c0,.4.1.7.4.9.2.2.6.3,1,.3s.7-.1,1-.3c.2-.2.4-.6.5-1,.1-.4.2-.9.2-1.5s0-.3,0-.4,0-.2,0-.4c0,.4-.1.7-.3.9-.2.2-.4.4-.6.5-.3.1-.5.2-.9.2s-.7,0-1-.3-.5-.4-.7-.7c-.2-.3-.3-.6-.3-1s0-.7.3-1c.2-.3.4-.5.8-.7s.7-.2,1.1-.2.7,0,1,.2c.3.1.6.4.8.6s.4.6.5,1,.2.8.2,1.3c0,.7,0,1.3-.3,1.8s-.4.9-.8,1.2c-.4.3-.8.4-1.4.4ZM176.1,185.8c.2,0,.5,0,.7-.2.2-.1.4-.3.5-.4.1-.2.2-.4.2-.6,0-.4-.1-.7-.4-.9-.3-.2-.6-.3-.9-.3s-.7.1-1,.3-.4.5-.4.9.1.7.4.9c.3.2.6.3,1,.3Z" fill="#3a97d3"/>
      </g>
      <g>
        <rect x="182.6" y="159.7" width="25.2" height="8.2" fill="none"/>
        <path d="M200.5,160.2h.6v6.3h-.8v-5.4c-.2.1-.3.2-.5.3s-.4,0-.5,0v-.8c.2,0,.4,0,.6-.2.2,0,.4-.2.6-.3Z" fill="#e72264"/>
        <path d="M205.8,160.2h.7v4.2h1.1v.7h-1.1v1.5h-.8v-1.5h-3.3v-.6l3.3-4.3ZM205.8,161.4l-2.4,3h2.4v-3Z" fill="#e72264"/>
      </g>
      <g>
        <rect x="219.2" y="182.2" width="11.5" height="8.2" fill="none"/>
        <path d="M227.7,189.1c-.4,0-.8,0-1.1-.3-.3-.2-.6-.4-.8-.7-.2-.3-.3-.6-.3-1h.8c0,.4.1.7.4.9.2.2.6.3,1,.3s.7-.1,1-.3c.2-.2.4-.6.5-1,.1-.4.2-.9.2-1.5s0-.3,0-.4,0-.2,0-.4c0,.4-.1.7-.3.9-.2.2-.4.4-.6.5-.3.1-.5.2-.9.2s-.7,0-1-.3-.5-.4-.7-.7c-.2-.3-.3-.6-.3-1s0-.7.3-1c.2-.3.4-.5.8-.7s.7-.2,1.1-.2.7,0,1,.2c.3.1.6.4.8.6s.4.6.5,1,.2.8.2,1.3c0,.7,0,1.3-.3,1.8s-.4.9-.8,1.2c-.4.3-.8.4-1.4.4ZM227.6,185.8c.2,0,.5,0,.7-.2.2-.1.4-.3.5-.4.1-.2.2-.4.2-.6,0-.4-.1-.7-.4-.9-.3-.2-.6-.3-.9-.3s-.7.1-1,.3-.4.5-.4.9.1.7.4.9c.3.2.6.3,1,.3Z" fill="#2dab61"/>
      </g>
      <g>
        <rect x="272.8" y="72.1" width="25.2" height="8.2" fill="none"/>
        <path d="M289.4,79.1c-.3,0-.6,0-.9-.1s-.6-.2-.8-.4c-.2-.2-.4-.4-.6-.6s-.2-.6-.2-.9h.8c0,.3,0,.5.2.7s.3.3.6.4c.2.1.5.2.8.2.5,0,.8-.1,1.1-.3.3-.2.4-.5.4-.9s0-.4-.2-.6c-.1-.2-.3-.3-.5-.4s-.5-.1-.9-.1h-.7v-.6h.5c.5,0,.9,0,1.2-.3.3-.2.4-.5.4-.8s-.1-.6-.3-.8-.6-.3-1-.3-.6,0-.9.2c-.3.1-.4.4-.5.7h-.8c0-.4.2-.7.4-1s.5-.4.8-.5.7-.2,1-.2.8,0,1.1.2c.3.1.6.4.8.6.2.3.3.6.3.9s0,.6-.3.9c-.2.2-.5.4-.8.5.4.1.7.3,1,.6.3.3.4.6.4,1s0,.7-.3,1c-.2.3-.5.5-.8.7-.3.2-.8.2-1.2.2Z" fill="#3a97d3"/>
        <path d="M295.9,72.6h.7v4.2h1.1v.7h-1.1v1.5h-.8v-1.5h-3.3v-.6l3.3-4.3ZM295.9,73.8l-2.4,3h2.4v-3Z" fill="#3a97d3"/>
      </g>
      <g>
        <rect x="299" y="54.9" width="25.2" height="8.2" fill="none"/>
        <path d="M315,61.9c-.3,0-.6,0-.9-.1s-.6-.2-.8-.4c-.2-.2-.4-.4-.6-.6s-.2-.6-.2-.9h.8c0,.3,0,.5.2.7.1.2.3.3.6.4.2.1.5.2.8.2.5,0,.8-.1,1.1-.3.3-.2.4-.5.4-.9s0-.4-.2-.6c-.1-.2-.3-.3-.5-.4-.2,0-.5-.1-.9-.1h-.7v-.6h.5c.5,0,.9,0,1.2-.3.3-.2.4-.5.4-.8s-.1-.6-.3-.8-.6-.3-1-.3-.6,0-.9.2c-.3.1-.4.4-.5.7h-.8c0-.4.2-.7.4-1,.2-.2.5-.4.8-.5.3-.1.7-.2,1-.2s.8,0,1.1.2c.3.1.6.4.8.6.2.3.3.6.3.9s0,.6-.3.9c-.2.2-.5.4-.8.5.4.1.7.3,1,.6.3.3.4.6.4,1s0,.7-.3,1c-.2.3-.5.5-.8.7-.3.2-.8.2-1.2.2Z" fill="#e72264"/>
        <path d="M321.1,61.9c-.5,0-.9,0-1.3-.2s-.7-.4-.9-.6c-.2-.3-.3-.6-.3-.9s0-.6.2-.8.4-.4.7-.5c.3-.1.6-.2,1-.2s.2,0,.3,0c0,0,.2,0,.3,0v.2c-.3,0-.6,0-.9.2-.3.1-.4.3-.6.4-.1.2-.2.4-.2.6s0,.5.2.6c.2.2.4.3.6.4s.6.1.9.1c.5,0,1,0,1.3-.3s.5-.4.5-.7,0-.4-.2-.6c-.2-.1-.4-.3-.7-.4l-1.7-.7c-.2,0-.4-.2-.6-.3-.2-.1-.4-.3-.5-.5-.1-.2-.2-.5-.2-.7s0-.6.3-.9.5-.4.8-.6c.3-.1.8-.2,1.2-.2s.8,0,1.2.2c.3.2.6.4.8.6.2.3.3.6.3.9s0,.5-.2.7-.3.4-.6.5c-.3.1-.6.2-.9.2s-.2,0-.3,0c0,0-.2,0-.3,0v-.3c.3,0,.5,0,.7-.1.2,0,.4-.2.5-.4.1-.2.2-.4.2-.6s0-.4-.2-.6-.3-.3-.5-.4-.5-.1-.8-.1-.5,0-.8.1c-.2,0-.4.2-.5.4s-.2.3-.2.5,0,.4.2.5c.2.1.4.3.6.4l1.7.7c.5.2.8.4,1.1.6.2.2.4.6.4,1s-.1.6-.3.9-.5.5-.9.6c-.4.1-.8.2-1.4.2Z" fill="#e72264"/>
      </g>
      <g>
        <rect x="334.6" y="33.4" width="15" height="8.2" fill="none"/>
        <path d="M341.6,33.8h.7v4.2h1.1v.7h-1.1v1.5h-.8v-1.5h-3.3v-.6l3.3-4.3ZM341.6,35.1l-2.4,3h2.4v-3Z" fill="#2dab61"/>
        <path d="M346.6,40.4c-.3,0-.6,0-.9-.1s-.6-.2-.8-.4c-.2-.2-.4-.4-.6-.6s-.2-.5-.2-.9h.8c0,.3,0,.5.2.7.1.2.3.3.6.4.2.1.5.2.8.2.5,0,.8-.1,1.1-.3.3-.2.4-.5.4-.9s0-.4-.2-.6-.3-.3-.5-.4c-.2,0-.5-.1-.9-.1h-.7v-.6h.5c.5,0,.9,0,1.2-.3.3-.2.4-.5.4-.8s-.1-.6-.3-.8-.6-.3-1-.3-.6,0-.9.2-.4.4-.5.7h-.8c0-.4.2-.7.4-1,.2-.2.5-.4.8-.5.3-.1.7-.2,1-.2s.8,0,1.1.2c.3.1.6.4.8.6s.3.6.3.9,0,.6-.3.9-.5.4-.8.5c.4.1.7.3,1,.6.3.3.4.6.4,1s0,.7-.3,1-.5.5-.8.7c-.3.2-.8.2-1.2.2Z" fill="#2dab61"/>
      </g>
      <g>
        <rect x="388" y="160.2" width="25.2" height="8.2" fill="none"/>
        <path d="M405.9,160.7h.6v6.3h-.8v-5.4c-.2.1-.3.2-.5.3s-.4,0-.5,0v-.8c.2,0,.4,0,.6-.2.2,0,.4-.2.6-.3Z" fill="#3a97d3"/>
        <path d="M411.2,160.7h.7v4.2h1.1v.7h-1.1v1.5h-.8v-1.5h-3.3v-.6l3.3-4.3ZM411.2,161.9l-2.4,3h2.4v-3Z" fill="#3a97d3"/>
      </g>
      <g>
        <rect x="412.2" y="194.5" width="25.2" height="8.2" fill="none"/>
        <path d="M434.6,201.5c-.5,0-.9-.1-1.3-.4-.4-.3-.7-.7-.9-1.1s-.3-1-.3-1.6.1-1.3.3-1.8c.2-.5.5-.9.9-1.2.4-.3.9-.4,1.4-.4s.7,0,1,.2.5.3.7.6.3.6.3.9h-.9c0-.3-.2-.5-.3-.7s-.4-.3-.8-.3c-.6,0-1,.2-1.4.7-.3.5-.5,1.2-.5,2s0,.3,0,.4c0,.2,0,.3,0,.5,0-.4.1-.8.3-1.1.2-.3.4-.4.7-.5.3-.1.5-.2.8-.2s.7,0,1,.3c.3.2.5.4.7.7.2.3.3.6.3,1s0,.7-.3,1-.4.5-.8.7c-.3.2-.7.2-1.1.2ZM434.6,200.8c.4,0,.7-.1,1-.3.3-.2.4-.5.4-.9s-.1-.7-.4-.9-.6-.3-1-.3-.5,0-.7.2c-.2.1-.4.3-.5.4-.1.2-.2.4-.2.6,0,.4.1.7.4.9.3.2.6.3.9.3Z" fill="#e72264"/>
      </g>
      <g>
        <rect x="449.7" y="216.4" width="11.5" height="8.2" fill="none"/>
        <path d="M459.5,217h.6v6.3h-.8v-5.4c-.2.1-.3.2-.5.3s-.4,0-.5,0v-.8c.2,0,.4,0,.6-.2.2,0,.4-.2.6-.3Z" fill="#2dab61"/>
      </g>
    </g>
    <g>
      <path d="M88.5,263.7l2.8-8.2h1.2l2.8,8.2h-1.1l-.7-2.1h-3.3l-.7,2.1h-1.1ZM90.6,260.8h2.7l-1.4-4.1-1.4,4.1Z" fill="#fff"/>
      <path d="M203.8,263.7v-8.2h3.1c.6,0,1.1,0,1.5.3s.7.5.9.8c.2.3.3.7.3,1.1s-.1.9-.4,1.2c-.3.3-.6.6-1.2.7.3,0,.6.2.9.4s.5.4.6.7c.1.3.2.6.2.9s0,.6-.1.8-.2.5-.5.7c-.2.2-.5.4-.9.5-.4.1-.8.2-1.3.2h-3.1ZM204.8,256.3v2.8h2c.5,0,.9-.1,1.2-.4s.5-.6.5-1.1-.1-.8-.4-1c-.3-.2-.7-.4-1.2-.4h-2ZM204.8,262.8h2c.6,0,1.1-.1,1.3-.4.3-.3.4-.6.4-1s-.1-.7-.4-1-.7-.4-1.3-.4h-2v2.8Z" fill="#fff"/>
      <path d="M323.5,263.8c-.7,0-1.3-.2-1.9-.5-.5-.4-.9-.9-1.2-1.5s-.4-1.4-.4-2.3.2-1.7.5-2.3c.3-.6.7-1.1,1.3-1.4s1.1-.5,1.8-.5,1.6.2,2.1.7c.5.4.9,1,1.1,1.7l-1.1.2c-.2-.5-.4-.9-.8-1.2-.4-.3-.8-.5-1.3-.5s-.8.1-1.2.4c-.4.2-.7.6-.9,1.1-.2.5-.3,1.1-.3,1.8s0,1.2.3,1.7.4.9.8,1.2c.4.3.8.4,1.3.4s1.2-.2,1.5-.5.6-.8.6-1.4h1.1c0,.6-.1,1.1-.4,1.5-.3.4-.6.7-1.1,1-.5.2-1,.3-1.7.3Z" fill="#fff"/>
      <path d="M435.5,255.5h2.4c.8,0,1.5.2,2.2.5.6.3,1.1.8,1.4,1.4.3.6.5,1.3.5,2.2s-.2,1.5-.5,2.2c-.3.6-.8,1.1-1.4,1.4-.6.3-1.3.5-2.2.5h-2.4v-8.2ZM436.5,256.4v6.4h1.4c.6,0,1.2-.1,1.6-.4.4-.3.8-.7,1-1.1.2-.5.4-1,.4-1.6s-.1-1.2-.4-1.7c-.2-.5-.6-.9-1-1.1-.4-.3-1-.4-1.6-.4h-1.4Z" fill="#fff"/>
    </g>
    <g>
      <g>
        <g>
          <path d="M543.3,37.3v-7.2h.7v1.1c.1,0,.1,6,.1,6h-.8ZM545.5,35.1c-.4,0-.7,0-.9-.2-.3-.2-.5-.4-.6-.7-.1-.3-.2-.7-.2-1.1h.3c0,.3,0,.5.2.8.1.2.3.4.5.5.2.1.4.2.6.2s.5,0,.7-.2c.2-.1.4-.3.5-.6s.2-.6.2-1,0-.7-.2-1-.3-.5-.5-.6-.5-.2-.7-.2-.4,0-.6.2c-.2.1-.4.3-.5.5s-.2.5-.2.8h-.3c0-.5,0-.9.2-1.2s.4-.6.6-.7.6-.2.9-.2.7.1,1.1.3.6.5.8.9c.2.4.3.8.3,1.3s-.1,1-.3,1.4c-.2.4-.5.7-.8.9-.3.2-.7.3-1.1.3Z" fill="#fff"/>
          <path d="M549.2,34.9v-4.8h.8v4.8h-.8ZM549.8,32.8c0-.6,0-1.1.2-1.5.1-.4.3-.7.5-.9.2-.2.5-.3.8-.3s.2,0,.3,0c0,0,.2,0,.3,0v.8c-.1,0-.2,0-.4,0-.1,0-.2,0-.3,0-.3,0-.5,0-.7.2-.2.2-.3.4-.4.7,0,.3-.1.6-.1,1h-.2Z" fill="#fff"/>
          <path d="M553.3,29c-.2,0-.3,0-.4-.1,0,0-.1-.2-.1-.4s0-.3.1-.4c0,0,.2-.1.4-.1s.3,0,.4.1c0,0,.1.2.1.4s0,.3-.1.4c0,0-.2.1-.4.1ZM552.9,34.9v-4.8h.8v4.8h-.8Z" fill="#fff"/>
          <path d="M555.9,34.9v-4.8h.7v1c.2-.3.5-.6.7-.8.3-.2.6-.3,1-.3s.7,0,1,.3c.3.2.5.4.6.7.1.3.2.7.2,1.1v2.8h-.8v-2.8c0-.5-.1-.8-.3-1-.2-.2-.5-.4-.9-.4s-.5,0-.8.2c-.2.2-.4.4-.5.7-.1.3-.2.6-.2,1v2.3h-.8ZM562.6,34.9v-2.8c0-.5-.1-.8-.3-1-.2-.2-.5-.4-.9-.4s-.8.2-1,.5-.3.8-.3,1.4h-.4c0-.4,0-.8.1-1.1,0-.3.2-.6.4-.8.2-.2.4-.4.6-.5.2-.1.5-.2.8-.2s.7,0,1,.3c.3.2.5.4.6.7.1.3.2.7.2,1.1v2.8h-.8Z" fill="#fff"/>
          <path d="M566.6,35.1c-.4,0-.7,0-1-.2-.3-.1-.5-.3-.6-.5-.1-.2-.2-.5-.2-.7s0-.6.2-.8c.2-.2.4-.4.7-.5.3,0,.6-.1,1-.1s.5,0,.8,0c.3,0,.5.1.7.2v.5c-.2,0-.4-.1-.7-.2-.3,0-.5,0-.7,0-.3,0-.6,0-.8.2-.2.1-.3.4-.3.7s0,.4.3.6c.2.2.4.3.8.3s.5,0,.7-.2c.2-.1.4-.3.5-.5.1-.2.2-.4.2-.6h.2c0,.3,0,.6-.2.9-.1.3-.3.5-.6.7-.3.2-.6.3-.9.3ZM568.3,34.9v-1.1c-.1,0-.1-2.1-.1-2.1,0-.4,0-.7-.3-.9s-.5-.3-.8-.3-.4,0-.6,0c-.2,0-.3.2-.4.3,0,.1-.1.3-.1.5h-.9c0-.3,0-.6.3-.8.2-.2.4-.4.7-.5.3,0,.6-.1,1-.1s.7,0,1,.2c.3.1.5.3.7.6.2.3.2.6.2,1.1v3.1h-.7Z" fill="#fff"/>
          <path d="M570.8,34.9v-4.8h.8v4.8h-.8ZM571.4,32.8c0-.6,0-1.1.2-1.5.1-.4.3-.7.5-.9.2-.2.5-.3.8-.3s.2,0,.3,0c0,0,.2,0,.3,0v.8c-.1,0-.2,0-.4,0-.1,0-.2,0-.3,0-.3,0-.5,0-.7.2-.2.2-.3.4-.4.7,0,.3-.1.6-.1,1h-.2Z" fill="#fff"/>
          <path d="M573.7,30.1h.9l1.6,4.1h-.2l1.2-4.1h.8l-1.8,5.8c-.2.5-.4.9-.6,1.1-.3.3-.6.4-1,.4s-.4,0-.6,0-.4-.1-.6-.3v-.7c.2.1.3.2.5.3.2,0,.3,0,.5,0s.4,0,.5-.2c.1-.1.2-.3.3-.5s.2-.4.2-.6v-.5c.1,0-1.8-4.8-1.8-4.8Z" fill="#fff"/>
          <path d="M581.5,34.9v-4.8h.7v1c.2-.3.5-.6.7-.8.3-.2.6-.3,1-.3s.7,0,1,.3c.3.2.5.4.6.7.1.3.2.7.2,1.1v2.8h-.8v-2.8c0-.5-.1-.8-.3-1-.2-.2-.5-.4-.9-.4s-.5,0-.8.2c-.2.2-.4.4-.5.7-.1.3-.2.6-.2,1v2.3h-.8ZM588.3,34.9v-2.8c0-.5-.1-.8-.3-1-.2-.2-.5-.4-.9-.4s-.8.2-1,.5-.3.8-.3,1.4h-.4c0-.4,0-.8.1-1.1,0-.3.2-.6.4-.8.2-.2.4-.4.6-.5.2-.1.5-.2.8-.2s.7,0,1,.3c.3.2.5.4.6.7.1.3.2.7.2,1.1v2.8h-.8Z" fill="#fff"/>
          <path d="M592.6,35.1c-.4,0-.8-.1-1.1-.3s-.6-.5-.8-.9c-.2-.4-.3-.8-.3-1.3s0-1,.3-1.4.4-.7.8-.9c.3-.2.7-.3,1.1-.3s.7,0,.9.2c.3.1.5.3.6.6.2.3.3.5.3.9,0,.3,0,.6,0,1h-3.5v-.5h3l-.2.2c0-.2,0-.4,0-.6,0-.2,0-.4-.2-.5,0-.2-.2-.3-.4-.4-.2-.1-.4-.2-.6-.2s-.6,0-.8.2c-.2.2-.4.4-.5.6-.1.3-.2.5-.2.8v.3c0,.3,0,.6.2.9.1.3.3.5.5.6.2.2.5.2.8.2s.6,0,.8-.2c.2-.2.3-.4.4-.7h.8c0,.3-.2.6-.3.8-.2.2-.4.4-.7.5s-.6.2-.9.2Z" fill="#fff"/>
          <path d="M595.4,30.7v-.5h3.1v.5h-3.1ZM597.6,35.1c-.3,0-.5,0-.7-.2s-.4-.3-.5-.5-.2-.5-.2-.8v-4.9h.8v4.9c0,.5.2.7.7.7s.3,0,.4,0c.1,0,.3,0,.4-.1v.6c0,0-.2.1-.4.2-.2,0-.3,0-.5,0Z" fill="#fff"/>
          <path d="M601.2,35.1c-.4,0-.7,0-1-.2-.3-.1-.5-.3-.6-.5-.1-.2-.2-.5-.2-.7s0-.6.2-.8c.2-.2.4-.4.7-.5.3,0,.6-.1,1-.1s.5,0,.8,0c.3,0,.5.1.7.2v.5c-.2,0-.4-.1-.7-.2-.3,0-.5,0-.7,0-.3,0-.6,0-.8.2-.2.1-.3.4-.3.7s0,.4.3.6c.2.2.4.3.8.3s.5,0,.7-.2c.2-.1.4-.3.5-.5.1-.2.2-.4.2-.6h.2c0,.3,0,.6-.2.9-.1.3-.3.5-.6.7-.3.2-.6.3-.9.3ZM602.9,34.9v-1.1c-.1,0-.1-2.1-.1-2.1,0-.4,0-.7-.3-.9s-.5-.3-.8-.3-.4,0-.6,0c-.2,0-.3.2-.4.3,0,.1-.1.3-.1.5h-.9c0-.3,0-.6.3-.8.2-.2.4-.4.7-.5.3,0,.6-.1,1-.1s.7,0,1,.2c.3.1.5.3.7.6.2.3.2.6.2,1.1v3.1h-.7Z" fill="#fff"/>
          <path d="M607.2,35.1c-.5,0-.9,0-1.2-.2-.3-.1-.5-.3-.7-.5s-.2-.5-.3-.8h.8c0,.3.1.5.4.7.2.2.5.2.9.2s.4,0,.6-.1c.2,0,.3-.2.4-.3.1-.1.2-.2.2-.4s0-.3-.2-.4-.4-.2-.7-.3l-.9-.3c-.4-.1-.7-.3-.9-.5-.2-.2-.3-.5-.3-.8s.2-.7.5-.9c.3-.2.8-.4,1.3-.4s1,.1,1.4.4c.3.2.5.5.5.9h-.8c0-.2-.1-.4-.3-.5s-.4-.2-.8-.2-.6,0-.8.2c-.2.1-.3.3-.3.5,0,.3.3.6.9.7l1,.3c.4.1.7.3.9.5s.3.5.3.8,0,.5-.2.7c-.2.2-.4.4-.7.5-.3.1-.6.2-1,.2Z" fill="#fff"/>
          <path d="M610,30.7v-.5h3.1v.5h-3.1ZM612.2,35.1c-.3,0-.5,0-.7-.2s-.4-.3-.5-.5-.2-.5-.2-.8v-4.9h.8v4.9c0,.5.2.7.7.7s.3,0,.4,0c.1,0,.3,0,.4-.1v.6c0,0-.2.1-.4.2-.2,0-.3,0-.5,0Z" fill="#fff"/>
          <path d="M615.8,35.1c-.4,0-.7,0-1-.2-.3-.1-.5-.3-.6-.5-.1-.2-.2-.5-.2-.7s0-.6.2-.8c.2-.2.4-.4.7-.5.3,0,.6-.1,1-.1s.5,0,.8,0c.3,0,.5.1.7.2v.5c-.2,0-.4-.1-.7-.2-.3,0-.5,0-.7,0-.3,0-.6,0-.8.2-.2.1-.3.4-.3.7s0,.4.3.6c.2.2.4.3.8.3s.5,0,.7-.2c.2-.1.4-.3.5-.5.1-.2.2-.4.2-.6h.2c0,.3,0,.6-.2.9-.1.3-.3.5-.6.7-.3.2-.6.3-.9.3ZM617.5,34.9v-1.1c-.1,0-.1-2.1-.1-2.1,0-.4,0-.7-.3-.9s-.5-.3-.8-.3-.4,0-.6,0c-.2,0-.3.2-.4.3,0,.1-.1.3-.1.5h-.9c0-.3,0-.6.3-.8.2-.2.4-.4.7-.5.3,0,.6-.1,1-.1s.7,0,1,.2c.3.1.5.3.7.6.2.3.2.6.2,1.1v3.1h-.7Z" fill="#fff"/>
          <path d="M621.8,35.1c-.5,0-.9,0-1.2-.2-.3-.1-.5-.3-.7-.5s-.2-.5-.3-.8h.8c0,.3.1.5.4.7.2.2.5.2.9.2s.4,0,.6-.1c.2,0,.3-.2.4-.3.1-.1.2-.2.2-.4s0-.3-.2-.4-.4-.2-.7-.3l-.9-.3c-.4-.1-.7-.3-.9-.5-.2-.2-.3-.5-.3-.8s.2-.7.5-.9c.3-.2.8-.4,1.3-.4s1,.1,1.4.4c.3.2.5.5.5.9h-.8c0-.2-.1-.4-.3-.5s-.4-.2-.8-.2-.6,0-.8.2c-.2.1-.3.3-.3.5,0,.3.3.6.9.7l1,.3c.4.1.7.3.9.5s.3.5.3.8,0,.5-.2.7c-.2.2-.4.4-.7.5-.3.1-.6.2-1,.2Z" fill="#fff"/>
          <path d="M625.8,29c-.2,0-.3,0-.4-.1,0,0-.1-.2-.1-.4s0-.3.1-.4c0,0,.2-.1.4-.1s.3,0,.4.1c0,0,.1.2.1.4s0,.3-.1.4c0,0-.2.1-.4.1ZM625.4,34.9v-4.8h.8v4.8h-.8Z" fill="#fff"/>
          <path d="M630.1,35.1c-.5,0-.9,0-1.2-.2-.3-.1-.5-.3-.7-.5s-.2-.5-.3-.8h.8c0,.3.1.5.4.7.2.2.5.2.9.2s.4,0,.6-.1c.2,0,.3-.2.4-.3.1-.1.2-.2.2-.4s0-.3-.2-.4-.4-.2-.7-.3l-.9-.3c-.4-.1-.7-.3-.9-.5-.2-.2-.3-.5-.3-.8s.2-.7.5-.9c.3-.2.8-.4,1.3-.4s1,.1,1.4.4c.3.2.5.5.5.9h-.8c0-.2-.1-.4-.3-.5s-.4-.2-.8-.2-.6,0-.8.2c-.2.1-.3.3-.3.5,0,.3.3.6.9.7l1,.3c.4.1.7.3.9.5s.3.5.3.8,0,.5-.2.7c-.2.2-.4.4-.7.5-.3.1-.6.2-1,.2Z" fill="#fff"/>
        </g>
        <path d="M529.3,36.8l2.8-8.2h1.2l2.8,8.2h-1.1l-.7-2.1h-3.3l-.7,2.1h-1.1ZM531.4,33.9h2.7l-1.4-4.1-1.4,4.1Z" fill="#fff"/>
      </g>
      <g>
        <g>
          <path d="M545.8,60.4c-.5,0-.9,0-1.2-.2-.3-.1-.5-.3-.7-.5-.2-.2-.2-.5-.3-.8h.8c0,.3.1.5.4.7s.5.2.9.2.4,0,.6-.1c.2,0,.3-.2.4-.3.1-.1.2-.2.2-.4s0-.3-.2-.4-.4-.2-.7-.3l-.9-.3c-.4-.1-.7-.3-.9-.5-.2-.2-.3-.5-.3-.8s.2-.7.5-.9c.3-.2.8-.4,1.3-.4s1,.1,1.4.4c.3.2.5.5.5.9h-.8c0-.2-.1-.4-.3-.5-.2-.1-.4-.2-.8-.2s-.6,0-.8.2c-.2.1-.3.3-.3.5,0,.3.3.6.9.7l1,.3c.4.1.7.3.9.5s.3.5.3.8,0,.5-.2.7c-.2.2-.4.4-.7.5-.3.1-.6.2-1,.2Z" fill="#fff"/>
          <path d="M548.5,55.5h.8l1.2,4h-.1l1.2-3.8h.7l1.2,3.8h0l1.2-4h.8l-1.6,4.8h-.8l-1.2-3.6h.1l-1.2,3.6h-.8l-1.6-4.8Z" fill="#fff"/>
          <path d="M557,54.4c-.2,0-.3,0-.4-.1,0,0-.1-.2-.1-.4s0-.3.1-.4c0,0,.2-.1.4-.1s.3,0,.4.1c0,0,.1.2.1.4s0,.3-.1.4c0,0-.2.1-.4.1ZM556.6,60.3v-4.8h.8v4.8h-.8Z" fill="#fff"/>
          <path d="M558.9,56.1v-.5h3.1v.5h-3.1ZM561.1,60.4c-.3,0-.5,0-.7-.2s-.4-.3-.5-.5-.2-.5-.2-.8v-4.9h.8v4.9c0,.5.2.7.7.7s.3,0,.4,0c.1,0,.3,0,.4-.1v.6c0,0-.2.1-.4.2-.2,0-.3,0-.5,0Z" fill="#fff"/>
          <path d="M565.1,60.4c-.4,0-.7-.1-1.1-.3-.3-.2-.6-.5-.8-.9-.2-.4-.3-.8-.3-1.3s.1-1,.3-1.4c.2-.4.5-.7.8-.9.3-.2.7-.3,1.1-.3s.5,0,.7.1c.2,0,.4.2.6.3s.3.3.4.5c.1.2.2.4.2.6h-.8c0-.2-.2-.4-.4-.6s-.4-.2-.7-.2-.5,0-.7.2c-.2.1-.4.3-.5.6-.1.3-.2.6-.2,1s0,.7.2,1c.1.3.3.5.5.6.2.2.4.2.7.2s.7,0,.8-.3c.2-.2.3-.4.3-.8h.8c0,.3,0,.6-.2.9-.2.3-.4.5-.7.6-.3.2-.6.2-1,.2Z" fill="#fff"/>
          <path d="M568.6,60.3v-6.9h.8v6.9h-.8ZM572,60.3v-2.8c0-.5-.1-.8-.3-1-.2-.2-.5-.4-.9-.4s-.5,0-.8.2c-.2.2-.4.4-.5.7-.1.3-.2.6-.2,1h-.3c0-.6,0-1,.2-1.4s.4-.7.6-.9c.3-.2.6-.3,1-.3s.7,0,1,.3c.3.2.5.4.6.7.1.3.2.7.2,1.1v2.8h-.8Z" fill="#fff"/>
          <path d="M576.5,56.1v-.5h2.6v.5h-2.6ZM577.3,60.3v-5.6c0-.3,0-.6.2-.8.1-.2.3-.4.5-.5.2,0,.4-.1.7-.1s.3,0,.4,0c.1,0,.3,0,.4,0l-.2.6c-.1,0-.2,0-.3,0,0,0-.2,0-.3,0s-.2,0-.3,0c-.1,0-.2.1-.3.2,0,.1-.1.3-.1.5v5.5h-.8Z" fill="#fff"/>
          <path d="M580.5,60.3v-4.8h.8v4.8h-.8ZM581,58.2c0-.6,0-1.1.2-1.5.1-.4.3-.7.5-.9.2-.2.5-.3.8-.3s.2,0,.3,0c0,0,.2,0,.3,0v.8c-.1,0-.2,0-.4,0-.1,0-.2,0-.3,0-.3,0-.5,0-.7.2-.2.2-.3.4-.4.7,0,.3-.1.6-.1,1h-.2Z" fill="#fff"/>
          <path d="M585.9,60.4c-.4,0-.8,0-1.2-.3s-.6-.5-.8-.9c-.2-.4-.3-.8-.3-1.4s0-1,.3-1.4.5-.7.8-.8.7-.3,1.2-.3.8,0,1.1.3.6.5.8.8c.2.4.3.8.3,1.4s0,1-.3,1.4c-.2.4-.5.7-.8.9s-.7.3-1.1.3ZM585.8,59.8c.3,0,.6,0,.8-.2.2-.1.4-.4.5-.6.1-.3.2-.6.2-1,0-.6-.1-1-.4-1.4s-.6-.5-1.1-.5-.6,0-.8.2c-.2.1-.4.4-.5.6s-.2.6-.2,1c0,.6.1,1,.4,1.3.2.3.6.5,1.1.5Z" fill="#fff"/>
          <path d="M589.6,60.3v-4.8h.7v1c.2-.3.5-.6.7-.8.3-.2.6-.3,1-.3s.7,0,1,.3c.3.2.5.4.6.7.1.3.2.7.2,1.1v2.8h-.8v-2.8c0-.5-.1-.8-.3-1-.2-.2-.5-.4-.9-.4s-.5,0-.8.2c-.2.2-.4.4-.5.7-.1.3-.2.6-.2,1v2.3h-.8ZM596.4,60.3v-2.8c0-.5-.1-.8-.3-1-.2-.2-.5-.4-.9-.4s-.8.2-1,.5-.3.8-.3,1.4h-.4c0-.4,0-.8.1-1.1,0-.3.2-.6.4-.8.2-.2.4-.4.6-.5.2-.1.5-.2.8-.2s.7,0,1,.3c.3.2.5.4.6.7.1.3.2.7.2,1.1v2.8h-.8Z" fill="#fff"/>
          <path d="M603.1,60.4c-.4,0-.7-.1-1.1-.3-.3-.2-.6-.5-.8-.9-.2-.4-.3-.8-.3-1.3s.1-1,.3-1.4c.2-.4.5-.7.8-.9.3-.2.7-.3,1.1-.3s.5,0,.7.1c.2,0,.4.2.6.3s.3.3.4.5c.1.2.2.4.2.6h-.8c0-.2-.2-.4-.4-.6s-.4-.2-.7-.2-.5,0-.7.2c-.2.1-.4.3-.5.6-.1.3-.2.6-.2,1s0,.7.2,1c.1.3.3.5.5.6.2.2.4.2.7.2s.7,0,.8-.3c.2-.2.3-.4.3-.8h.8c0,.3,0,.6-.2.9-.2.3-.4.5-.7.6-.3.2-.6.2-1,.2Z" fill="#fff"/>
          <path d="M606.5,55.5h.8v3c0,.4,0,.7.3.9.2.2.5.3.8.3s.6,0,.8-.2c.2-.2.4-.4.5-.7.1-.3.2-.6.2-1h.3c0,.5,0,1-.2,1.4-.2.4-.4.7-.7.9-.3.2-.6.3-1,.3s-.7,0-1-.2c-.3-.1-.5-.3-.6-.6-.2-.3-.2-.6-.2-1v-3.1ZM609.9,55.5h.8v4.8h-.8v-4.8Z" fill="#fff"/>
          <path d="M612.7,60.3v-4.8h.8v4.8h-.8ZM613.2,58.2c0-.6,0-1.1.2-1.5.1-.4.3-.7.5-.9.2-.2.5-.3.8-.3s.2,0,.3,0c0,0,.2,0,.3,0v.8c-.1,0-.2,0-.4,0-.1,0-.2,0-.3,0-.3,0-.5,0-.7.2-.2.2-.3.4-.4.7,0,.3-.1.6-.1,1h-.2Z" fill="#fff"/>
          <path d="M617.7,60.4c-.4,0-.7,0-1-.2-.3-.1-.5-.3-.6-.5-.1-.2-.2-.5-.2-.7s0-.6.2-.8c.2-.2.4-.4.7-.5.3,0,.6-.1,1-.1s.5,0,.8,0c.3,0,.5.1.7.2v.5c-.2,0-.4-.1-.7-.2-.3,0-.5,0-.7,0-.3,0-.6,0-.8.2-.2.1-.3.4-.3.7s0,.4.3.6c.2.2.4.3.8.3s.5,0,.7-.2c.2-.1.4-.3.5-.5.1-.2.2-.4.2-.6h.2c0,.3,0,.6-.2.9-.1.3-.3.5-.6.7-.3.2-.6.3-.9.3ZM619.3,60.3v-1.1c-.1,0-.1-2.1-.1-2.1,0-.4,0-.7-.3-.9s-.5-.3-.8-.3-.4,0-.6,0c-.2,0-.3.2-.4.3,0,.1-.1.3-.1.5h-.9c0-.3,0-.6.3-.8s.4-.4.7-.5c.3,0,.6-.1,1-.1s.7,0,1,.2c.3.1.5.3.7.6.2.3.2.6.2,1.1v3.1h-.7Z" fill="#fff"/>
          <path d="M621.2,56.1v-.5h3.1v.5h-3.1ZM623.4,60.4c-.3,0-.5,0-.7-.2s-.4-.3-.5-.5-.2-.5-.2-.8v-4.9h.8v4.9c0,.5.2.7.7.7s.3,0,.4,0c.1,0,.3,0,.4-.1v.6c0,0-.2.1-.4.2-.2,0-.3,0-.5,0Z" fill="#fff"/>
          <path d="M626.1,54.4c-.2,0-.3,0-.4-.1,0,0-.1-.2-.1-.4s0-.3.1-.4c0,0,.2-.1.4-.1s.3,0,.4.1c0,0,.1.2.1.4s0,.3-.1.4c0,0-.2.1-.4.1ZM625.7,60.3v-4.8h.8v4.8h-.8Z" fill="#fff"/>
          <path d="M627.8,55.5h.9l1.5,4.1h-.1l1.5-4.1h.9l-1.9,4.8h-.9l-1.9-4.8Z" fill="#fff"/>
          <path d="M635.4,60.4c-.4,0-.8-.1-1.1-.3s-.6-.5-.8-.9c-.2-.4-.3-.8-.3-1.3s0-1,.3-1.4.4-.7.8-.9.7-.3,1.1-.3.7,0,.9.2c.3.1.5.3.6.6.2.3.3.5.3.9,0,.3,0,.6,0,1h-3.5v-.5h3l-.2.2c0-.2,0-.4,0-.6,0-.2,0-.4-.2-.5,0-.2-.2-.3-.4-.4-.2-.1-.4-.2-.6-.2s-.6,0-.8.2c-.2.2-.4.4-.5.6-.1.3-.2.5-.2.8v.3c0,.3,0,.6.2.9s.3.5.5.6c.2.2.5.2.8.2s.6,0,.8-.2c.2-.2.3-.4.4-.7h.8c0,.3-.2.6-.3.8-.2.2-.4.4-.7.5s-.6.2-.9.2Z" fill="#fff"/>
          <path d="M543.3,65.4v-.5h3.1v.5h-3.1ZM545.5,69.8c-.3,0-.5,0-.7-.2s-.4-.3-.5-.5-.2-.5-.2-.8v-4.9h.8v4.9c0,.5.2.7.7.7s.3,0,.4,0c.1,0,.3,0,.4-.1v.6c0,0-.2.1-.4.2-.2,0-.3,0-.5,0Z" fill="#fff"/>
          <path d="M549.5,69.8c-.4,0-.8,0-1.2-.3s-.6-.5-.8-.9c-.2-.4-.3-.8-.3-1.4s0-1,.3-1.4.5-.7.8-.8.7-.3,1.2-.3.8,0,1.1.3.6.5.8.8c.2.4.3.8.3,1.4s0,1-.3,1.4c-.2.4-.5.7-.8.9s-.7.3-1.1.3ZM549.5,69.1c.3,0,.6,0,.8-.2.2-.1.4-.4.5-.6.1-.3.2-.6.2-1,0-.6-.1-1-.4-1.4s-.6-.5-1.1-.5-.6,0-.8.2c-.2.1-.4.4-.5.6s-.2.6-.2,1c0,.6.1,1,.4,1.3.2.3.6.5,1.1.5Z" fill="#fff"/>
          <path d="M555.7,72v-7.2h.7v1.1c.1,0,.1,6,.1,6h-.8ZM557.9,69.8c-.4,0-.7,0-.9-.2s-.5-.4-.6-.7c-.1-.3-.2-.7-.2-1.1h.3c0,.3,0,.5.2.8.1.2.3.4.5.5s.4.2.6.2.5,0,.7-.2c.2-.1.4-.3.5-.6s.2-.6.2-1,0-.7-.2-1c-.1-.3-.3-.5-.5-.6-.2-.1-.5-.2-.7-.2s-.4,0-.6.2-.4.3-.5.5-.2.5-.2.8h-.3c0-.5,0-.9.2-1.2.2-.3.4-.6.6-.7.3-.2.6-.2.9-.2s.7.1,1.1.3.6.5.8.9c.2.4.3.8.3,1.3s-.1,1-.3,1.4-.5.7-.8.9c-.3.2-.7.3-1.1.3Z" fill="#fff"/>
          <path d="M562.9,69.8c-.4,0-.7,0-1-.2-.3-.1-.5-.3-.6-.5-.1-.2-.2-.5-.2-.7s0-.6.2-.8c.2-.2.4-.4.7-.5.3,0,.6-.1,1-.1s.5,0,.8,0c.3,0,.5.1.7.2v.5c-.2,0-.4-.1-.7-.2-.3,0-.5,0-.7,0-.3,0-.6,0-.8.2-.2.1-.3.4-.3.7s0,.4.3.6c.2.2.4.3.8.3s.5,0,.7-.2c.2-.1.4-.3.5-.5.1-.2.2-.4.2-.6h.2c0,.3,0,.6-.2.9-.1.3-.3.5-.6.7-.3.2-.6.3-.9.3ZM564.5,69.7v-1.1c-.1,0-.1-2.1-.1-2.1,0-.4,0-.7-.3-.9s-.5-.3-.8-.3-.4,0-.6,0c-.2,0-.3.2-.4.3,0,.1-.1.3-.1.5h-.9c0-.3,0-.6.3-.8s.4-.4.7-.5c.3,0,.6-.1,1-.1s.7,0,1,.2c.3.1.5.3.7.6.2.3.2.6.2,1.1v3.1h-.7Z" fill="#fff"/>
          <path d="M567.1,69.7v-6.9h.8v6.9h-.8Z" fill="#fff"/>
          <path d="M569.9,69.7v-6.9h.8v6.9h-.8Z" fill="#fff"/>
          <path d="M573.2,63.7c-.2,0-.3,0-.4-.1,0,0-.1-.2-.1-.4s0-.3.1-.4c0,0,.2-.1.4-.1s.3,0,.4.1c0,0,.1.2.1.4s0,.3-.1.4c0,0-.2.1-.4.1ZM572.8,69.7v-4.8h.8v4.8h-.8Z" fill="#fff"/>
          <path d="M577.1,69.8c-.4,0-.7,0-1-.2-.3-.1-.5-.3-.6-.5-.1-.2-.2-.5-.2-.7s0-.6.2-.8c.2-.2.4-.4.7-.5.3,0,.6-.1,1-.1s.5,0,.8,0c.3,0,.5.1.7.2v.5c-.2,0-.4-.1-.7-.2-.3,0-.5,0-.7,0-.3,0-.6,0-.8.2-.2.1-.3.4-.3.7s0,.4.3.6c.2.2.4.3.8.3s.5,0,.7-.2c.2-.1.4-.3.5-.5.1-.2.2-.4.2-.6h.2c0,.3,0,.6-.2.9-.1.3-.3.5-.6.7-.3.2-.6.3-.9.3ZM578.7,69.7v-1.1c-.1,0-.1-2.1-.1-2.1,0-.4,0-.7-.3-.9s-.5-.3-.8-.3-.4,0-.6,0c-.2,0-.3.2-.4.3,0,.1-.1.3-.1.5h-.9c0-.3,0-.6.3-.8s.4-.4.7-.5c.3,0,.6-.1,1-.1s.7,0,1,.2c.3.1.5.3.7.6.2.3.2.6.2,1.1v3.1h-.7Z" fill="#fff"/>
          <path d="M580.6,65.4v-.5h3.1v.5h-3.1ZM582.8,69.8c-.3,0-.5,0-.7-.2s-.4-.3-.5-.5-.2-.5-.2-.8v-4.9h.8v4.9c0,.5.2.7.7.7s.3,0,.4,0c.1,0,.3,0,.4-.1v.6c0,0-.2.1-.4.2-.2,0-.3,0-.5,0Z" fill="#fff"/>
          <path d="M585.5,63.7c-.2,0-.3,0-.4-.1,0,0-.1-.2-.1-.4s0-.3.1-.4c0,0,.2-.1.4-.1s.3,0,.4.1c0,0,.1.2.1.4s0,.3-.1.4c0,0-.2.1-.4.1ZM585.1,69.7v-4.8h.8v4.8h-.8Z" fill="#fff"/>
          <path d="M587.2,64.9h.9l1.5,4.1h-.1l1.5-4.1h.9l-1.9,4.8h-.9l-1.9-4.8Z" fill="#fff"/>
          <path d="M594.8,69.8c-.4,0-.8-.1-1.1-.3s-.6-.5-.8-.9c-.2-.4-.3-.8-.3-1.3s0-1,.3-1.4.4-.7.8-.9.7-.3,1.1-.3.7,0,.9.2c.3.1.5.3.6.6.2.3.3.5.3.9,0,.3,0,.6,0,1h-3.5v-.5h3l-.2.2c0-.2,0-.4,0-.6,0-.2,0-.4-.2-.5,0-.2-.2-.3-.4-.4-.2-.1-.4-.2-.6-.2s-.6,0-.8.2c-.2.2-.4.4-.5.6-.1.3-.2.5-.2.8v.3c0,.3,0,.6.2.9s.3.5.5.6c.2.2.5.2.8.2s.6,0,.8-.2c.2-.2.3-.4.4-.7h.8c0,.3-.2.6-.3.8-.2.2-.4.4-.7.5s-.6.2-.9.2Z" fill="#fff"/>
        </g>
        <path d="M529.3,66.8v-8.2h3.1c.6,0,1.1,0,1.5.3s.7.5.9.8c.2.3.3.7.3,1.1s-.1.9-.4,1.2c-.3.3-.6.6-1.2.7.3,0,.6.2.9.4s.5.4.6.7c.1.3.2.6.2.9s0,.6-.1.8-.2.5-.5.7c-.2.2-.5.4-.9.5-.4.1-.8.2-1.3.2h-3.1ZM530.3,59.5v2.8h2c.5,0,.9-.1,1.2-.4s.5-.6.5-1.1-.1-.8-.4-1c-.3-.2-.7-.4-1.2-.4h-2ZM530.3,65.9h2c.6,0,1.1-.1,1.3-.4.3-.3.4-.6.4-1s-.1-.7-.4-1-.7-.4-1.3-.4h-2v2.8Z" fill="#fff"/>
      </g>
      <g>
        <g>
          <path d="M543.3,93.8v-7.2h.7v1.1c.1,0,.1,6,.1,6h-.8ZM545.5,91.6c-.4,0-.7,0-.9-.2-.3-.2-.5-.4-.6-.7-.1-.3-.2-.7-.2-1.1h.3c0,.3,0,.5.2.8s.3.4.5.5c.2.1.4.2.6.2s.5,0,.7-.2c.2-.1.4-.3.5-.6s.2-.6.2-1,0-.7-.2-1c-.1-.3-.3-.5-.5-.6-.2-.1-.5-.2-.7-.2s-.4,0-.6.2c-.2.1-.4.3-.5.5s-.2.5-.2.8h-.3c0-.5,0-.9.2-1.2.2-.3.4-.6.6-.7.3-.2.6-.2.9-.2s.7.1,1.1.3.6.5.8.9.3.8.3,1.3-.1,1-.3,1.4c-.2.4-.5.7-.8.9-.3.2-.7.3-1.1.3Z" fill="#fff"/>
          <path d="M549.2,91.4v-4.8h.8v4.8h-.8ZM549.8,89.3c0-.6,0-1.1.2-1.5.1-.4.3-.7.5-.9.2-.2.5-.3.8-.3s.2,0,.3,0,.2,0,.3,0v.8c-.1,0-.2,0-.4,0s-.2,0-.3,0c-.3,0-.5,0-.7.2-.2.2-.3.4-.4.7,0,.3-.1.6-.1,1h-.2Z" fill="#fff"/>
          <path d="M554.6,91.6c-.4,0-.8,0-1.2-.3s-.6-.5-.8-.9-.3-.8-.3-1.4,0-1,.3-1.4.5-.7.8-.8c.3-.2.7-.3,1.2-.3s.8,0,1.1.3c.3.2.6.5.8.8.2.4.3.8.3,1.4s0,1-.3,1.4c-.2.4-.5.7-.8.9s-.7.3-1.1.3ZM554.6,90.9c.3,0,.6,0,.8-.2.2-.1.4-.4.5-.6s.2-.6.2-1c0-.6-.1-1-.4-1.4-.2-.3-.6-.5-1.1-.5s-.6,0-.8.2c-.2.1-.4.4-.5.6-.1.3-.2.6-.2,1,0,.6.1,1,.4,1.3.2.3.6.5,1.1.5Z" fill="#fff"/>
          <path d="M560.1,93.9c-.5,0-.9,0-1.3-.2s-.6-.3-.8-.6c-.2-.2-.3-.5-.3-.8s.1-.7.4-.9.6-.3,1.1-.3l.4.3c-.4,0-.6,0-.8.2-.2.2-.3.4-.3.6s.1.5.4.7c.3.2.7.3,1.2.3s.8,0,1.1-.2.5-.3.7-.5c.2-.2.3-.4.3-.6s0-.3-.2-.4c-.1-.1-.3-.2-.5-.2h-1.9c-.3,0-.6,0-.8-.1-.2,0-.4-.2-.5-.4-.1-.2-.2-.3-.2-.5s0-.4.2-.5c.1-.1.3-.2.4-.3.2,0,.4-.1.6-.1l.2.3c-.1,0-.2,0-.3,0-.1,0-.2.1-.3.2s-.1.2-.1.3,0,.3.2.4c.1.1.4.2.7.2h1.9c.5,0,.8,0,1.1.3.3.2.4.5.4.8s-.1.6-.3.9-.5.5-1,.7c-.4.2-.9.3-1.5.3ZM560.2,90c-.4,0-.7,0-1-.2-.3-.1-.5-.4-.7-.6-.2-.3-.3-.6-.3-.9s0-.7.3-.9c.2-.3.4-.5.7-.6.3-.1.6-.2,1-.2s.7,0,1,.2c.3.1.5.4.7.6.2.3.3.6.3.9s0,.7-.3.9c-.2.3-.4.5-.7.6-.3.1-.6.2-1,.2ZM560.2,89.5c.4,0,.7-.1.9-.3.2-.2.3-.5.3-.9s-.1-.6-.3-.9c-.2-.2-.5-.3-.9-.3s-.7.1-.9.3c-.2.2-.3.5-.3.9s.1.6.3.9c.2.2.5.3.9.3ZM561.8,87.3l-.4-.2c0-.3,0-.5.2-.7.1-.2.3-.4.5-.5.2-.1.4-.2.7-.2v.8c-.4,0-.6,0-.8.2-.2.1-.2.3-.2.6Z" fill="#fff"/>
          <path d="M564,91.4v-4.8h.8v4.8h-.8ZM564.6,89.3c0-.6,0-1.1.2-1.5.1-.4.3-.7.5-.9.2-.2.5-.3.8-.3s.2,0,.3,0,.2,0,.3,0v.8c-.1,0-.2,0-.4,0s-.2,0-.3,0c-.3,0-.5,0-.7.2-.2.2-.3.4-.4.7,0,.3-.1.6-.1,1h-.2Z" fill="#fff"/>
          <path d="M569.3,91.6c-.4,0-.8-.1-1.1-.3s-.6-.5-.8-.9c-.2-.4-.3-.8-.3-1.3s0-1,.3-1.4.4-.7.8-.9c.3-.2.7-.3,1.1-.3s.7,0,.9.2c.3.1.5.3.6.6s.3.5.3.9c0,.3,0,.6,0,1h-3.5v-.5h3l-.2.2c0-.2,0-.4,0-.6,0-.2,0-.4-.2-.5,0-.2-.2-.3-.4-.4-.2-.1-.4-.2-.6-.2s-.6,0-.8.2-.4.4-.5.6c-.1.3-.2.5-.2.8v.3c0,.3,0,.6.2.9.1.3.3.5.5.6.2.2.5.2.8.2s.6,0,.8-.2.3-.4.4-.7h.8c0,.3-.2.6-.3.8-.2.2-.4.4-.7.5s-.6.2-.9.2Z" fill="#fff"/>
          <path d="M574.6,91.6c-.5,0-.9,0-1.2-.2-.3-.1-.5-.3-.7-.5-.2-.2-.2-.5-.3-.8h.8c0,.3.1.5.4.7.2.2.5.2.9.2s.4,0,.6-.1.3-.2.4-.3c.1-.1.2-.2.2-.4s0-.3-.2-.4-.4-.2-.7-.3l-.9-.3c-.4-.1-.7-.3-.9-.5-.2-.2-.3-.5-.3-.8s.2-.7.5-.9c.3-.2.8-.4,1.3-.4s1,.1,1.4.4c.3.2.5.5.5.9h-.8c0-.2-.1-.4-.3-.5-.2-.1-.4-.2-.8-.2s-.6,0-.8.2c-.2.1-.3.3-.3.5,0,.3.3.6.9.7l1,.3c.4.1.7.3.9.5s.3.5.3.8,0,.5-.2.7c-.2.2-.4.4-.7.5-.3.1-.6.2-1,.2Z" fill="#fff"/>
          <path d="M579.9,91.6c-.5,0-.9,0-1.2-.2-.3-.1-.5-.3-.7-.5-.2-.2-.2-.5-.3-.8h.8c0,.3.1.5.4.7.2.2.5.2.9.2s.4,0,.6-.1.3-.2.4-.3c.1-.1.2-.2.2-.4s0-.3-.2-.4-.4-.2-.7-.3l-.9-.3c-.4-.1-.7-.3-.9-.5-.2-.2-.3-.5-.3-.8s.2-.7.5-.9c.3-.2.8-.4,1.3-.4s1,.1,1.4.4c.3.2.5.5.5.9h-.8c0-.2-.1-.4-.3-.5-.2-.1-.4-.2-.8-.2s-.6,0-.8.2c-.2.1-.3.3-.3.5,0,.3.3.6.9.7l1,.3c.4.1.7.3.9.5s.3.5.3.8,0,.5-.2.7c-.2.2-.4.4-.7.5-.3.1-.6.2-1,.2Z" fill="#fff"/>
          <path d="M583.9,85.5c-.2,0-.3,0-.4-.1,0,0-.1-.2-.1-.4s0-.3.1-.4c0,0,.2-.1.4-.1s.3,0,.4.1c0,0,.1.2.1.4s0,.3-.1.4c0,0-.2.1-.4.1ZM583.5,91.4v-4.8h.8v4.8h-.8Z" fill="#fff"/>
          <path d="M588.2,91.6c-.4,0-.8,0-1.2-.3s-.6-.5-.8-.9-.3-.8-.3-1.4,0-1,.3-1.4.5-.7.8-.8c.3-.2.7-.3,1.2-.3s.8,0,1.1.3c.3.2.6.5.8.8.2.4.3.8.3,1.4s0,1-.3,1.4c-.2.4-.5.7-.8.9s-.7.3-1.1.3ZM588.1,90.9c.3,0,.6,0,.8-.2.2-.1.4-.4.5-.6s.2-.6.2-1c0-.6-.1-1-.4-1.4-.2-.3-.6-.5-1.1-.5s-.6,0-.8.2c-.2.1-.4.4-.5.6-.1.3-.2.6-.2,1,0,.6.1,1,.4,1.3.2.3.6.5,1.1.5Z" fill="#fff"/>
          <path d="M591.9,91.4v-4.8h.7v1.1c.1,0,.1,3.7.1,3.7h-.8ZM595.3,91.4v-2.8c0-.5-.1-.8-.3-1s-.5-.4-.9-.4-.5,0-.8.2c-.2.2-.4.4-.5.7-.1.3-.2.6-.2,1h-.3c0-.6,0-1,.2-1.4.1-.4.4-.7.6-.9s.6-.3,1-.3.7,0,1,.3c.3.2.5.4.6.7.1.3.2.7.2,1.1v2.8h-.8Z" fill="#fff"/>
          <path d="M602.1,91.6c-.4,0-.8,0-1.2-.3s-.6-.5-.8-.9-.3-.8-.3-1.4,0-1,.3-1.4.5-.7.8-.8c.3-.2.7-.3,1.2-.3s.8,0,1.1.3c.3.2.6.5.8.8.2.4.3.8.3,1.4s0,1-.3,1.4c-.2.4-.5.7-.8.9s-.7.3-1.1.3ZM602.1,90.9c.3,0,.6,0,.8-.2.2-.1.4-.4.5-.6s.2-.6.2-1c0-.6-.1-1-.4-1.4-.2-.3-.6-.5-1.1-.5s-.6,0-.8.2c-.2.1-.4.4-.5.6-.1.3-.2.6-.2,1,0,.6.1,1,.4,1.3.2.3.6.5,1.1.5Z" fill="#fff"/>
          <path d="M605.4,87.2v-.5h2.6v.5h-2.6ZM606.1,91.4v-5.6c0-.3,0-.6.2-.8.1-.2.3-.4.5-.5.2,0,.4-.1.7-.1s.3,0,.4,0,.3,0,.4,0l-.2.6c-.1,0-.2,0-.3,0,0,0-.2,0-.3,0s-.2,0-.3,0c-.1,0-.2.1-.3.2s-.1.3-.1.5v5.5h-.8Z" fill="#fff"/>
          <path d="M611.7,91.4v-6.9h.8v6.9h-.8ZM612.4,88.7l2.5-2.1h1.1l-3.6,2.9v-.8ZM615.1,91.4l-2.3-3h.8c0-.1,2.5,3,2.5,3h-1Z" fill="#fff"/>
          <path d="M617.4,91.4v-4.8h.7v1.1c.1,0,.1,3.7.1,3.7h-.8ZM620.8,91.4v-2.8c0-.5-.1-.8-.3-1s-.5-.4-.9-.4-.5,0-.8.2c-.2.2-.4.4-.5.7-.1.3-.2.6-.2,1h-.3c0-.6,0-1,.2-1.4.1-.4.4-.7.6-.9s.6-.3,1-.3.7,0,1,.3c.3.2.5.4.6.7.1.3.2.7.2,1.1v2.8h-.8Z" fill="#fff"/>
          <path d="M625.2,91.6c-.4,0-.8,0-1.2-.3s-.6-.5-.8-.9-.3-.8-.3-1.4,0-1,.3-1.4.5-.7.8-.8c.3-.2.7-.3,1.2-.3s.8,0,1.1.3c.3.2.6.5.8.8.2.4.3.8.3,1.4s0,1-.3,1.4c-.2.4-.5.7-.8.9s-.7.3-1.1.3ZM625.2,90.9c.3,0,.6,0,.8-.2.2-.1.4-.4.5-.6s.2-.6.2-1c0-.6-.1-1-.4-1.4-.2-.3-.6-.5-1.1-.5s-.6,0-.8.2c-.2.1-.4.4-.5.6-.1.3-.2.6-.2,1,0,.6.1,1,.4,1.3.2.3.6.5,1.1.5Z" fill="#fff"/>
          <path d="M628.1,86.6h.8l1.2,4h-.1l1.2-3.8h.7l1.2,3.8h0l1.2-4h.8l-1.6,4.8h-.8l-1.2-3.6h.1l-1.2,3.6h-.8l-1.6-4.8Z" fill="#fff"/>
          <path d="M636.2,91.4v-4.8h.7v1.1c.1,0,.1,3.7.1,3.7h-.8ZM639.7,91.4v-2.8c0-.5-.1-.8-.3-1s-.5-.4-.9-.4-.5,0-.8.2c-.2.2-.4.4-.5.7-.1.3-.2.6-.2,1h-.3c0-.6,0-1,.2-1.4.1-.4.4-.7.6-.9s.6-.3,1-.3.7,0,1,.3c.3.2.5.4.6.7.1.3.2.7.2,1.1v2.8h-.8Z" fill="#fff"/>
          <path d="M543.3,100.8v-4.8h.7v1c.2-.3.5-.6.7-.8s.6-.3,1-.3.7,0,1,.3c.3.2.5.4.6.7.1.3.2.7.2,1.1v2.8h-.8v-2.8c0-.5-.1-.8-.3-1s-.5-.4-.9-.4-.5,0-.8.2c-.2.2-.4.4-.5.7-.1.3-.2.6-.2,1v2.3h-.8ZM550.1,100.8v-2.8c0-.5-.1-.8-.3-1s-.5-.4-.9-.4-.8.2-1,.5-.3.8-.3,1.4h-.4c0-.4,0-.8.1-1.1,0-.3.2-.6.4-.8.2-.2.4-.4.6-.5.2-.1.5-.2.8-.2s.7,0,1,.3c.3.2.5.4.6.7.1.3.2.7.2,1.1v2.8h-.8Z" fill="#fff"/>
          <path d="M554.4,100.9c-.4,0-.8-.1-1.1-.3s-.6-.5-.8-.9c-.2-.4-.3-.8-.3-1.3s0-1,.3-1.4.4-.7.8-.9c.3-.2.7-.3,1.1-.3s.7,0,.9.2c.3.1.5.3.6.6s.3.5.3.9c0,.3,0,.6,0,1h-3.5v-.5h3l-.2.2c0-.2,0-.4,0-.6,0-.2,0-.4-.2-.5,0-.2-.2-.3-.4-.4-.2-.1-.4-.2-.6-.2s-.6,0-.8.2-.4.4-.5.6c-.1.3-.2.5-.2.8v.3c0,.3,0,.6.2.9.1.3.3.5.5.6.2.2.5.2.8.2s.6,0,.8-.2.3-.4.4-.7h.8c0,.3-.2.6-.3.8-.2.2-.4.4-.7.5s-.6.2-.9.2Z" fill="#fff"/>
          <path d="M557.3,96.5v-.5h3.1v.5h-3.1ZM559.4,100.9c-.3,0-.5,0-.7-.2s-.4-.3-.5-.5-.2-.5-.2-.8v-4.9h.8v4.9c0,.5.2.7.7.7s.3,0,.4,0c.1,0,.3,0,.4-.1v.6c0,0-.2.1-.4.2-.2,0-.3,0-.5,0Z" fill="#fff"/>
          <path d="M563,100.9c-.4,0-.7,0-1-.2-.3-.1-.5-.3-.6-.5-.1-.2-.2-.5-.2-.7s0-.6.2-.8.4-.4.7-.5c.3,0,.6-.1,1-.1s.5,0,.8,0c.3,0,.5.1.7.2v.5c-.2,0-.4-.1-.7-.2-.3,0-.5,0-.7,0-.3,0-.6,0-.8.2-.2.1-.3.4-.3.7s0,.4.3.6c.2.2.4.3.8.3s.5,0,.7-.2c.2-.1.4-.3.5-.5.1-.2.2-.4.2-.6h.2c0,.3,0,.6-.2.9-.1.3-.3.5-.6.7-.3.2-.6.3-.9.3ZM564.7,100.8v-1.1c-.1,0-.1-2.1-.1-2.1,0-.4,0-.7-.3-.9s-.5-.3-.8-.3-.4,0-.6,0c-.2,0-.3.2-.4.3,0,.1-.1.3-.1.5h-.9c0-.3,0-.6.3-.8.2-.2.4-.4.7-.5.3,0,.6-.1,1-.1s.7,0,1,.2c.3.1.5.3.7.6s.2.6.2,1.1v3.1h-.7Z" fill="#fff"/>
          <path d="M569,100.9c-.5,0-.9,0-1.2-.2-.3-.1-.5-.3-.7-.5-.2-.2-.2-.5-.3-.8h.8c0,.3.1.5.4.7.2.2.5.2.9.2s.4,0,.6-.1.3-.2.4-.3c.1-.1.2-.2.2-.4s0-.3-.2-.4-.4-.2-.7-.3l-.9-.3c-.4-.1-.7-.3-.9-.5-.2-.2-.3-.5-.3-.8s.2-.7.5-.9c.3-.2.8-.4,1.3-.4s1,.1,1.4.4c.3.2.5.5.5.9h-.8c0-.2-.1-.4-.3-.5-.2-.1-.4-.2-.8-.2s-.6,0-.8.2c-.2.1-.3.3-.3.5,0,.3.3.6.9.7l1,.3c.4.1.7.3.9.5s.3.5.3.8,0,.5-.2.7c-.2.2-.4.4-.7.5-.3.1-.6.2-1,.2Z" fill="#fff"/>
          <path d="M571.9,96.5v-.5h3.1v.5h-3.1ZM574,100.9c-.3,0-.5,0-.7-.2s-.4-.3-.5-.5-.2-.5-.2-.8v-4.9h.8v4.9c0,.5.2.7.7.7s.3,0,.4,0c.1,0,.3,0,.4-.1v.6c0,0-.2.1-.4.2-.2,0-.3,0-.5,0Z" fill="#fff"/>
          <path d="M577.7,100.9c-.4,0-.7,0-1-.2-.3-.1-.5-.3-.6-.5-.1-.2-.2-.5-.2-.7s0-.6.2-.8.4-.4.7-.5c.3,0,.6-.1,1-.1s.5,0,.8,0c.3,0,.5.1.7.2v.5c-.2,0-.4-.1-.7-.2-.3,0-.5,0-.7,0-.3,0-.6,0-.8.2-.2.1-.3.4-.3.7s0,.4.3.6c.2.2.4.3.8.3s.5,0,.7-.2c.2-.1.4-.3.5-.5.1-.2.2-.4.2-.6h.2c0,.3,0,.6-.2.9-.1.3-.3.5-.6.7-.3.2-.6.3-.9.3ZM579.3,100.8v-1.1c-.1,0-.1-2.1-.1-2.1,0-.4,0-.7-.3-.9s-.5-.3-.8-.3-.4,0-.6,0c-.2,0-.3.2-.4.3,0,.1-.1.3-.1.5h-.9c0-.3,0-.6.3-.8.2-.2.4-.4.7-.5.3,0,.6-.1,1-.1s.7,0,1,.2c.3.1.5.3.7.6s.2.6.2,1.1v3.1h-.7Z" fill="#fff"/>
          <path d="M583.6,100.9c-.5,0-.9,0-1.2-.2-.3-.1-.5-.3-.7-.5-.2-.2-.2-.5-.3-.8h.8c0,.3.1.5.4.7.2.2.5.2.9.2s.4,0,.6-.1.3-.2.4-.3c.1-.1.2-.2.2-.4s0-.3-.2-.4-.4-.2-.7-.3l-.9-.3c-.4-.1-.7-.3-.9-.5-.2-.2-.3-.5-.3-.8s.2-.7.5-.9c.3-.2.8-.4,1.3-.4s1,.1,1.4.4c.3.2.5.5.5.9h-.8c0-.2-.1-.4-.3-.5-.2-.1-.4-.2-.8-.2s-.6,0-.8.2c-.2.1-.3.3-.3.5,0,.3.3.6.9.7l1,.3c.4.1.7.3.9.5s.3.5.3.8,0,.5-.2.7c-.2.2-.4.4-.7.5-.3.1-.6.2-1,.2Z" fill="#fff"/>
          <path d="M587.6,94.8c-.2,0-.3,0-.4-.1,0,0-.1-.2-.1-.4s0-.3.1-.4c0,0,.2-.1.4-.1s.3,0,.4.1c0,0,.1.2.1.4s0,.3-.1.4c0,0-.2.1-.4.1ZM587.2,100.8v-4.8h.8v4.8h-.8Z" fill="#fff"/>
          <path d="M591.9,100.9c-.5,0-.9,0-1.2-.2-.3-.1-.5-.3-.7-.5-.2-.2-.2-.5-.3-.8h.8c0,.3.1.5.4.7.2.2.5.2.9.2s.4,0,.6-.1.3-.2.4-.3c.1-.1.2-.2.2-.4s0-.3-.2-.4-.4-.2-.7-.3l-.9-.3c-.4-.1-.7-.3-.9-.5-.2-.2-.3-.5-.3-.8s.2-.7.5-.9c.3-.2.8-.4,1.3-.4s1,.1,1.4.4c.3.2.5.5.5.9h-.8c0-.2-.1-.4-.3-.5-.2-.1-.4-.2-.8-.2s-.6,0-.8.2c-.2.1-.3.3-.3.5,0,.3.3.6.9.7l1,.3c.4.1.7.3.9.5s.3.5.3.8,0,.5-.2.7c-.2.2-.4.4-.7.5-.3.1-.6.2-1,.2Z" fill="#fff"/>
        </g>
        <path d="M532.8,97c-.7,0-1.3-.2-1.9-.5-.5-.4-.9-.9-1.2-1.5s-.4-1.4-.4-2.3.2-1.7.5-2.3c.3-.6.7-1.1,1.3-1.4.5-.3,1.1-.5,1.8-.5s1.6.2,2.1.7c.5.4.9,1,1.1,1.7l-1.1.2c-.2-.5-.4-.9-.8-1.2-.4-.3-.8-.5-1.3-.5s-.8.1-1.2.4-.7.6-.9,1.1c-.2.5-.3,1.1-.3,1.8s0,1.2.3,1.7c.2.5.4.9.8,1.2s.8.4,1.3.4,1.2-.2,1.5-.5.6-.8.6-1.4h1.1c0,.6-.1,1.1-.4,1.5-.3.4-.6.7-1.1,1-.5.2-1,.3-1.7.3Z" fill="#fff"/>
      </g>
      <g>
        <g>
          <path d="M544,121.9c-.1,0-.3,0-.4-.1s-.2-.2-.2-.3c0-.1,0-.3,0-.4,0-.2,0-.5.2-.7.2-.2.4-.4.7-.6l.6.3c-.2,0-.4.2-.5.3-.1.1-.2.3-.3.4.2,0,.3,0,.4.1,0,0,.1.2.1.3s0,.3-.2.4c-.1.1-.2.2-.4.2ZM545.7,121.9c-.1,0-.3,0-.4-.1-.1,0-.2-.2-.2-.3,0-.1,0-.3,0-.4,0-.2,0-.5.2-.7.2-.2.4-.4.7-.6l.6.3c-.2,0-.4.2-.5.3s-.2.3-.3.4c.2,0,.3,0,.4.1,0,0,.1.2.1.3s0,.3-.2.4c-.1.1-.2.2-.4.2Z" fill="#fff"/>
          <path d="M548,126.1v-4.8h.7v1.1c.1,0,.1,3.7.1,3.7h-.8ZM551.5,126.1v-2.8c0-.5-.1-.8-.3-1-.2-.2-.5-.4-.9-.4s-.5,0-.8.2c-.2.2-.4.4-.5.7-.1.3-.2.6-.2,1h-.3c0-.6,0-1,.2-1.4.1-.4.4-.7.6-.9.3-.2.6-.3,1-.3s.7,0,1,.3c.3.2.5.4.6.7.1.3.2.7.2,1.1v2.8h-.8Z" fill="#fff"/>
          <path d="M555.8,126.2c-.4,0-.8-.1-1.1-.3s-.6-.5-.8-.9c-.2-.4-.3-.8-.3-1.3s0-1,.3-1.4.4-.7.8-.9c.3-.2.7-.3,1.1-.3s.7,0,.9.2c.3.1.5.3.6.6.2.3.3.5.3.9,0,.3,0,.6,0,1h-3.5v-.5h3l-.2.2c0-.2,0-.4,0-.6,0-.2,0-.4-.2-.5,0-.2-.2-.3-.4-.4-.2-.1-.4-.2-.6-.2s-.6,0-.8.2c-.2.2-.4.4-.5.6-.1.3-.2.5-.2.8v.3c0,.3,0,.6.2.9.1.3.3.5.5.6.2.2.5.2.8.2s.6,0,.8-.2c.2-.2.3-.4.4-.7h.8c0,.3-.2.6-.3.8-.2.2-.4.4-.7.5s-.6.2-.9.2Z" fill="#fff"/>
          <path d="M560.9,126.2c-.4,0-.8-.1-1.1-.3s-.6-.5-.8-.9c-.2-.4-.3-.8-.3-1.3s0-1,.3-1.4.4-.7.8-.9c.3-.2.7-.3,1.1-.3s.7,0,.9.2c.3.1.5.3.6.6.2.3.3.5.3.9,0,.3,0,.6,0,1h-3.5v-.5h3l-.2.2c0-.2,0-.4,0-.6,0-.2,0-.4-.2-.5,0-.2-.2-.3-.4-.4-.2-.1-.4-.2-.6-.2s-.6,0-.8.2c-.2.2-.4.4-.5.6-.1.3-.2.5-.2.8v.3c0,.3,0,.6.2.9.1.3.3.5.5.6.2.2.5.2.8.2s.6,0,.8-.2c.2-.2.3-.4.4-.7h.8c0,.3-.2.6-.3.8-.2.2-.4.4-.7.5s-.6.2-.9.2Z" fill="#fff"/>
          <path d="M566.2,126.2c-.4,0-.7-.1-1.1-.3s-.6-.5-.8-.9c-.2-.4-.3-.8-.3-1.3s0-1,.3-1.3c.2-.4.4-.7.8-.9.3-.2.7-.3,1-.3s.7,0,.9.3c.3.2.5.4.6.7.1.3.2.7.2,1.2h-.3c0-.3,0-.6-.2-.8-.1-.2-.3-.4-.5-.5s-.4-.2-.6-.2-.5,0-.7.2c-.2.1-.4.4-.5.6-.1.3-.2.6-.2,1s0,.7.2,1c.1.3.3.5.5.6.2.1.5.2.7.2s.4,0,.6-.2c.2-.1.4-.3.5-.5s.2-.5.2-.8h.3c0,.5,0,.9-.2,1.2-.2.3-.4.6-.6.7-.3.2-.6.3-.9.3ZM567.7,126.1v-1.1c-.1,0-.1-5.7-.1-5.7h.8v6.9h-.7Z" fill="#fff"/>
          <path d="M570.3,121.9l-.6-.3c.2,0,.4-.2.5-.3.1-.1.2-.3.3-.4-.2,0-.3,0-.4-.2-.1,0-.2-.2-.2-.3s0-.3.2-.4c.1-.1.2-.2.4-.2s.3,0,.4.1.2.2.2.3,0,.3,0,.4c0,.2,0,.5-.2.7s-.4.4-.7.6ZM572,121.9l-.6-.3c.2,0,.4-.2.5-.3.1-.1.2-.3.3-.4-.2,0-.3,0-.4-.2-.1,0-.2-.2-.2-.3s0-.3.2-.4.2-.2.4-.2.3,0,.4.1.2.2.2.3,0,.3,0,.4c0,.2,0,.5-.2.7-.2.2-.4.4-.7.6Z" fill="#fff"/>
          <path d="M578.5,126.2c-.4,0-.7-.1-1.1-.3-.3-.2-.6-.5-.8-.9-.2-.4-.3-.8-.3-1.3s.1-1,.3-1.4c.2-.4.5-.7.8-.9.3-.2.7-.3,1.1-.3s.5,0,.7.1c.2,0,.4.2.6.3.2.1.3.3.4.5s.2.4.2.6h-.8c0-.2-.2-.4-.4-.6-.2-.2-.4-.2-.7-.2s-.5,0-.7.2c-.2.1-.4.3-.5.6-.1.3-.2.6-.2,1s0,.7.2,1c.1.3.3.5.5.6.2.2.4.2.7.2s.7,0,.8-.3c.2-.2.3-.4.3-.8h.8c0,.3,0,.6-.2.9-.2.3-.4.5-.7.6-.3.2-.6.2-1,.2Z" fill="#fff"/>
          <path d="M582,126.1v-4.8h.8v4.8h-.8ZM582.5,123.9c0-.6,0-1.1.2-1.5.1-.4.3-.7.5-.9.2-.2.5-.3.8-.3s.2,0,.3,0c0,0,.2,0,.3,0v.8c-.1,0-.2,0-.4,0-.1,0-.2,0-.3,0-.3,0-.5,0-.7.2-.2.2-.3.4-.4.7,0,.3-.1.6-.1,1h-.2Z" fill="#fff"/>
          <path d="M586.1,120.2c-.2,0-.3,0-.4-.1,0,0-.1-.2-.1-.4s0-.3.1-.4c0,0,.2-.1.4-.1s.3,0,.4.1c0,0,.1.2.1.4s0,.3-.1.4c0,0-.2.1-.4.1ZM585.7,126.1v-4.8h.8v4.8h-.8Z" fill="#fff"/>
          <path d="M587.9,121.9v-.5h3.1v.5h-3.1ZM590.1,126.2c-.3,0-.5,0-.7-.2s-.4-.3-.5-.5-.2-.5-.2-.8v-4.9h.8v4.9c0,.5.2.7.7.7s.3,0,.4,0c.1,0,.3,0,.4-.1v.6c0,0-.2.1-.4.2-.2,0-.3,0-.5,0Z" fill="#fff"/>
          <path d="M594.1,126.2c-.4,0-.8-.1-1.1-.3s-.6-.5-.8-.9c-.2-.4-.3-.8-.3-1.3s0-1,.3-1.4.4-.7.8-.9c.3-.2.7-.3,1.1-.3s.7,0,.9.2c.3.1.5.3.6.6.2.3.3.5.3.9,0,.3,0,.6,0,1h-3.5v-.5h3l-.2.2c0-.2,0-.4,0-.6,0-.2,0-.4-.2-.5,0-.2-.2-.3-.4-.4-.2-.1-.4-.2-.6-.2s-.6,0-.8.2c-.2.2-.4.4-.5.6-.1.3-.2.5-.2.8v.3c0,.3,0,.6.2.9.1.3.3.5.5.6.2.2.5.2.8.2s.6,0,.8-.2c.2-.2.3-.4.4-.7h.8c0,.3-.2.6-.3.8-.2.2-.4.4-.7.5s-.6.2-.9.2Z" fill="#fff"/>
          <path d="M597.6,126.1v-4.8h.8v4.8h-.8ZM598.1,123.9c0-.6,0-1.1.2-1.5.1-.4.3-.7.5-.9.2-.2.5-.3.8-.3s.2,0,.3,0c0,0,.2,0,.3,0v.8c-.1,0-.2,0-.4,0-.1,0-.2,0-.3,0-.3,0-.5,0-.7.2-.2.2-.3.4-.4.7,0,.3-.1.6-.1,1h-.2Z" fill="#fff"/>
          <path d="M601.6,120.2c-.2,0-.3,0-.4-.1,0,0-.1-.2-.1-.4s0-.3.1-.4c0,0,.2-.1.4-.1s.3,0,.4.1c0,0,.1.2.1.4s0,.3-.1.4c0,0-.2.1-.4.1ZM601.3,126.1v-4.8h.8v4.8h-.8Z" fill="#fff"/>
          <path d="M605.5,126.2c-.4,0-.7,0-1-.2-.3-.1-.5-.3-.6-.5-.1-.2-.2-.5-.2-.7s0-.6.2-.8c.2-.2.4-.4.7-.5.3,0,.6-.1,1-.1s.5,0,.8,0c.3,0,.5.1.7.2v.5c-.2,0-.4-.1-.7-.2-.3,0-.5,0-.7,0-.3,0-.6,0-.8.2-.2.1-.3.4-.3.7s0,.4.3.6c.2.2.4.3.8.3s.5,0,.7-.2c.2-.1.4-.3.5-.5.1-.2.2-.4.2-.6h.2c0,.3,0,.6-.2.9-.1.3-.3.5-.6.7-.3.2-.6.3-.9.3ZM607.2,126.1v-1.1c-.1,0-.1-2.1-.1-2.1,0-.4,0-.7-.3-.9s-.5-.3-.8-.3-.4,0-.6,0c-.2,0-.3.2-.4.3,0,.1-.1.3-.1.5h-.9c0-.3,0-.6.3-.8.2-.2.4-.4.7-.5.3,0,.6-.1,1-.1s.7,0,1,.2c.3.1.5.3.7.6.2.3.2.6.2,1.1v3.1h-.7Z" fill="#fff"/>
        </g>
        <path d="M529.3,118.6h2.4c.8,0,1.5.2,2.2.5.6.3,1.1.8,1.4,1.4.3.6.5,1.3.5,2.2s-.2,1.5-.5,2.2c-.3.6-.8,1.1-1.4,1.4-.6.3-1.3.5-2.2.5h-2.4v-8.2ZM530.3,119.5v6.4h1.4c.6,0,1.2-.1,1.6-.4s.8-.7,1-1.1c.2-.5.4-1,.4-1.6s-.1-1.2-.4-1.7c-.2-.5-.6-.9-1-1.1-.4-.3-1-.4-1.6-.4h-1.4Z" fill="#fff"/>
      </g>
    </g>
    <g>
      <g>
        <path d="M3.7,42.9h.7v4.2h1.1v.7h-1.1v1.5h-.8v-1.5H.4v-.6l3.3-4.3ZM3.7,44.1l-2.4,3h2.4v-3Z" fill="#fff"/>
        <path d="M8.6,49.4c-.4,0-.8,0-1.1-.2-.3-.1-.6-.4-.8-.6-.2-.3-.3-.6-.3-1h.8c0,.4.1.7.4.9.3.2.6.3,1,.3s.8-.1,1.1-.4c.3-.3.4-.6.4-1,0-.8-.5-1.2-1.6-1.2h-1.7l.3-3.1h3.5v.7h-2.9l.2-.3-.2,2.2h-.1c.2-.1.3-.2.5-.2.2,0,.4,0,.5,0,.7,0,1.2.2,1.6.5s.6.8.6,1.4,0,.8-.3,1.1c-.2.3-.4.6-.8.8-.3.2-.7.3-1.2.3Z" fill="#fff"/>
      </g>
      <g>
        <path d="M3.4,64.7h.7v4.2h1.1v.7h-1.1v1.5h-.8v-1.5H0v-.6l3.3-4.3ZM3.4,66l-2.4,3h2.4v-3Z" fill="#fff"/>
        <path d="M8.4,71.3c-.5,0-.9-.1-1.3-.4-.4-.2-.7-.6-.9-1.1-.2-.5-.3-1.1-.3-1.8s.1-1.3.3-1.8c.2-.5.5-.8.9-1.1.4-.2.8-.4,1.3-.4s.9.1,1.3.4.7.6.9,1.1c.2.5.3,1.1.3,1.8s-.1,1.3-.3,1.8-.5.9-.9,1.1c-.4.2-.8.4-1.3.4ZM8.4,70.5c.5,0,1-.2,1.2-.7.3-.4.4-1.1.4-1.9s-.1-1.4-.4-1.9c-.3-.4-.7-.7-1.2-.7s-.9.2-1.2.7-.4,1.1-.4,1.9.1,1.4.4,1.9c.3.4.7.7,1.2.7Z" fill="#fff"/>
      </g>
      <g>
        <path d="M2.8,93.1c-.3,0-.6,0-.9-.1s-.6-.2-.8-.4c-.2-.2-.4-.4-.6-.6s-.2-.6-.2-.9h.8c0,.3,0,.5.2.7.1.2.3.3.6.4.2.1.5.2.8.2.5,0,.8-.1,1.1-.3.3-.2.4-.5.4-.9s0-.4-.2-.6c-.1-.2-.3-.3-.5-.4-.2,0-.5-.1-.9-.1h-.7v-.6h.5c.5,0,.9,0,1.2-.3.3-.2.4-.5.4-.8s-.1-.6-.3-.8-.6-.3-1-.3-.6,0-.9.2c-.3.1-.4.4-.5.7h-.8c0-.4.2-.7.4-1,.2-.2.5-.4.8-.5.3-.1.7-.2,1-.2s.8,0,1.1.2c.3.1.6.4.8.6.2.3.3.6.3.9s0,.6-.3.9c-.2.2-.5.4-.8.5.4.1.7.3,1,.6.3.3.4.6.4,1s0,.7-.3,1c-.2.3-.5.5-.8.7-.3.2-.8.2-1.2.2Z" fill="#fff"/>
        <path d="M8.6,93.1c-.4,0-.8,0-1.1-.2-.3-.1-.6-.4-.8-.6-.2-.3-.3-.6-.3-1h.8c0,.4.1.7.4.9.3.2.6.3,1,.3s.8-.1,1.1-.4c.3-.3.4-.6.4-1,0-.8-.5-1.2-1.6-1.2h-1.7l.3-3.1h3.5v.7h-2.9l.2-.3-.2,2.2h-.1c.2-.1.3-.2.5-.2.2,0,.4,0,.5,0,.7,0,1.2.2,1.6.5s.6.8.6,1.4,0,.8-.3,1.1c-.2.3-.4.6-.8.8-.3.2-.7.3-1.2.3Z" fill="#fff"/>
      </g>
      <g>
        <path d="M2.5,114.9c-.3,0-.6,0-.9-.1s-.6-.2-.8-.4c-.2-.2-.4-.4-.6-.6s-.2-.6-.2-.9h.8c0,.3,0,.5.2.7.1.2.3.3.6.4.2.1.5.2.8.2.5,0,.8-.1,1.1-.3.3-.2.4-.5.4-.9s0-.4-.2-.6c-.1-.2-.3-.3-.5-.4-.2,0-.5-.1-.9-.1h-.7v-.6h.5c.5,0,.9,0,1.2-.3.3-.2.4-.5.4-.8s-.1-.6-.3-.8-.6-.3-1-.3-.6,0-.9.2c-.3.1-.4.4-.5.7H.2c0-.4.2-.7.4-1,.2-.2.5-.4.8-.5.3-.1.7-.2,1-.2s.8,0,1.1.2c.3.1.6.4.8.6.2.3.3.6.3.9s0,.6-.3.9c-.2.2-.5.4-.8.5.4.1.7.3,1,.6.3.3.4.6.4,1s0,.7-.3,1c-.2.3-.5.5-.8.7-.3.2-.8.2-1.2.2Z" fill="#fff"/>
        <path d="M8.4,114.9c-.5,0-.9-.1-1.3-.4-.4-.2-.7-.6-.9-1.1-.2-.5-.3-1.1-.3-1.8s.1-1.3.3-1.8c.2-.5.5-.8.9-1.1.4-.2.8-.4,1.3-.4s.9.1,1.3.4.7.6.9,1.1c.2.5.3,1.1.3,1.8s-.1,1.3-.3,1.8-.5.9-.9,1.1c-.4.2-.8.4-1.3.4ZM8.4,114.2c.5,0,1-.2,1.2-.7.3-.4.4-1.1.4-1.9s-.1-1.4-.4-1.9c-.3-.4-.7-.7-1.2-.7s-.9.2-1.2.7-.4,1.1-.4,1.9.1,1.4.4,1.9c.3.4.7.7,1.2.7Z" fill="#fff"/>
      </g>
      <g>
        <path d="M.6,136.6v-.9c0-.4,0-.7.2-.9.1-.2.3-.4.5-.6.2-.2.5-.3.8-.4l1.2-.5c.3-.1.6-.3.7-.5.2-.2.2-.5.2-.8s-.1-.6-.3-.8c-.2-.2-.5-.3-.9-.3s-.7,0-1,.3c-.3.2-.4.4-.4.8h-.9c0-.4.1-.7.3-.9.2-.3.5-.4.8-.6.3-.1.7-.2,1.2-.2s.8,0,1.1.2c.3.2.6.4.8.7.2.3.3.6.3,1s0,.6-.2.9c-.1.2-.3.4-.5.6s-.5.3-.8.4l-1.3.5c-.3.1-.6.3-.7.4s-.2.4-.2.7v.3h3.7v.7H.6Z" fill="#fff"/>
        <path d="M8.6,136.8c-.4,0-.8,0-1.1-.2-.3-.1-.6-.4-.8-.6-.2-.3-.3-.6-.3-1h.8c0,.4.1.7.4.9.3.2.6.3,1,.3s.8-.1,1.1-.4c.3-.3.4-.6.4-1,0-.8-.5-1.2-1.6-1.2h-1.7l.3-3.1h3.5v.7h-2.9l.2-.3-.2,2.2h-.1c.2-.1.3-.2.5-.2.2,0,.4,0,.5,0,.7,0,1.2.2,1.6.5s.6.8.6,1.4,0,.8-.3,1.1c-.2.3-.4.6-.8.8-.3.2-.7.3-1.2.3Z" fill="#fff"/>
      </g>
      <g>
        <path d="M.2,158.5v-.9c0-.4,0-.7.2-.9.1-.2.3-.4.5-.6.2-.2.5-.3.8-.4l1.2-.5c.3-.1.6-.3.7-.5.2-.2.2-.5.2-.8s-.1-.6-.3-.8c-.2-.2-.5-.3-.9-.3s-.7,0-1,.3c-.3.2-.4.4-.4.8H.3c0-.4.1-.7.3-.9.2-.3.5-.4.8-.6.3-.1.7-.2,1.2-.2s.8,0,1.1.2c.3.2.6.4.8.7.2.3.3.6.3,1s0,.6-.2.9c-.1.2-.3.4-.5.6s-.5.3-.8.4l-1.3.5c-.3.1-.6.3-.7.4s-.2.4-.2.7v.3h3.7v.7H.2Z" fill="#fff"/>
        <path d="M8.4,158.6c-.5,0-.9-.1-1.3-.4-.4-.2-.7-.6-.9-1.1-.2-.5-.3-1.1-.3-1.8s.1-1.3.3-1.8c.2-.5.5-.8.9-1.1.4-.2.8-.4,1.3-.4s.9.1,1.3.4.7.6.9,1.1c.2.5.3,1.1.3,1.8s-.1,1.3-.3,1.8-.5.9-.9,1.1c-.4.2-.8.4-1.3.4ZM8.4,157.9c.5,0,1-.2,1.2-.7.3-.4.4-1.1.4-1.9s-.1-1.4-.4-1.9c-.3-.4-.7-.7-1.2-.7s-.9.2-1.2.7-.4,1.1-.4,1.9.1,1.4.4,1.9c.3.4.7.7,1.2.7Z" fill="#fff"/>
      </g>
      <g>
        <path d="M4.1,174h.6v6.3h-.8v-5.4c-.2.1-.3.2-.5.3s-.4,0-.5,0v-.8c.2,0,.4,0,.6-.2.2,0,.4-.2.6-.3Z" fill="#fff"/>
        <path d="M8.6,180.4c-.4,0-.8,0-1.1-.2-.3-.1-.6-.4-.8-.6-.2-.3-.3-.6-.3-1h.8c0,.4.1.7.4.9.3.2.6.3,1,.3s.8-.1,1.1-.4c.3-.3.4-.6.4-1,0-.8-.5-1.2-1.6-1.2h-1.7l.3-3.1h3.5v.7h-2.9l.2-.3-.2,2.2h-.1c.2-.1.3-.2.5-.2.2,0,.4,0,.5,0,.7,0,1.2.2,1.6.5s.6.8.6,1.4,0,.8-.3,1.1c-.2.3-.4.6-.8.8-.3.2-.7.3-1.2.3Z" fill="#fff"/>
      </g>
      <g>
        <path d="M3.8,195.8h.6v6.3h-.8v-5.4c-.2.1-.3.2-.5.3s-.4,0-.5,0v-.8c.2,0,.4,0,.6-.2.2,0,.4-.2.6-.3Z" fill="#fff"/>
        <path d="M8.4,202.3c-.5,0-.9-.1-1.3-.4-.4-.2-.7-.6-.9-1.1-.2-.5-.3-1.1-.3-1.8s.1-1.3.3-1.8c.2-.5.5-.8.9-1.1.4-.2.8-.4,1.3-.4s.9.1,1.3.4c.4.2.7.6.9,1.1.2.5.3,1.1.3,1.8s-.1,1.3-.3,1.8-.5.9-.9,1.1-.8.4-1.3.4ZM8.4,201.5c.5,0,1-.2,1.2-.7.3-.4.4-1.1.4-1.9s-.1-1.4-.4-1.9c-.3-.4-.7-.7-1.2-.7s-.9.2-1.2.7-.4,1.1-.4,1.9.1,1.4.4,1.9c.3.4.7.7,1.2.7Z" fill="#fff"/>
      </g>
      <path d="M8.6,224.1c-.4,0-.8,0-1.1-.2-.3-.1-.6-.4-.8-.6-.2-.3-.3-.6-.3-1h.8c0,.4.1.7.4.9.3.2.6.3,1,.3s.8-.1,1.1-.4c.3-.3.4-.6.4-1,0-.8-.5-1.2-1.6-1.2h-1.7l.3-3.1h3.5v.7h-2.9l.2-.3-.2,2.2h-.1c.2-.1.3-.2.5-.2.2,0,.4,0,.5,0,.7,0,1.2.2,1.6.5s.6.8.6,1.4,0,.8-.3,1.1c-.2.3-.4.6-.8.8-.3.2-.7.3-1.2.3Z" fill="#fff"/>
      <path d="M8.4,245.9c-.5,0-.9-.1-1.3-.4-.4-.2-.7-.6-.9-1.1-.2-.5-.3-1.1-.3-1.8s.1-1.3.3-1.8c.2-.5.5-.8.9-1.1.4-.2.8-.4,1.3-.4s.9.1,1.3.4.7.6.9,1.1c.2.5.3,1.1.3,1.8s-.1,1.3-.3,1.8-.5.9-.9,1.1c-.4.2-.8.4-1.3.4ZM8.4,245.2c.5,0,1-.2,1.2-.7.3-.4.4-1.1.4-1.9s-.1-1.4-.4-1.9c-.3-.4-.7-.7-1.2-.7s-.9.2-1.2.7-.4,1.1-.4,1.9.1,1.4.4,1.9c.3.4.7.7,1.2.7Z" fill="#fff"/>
    </g>
    <g>
      <path d="M195.8,10.7c-.3,0-.5,0-.7-.3s-.2-.4-.2-.7V1.2c0-.3,0-.6.3-.7.2-.2.4-.2.7-.2h3.6c1.1,0,2,.3,2.6.8.6.5.9,1.3.9,2.3s-.1,1.2-.4,1.7c-.3.5-.7.8-1.2,1.1s-1.2.4-1.9.4v-.2h.6c.4,0,.8,0,1.1.3.3.2.6.5.8.9l1.1,2c.1.2.2.4.2.6s0,.4-.2.5c-.1.1-.3.2-.6.2s-.5,0-.6-.2c-.2-.1-.3-.3-.4-.5l-1.5-2.7c-.2-.3-.4-.6-.6-.7-.2-.1-.5-.2-.9-.2h-1.4v3.3c0,.3,0,.5-.2.7s-.4.3-.7.3ZM196.7,5.1h2.3c.7,0,1.2-.1,1.5-.4.3-.3.5-.7.5-1.3s-.2-1-.5-1.2-.9-.4-1.5-.4h-2.3v3.3Z" fill="#fff"/>
      <path d="M208.3,10.8c-.8,0-1.5-.2-2.1-.5-.6-.3-1-.7-1.4-1.3-.3-.6-.5-1.2-.5-2s.2-1.4.5-2c.3-.6.7-1,1.3-1.3.5-.3,1.2-.5,1.9-.5s1,0,1.4.2c.4.2.8.4,1,.7.3.3.5.7.7,1.1.2.4.2,1,.2,1.5s0,.3-.2.4c-.1,0-.3.1-.5.1h-4.7v-1.1h4.1l-.2.2c0-.5,0-.8-.2-1.1s-.3-.5-.6-.7c-.3-.2-.6-.2-.9-.2s-.8,0-1.1.3c-.3.2-.5.5-.7.8s-.2.8-.2,1.2h0c0,.9.2,1.5.6,1.9.4.4.9.6,1.7.6s.5,0,.9,0c.3,0,.6-.2.9-.3.2-.1.4-.2.5-.2.2,0,.3,0,.4.2,0,0,.2.2.2.4s0,.3,0,.4c0,.1-.2.3-.4.4-.3.2-.7.4-1.2.5-.4.1-.9.2-1.2.2Z" fill="#fff"/>
      <path d="M215.2,10.8c-.5,0-1-.1-1.4-.3-.4-.2-.7-.5-1-.8-.2-.3-.3-.7-.3-1.2s.1-1,.4-1.3c.3-.3.7-.5,1.3-.7s1.4-.2,2.5-.2h.7v1.1h-.7c-.6,0-1.1,0-1.5,0-.4,0-.6.2-.8.3s-.2.3-.2.6.1.6.3.8c.2.2.5.3.9.3s.6,0,.9-.2c.2-.2.4-.4.6-.6s.2-.6.2-.9v-1.7c0-.5-.1-.8-.3-1.1s-.6-.3-1.1-.3-.6,0-.9.1-.7.2-1,.4c-.2,0-.4.1-.5,0-.1,0-.3-.1-.3-.2,0-.1-.1-.3-.1-.4s0-.3.1-.4c0-.1.2-.2.4-.3.5-.2.9-.3,1.3-.4.4,0,.8-.1,1.1-.1.7,0,1.3.1,1.7.3.5.2.8.5,1,1,.2.4.3,1,.3,1.7v3.5c0,.3,0,.5-.2.7s-.4.2-.6.2-.5,0-.6-.2c-.2-.2-.2-.4-.2-.7v-.7h.1c0,.3-.2.6-.4.9-.2.2-.5.4-.8.6s-.7.2-1,.2Z" fill="#fff"/>
      <path d="M223.5,10.8c-.4,0-.9,0-1.3-.1-.5,0-.9-.2-1.3-.5-.2,0-.3-.2-.3-.3,0-.1,0-.3,0-.4,0-.1,0-.2.1-.3,0,0,.2-.2.3-.2.1,0,.3,0,.4,0,.4.2.8.3,1.1.4.3,0,.7.1,1,.1s.8,0,1.1-.2c.2-.2.3-.4.3-.6s0-.4-.2-.5-.4-.2-.7-.3l-1.5-.3c-.6-.1-1.1-.3-1.4-.7s-.5-.8-.5-1.3.1-.9.4-1.2c.3-.3.6-.6,1.1-.8.5-.2,1-.3,1.6-.3s.8,0,1.2.1c.4,0,.7.2,1.1.4.1,0,.2.2.3.3,0,.1,0,.3,0,.4s0,.3-.2.4c0,.1-.2.2-.3.2-.1,0-.3,0-.5,0-.3-.2-.6-.3-.9-.3-.3,0-.5-.1-.8-.1-.5,0-.8,0-1.1.2-.2.2-.3.4-.3.7s0,.4.2.5.3.2.6.3l1.5.3c.6.1,1.1.3,1.5.6s.5.7.5,1.3-.3,1.3-.8,1.7c-.6.4-1.3.6-2.2.6Z" fill="#fff"/>
      <path d="M231.3,10.8c-.7,0-1.4-.2-1.9-.5-.5-.3-1-.7-1.3-1.3-.3-.6-.5-1.2-.5-2s0-1.1.3-1.6c.2-.5.4-.8.7-1.2.3-.3.7-.6,1.2-.8s1-.3,1.5-.3,1.4.2,1.9.5c.6.3,1,.7,1.3,1.3.3.6.5,1.2.5,2s0,1.1-.3,1.6-.4.9-.7,1.2c-.3.3-.7.6-1.2.8-.5.2-1,.3-1.5.3ZM231.3,9.4c.4,0,.7,0,1-.3.3-.2.5-.4.6-.8.2-.3.2-.8.2-1.3,0-.8-.2-1.4-.5-1.8-.3-.4-.8-.6-1.3-.6s-.7,0-1,.3c-.3.2-.5.4-.6.8s-.2.8-.2,1.3c0,.8.2,1.4.5,1.8.3.4.8.6,1.3.6Z" fill="#fff"/>
      <path d="M237.4,10.7c-.3,0-.5,0-.7-.2s-.2-.4-.2-.7v-5.6c0-.3,0-.5.2-.7s.4-.2.7-.2.5,0,.7.2c.2.2.2.4.2.7v1l-.2-.4c.2-.5.6-.9,1-1.2.5-.3,1-.4,1.6-.4s1.1.1,1.4.3c.4.2.7.5.8,1,.2.4.3,1,.3,1.7v3.6c0,.3,0,.5-.2.7s-.4.2-.7.2-.5,0-.7-.2-.2-.4-.2-.7v-3.5c0-.6-.1-1-.3-1.2-.2-.3-.5-.4-1-.4s-1,.2-1.3.5-.5.8-.5,1.3v3.2c0,.6-.3.9-.9.9Z" fill="#fff"/>
      <path d="M252.4,10.8c-.7,0-1.4-.2-1.9-.5-.5-.3-1-.7-1.3-1.3-.3-.6-.5-1.2-.5-2s0-1.1.3-1.6c.2-.5.4-.8.7-1.2.3-.3.7-.6,1.2-.8s1-.3,1.5-.3,1.4.2,1.9.5c.6.3,1,.7,1.3,1.3.3.6.5,1.2.5,2s0,1.1-.3,1.6-.4.9-.7,1.2c-.3.3-.7.6-1.2.8-.5.2-1,.3-1.5.3ZM252.4,9.4c.4,0,.7,0,1-.3.3-.2.5-.4.6-.8.2-.3.2-.8.2-1.3,0-.8-.2-1.4-.5-1.8-.3-.4-.8-.6-1.3-.6s-.7,0-1,.3c-.3.2-.5.4-.6.8s-.2.8-.2,1.3c0,.8.2,1.4.5,1.8.3.4.8.6,1.3.6Z" fill="#fff"/>
      <path d="M259,10.7c-.3,0-.5,0-.7-.2s-.2-.4-.2-.7v-5h-.7c-.2,0-.4,0-.5-.2-.1-.1-.2-.3-.2-.5s0-.4.2-.5c.1-.1.3-.2.5-.2h1.2l-.5.5v-.5c0-1,.3-1.8.8-2.3.5-.5,1.2-.8,2.2-.9h.5c.2,0,.4,0,.5,0,.1,0,.2.2.2.3,0,.1,0,.3,0,.4s0,.3-.2.4c0,.1-.2.2-.4.2h-.2c-.6,0-1,.2-1.2.4-.3.2-.4.6-.4,1.1v.5l-.2-.2h1.5c.2,0,.4,0,.5.2.1.1.2.3.2.5s0,.4-.2.5c-.1.1-.3.2-.5.2h-1.3v5c0,.6-.3.9-.9.9Z" fill="#fff"/>
      <path d="M269.8,10.8c-.6,0-1.2-.2-1.7-.5-.5-.3-.8-.7-1.1-1.3-.3-.6-.4-1.2-.4-2s.1-1.4.4-2,.6-1,1.1-1.3c.5-.3,1-.5,1.7-.5s1.1.1,1.6.4.7.7.9,1.2h-.2V1c0-.3,0-.5.2-.7.2-.2.4-.2.7-.2s.5,0,.7.2c.2.2.2.4.2.7v8.8c0,.3,0,.5-.2.7s-.4.2-.7.2-.5,0-.7-.2-.2-.4-.2-.7v-1.1l.2.4c-.1.5-.4.9-.9,1.2-.5.3-1,.5-1.6.5ZM270.3,9.4c.4,0,.7,0,1-.3.3-.2.5-.4.6-.8.2-.3.2-.8.2-1.3,0-.8-.2-1.4-.5-1.8-.3-.4-.8-.6-1.3-.6s-.7,0-1,.3c-.3.2-.5.4-.6.8s-.2.8-.2,1.3c0,.8.2,1.4.5,1.8.3.4.8.6,1.3.6Z" fill="#fff"/>
      <path d="M276.7,1.9c-.3,0-.6,0-.8-.3s-.3-.4-.3-.7,0-.6.3-.7.5-.3.8-.3.6,0,.8.3c.2.2.3.4.3.7s0,.5-.3.7c-.2.2-.5.3-.8.3ZM276.7,10.7c-.3,0-.5,0-.7-.3s-.2-.4-.2-.7v-5.4c0-.3,0-.6.2-.7s.4-.3.7-.3.5,0,.7.3.2.4.2.7v5.4c0,.3,0,.6-.2.7s-.4.3-.7.3Z" fill="#fff"/>
      <path d="M282.2,10.8c-.4,0-.9,0-1.3-.1-.5,0-.9-.2-1.3-.5-.2,0-.3-.2-.3-.3,0-.1,0-.3,0-.4,0-.1,0-.2.1-.3,0,0,.2-.2.3-.2.1,0,.3,0,.4,0,.4.2.8.3,1.1.4.3,0,.7.1,1,.1s.8,0,1.1-.2c.2-.2.3-.4.3-.6s0-.4-.2-.5-.4-.2-.7-.3l-1.5-.3c-.6-.1-1.1-.3-1.4-.7s-.5-.8-.5-1.3.1-.9.4-1.2c.3-.3.6-.6,1.1-.8.5-.2,1-.3,1.6-.3s.8,0,1.2.1c.4,0,.7.2,1.1.4.1,0,.2.2.3.3,0,.1,0,.3,0,.4s0,.3-.2.4c0,.1-.2.2-.3.2-.1,0-.3,0-.5,0-.3-.2-.6-.3-.9-.3-.3,0-.5-.1-.8-.1-.5,0-.8,0-1.1.2-.2.2-.3.4-.3.7s0,.4.2.5.3.2.6.3l1.5.3c.6.1,1.1.3,1.5.6s.5.7.5,1.3-.3,1.3-.8,1.7c-.6.4-1.3.6-2.2.6Z" fill="#fff"/>
      <path d="M290.1,10.8c-.8,0-1.4-.2-2-.5-.6-.3-1-.7-1.3-1.3-.3-.6-.5-1.2-.5-2s0-1.1.3-1.6c.2-.5.4-.8.7-1.2s.7-.6,1.2-.7,1-.3,1.5-.3.7,0,1.1.1c.4,0,.7.2,1.1.4.2,0,.3.2.3.4,0,.1,0,.3,0,.4,0,.1,0,.3-.2.4,0,.1-.2.2-.3.2-.1,0-.3,0-.5,0-.2-.1-.4-.2-.7-.3-.2,0-.4,0-.6,0-.3,0-.6,0-.9.2-.2.1-.5.2-.6.4-.2.2-.3.4-.4.7s-.1.6-.1,1c0,.7.2,1.3.5,1.7s.8.6,1.5.6.4,0,.6,0c.2,0,.4-.2.7-.3.2,0,.3-.1.4,0,.1,0,.2,0,.3.2,0,.1.1.2.2.4,0,.1,0,.3,0,.4,0,.1-.2.2-.3.3-.3.2-.7.3-1,.4-.4,0-.7.1-1,.1Z" fill="#fff"/>
      <path d="M296.3,10.8c-.6,0-1.1-.1-1.5-.3-.4-.2-.7-.6-.9-1s-.3-1-.3-1.7v-3.6c0-.3,0-.5.2-.7s.4-.2.7-.2.5,0,.7.2.2.4.2.7v3.6c0,.5.1.9.3,1.1.2.2.5.4,1,.4s.9-.2,1.2-.5c.3-.3.5-.8.5-1.3v-3.2c0-.3,0-.5.2-.7s.4-.2.7-.2.5,0,.7.2.2.4.2.7v5.6c0,.6-.3.9-.9.9s-.5,0-.7-.2-.2-.4-.2-.7v-1.1l.2.4c-.2.5-.5.9-.9,1.2-.4.3-.9.4-1.5.4Z" fill="#fff"/>
      <path d="M304.9,10.8c-.4,0-.9,0-1.3-.1-.5,0-.9-.2-1.3-.5-.2,0-.3-.2-.3-.3,0-.1,0-.3,0-.4,0-.1,0-.2.1-.3,0,0,.2-.2.3-.2.1,0,.3,0,.4,0,.4.2.8.3,1.1.4.3,0,.7.1,1,.1s.8,0,1.1-.2c.2-.2.3-.4.3-.6s0-.4-.2-.5-.4-.2-.7-.3l-1.5-.3c-.6-.1-1.1-.3-1.4-.7s-.5-.8-.5-1.3.1-.9.4-1.2c.3-.3.6-.6,1.1-.8.5-.2,1-.3,1.6-.3s.8,0,1.2.1c.4,0,.7.2,1.1.4.1,0,.2.2.3.3,0,.1,0,.3,0,.4s0,.3-.2.4c0,.1-.2.2-.3.2-.1,0-.3,0-.5,0-.3-.2-.6-.3-.9-.3-.3,0-.5-.1-.8-.1-.5,0-.8,0-1.1.2-.2.2-.3.4-.3.7s0,.4.2.5.3.2.6.3l1.5.3c.6.1,1.1.3,1.5.6s.5.7.5,1.3-.3,1.3-.8,1.7c-.6.4-1.3.6-2.2.6Z" fill="#fff"/>
      <path d="M312.1,10.8c-.4,0-.9,0-1.3-.1-.5,0-.9-.2-1.3-.5-.2,0-.3-.2-.3-.3,0-.1,0-.3,0-.4,0-.1,0-.2.1-.3,0,0,.2-.2.3-.2.1,0,.3,0,.4,0,.4.2.8.3,1.1.4.3,0,.7.1,1,.1s.8,0,1.1-.2c.2-.2.3-.4.3-.6s0-.4-.2-.5-.4-.2-.7-.3l-1.5-.3c-.6-.1-1.1-.3-1.4-.7s-.5-.8-.5-1.3.1-.9.4-1.2c.3-.3.6-.6,1.1-.8.5-.2,1-.3,1.6-.3s.8,0,1.2.1c.4,0,.7.2,1.1.4.1,0,.2.2.3.3,0,.1,0,.3,0,.4s0,.3-.2.4c0,.1-.2.2-.3.2-.1,0-.3,0-.5,0-.3-.2-.6-.3-.9-.3-.3,0-.5-.1-.8-.1-.5,0-.8,0-1.1.2-.2.2-.3.4-.3.7s0,.4.2.5.3.2.6.3l1.5.3c.6.1,1.1.3,1.5.6s.5.7.5,1.3-.3,1.3-.8,1.7c-.6.4-1.3.6-2.2.6Z" fill="#fff"/>
      <path d="M317.6,1.9c-.3,0-.6,0-.8-.3s-.3-.4-.3-.7,0-.6.3-.7.5-.3.8-.3.6,0,.8.3c.2.2.3.4.3.7s0,.5-.3.7c-.2.2-.5.3-.8.3ZM317.6,10.7c-.3,0-.5,0-.7-.3s-.2-.4-.2-.7v-5.4c0-.3,0-.6.2-.7s.4-.3.7-.3.5,0,.7.3.2.4.2.7v5.4c0,.3,0,.6-.2.7s-.4.3-.7.3Z" fill="#fff"/>
      <path d="M323.7,10.8c-.7,0-1.4-.2-1.9-.5-.5-.3-1-.7-1.3-1.3-.3-.6-.5-1.2-.5-2s0-1.1.3-1.6c.2-.5.4-.8.7-1.2.3-.3.7-.6,1.2-.8s1-.3,1.5-.3,1.4.2,1.9.5c.6.3,1,.7,1.3,1.3.3.6.5,1.2.5,2s0,1.1-.3,1.6-.4.9-.7,1.2c-.3.3-.7.6-1.2.8-.5.2-1,.3-1.5.3ZM323.7,9.4c.4,0,.7,0,1-.3.3-.2.5-.4.6-.8.2-.3.2-.8.2-1.3,0-.8-.2-1.4-.5-1.8-.3-.4-.8-.6-1.3-.6s-.7,0-1,.3c-.3.2-.5.4-.6.8s-.2.8-.2,1.3c0,.8.2,1.4.5,1.8.3.4.8.6,1.3.6Z" fill="#fff"/>
      <path d="M329.8,10.7c-.3,0-.5,0-.7-.2s-.2-.4-.2-.7v-5.6c0-.3,0-.5.2-.7s.4-.2.7-.2.5,0,.7.2c.2.2.2.4.2.7v1l-.2-.4c.2-.5.6-.9,1-1.2.5-.3,1-.4,1.6-.4s1.1.1,1.4.3c.4.2.7.5.8,1,.2.4.3,1,.3,1.7v3.6c0,.3,0,.5-.2.7s-.4.2-.7.2-.5,0-.7-.2-.2-.4-.2-.7v-3.5c0-.6-.1-1-.3-1.2-.2-.3-.5-.4-1-.4s-1,.2-1.3.5-.5.8-.5,1.3v3.2c0,.6-.3.9-.9.9Z" fill="#fff"/>
    </g>
  </g>
</svg>